<svg xmlns="http://www.w3.org/2000/svg" width="128" height="128" viewBox="0 0 128 128">
  <title>BARCODE</title>
  <g>
    <polygon points="68.592 44.487 59.408 44.487 59.408 64 44.487 64 44.487 73.184 68.592 73.184 68.592 44.487" fill="#50758d"/>
    <rect x="78.921" y="64" width="9.184" height="9.184" fill="#50758d"/>
    <rect x="59.408" y="6.307" width="9.184" height="9.184" fill="#50758d"/>
    <rect x="59.408" y="112.509" width="9.184" height="9.184" fill="#50758d"/>
    <path d="M83.513,6.307v38.18h19.812V64h9.184V44.487h9.184V6.307Zm29,29H92.7V15.491h19.812Z" fill="#50758d"/>
    <path d="M83.513,83.513V92.7H64v9.183H83.513v19.813h38.18V83.513Zm29,29H92.7V92.7h19.812Z" fill="#50758d"/>
    <path d="M24.674,83.513V64H15.491V83.513H6.307v38.18h38.18V83.513Zm10.629,29H15.491V92.7H35.3Z" fill="#50758d"/>
    <path d="M44.487,26.12V6.307H6.307v38.18h38.18V35.3H64V26.12ZM35.3,35.3H15.491V15.491H35.3Z" fill="#50758d"/>
  </g>
</svg>
