<svg xmlns="http://www.w3.org/2000/svg" width="128" height="128" viewBox="0 0 128 128">
  <title>CARGO SHIP</title>
  <g>
    <rect x="45.18" y="52.288" width="50.631" height="10.079" fill="#fd646f"/>
    <rect x="68.75" y="52.29" width="3.5" height="10.08" fill="#fc4755"/>
    <rect x="57.837" y="32.13" width="25.315" height="10.079" fill="#fd646f"/>
    <rect x="45.18" y="42.209" width="50.631" height="10.079" fill="#fad207"/>
    <rect x="68.75" y="42.21" width="3.5" height="10.08" fill="#f9ae16"/>
    <rect x="14.549" y="32.13" width="14.129" height="30.238" fill="#bee8f4"/>
    <path d="M6.307,62.368H73.7a13,13,0,0,0,9.815-4.476l4.866-5.6h33.316l-6.611,13.947S99.717,73.39,91.3,88.627H13.313L6.307,72.712Z" fill="#dff6fd"/>
    <path d="M105.07,72.71A54,54,0,0,0,91.29,88.63H13.31l-7-15.92Z" fill="#50758d"/>
    <polygon points="45.18 32.13 6.307 32.13 6.307 21.736 23.493 21.736 45.18 26.933 45.18 32.13" fill="#50758d"/>
    <path d="M89.748,97.594H31.11a1.75,1.75,0,0,1,0-3.5H89.748a1.75,1.75,0,0,1,0,3.5Z" fill="#2edffc"/>
    <path d="M18.645,97.594H6.307a1.75,1.75,0,0,1,0-3.5H18.645a1.75,1.75,0,0,1,0,3.5Z" fill="#2edffc"/>
    <path d="M107.875,97.594h-6.822a1.75,1.75,0,0,1,0-3.5h6.822a1.75,1.75,0,0,1,0,3.5Z" fill="#2edffc"/>
    <path d="M85.363,106.264H60.047a1.75,1.75,0,1,1,0-3.5H85.363a1.75,1.75,0,0,1,0,3.5Z" fill="#2edffc"/>
    <path d="M50.378,106.264H42.637a1.75,1.75,0,0,1,0-3.5h7.741a1.75,1.75,0,0,1,0,3.5Z" fill="#2edffc"/>
    <path d="M121.693,85.127H93.444c-.752,1.117-1.475,2.28-2.149,3.5h30.4a1.75,1.75,0,0,0,0-3.5Z" fill="#2edffc"/>
  </g>
</svg>
