<?xml version="1.0" encoding="utf-8"?>
<!-- Generator: Adobe Illustrator 21.0.0, SVG Export Plug-In . SVG Version: 6.00 Build 0)  -->
<svg version="1.1" id="Layer_1" xmlns="http://www.w3.org/2000/svg" xmlns:xlink="http://www.w3.org/1999/xlink" x="0px" y="0px"
	 viewBox="0 0 256 256" style="enable-background:new 0 0 256 256;" xml:space="preserve">
<style type="text/css">
	.st0{fill:#87D147;}
	.st1{fill:#B2E26D;}
	.st2{fill:#F5C84C;}
	.st3{fill:#FC657E;}
	.st4{fill:#70D6F9;}
	.st5{fill:#5290DB;}
	.st6{fill:#EDF4FC;}
</style>
<g id="Layer_12">
	<g>
		<path class="st0" d="M234.4,56.9l-29.6-17.1l-16.9,63.2h24.5l23.5-40.8C237,60.4,236.3,58,234.4,56.9z"/>
		<path class="st0" d="M187.9,103.1l18.6-69.6c0.6-2.1-0.7-4.3-2.8-4.8l-33.5-9v83.4H187.9z"/>
		<path class="st0" d="M170.3,103.1V19.4c0-2.2-1.8-4-4-4c0,0,0,0,0,0H85.5c-2.2,0-4,1.8-4,4v83.7H170.3z"/>
		<path class="st0" d="M63.9,103.1h17.6V19.7l-33.5,9c-2.1,0.6-3.4,2.7-2.8,4.8c0,0,0,0,0,0L63.9,103.1z"/>
		<path class="st0" d="M39.5,103.1h24.4L47,39.8L17.4,56.9c-1.9,1.1-2.5,3.5-1.4,5.4L39.5,103.1z"/>
		<path class="st1" d="M213.1,44.6l21.3,12.3c1.9,1.1,2.5,3.5,1.4,5.4l0,0l-12.3,21.3C210.6,75.2,206.1,58.4,213.1,44.6z"/>
		<path class="st1" d="M38.7,44.6L17.4,56.9c-1.9,1.1-2.5,3.5-1.4,5.4l12.3,21.3C41.2,75.2,45.8,58.4,38.7,44.6z"/>
		<path class="st1" d="M71.8,22.3l-23.8,6.4c-2.1,0.6-3.4,2.7-2.8,4.8c0,0,0,0,0,0l6.4,23.8C66.4,52.5,75.1,37.4,71.8,22.3z"/>
		<path class="st1" d="M180,22.3l23.8,6.4c2.1,0.6,3.4,2.7,2.8,4.8c0,0,0,0,0,0l-6.4,23.8C185.4,52.5,176.7,37.4,180,22.3z"/>
		<path class="st1" d="M141.7,15.4h24.6c2.2,0,4,1.8,4,4c0,0,0,0,0,0V44C154.8,43.2,142.5,30.8,141.7,15.4z"/>
		<path class="st1" d="M110.1,15.4H85.5c-2.2,0-4,1.8-4,4V44C97,43.2,109.3,30.8,110.1,15.4z"/>
		<path class="st1" d="M151.9,85.4c0-14.3-11.6-25.9-26-25.9c-14.3,0-25.9,11.6-25.9,26c0,6.6,2.5,12.9,7,17.7h37.9
			C149.4,98.3,151.9,91.9,151.9,85.4z"/>
		<path class="st2" d="M245,130.8c-4-0.7-7.1-3.8-7.9-7.8c0-0.1-0.1-0.2-0.2-0.1c-0.1,0-0.1,0.1-0.1,0.1c-0.8,4-4,7.1-8,7.8
			c-0.1,0-0.2,0.1-0.2,0.2c0,0.1,0.1,0.1,0.1,0.2c4,0.7,7.1,3.8,7.9,7.8c0,0.1,0.1,0.2,0.2,0.1c0.1,0,0.1-0.1,0.1-0.1
			c0.8-4,4-7.1,8-7.8c0.1,0,0.2-0.1,0.1-0.2C245.2,130.8,245.1,130.8,245,130.8z"/>
		<path class="st3" d="M13.2,188H11v-2.2c0-1.7-1.3-3-3-3s-3,1.3-3,3v2.2H2.8c-1.7,0-3,1.3-3,3s1.3,3,3,3H5v2.2c0,1.7,1.3,3,3,3
			s3-1.3,3-3V194h2.2c1.7,0,3-1.3,3-3S14.9,188,13.2,188z"/>
		<circle class="st1" cx="252.8" cy="148.2" r="3.2"/>
		<circle class="st2" cx="19.8" cy="213.5" r="3.2"/>
		<circle class="st4" cx="12.8" cy="98.5" r="3.2"/>
		<polygon class="st3" points="50.8,240.6 246.9,240.6 227.3,171.6 31.2,171.6 		"/>
		<polygon class="st5" points="205.2,171.6 9.1,171.6 28.7,103.1 224.8,103.1 		"/>
		<path class="st6" d="M80.8,142.6c-0.5-0.6-1.2-1-2-1h-5.4c-1,0-1.9,0.6-2.3,1.6c-0.8,2.1-2.2,3.9-4,5.1c-2,1.3-4.4,2-6.9,1.9
			c-4.1,0.1-7.8-2.2-9.6-5.9c-1-2.2-1.6-4.6-1.5-7c-0.1-2.5,0.5-4.9,1.5-7.1c1.7-3.7,5.5-6,9.6-5.9c2.4-0.1,4.8,0.6,6.9,1.9
			c1.8,1.3,3.2,3,4,5.1c0.4,0.9,1.3,1.6,2.3,1.6h5.4c1.4,0,2.5-1.1,2.5-2.5c0-0.2,0-0.5-0.1-0.7c-1.2-4.4-3.8-8.3-7.4-11l0,0
			c-3.9-2.8-8.6-4.2-13.5-4.1c-3.9-0.1-7.7,0.9-11.1,2.9c-3.2,1.9-5.9,4.8-7.6,8.1c-1.8,3.6-2.7,7.6-2.7,11.6c-0.1,4,0.9,8,2.7,11.6
			c1.7,3.4,4.3,6.2,7.6,8.1c3.4,2,7.2,3,11.1,2.9c5.4,0,9.9-1.4,13.5-4.1c3.6-2.8,6.2-6.6,7.4-11C81.4,144,81.2,143.2,80.8,142.6z"
			/>
		<path class="st6" d="M105.4,117.3c-0.4-1-1.3-1.6-2.3-1.6h-5.8c-1,0-1.9,0.6-2.3,1.6l-14.7,38.9c-0.5,1.3,0.2,2.7,1.4,3.2
			c0.3,0.1,0.6,0.2,0.9,0.2h5.5c1,0,2-0.6,2.3-1.6l2.7-7.5h14l2.7,7.5c0.4,1,1.3,1.6,2.3,1.6h5.5c1.4,0,2.5-1.1,2.5-2.5
			c0-0.3-0.1-0.6-0.2-0.9L105.4,117.3z M96.4,141.4l3.7-10.3l3.7,10.3H96.4z"/>
		<path class="st6" d="M143.4,135.1c-2.1-1-4.3-1.8-6.5-2.5c-1.6-0.5-3.2-1.1-4.7-1.7c-0.8-0.4-1.6-0.9-2.1-1.6
			c-0.5-0.6-0.7-1.4-0.6-2.2c-0.1-1,0.3-2,1-2.7c1-0.7,2.1-1.1,3.3-1c1.3-0.1,2.6,0.3,3.7,1.2c0.8,0.7,1.4,1.7,1.7,2.8
			c0.2,1.2,1.2,2,2.4,2h5.5c1.4,0,2.5-1.1,2.5-2.5c0-0.1,0-0.2,0-0.3c-0.4-3.5-2.2-6.6-4.9-8.8c-2.7-2.3-6.4-3.4-10.8-3.4
			c-2.6-0.1-5.2,0.5-7.6,1.5c-2.2,1-4,2.6-5.3,4.6c-1.3,2-1.9,4.4-1.9,6.8c-0.1,2.6,0.6,5.1,2.1,7.2c1.2,1.7,2.9,3.1,4.8,4.1
			c2.1,1,4.2,1.8,6.4,2.5c1.6,0.5,3.2,1.1,4.8,1.8c0.9,0.4,1.7,1,2.3,1.7c0.5,0.7,0.8,1.5,0.7,2.4c0.1,1.1-0.3,2.1-1.1,2.9
			c-1,0.8-2.2,1.2-3.4,1.1c-1.1,0-2.2-0.2-3.2-0.7c-0.8-0.4-1.5-1-1.9-1.8c-0.4-0.7-0.7-1.4-0.8-2.2c-0.1-1.3-1.2-2.2-2.4-2.2h-5.4
			c-1.4,0-2.5,1.1-2.5,2.5c0,0.1,0,0.1,0,0.2c0.2,2.5,1.1,4.9,2.6,6.9c1.5,2,3.5,3.7,5.8,4.7c2.5,1.1,5.3,1.7,8,1.7
			c2.8,0.1,5.5-0.5,8-1.8c2.1-1.1,3.9-2.8,5.1-4.9c1.1-2,1.7-4.2,1.7-6.4c0.1-2.6-0.6-5.3-2.1-7.5C147,137.5,145.3,136,143.4,135.1z
			"/>
		<path class="st6" d="M185.2,114.9H180c-1.4,0-2.5,1.1-2.5,2.5v14.7h-15.2v-14.7c0-1.4-1.1-2.5-2.5-2.5h-5.1
			c-1.4,0-2.5,1.1-2.5,2.5V157c0,1.4,1.1,2.5,2.5,2.5h5.1c1.4,0,2.5-1.1,2.5-2.5v-15.9h15.2V157c0,1.4,1.1,2.5,2.5,2.5h5.2
			c1.4,0,2.5-1.1,2.5-2.5v-39.6C187.6,116,186.5,114.9,185.2,114.9z"/>
		<path class="st6" d="M94.9,207.2L94.9,207.2c-0.6-0.7-1.3-1.4-2.1-2c0.5-0.4,1-0.9,1.4-1.4c4-5.2,3.5-12.6-1.3-17.2
			c-2.5-2.2-6.2-3.3-10.8-3.3H67.4c-1.4,0-2.5,1.1-2.5,2.5v40.2c0,1.4,1.1,2.5,2.5,2.5h14.9c4.8,0,8.6-1.2,11.3-3.6
			c2.8-2.5,4.3-6,4.2-9.7C97.8,212.3,96.8,209.5,94.9,207.2z M85.4,199.9c-1.2,0.9-2.7,1.3-4.2,1.2H75v-8.3H81
			c2.1,0,3.6,0.4,4.4,1.1c0.8,0.8,1.3,1.9,1.2,3C86.7,197.9,86.3,199.1,85.4,199.9L85.4,199.9z M75,209.9h6.2
			c1.7-0.1,3.4,0.3,4.8,1.3c1.9,1.9,1.9,4.9,0,6.7c-1.4,1-3.1,1.4-4.8,1.3H75L75,209.9z"/>
		<path class="st6" d="M121.8,185.4c-0.4-1-1.3-1.6-2.3-1.6h-5.9c-1,0-2,0.6-2.3,1.6l-14.9,39.4c-0.5,1.3,0.2,2.7,1.5,3.2
			c0.3,0.1,0.6,0.2,0.9,0.2h5.6c1.1,0,2-0.7,2.3-1.6l2.8-7.6h14.2l2.8,7.6c0.4,1,1.3,1.6,2.3,1.6h5.6c1.4,0,2.5-1.1,2.5-2.5
			c0-0.3-0.1-0.6-0.2-0.9L121.8,185.4z M112.7,209.9l3.8-10.5l3.8,10.5H112.7z"/>
		<path class="st6" d="M151.5,194.4c1.7-1,3.7-1.6,5.7-1.5c2.5-0.1,4.9,0.6,7,1.9c1.9,1.3,3.3,3.1,4,5.2c0.4,1,1.3,1.6,2.3,1.6h5.5
			c1.4,0,2.5-1.1,2.5-2.5c0-0.2,0-0.5-0.1-0.7c-1.2-4.4-3.8-8.4-7.5-11.2l0,0c-3.6-2.7-8.2-4.1-13.6-4.1c-4-0.1-7.8,1-11.3,2.9
			c-3.3,2-6,4.8-7.7,8.3c-1.8,3.7-2.8,7.7-2.7,11.8c-0.1,4.1,0.9,8.1,2.7,11.7c1.7,3.4,4.4,6.3,7.7,8.2c3.4,2,7.3,3,11.3,2.9
			c5.4,0,10-1.4,13.6-4.1c3.7-2.8,6.3-6.7,7.5-11.2c0.4-1.3-0.4-2.7-1.7-3.1c-0.2-0.1-0.5-0.1-0.7-0.1h-5.5c-1,0-2,0.6-2.3,1.6
			c-0.8,2.1-2.2,3.9-4.1,5.2c-2.1,1.3-4.5,2-7,1.9c-4.1,0.1-7.9-2.2-9.7-6c-1.1-2.2-1.6-4.7-1.5-7.1c-0.1-2.5,0.5-5,1.5-7.2
			C148.4,197,149.8,195.4,151.5,194.4z"/>
		<path class="st6" d="M196.3,205.8l16.8-18.2c0.9-1,0.9-2.6-0.1-3.5c-0.5-0.4-1.1-0.7-1.7-0.7H205c-0.7,0-1.4,0.3-1.9,0.8
			l-12.5,13.8v-12.1c0-1.4-1.1-2.5-2.5-2.5H183c-1.4,0-2.5,1.1-2.5,2.5v40.2c0,1.4,1.1,2.5,2.5,2.5h5.2c1.4,0,2.5-1.1,2.5-2.5v-12.2
			l12.4,13.9c0.5,0.5,1.1,0.8,1.9,0.8h6.4c1.4,0,2.5-1.1,2.5-2.5c0-0.6-0.2-1.2-0.6-1.7L196.3,205.8z"/>
		<path d="M143.9,83.2h-2.3c-0.6-6-4.7-8.6-8.6-8.6c-3.3-0.1-6.4,1.8-7.7,4.9c-0.4,0.9-0.9,2.2-1.4,3.7h-8.2c0.6-1.2,1.7-2,3.1-2.3
			c0.4-0.1,0.7-0.4,0.7-0.9v-4c0-0.5-0.4-0.9-0.9-0.9c0,0-0.1,0-0.1,0c-4.1,0.6-7,3.6-7.8,8h-2.8c-0.6,0-1,0.4-1,1v2.3
			c0,0.6,0.4,1,1,1h2.6c0.5,5.3,3.7,8.6,8.4,8.6c5.7,0,7.4-3.9,8.9-8.6h8.6c-0.7,1.5-2.1,2.6-3.8,2.8c-0.5,0-0.8,0.4-0.8,0.9v4
			c0,0.5,0.4,0.9,0.9,0.9c0,0,0.1,0,0.1,0c4.3-0.4,7.7-3.7,8.6-8.5h2.5c0.6,0,1-0.4,1-1v-2.3C144.9,83.7,144.5,83.2,143.9,83.2z
			 M136.8,83.2h-7.5c0.8-1.8,1.8-2.9,3.8-2.9C134.8,80.3,136.4,81.5,136.8,83.2z M115.3,87.5h7.1c-0.3,0.7-0.7,1.3-1.1,1.8
			c-0.6,0.7-1.6,1.1-2.5,1C117,90.4,115.5,89.2,115.3,87.5L115.3,87.5z"/>
		<path d="M9.1,174.1h20.2l19.1,67.2c0.3,1.1,1.3,1.8,2.4,1.8h196.1c1.4,0,2.5-1.1,2.5-2.5c0-0.2,0-0.5-0.1-0.7l-19.6-69
			c-0.3-1.1-1.3-1.8-2.4-1.8h-18.8l18.7-65.3c0.4-1.3-0.4-2.7-1.7-3.1c-0.2-0.1-0.5-0.1-0.7-0.1h-8.1l21.3-37c1.8-3.1,0.7-7-2.4-8.8
			l-27.9-16.1l1.2-4.5c0.9-3.4-1.1-7-4.6-7.9l-31.8-8.5c-0.8-2.8-3.3-4.8-6.2-4.8H85.5c-2.9,0-5.5,2-6.2,4.8l-31.8,8.5
			c-3.4,0.9-5.5,4.5-4.6,7.9c0,0,0,0,0,0l1.2,4.5L16.1,54.7c-3.1,1.8-4.1,5.7-2.4,8.8l21.4,37h-6.5c-1.1,0-2.1,0.7-2.4,1.8
			L6.7,170.9c-0.4,1.3,0.4,2.7,1.7,3.1C8.6,174,8.9,174.1,9.1,174.1z M243.6,238.1h-191l-18.2-64h190.9L243.6,238.1z M222.8,80
			c-9.6-7.5-13.1-20.5-8.5-31.8l18.9,10.9c0.7,0.4,0.9,1.3,0.5,2L222.8,80z M209.9,45.6c-5.9,13.8-1.6,29.8,10.4,38.7l-9.3,16.2
			h-19.8l15.2-56.9L209.9,45.6z M149.9,100.6c8.4-13.3,4.4-30.8-8.9-39.2s-30.8-4.4-39.2,8.9c-5.9,9.3-5.9,21.1,0,30.4H84.1V46.3
			c14.9-1.8,26.6-13.5,28.3-28.3h27c1.8,14.9,13.5,26.6,28.4,28.3v54.3H149.9z M102.5,85.4c0-13,10.5-23.5,23.4-23.5
			s23.5,10.5,23.5,23.4c0,5.6-2,11-5.6,15.3H108C104.4,96.3,102.4,90.9,102.5,85.4z M84.1,19.4c0-0.8,0.7-1.5,1.5-1.5h21.9
			C105.6,30,96.1,39.5,84.1,41.2V19.4z M167.8,41.2c-12.1-1.7-21.6-11.2-23.3-23.3h21.9c0.8,0,1.5,0.7,1.5,1.5V41.2z M172.8,22.9
			l4.4,1.2c-2.1,14.8,6.2,29.2,20.1,34.7L186,100.6h-13.2V22.9z M203.1,31.1c0.8,0.2,1.2,1,1,1.8c0,0.1-1.9,7.1-1.8,6.7L198.5,54
			c-11.2-4.8-18-16.4-16.5-28.6L203.1,31.1z M79.1,100.6H65.9L54.7,58.8c13.9-5.6,22.2-19.9,20-34.7l4.4-1.2V100.6z M69.8,25.4
			c1.5,12.1-5.2,23.8-16.5,28.5l-5.7-21.1c-0.2-0.8,0.3-1.6,1-1.8c0,0,0,0,0,0L69.8,25.4z M37.6,48.1c4.6,11.3,1.1,24.3-8.5,31.8
			l-11-18.9c-0.4-0.7-0.2-1.6,0.5-2L37.6,48.1z M31.6,84.3c12-9,16.2-25,10.3-38.7l3.5-2c1.3,4.7,14,52.2,15.3,56.9H41L31.6,84.3z
			 M30.6,105.6h190.9l-18.2,63.5H12.4L30.6,105.6z"/>
		<path d="M60.3,162.3c6.9,0,12.9-2.1,17.6-7c-0.9,2.6,0.4,5.4,3,6.3c0.5,0.2,1.1,0.3,1.7,0.3h5.5c2.1,0,3.9-1.3,4.7-3.3l2.1-5.9
			h10.5l2.1,5.9c0.7,2,2.6,3.3,4.7,3.3h5.5c2.4,0,4.4-1.7,4.9-4.1c3.7,3,8.3,4.6,13.1,4.5c5.7,0,10.9-2,14.1-6.3v1c0,2.7,2.2,5,5,5
			h5.1c2.7,0,5-2.2,5-5v-13.4H175V157c0,2.7,2.2,5,5,5h5.2c2.7,0,5-2.2,5-5v-39.6c0-2.7-2.2-5-5-5H180c-2.7,0-5,2.2-5,5v12.2h-10.2
			v-12.2c0-2.7-2.2-5-5-5h-5.1c-2.7,0-5,2.2-5,5v2.6c-3-4.9-8.2-8.1-16-8.1c-6,0-11.8,2.2-15,7.3c-3.3,5.2-2.8,12.5,0.3,16.8
			c1.5,2.1,3.4,3.7,5.7,4.8c0.4,0.2,0.8,0.4,1.2,0.5h-4.3c-1.4,0-2.7,0.6-3.7,1.6c-0.1,0.1-0.1,0.2-0.2,0.3l-10.1-26.9
			c-0.7-1.9-2.6-3.2-4.6-3.2h-5.8c-2.1,0-3.9,1.3-4.6,3.2l-9.5,25.2c-0.1-0.2-0.2-0.4-0.4-0.6c-0.9-1.2-2.4-2-4-2h-5.4
			c-2,0-3.9,1.3-4.6,3.2c-1.3,3.4-4.1,5.4-8.5,5.4c-3.1,0.1-6-1.7-7.3-4.5c-1.7-3.8-1.7-8.1,0-11.9c1.3-2.9,4.2-4.7,7.3-4.6
			c4,0,7.1,1.7,8.5,5.4c0.7,1.9,2.6,3.2,4.6,3.2h5.4c2.7,0,5-2.2,5-5c0-0.5-0.1-0.9-0.2-1.4C80.6,118.9,72.5,112,60.3,112
			c-9.4,0-16.9,4.7-20.9,12.4c-3.9,8-3.9,17.5,0,25.5C43.3,157.4,50.7,162.3,60.3,162.3z M159.8,117.4v14.7c0,1.4,1.1,2.5,2.5,2.5
			h15.2c1.4,0,2.5-1.1,2.5-2.5l0-14.6h5.1l0,39.5l-5.1,0v-15.9c0-1.4-1.1-2.5-2.5-2.5h-15.2c-1.4,0-2.5,1.1-2.5,2.5l0,15.8l-5.1,0
			l0-39.6L159.8,117.4z M149.8,131.1v6.1c-1.4-1.8-3.2-3.3-5.3-4.4h0c-0.6-0.3-1.3-0.6-2.1-0.9h4.7C148,131.9,149,131.6,149.8,131.1
			L149.8,131.1z M127.1,146.3c0.1,1.2,0.5,2.3,1.2,3.3c1.6,2.4,4.3,3.8,7.3,3.7c7.5,0,8.2-7.4,5.7-10.4c-2-2.4-5.1-3.3-8.2-4.3
			c-4.1-1.3-7.6-2.4-9.9-5.6c-1.9-2.6-2.3-7.7-0.1-11.2c2.3-3.6,6.5-4.9,10.8-4.9c8.1,0,12.5,4.5,13.3,10l-5.5,0
			c-0.6-3.2-3.3-6-7.8-6c-7.5,0-7.9,7.2-5.6,9.9c1.9,2.2,5,3.1,8,4.1c4.2,1.4,7.7,2.4,10.1,5.7c3.9,5.5,1.5,16.7-10.6,16.7
			c-4.7,0-9.2-1.6-11.9-5.4c-1.2-1.7-1.9-3.6-2.1-5.6L127.1,146.3z M131,143.3c1.8,0.6,5.2,1.5,6.4,2.9c0.1,0.2,0.1,0.5,0.1,0.8
			c0,0.8-0.2,1-0.3,1.1c-0.5,0.3-1.1,0.4-1.7,0.3c-1.2,0.1-2.3-0.4-3-1.3c-0.2-0.4-0.4-0.8-0.4-1.2C132,144.9,131.6,144,131,143.3
			L131,143.3z M137.9,130.3c-0.1,0-0.1,0-0.2-0.1c-1.5-0.5-3-1-4.4-1.6c-0.5-0.2-0.9-0.5-1.2-0.9c-0.1-0.2-0.1-0.4-0.1-0.6
			c0-0.6,0.1-0.7,0.1-0.8c0.5-0.3,1.1-0.4,1.7-0.4c0.7-0.1,1.4,0.1,2,0.5c0.5,0.4,0.8,0.9,0.9,1.4
			C136.9,128.8,137.3,129.6,137.9,130.3L137.9,130.3z M97.3,118.2h5.8l14.6,38.8l-5.5,0l-2.7-7.5c-0.4-1-1.3-1.6-2.4-1.6h-14
			c-1.1,0-2,0.7-2.4,1.6l-2.7,7.5l-5.5,0.1L97.3,118.2z M43.9,126.7c3.1-6,8.9-9.7,16.5-9.7c9.7,0,16,5.1,18.5,13.2l-5.4,0
			c-2-5.1-6.5-8.6-13.2-8.6c-5-0.1-9.7,2.7-11.8,7.3c-2.4,5.2-2.4,11.2,0,16.4c2.2,4.5,6.8,7.4,11.8,7.3c6.7,0,11.2-3.5,13.1-8.6
			h5.3c-2.4,8.1-8.7,13.2-18.4,13.2c-7.7,0-13.4-3.8-16.5-9.7C40.7,141,40.7,133.3,43.9,126.7z"/>
		<path d="M96.4,143.9h7.5c1.4,0,2.5-1.1,2.5-2.5c0-0.3-0.1-0.6-0.1-0.9l-3.7-10.3c-0.5-1.3-1.9-2-3.2-1.5c-0.7,0.3-1.2,0.8-1.5,1.5
			l-3.7,10.3c-0.5,1.3,0.2,2.7,1.5,3.2C95.8,143.8,96.1,143.9,96.4,143.9z M100.2,138.4l0.2,0.5H100L100.2,138.4z"/>
		<path d="M81.2,207.4H75c-1.4,0-2.5,1.1-2.5,2.5v9.4c0,1.4,1.1,2.5,2.5,2.5h6.3c5,0,8.6-2.2,8.6-7.2
			C89.9,209.7,86.2,207.4,81.2,207.4z M84.5,216c-0.3,0.3-1.2,0.7-3.2,0.7h-3.8v-4.4h3.7c1.1-0.1,2.3,0.2,3.2,0.8
			c0.2,0.2,0.5,0.4,0.5,1.4C84.9,215.7,84.6,215.9,84.5,216L84.5,216z"/>
		<path d="M75,203.5h6.2c4.6,0,7.9-2.1,7.9-6.7c0-3.8-2.3-6.6-8.1-6.6H75c-1.4,0-2.5,1.1-2.5,2.5v8.3
			C72.5,202.4,73.7,203.5,75,203.5C75,203.5,75,203.5,75,203.5z M77.5,195.2H81c2.2,0,2.8,0.5,2.8,0.5c0.1,0.1,0.3,0.3,0.3,1.1
			c0,1.2-0.2,1.7-2.9,1.7h-3.7V195.2z"/>
		<path d="M116.5,196.9c-1.1,0-2,0.7-2.4,1.6l-3.8,10.5c-0.5,1.3,0.2,2.7,1.5,3.2c0.3,0.1,0.6,0.1,0.9,0.1h7.6
			c1.4,0,2.5-1.1,2.5-2.5c0-0.3-0.1-0.6-0.1-0.9l-3.8-10.5C118.5,197.6,117.5,196.9,116.5,196.9z M116.3,207.4l0.2-0.6l0.2,0.6
			H116.3z"/>
		<path d="M201.3,182.6l-8.1,9v-5.6c0-2.8-2.2-5-5-5H183c-2.8,0-5,2.2-5,5v5.4c-4.1-6.6-11-10.7-20.7-10.7
			c-14.3,0-24.1,10.8-24.1,25.5c0,1,0.1,1.9,0.1,2.8l-9.2-24.4c-0.7-1.9-2.6-3.2-4.7-3.2h-5.9c-2.1,0-3.9,1.3-4.7,3.2l-9.6,25.4
			c-0.6-1.6-1.4-3-2.5-4.3v0c-0.1-0.2-0.3-0.3-0.4-0.5c2-2.6,3.1-5.9,3-9.2c0-8.4-5.8-15-17.3-15H67.4c-2.8,0-5,2.2-5,5v40.2
			c0,2.8,2.2,5,5,5h14.9c4.8,0,8.8-1.1,11.9-3.3c0.8,1.8,2.6,3,4.6,3h5.6c2.1,0,4-1.3,4.7-3.3l2.2-6h10.7l2.2,6
			c0.7,2,2.6,3.3,4.7,3.3h5.6c2.8,0,5-2.2,5-5c0-0.6-0.1-1.2-0.3-1.8l-0.6-1.5c4.5,5.9,11.5,9.2,18.9,9c9.7,0,16.6-4.1,20.7-10.7
			v5.4c0,2.8,2.2,5,5,5h5.2c2.8,0,5-2.2,5-5v-5.7l8,9c0.9,1.1,2.3,1.7,3.7,1.7h6.4c2.8,0,5-2.2,5-5c0-1.2-0.5-2.4-1.3-3.4
			l-15.3-16.9l15.3-16.5c1.9-2,1.7-5.2-0.3-7.1c-0.9-0.9-2.1-1.3-3.4-1.3H205C203.6,180.9,202.2,181.5,201.3,182.6z M121.8,185.4
			l-2.3,0.9h0L121.8,185.4z M82.3,226.1l-14.9,0l0-40.2h14.7c8.7,0,12.3,4.4,12.3,10c0.1,2.3-0.6,4.5-2.1,6.3c-1,1.1-2,1.5-2,3.1
			c0,1.7,1.2,1.7,2.7,3.5h0c1.5,1.8,2.3,4.1,2.3,6.4C95.3,221.3,91.4,226.1,82.3,226.1z M128.7,225.7l-2.8-7.6
			c-0.4-1-1.3-1.6-2.4-1.6h-14.2c-1.1,0-2,0.7-2.4,1.6l-2.8,7.6l-5.6,0l14.9-39.4l5.9,0l14.8,39.4L128.7,225.7z M157.3,226.5
			c-11.7,0-19.1-8.8-19.1-20.4c0-11.8,7.5-20.5,19.1-20.5c9.9,0,16.3,5.2,18.7,13.5l-5.5,0c-2-5.2-6.6-8.7-13.3-8.7
			c-7.7,0-13.7,5.8-13.7,15.7c0,9.8,6.1,15.6,13.7,15.6c6.8,0,11.4-3.6,13.3-8.7l5.5,0C173.6,221.1,167.2,226.4,157.3,226.5
			L157.3,226.5z M176,208h-5.5c-2.1,0-3.9,1.3-4.7,3.2c-1.3,3.5-4.2,5.5-8.7,5.5c-5.8,0-8.7-4.6-8.7-10.6c0-6,2.9-10.7,8.7-10.7
			c4.1,0,7.2,1.8,8.7,5.5c0.7,1.9,2.6,3.2,4.7,3.2h5.5c0.7,0,1.3-0.1,2-0.4v4.7C177.4,208.1,176.7,208,176,208L176,208z
			 M194.5,204.1c-0.9,1-0.9,2.4,0,3.4l16.8,18.6l-6.4,0l-12.4-13.9c-0.9-1-2.5-1.1-3.5-0.2c-0.5,0.5-0.8,1.2-0.8,1.9l0,12.2l-5.2,0
			l0-40.2l5.2,0v12.1c0,1.4,1.1,2.5,2.5,2.5c0.7,0,1.4-0.3,1.9-0.8l12.5-13.8l6.3,0L194.5,204.1z"/>
	</g>
</g>
</svg>
