<svg xmlns="http://www.w3.org/2000/svg" width="128" height="128" viewBox="0 0 128 128">
  <title>COIN</title>
  <g>
    <circle cx="85.051" cy="85.051" r="36.642" fill="#fad207"/>
    <circle cx="85.051" cy="85.051" r="25.907" fill="#f9ae16"/>
    <circle cx="42.949" cy="42.949" r="36.642" fill="#f9ae16"/>
    <circle cx="42.949" cy="42.949" r="25.907" fill="#fad207"/>
    <path d="M44.664,56.847v2.524H41.352v-2.6a15.372,15.372,0,0,1-8.911-4.219l2.4-2.958a12.917,12.917,0,0,0,6.506,3.549V44.349c-4.77-1.262-7.886-3.036-7.886-7.531,0-4.1,3.234-7.294,7.886-7.886v-2.4h3.312v2.444a14.383,14.383,0,0,1,8.083,3.707l-2.286,3a12.692,12.692,0,0,0-5.8-3.116V41c5.2,1.262,8.793,3.115,8.793,7.846C53.457,53.141,50.381,56.493,44.664,56.847ZM41.352,40.13V32.481c-2.287.473-3.824,2.168-3.824,3.982C37.528,38.356,38.829,39.3,41.352,40.13Zm8.083,9.108c0-2.169-1.577-3.194-4.771-4.062v8.162C47.818,53.062,49.435,51.209,49.435,49.238Z" fill="#f9ae16"/>
    <path d="M86.766,98.95v2.523H83.454v-2.6a15.378,15.378,0,0,1-8.911-4.219L76.949,91.7a12.915,12.915,0,0,0,6.5,3.548V86.451c-4.77-1.262-7.885-3.036-7.885-7.531,0-4.1,3.233-7.294,7.885-7.886V68.629h3.312v2.445a14.382,14.382,0,0,1,8.083,3.706l-2.286,3a12.694,12.694,0,0,0-5.8-3.115V83.1c5.2,1.261,8.793,3.114,8.793,7.846C95.559,95.243,92.484,98.6,86.766,98.95ZM83.454,82.232V74.583c-2.287.473-3.824,2.168-3.824,3.982C79.63,80.458,80.931,81.4,83.454,82.232Zm8.083,9.108c0-2.169-1.577-3.194-4.771-4.061v8.162C89.92,95.164,91.537,93.311,91.537,91.34Z" fill="#fad207"/>
  </g>
</svg>
