<svg xmlns="http://www.w3.org/2000/svg" width="128" height="128" viewBox="0 0 128 128">
  <title>CREDIT CARD</title>
  <g>
    <g>
      <rect x="6.307" y="26.105" width="115.386" height="75.79" rx="5" fill="#50758d"/>
      <rect x="6.307" y="41.401" width="115.386" height="14.029" fill="#93ddb7"/>
      <circle cx="37.978" cy="81.786" r="8.171" fill="#fad207"/>
      <circle cx="26.416" cy="81.786" r="8.171" fill="#fd646f"/>
    </g>
    <path d="M109.755,91.707H84.567a1.75,1.75,0,0,1,0-3.5h25.188a1.75,1.75,0,0,1,0,3.5Z" fill="#2b597f"/>
    <path d="M88.148,83.536H84.567a1.75,1.75,0,0,1,0-3.5h3.581a1.75,1.75,0,0,1,0,3.5Z" fill="#2b597f"/>
    <path d="M98.952,83.536H95.371a1.75,1.75,0,1,1,0-3.5h3.581a1.75,1.75,0,0,1,0,3.5Z" fill="#2b597f"/>
    <path d="M109.755,83.536h-3.58a1.75,1.75,0,0,1,0-3.5h3.58a1.75,1.75,0,0,1,0,3.5Z" fill="#2b597f"/>
  </g>
</svg>
