<svg xmlns="http://www.w3.org/2000/svg" width="128" height="128" viewBox="0 0 128 128">
  <title>DELIVERY TRUCK</title>
  <g>
    <rect x="6.307" y="77.73" width="67.738" height="11.797" fill="#2b597f"/>
    <rect x="6.307" y="26.677" width="67.738" height="51.052" fill="#fd646f"/>
    <path d="M74.045,35.244h30.694a5,5,0,0,1,4.451,2.721l11.4,22.274a10,10,0,0,1,1.1,4.557v24.73H74.045Z" fill="#fad207"/>
    <path d="M114.953,62.385,104.128,41.244H80.045V55.059L84.2,62.385Z" fill="#dff6fd"/>
    <rect x="113.136" y="74.065" width="8.557" height="7.33" fill="#dff6fd"/>
    <circle cx="32" cy="89.526" r="11.796" transform="matrix(0.907, -0.421, 0.421, 0.907, -34.697, 21.773)" fill="#50758d"/>
    <circle cx="96" cy="89.526" r="11.796" transform="translate(-29.142 49.896) rotate(-25.43)" fill="#50758d"/>
    <circle cx="32" cy="89.526" r="4.309" fill="#dff6fd"/>
    <circle cx="96" cy="89.526" r="4.309" fill="#dff6fd"/>
    <path d="M35.118,53.954H23.577a1.75,1.75,0,0,1,0-3.5H35.118a1.75,1.75,0,0,1,0,3.5Z" fill="#dff6fd"/>
    <path d="M43.8,66.932a1.752,1.752,0,0,1-1.75-1.75V60.3H32a1.75,1.75,0,0,1,0-3.5H43.8a1.75,1.75,0,0,1,1.75,1.75v2.41L54.3,52.2,45.546,43.45v2.865a1.749,1.749,0,0,1-1.75,1.75H32a1.75,1.75,0,0,1,0-3.5H42.046v-5.34a1.75,1.75,0,0,1,2.988-1.237L58.012,50.966a1.749,1.749,0,0,1,0,2.475L45.034,66.419A1.751,1.751,0,0,1,43.8,66.932Z" fill="#dff6fd"/>
  </g>
</svg>
