<svg xmlns="http://www.w3.org/2000/svg" width="128" height="128" viewBox="0 0 128 128">
  <title>DIGITAL WALLET</title>
  <g>
    <path d="M37.568,83.334V95.051H26.977a1.749,1.749,0,0,0-1.75,1.75v13.743a5.686,5.686,0,0,1,3.5,0V98.551H39.318a1.749,1.749,0,0,0,1.75-1.75V83.334Z" fill="#50758d"/>
    <path d="M99.273,110.543a5.7,5.7,0,0,1,3.5,0V96.8a1.749,1.749,0,0,0-1.75-1.75H90.432V83.334h-3.5V96.8a1.749,1.749,0,0,0,1.75,1.75H99.273Z" fill="#50758d"/>
    <path d="M64,110.268a5.688,5.688,0,0,1,1.75.276V83.334h-3.5v27.21A5.688,5.688,0,0,1,64,110.268Z" fill="#50758d"/>
    <rect x="26.977" y="32.666" width="74.046" height="50.668" fill="#93ddb7"/>
    <path d="M101.023,50.563a6.416,6.416,0,0,1-4.607,6.156L69.432,64.655a19.251,19.251,0,0,1-10.864,0L31.584,56.719a6.416,6.416,0,0,1-4.607-6.156v-17.9h74.046Z" fill="#50758d"/>
    <circle cx="64" cy="54.694" r="4.035" fill="#2b597f"/>
    <path d="M106.736,115.981a5.713,5.713,0,1,0-5.713,5.712A5.713,5.713,0,0,0,106.736,115.981Z" fill="#fad207"/>
    <path d="M69.712,115.981A5.712,5.712,0,1,0,64,121.693,5.712,5.712,0,0,0,69.712,115.981Z" fill="#fad207"/>
    <path d="M21.264,115.981a5.713,5.713,0,1,1,5.713,5.712A5.713,5.713,0,0,1,21.264,115.981Z" fill="#fad207"/>
    <path d="M69.432,64.655a19.251,19.251,0,0,1-10.864,0L55.049,63.62V83.334h17.9V63.62Z" fill="#2b597f"/>
    <path d="M69.391,25.047a1.744,1.744,0,0,1-1.238-.513,5.874,5.874,0,0,0-8.306,0,1.75,1.75,0,1,1-2.475-2.474,9.372,9.372,0,0,1,13.256,0,1.75,1.75,0,0,1-1.237,2.987Z" fill="#93ddb7"/>
    <path d="M74.607,19.83a1.743,1.743,0,0,1-1.237-.513,13.267,13.267,0,0,0-18.74,0,1.75,1.75,0,1,1-2.475-2.474,16.769,16.769,0,0,1,23.69,0,1.75,1.75,0,0,1-1.238,2.987Z" fill="#93ddb7"/>
    <path d="M79.825,14.612a1.746,1.746,0,0,1-1.237-.512,20.655,20.655,0,0,0-29.176,0,1.75,1.75,0,1,1-2.475-2.475,24.129,24.129,0,0,1,34.125,0,1.75,1.75,0,0,1-1.237,2.987Z" fill="#93ddb7"/>
  </g>
</svg>
