<svg xmlns="http://www.w3.org/2000/svg" width="128" height="128" viewBox="0 0 128 128">
  <title>DISCOUNT</title>
  <g>
    <path d="M71.279,9.45a10,10,0,0,0-14.558,0L29.608,38.233v83.46H98.392V38.233ZM64,25.969a4.58,4.58,0,1,1,4.58-4.58A4.579,4.579,0,0,1,64,25.969Z" fill="#fd646f"/>
    <circle cx="64" cy="79.963" r="24.686" fill="#dff6fd"/>
    <path d="M69.861,24.03a20.552,20.552,0,0,1-6.456-1,1.75,1.75,0,0,1,1.185-3.293h0a17.418,17.418,0,0,0,10.75-.16,27.322,27.322,0,0,0,7.769-4.757c3.645-2.873,7.413-5.844,15.226-6.1a1.769,1.769,0,0,1,1.807,1.691,1.751,1.751,0,0,1-1.692,1.807c-6.664.218-9.681,2.6-13.174,5.349a30.544,30.544,0,0,1-8.714,5.288A19.146,19.146,0,0,1,69.861,24.03Z" fill="#50758d"/>
    <path d="M48.977,73.043a6.764,6.764,0,1,1,6.743,6.9A6.66,6.66,0,0,1,48.977,73.043Zm22.4-6.7h4.18L56.705,93.428H52.526ZM58.638,73c0-2.09-1.223-3.509-2.918-3.509-1.657,0-2.839,1.38-2.839,3.509s1.262,3.549,2.878,3.549C57.415,76.553,58.638,75.173,58.638,73ZM65.5,86.922a6.764,6.764,0,1,1,6.782,6.939A6.674,6.674,0,0,1,65.5,86.922Zm9.66,0c0-2.129-1.262-3.548-2.878-3.548-1.735,0-2.918,1.38-2.918,3.548,0,2.09,1.222,3.51,2.918,3.51S75.158,89.052,75.158,86.922Z" fill="#50758d"/>
  </g>
</svg>
