<?xml version="1.0" encoding="UTF-8"?><svg xmlns="http://www.w3.org/2000/svg" viewBox="0 0 1742.34 662.51"><defs><style>.cls-1,.cls-2,.cls-3{fill:#f2f0f5;}.cls-4{fill:#f5866d;}.cls-5{fill:#004e48;}.cls-6{fill:#00736a;}.cls-7{fill:#ebecf6;}.cls-8{fill:#ec7262;}.cls-9{fill:#f68633;}.cls-10{fill:#fff;}.cls-11{fill:#f1eafa;}.cls-12{fill:#ecf2f9;}.cls-13{fill:#fccc39;}.cls-14{fill:#e52625;}.cls-15{fill:#96bacc;}.cls-16{fill:#848e8d;}.cls-17{fill:#84a8cb;}.cls-18{fill:#b85f6f;}.cls-19{fill:#b4c1d4;}.cls-20{fill:#32654b;}.cls-21{fill:#32644b;}.cls-22{fill:#858f8e;}.cls-23,.cls-24,.cls-25{fill:#a7bbd5;}.cls-26{fill:#d96359;}.cls-27,.cls-28{fill:#bbcbd7;}.cls-29{fill:#aab8cd;}.cls-30{fill:#d1541e;}.cls-31{fill:#dfecf3;}.cls-32{fill:#6dbe45;}.cls-33{fill:#96b3c3;}.cls-34{fill:#53936f;}.cls-35{fill:#87bc88;}.cls-36{fill:#6ec285;}.cls-37{fill:#549736;}.cls-38{fill:#295841;}.cls-39{fill:#2d308e;}.cls-40{fill:#394955;}.cls-41{fill:#627b88;}.cls-42{fill:#495a68;}.cls-43{fill:#7788a2;}.cls-44{fill:#7a9cbd;}.cls-45{fill:#4e5f6e;}.cls-28{opacity:.21;}.cls-28,.cls-46,.cls-24{mix-blend-mode:multiply;}.cls-46{fill:#f0efe0;}.cls-47{stroke:#34434e;stroke-width:5px;}.cls-47,.cls-48,.cls-49,.cls-50{fill:none;stroke-miterlimit:10;}.cls-24,.cls-25{opacity:.46;}.cls-2{opacity:.19;}.cls-3{opacity:.34;}.cls-48{stroke:#f2f0f5;stroke-width:10px;}.cls-49{stroke:#bbcbd7;stroke-width:4px;}.cls-50{stroke:#7788a2;}.cls-51{isolation:isolate;}</style></defs><g class="cls-51"><g id="green"><path class="cls-35" d="M1384.26,487.92l25.57,31s-6.72-16.79,0-15.95,27.71,6.72,27.71,6.72h10.92l38.32,.34,40.61,8.89,44.5-13.43,31.07-5.88-8.4-9.24,14.27-7.56-86.88,15.76-36.56-2.32,3.5-9.04-15.25,3.16h-68.85l-20.53-2.45Z"/><path class="cls-21" d="M1602.95,439.99l-47.02,10.08c-15.95,2.52-59.62,14.27-59.62,14.27l-13.43-12.6h-45.34l-5.88-1.68,64.89-16.79,66.1-5.88,34.43,5.88,5.88,6.72Z"/></g><g id="shop_building"><polygon class="cls-29" points="524.73 57.94 524.8 125.95 539.08 125.95 544.11 52.9 524.73 57.94"/><polygon class="cls-7" points="539.08 125.95 576.86 125.95 593.46 57.94 543.77 57.94 539.08 125.95"/><polygon class="cls-29" points="1146.1 57.94 1146.17 125.95 1160.44 125.95 1165.48 52.9 1146.1 57.94"/><polygon class="cls-7" points="1160.44 125.95 1198.23 125.95 1214.83 57.94 1165.13 57.94 1160.44 125.95"/><polygon class="cls-12" points="1227.62 196.49 1215.86 616.33 289.69 616.33 272.08 196.66 1227.62 196.49"/><polygon class="cls-27" points="279.61 145.06 283.28 194.98 0 194.98 0 145.06 279.61 145.06"/><polygon class="cls-1" points="278.77 132.67 1251.97 132.67 1241.05 202.36 283.81 202.36 278.77 132.67"/><polygon class="cls-9" points="1246.93 190.56 1246.93 202.75 280.03 202.75 278.77 190.56 1246.93 190.56"/><polygon class="cls-30" points="278.77 125.95 156.18 125.95 0 125.95 0 150.3 282.13 150.3 278.77 125.95"/><polygon class="cls-30" points="280.45 190.61 282.13 202.36 0 202.36 0 188.93 280.45 190.61"/><polygon class="cls-23" points="309 616.33 20.15 616.33 6.07 202.75 292.45 202.75 309 616.33"/><g><polygon class="cls-17" points="1165.48 616.33 1165.48 250.23 864.03 250.23 870.47 616.33 1165.48 616.33"/><rect class="cls-43" x="1165.48" y="250.23" width="18.47" height="366.1"/><polygon class="cls-2" points="1139.48 250.5 950.48 616.33 1014.76 616.33 1165.48 304.48 1165.48 250.23 1139.48 250.5"/><polygon class="cls-2" points="1105.76 250.23 925.66 616.33 893.84 616.33 1066.94 250.23 1105.76 250.23"/><polygon class="cls-2" points="866.48 389.06 867.15 427.08 954.35 250.23 932.27 250.23 866.48 389.06"/></g><polyline class="cls-48" points="531.1 616.33 524.8 250.23 800.22 250.23 806.97 616.33"/><polygon class="cls-17" points="800.22 251.06 524.8 251.06 531.1 616.33 806.97 616.33 800.22 251.06"/><polygon class="cls-19" points="798.46 245.19 514.4 245.19 521.04 616.33 529.41 616.33 523.45 253.58 655.87 253.58 662.3 616.33 670.69 616.33 664.27 253.58 790.22 253.58 796.89 616.33 805.29 616.33 798.46 245.19"/><polygon class="cls-1" points="804.34 245.19 520.28 245.19 526.92 616.33 535.29 616.33 529.33 253.58 661.75 253.58 668.18 616.33 676.57 616.33 670.14 253.58 796.1 253.58 802.77 616.33 811.17 616.33 804.34 245.19"/><line class="cls-50" x1="673.82" y1="616.33" x2="665.89" y2="245.19"/><path class="cls-3" d="M665.61,466.94l-81.51,149.39h84.13c.41-45.01-2.88-104.37-2.62-149.39Z"/><path class="cls-2" d="M782.58,253.58l-108.6,202.41c.03,.19,.06,.38,.06,.59-.02,44.47,2.53,79.19,1.9,123.65l120.07-238.47v-88.17h-13.43Z"/><polygon class="cls-2" points="532.87 584.14 531.1 616.33 548.95 616.33 664.57 412.3 663.19 334.95 532.87 584.14"/><polygon class="cls-17" points="483.66 616.33 472.74 245.19 323.28 245.19 332.51 616.33 483.66 616.33"/><polygon class="cls-43" points="472.74 245.19 495.41 245.19 502.97 616.33 483.66 616.33 472.74 245.19"/><polygon class="cls-2" points="410 616.33 479.46 472.74 476.1 364.42 346.11 616.33 410 616.33"/><polygon class="cls-2" points="328.46 453.03 330.11 519.29 465.26 245.19 426.96 245.19 328.46 453.03"/><polygon class="cls-25" points="292.62 213.79 1227.62 226.79 1225.1 200.68 292.21 202.36 292.62 213.79"/><g><path class="cls-36" d="M579.09,178.75c0-1.24-.44-2.24-1.32-2.99-.88-.75-2.42-1.46-4.62-2.13-3.84-1.11-6.74-2.42-8.7-3.94-1.96-1.52-2.94-3.6-2.94-6.24s1.13-4.8,3.38-6.48c2.25-1.68,5.13-2.51,8.62-2.51s6.43,.94,8.66,2.82,3.31,4.2,3.23,6.96l-.04,.13h-6.27c0-1.49-.5-2.7-1.49-3.62-1-.92-2.39-1.38-4.2-1.38s-3.06,.38-4.01,1.15-1.42,1.75-1.42,2.94c0,1.09,.51,1.99,1.52,2.69,1.01,.7,2.76,1.44,5.24,2.23,3.56,.99,6.25,2.3,8.08,3.92,1.83,1.62,2.75,3.76,2.75,6.4s-1.09,4.94-3.27,6.53c-2.18,1.59-5.05,2.39-8.62,2.39s-6.58-.9-9.19-2.71c-2.61-1.81-3.88-4.34-3.81-7.61l.04-.13h6.29c0,1.92,.59,3.33,1.76,4.22,1.17,.89,2.81,1.34,4.9,1.34,1.76,0,3.1-.36,4.03-1.08,.93-.72,1.4-1.69,1.4-2.9Z"/><path class="cls-36" d="M645.08,187.17h-6.44v-13.4h-13.15v13.4h-6.47v-32.24h6.47v13.86h13.15v-13.86h6.44v32.24Z"/><path class="cls-36" d="M705.62,173.95c0,3.96-1.25,7.23-3.75,9.81-2.5,2.58-5.75,3.87-9.75,3.87s-7.2-1.29-9.68-3.87c-2.48-2.58-3.72-5.85-3.72-9.81v-5.8c0-3.94,1.24-7.21,3.71-9.8,2.47-2.59,5.69-3.89,9.67-3.89s7.25,1.3,9.76,3.89c2.51,2.59,3.76,5.86,3.76,9.8v5.8Zm-6.47-5.83c0-2.51-.63-4.58-1.88-6.19-1.26-1.61-2.98-2.42-5.18-2.42s-3.9,.8-5.12,2.41-1.82,3.67-1.82,6.2v5.86c0,2.56,.61,4.64,1.84,6.26,1.23,1.61,2.93,2.42,5.12,2.42s3.94-.81,5.18-2.42c1.24-1.61,1.86-3.7,1.86-6.26v-5.86Z"/><path class="cls-36" d="M745.71,175.47v11.69h-6.47v-32.24h12.84c3.7,0,6.62,.95,8.75,2.83,2.13,1.89,3.19,4.38,3.19,7.46s-1.06,5.57-3.19,7.44c-2.13,1.87-5.04,2.81-8.75,2.81h-6.38Zm0-4.98h6.38c1.8,0,3.17-.49,4.1-1.47,.93-.98,1.39-2.23,1.39-3.75s-.46-2.83-1.38-3.84c-.92-1.01-2.29-1.52-4.11-1.52h-6.38v10.58Z"/></g><polygon class="cls-44" points="268.16 616.33 257.78 245.19 50.38 245.19 70.98 616.33 268.16 616.33"/><polygon class="cls-43" points="50.38 245.19 35.27 245.19 50.38 616.33 71.37 616.33 50.38 245.19"/><polygon class="cls-2" points="207.49 245.19 63.71 480.3 67.8 552.51 252.36 245.19 207.49 245.19"/><polygon class="cls-24" points="282.13 150.3 1245.25 176.33 1249.63 147.58 282.13 150.3"/><polygon class="cls-9" points="1258.68 125.95 1258.68 150.3 280.05 150.3 278.77 125.95 1258.68 125.95"/></g><g id="column1"><polygon class="cls-33" points="720.45 70.53 757.39 102.44 1026.09 102.44 1051.03 70.53 720.45 70.53"/><polygon class="cls-7" points="1025.25 102.44 1060.52 102.44 1105.86 70.53 1051.28 70.53 1025.25 102.44"/><polygon class="cls-10" points="1014.34 102.44 1023.57 662.51 1046.24 662.51 1062.38 102.44 1014.34 102.44"/><polygon class="cls-27" points="1012.66 102.44 877.42 102.44 757.15 102.44 766.63 662.51 789.3 662.51 792.66 272.06 1002.58 272.06 1008.46 662.51 1023.57 662.51 1025.25 102.44 1012.66 102.44"/><polygon class="cls-10" points="810.47 272.06 801.06 662.51 789.3 662.51 789.3 272.06 810.47 272.06"/><rect class="cls-27" x="720.45" y="57.94" width="330.83" height="12.6"/><polygon class="cls-10" points="1105.86 70.53 1107.88 57.94 1051.28 57.94 1051.28 70.53 1105.86 70.53"/><polygon class="cls-11" points="1004.35 389.55 906.02 389.55 904.34 662.51 1008.46 662.51 1004.35 389.55"/><polygon class="cls-28" points="757.28 110.4 1025.08 158.75 1060.5 167.67 1062.2 102.44 757.39 102.44 757.28 110.4"/></g><g id="number2"><path class="cls-9" d="M1002.58,272.06v-67.17l-17.08,3.01c-32.39,5.72-57.45,31.6-62.11,64.16h79.19Z"/><path class="cls-10" d="M982.43,259.16h-20.82v-4l9.87-10.58c1.42-1.63,2.44-3.01,3.04-4.14s.9-2.17,.9-3.13c0-1.28-.35-2.34-1.04-3.15-.69-.82-1.67-1.23-2.94-1.23-1.41,0-2.48,.48-3.22,1.44s-1.1,2.23-1.1,3.82h-5.95l-.04-.13c-.07-2.75,.83-5.08,2.71-6.99,1.88-1.91,4.41-2.86,7.59-2.86s5.61,.82,7.41,2.45c1.79,1.63,2.69,3.81,2.69,6.54,0,1.84-.51,3.54-1.52,5.1-1.01,1.56-2.69,3.6-5.02,6.13l-5.43,5.91,.04,.1h12.82v4.71Z"/></g><g id="trash"><polygon class="cls-32" points="789.3 501.12 905.33 501.12 904.34 662.51 789.3 662.51 789.3 501.12"/><g><path class="cls-10" d="M832.59,582.87c-.2-.36-.57-1.29,.03-2.32l2.46,1.56,.47-11.69-10.36,5.44,2.47,1.56c-1.58,2.56-1.67,5.65-.21,8.29,1.47,2.67,4.16,4.26,7.2,4.26h8.73v-5.87h-8.73c-1.26,0-1.86-.85-2.06-1.22Z"/><path class="cls-10" d="M869.14,577.25l-4.22-6.5-4.92,3.2,4.22,6.5c.69,1.06,.3,2.04,.1,2.41-.2,.37-.81,1.23-2.07,1.23h-3.59v-2.92l-10.14,5.85,10.14,5.85v-2.92h3.59c3.02,0,5.79-1.65,7.23-4.3,1.44-2.65,1.31-5.87-.33-8.4Z"/><path class="cls-10" d="M849.86,559.42l2.58,3.83-2.42,1.63,10.52,5.14-.81-11.68-2.42,1.63-2.58-3.83c-1.53-2.28-4.08-3.63-6.82-3.63-.04,0-.07,0-.11,0-2.78,.04-5.34,1.46-6.83,3.81l-5.93,9.32,4.95,3.15,5.93-9.32c.62-.97,1.57-1.09,1.96-1.09,.38-.04,1.34,.09,1.98,1.04Z"/></g><path class="cls-37" d="M797.74,501.12h0c0-2.69,2.18-4.87,4.87-4.87h102.56v4.87h-107.48"/></g><g id="monitor"><g><polygon class="cls-31" points="847.24 391.29 849.76 472.74 898.46 472.74 901.82 389.61 847.24 389.61 847.24 391.29"/><polygon class="cls-27" points="836.32 391.29 838.84 472.74 887.54 472.74 890.9 389.61 836.32 389.61 836.32 391.29"/><line class="cls-49" x1="895.1" y1="401.37" x2="910.22" y2="401.37"/><line class="cls-49" x1="895.1" y1="457.63" x2="910.22" y2="457.63"/></g><polygon class="cls-6" points="843.88 397.17 843.88 416.48 882.51 416.48 884.19 397.17 843.88 397.17"/><polygon class="cls-6" points="843.88 421.52 882.51 421.52 881.67 430.76 843.88 429.92 843.88 421.52"/><polygon class="cls-5" points="847.24 397.17 847.24 416.48 843.88 416.48 843.88 397.17 845.56 397.17 847.24 397.17"/><polygon class="cls-5" points="847.24 421.52 847.31 429.99 843.88 429.92 843.88 421.52 847.24 421.52"/></g><g id="hoses"><path class="cls-24" d="M938.88,461.34l-.1,23.15c-.01,3.25-2.65,5.88-5.9,5.88h0v52.06c0,5.56-.93,11.08-2.76,16.33l-7.92,22.76c-1.83,5.25-2.76,10.77-2.76,16.33h0v5.04h-5.48l2.11-16.88,8.41-28.46v-45.93l-.84-35.52,6.72-12.6,8.52-2.16Z"/><path class="cls-24" d="M968.27,461.34l-.1,23.15c-.01,3.25-2.65,5.88-5.9,5.88h0v52.06c0,5.56-.93,11.08-2.76,16.33l-7.92,22.76c-1.83,5.25-2.76,10.77-2.76,16.33h0v5.04h-5.48l2.11-16.88,8.41-28.46v-45.93l-.84-35.52,6.72-12.6,8.52-2.16Z"/><path class="cls-24" d="M996.82,461.34l-.1,23.15c-.01,3.25-2.65,5.88-5.9,5.88h0v52.06c0,5.56-.93,11.08-2.76,16.33l-7.92,22.76c-1.83,5.25-2.76,10.77-2.76,16.33h0v5.04h-5.48l2.11-16.88,8.41-28.46v-45.93l-.84-35.52,6.72-12.6,8.52-2.16Z"/><g><polygon class="cls-42" points="921.13 412.28 921.13 465.18 938.76 465.18 940.44 411.44 921.13 412.28"/><polygon class="cls-40" points="925.65 412.09 925.65 465.18 921.13 465.18 921.13 412.28 925.65 412.09"/><path class="cls-41" d="M912.93,599.15c-3.2,0-5.8,2.96-5.8,6.62v31.29l.56,9.49-1.16-.69c0,.25-.03,.47-.07,.69h13.83v-47.4h-7.36Z"/><path class="cls-22" d="M922.16,447.55v-6.27c0-5.69,2.12-11.18,5.94-15.4l2.82-3.12c.72-.79,1.74-1.24,2.81-1.24h0c.93,0,1.68,.75,1.68,1.68v1.68c0,.93-.75,1.68-1.68,1.68h0c-4.3,4.3-6.72,10.13-6.72,16.22v4.77h-4.85Z"/><path class="cls-47" d="M924.07,485.34v52.57c0,12.47-1.77,24.88-5.25,36.85h0c-3.48,11.98-5.25,24.38-5.25,36.85v28.22"/><path class="cls-22" d="M933.48,472.49l-1.19-1.19,3.11-3.11v-18.4c0-3.56-2.89-6.45-6.45-6.45h-4.47v-1.68h4.47c4.48,0,8.13,3.65,8.13,8.13v19.09l-3.6,3.6Z"/><polyline class="cls-16" points="919.45 485.34 919.45 487.02 928.69 487.02 928.69 480.3 919.45 484.5"/><path class="cls-14" d="M918.61,485.34l-1.46-32.84c-.12-2.7,2.03-4.95,4.73-4.95h5.93c3.68,0,6.62,3.07,6.46,6.75l-.79,17.69c-.33,7.47-6.48,13.35-13.96,13.35h-.91Z"/><polygon class="cls-15" points="920.29 450.07 924.49 450.07 923.65 476.1 921.13 476.1 920.29 450.07"/><path class="cls-11" d="M907.28,639.42h5.88v-33.23c0-3.88,3.15-7.03,7.03-7.03h8.92v50.34h-23.51v-10.08h1.68Z"/></g><g><polygon class="cls-42" points="950.52 412.28 950.52 465.18 968.15 465.18 969.83 411.44 950.52 412.28"/><polygon class="cls-40" points="955.04 412.09 955.04 465.18 950.52 465.18 950.52 412.28 955.04 412.09"/><path class="cls-41" d="M942.32,599.15c-3.2,0-5.8,2.96-5.8,6.62v31.29l.56,9.49-1.16-.69c0,.25-.03,.47-.07,.69h13.83v-47.4h-7.36Z"/><path class="cls-22" d="M951.55,447.55v-6.27c0-5.69,2.12-11.18,5.94-15.4l2.82-3.12c.72-.79,1.74-1.24,2.81-1.24h0c.93,0,1.68,.75,1.68,1.68v1.68c0,.93-.75,1.68-1.68,1.68h0c-4.3,4.3-6.72,10.13-6.72,16.22v4.77h-4.85Z"/><path class="cls-47" d="M953.46,485.34v52.57c0,12.47-1.77,24.88-5.25,36.85h0c-3.48,11.98-5.25,24.38-5.25,36.85v28.22"/><path class="cls-22" d="M962.87,472.49l-1.19-1.19,3.11-3.11v-18.4c0-3.56-2.89-6.45-6.45-6.45h-4.47v-1.68h4.47c4.48,0,8.13,3.65,8.13,8.13v19.09l-3.6,3.6Z"/><polyline class="cls-16" points="948.84 485.34 948.84 487.02 958.08 487.02 958.08 480.3 948.84 484.5"/><path class="cls-13" d="M948,485.34l-1.46-32.84c-.12-2.7,2.03-4.95,4.73-4.95h5.93c3.68,0,6.62,3.07,6.46,6.75l-.79,17.69c-.33,7.47-6.48,13.35-13.96,13.35h-.91Z"/><polygon class="cls-15" points="949.68 450.07 953.88 450.07 953.04 476.1 950.52 476.1 949.68 450.07"/><path class="cls-11" d="M936.67,639.42h5.88v-33.23c0-3.88,3.15-7.03,7.03-7.03h8.92v50.34h-23.51v-10.08h1.68Z"/></g><g><polygon class="cls-42" points="979.07 412.28 979.07 465.18 996.7 465.18 998.38 411.44 979.07 412.28"/><polygon class="cls-40" points="983.59 412.09 983.59 465.18 979.07 465.18 979.07 412.28 983.59 412.09"/><path class="cls-41" d="M970.87,599.15c-3.2,0-5.8,2.96-5.8,6.62v31.29l.56,9.49-1.16-.69c0,.25-.03,.47-.07,.69h13.83v-47.4h-7.36Z"/><path class="cls-22" d="M980.09,447.55v-6.27c0-5.69,2.12-11.18,5.94-15.4l2.82-3.12c.72-.79,1.74-1.24,2.81-1.24h0c.93,0,1.68,.75,1.68,1.68v1.68c0,.93-.75,1.68-1.68,1.68h0c-4.3,4.3-6.72,10.13-6.72,16.22v4.77h-4.85Z"/><path class="cls-47" d="M982.01,485.34v52.57c0,12.47-1.77,24.88-5.25,36.85h0c-3.48,11.98-5.25,24.38-5.25,36.85v28.22"/><path class="cls-22" d="M991.42,472.49l-1.19-1.19,3.11-3.11v-18.4c0-3.56-2.89-6.45-6.45-6.45h-4.47v-1.68h4.47c4.48,0,8.13,3.65,8.13,8.13v19.09l-3.6,3.6Z"/><polyline class="cls-16" points="977.39 485.34 977.39 487.02 986.63 487.02 986.63 480.3 977.39 484.5"/><path class="cls-39" d="M976.55,485.34l-1.46-32.84c-.12-2.7,2.03-4.95,4.73-4.95h5.93c3.68,0,6.62,3.07,6.46,6.75l-.79,17.69c-.33,7.47-6.48,13.35-13.96,13.35h-.91Z"/><polygon class="cls-15" points="978.23 450.07 982.43 450.07 981.59 476.1 979.07 476.1 978.23 450.07"/><path class="cls-11" d="M965.21,639.42h5.88v-33.23c0-3.88,3.15-7.03,7.03-7.03h8.92v50.34h-23.51v-10.08h1.68Z"/></g><rect class="cls-14" x="923.65" y="399.69" width="10.92" height="7.56"/><rect class="cls-13" x="954.72" y="399.69" width="10.92" height="7.56"/><rect class="cls-39" x="981.59" y="399.69" width="10.92" height="7.56"/></g><g id="column2"><polygon class="cls-10" points="1610.51 93.2 1619.75 653.27 1642.42 653.27 1658.56 93.2 1610.51 93.2"/><polygon class="cls-27" points="1608.83 93.2 1473.6 93.2 1353.32 93.2 1362.8 653.27 1385.48 653.27 1388.83 262.82 1598.75 262.82 1604.63 653.27 1619.75 653.27 1621.43 93.2 1608.83 93.2"/><polygon class="cls-10" points="1406.64 262.82 1397.23 653.27 1385.48 653.27 1385.48 262.82 1406.64 262.82"/><polygon class="cls-11" points="1600.52 380.31 1502.19 380.31 1500.51 653.27 1604.63 653.27 1600.52 380.31"/><path class="cls-9" d="M1598.75,262.82v-67.17l-17.08,3.01c-32.39,5.72-57.45,31.6-62.11,64.16h79.19Z"/><path class="cls-10" d="M1576,238.49h3.66v5h-3.66v7.02h-6.46v-7.02h-13.19l-.29-3.89,13.41-21.43h6.53v20.32Zm-13.9,0h7.44v-11.66l-.13-.04-.51,.91-6.79,10.79Z"/><polygon class="cls-33" points="1316.62 70.53 1353.57 102.44 1622.27 102.44 1647.2 70.53 1316.62 70.53"/><polygon class="cls-31" points="1621.43 102.44 1656.69 102.44 1702.04 70.53 1647.46 70.53 1621.43 102.44"/><rect class="cls-27" x="1316.62" y="57.94" width="330.83" height="12.6"/><polygon class="cls-10" points="1702.04 70.53 1704.05 57.94 1647.46 57.94 1647.46 70.53 1702.04 70.53"/><polygon class="cls-28" points="1353.45 110.4 1621.26 158.75 1656.68 167.67 1658.37 102.44 1353.57 102.44 1353.45 110.4"/></g><g id="trash2"><polygon class="cls-32" points="1385.48 491.89 1501.5 491.89 1500.51 653.27 1385.48 653.27 1385.48 491.89"/><g><path class="cls-10" d="M1428.76,573.63c-.2-.36-.57-1.29,.03-2.32l2.46,1.56,.47-11.69-10.36,5.44,2.47,1.56c-1.58,2.56-1.67,5.65-.21,8.29,1.47,2.67,4.16,4.26,7.2,4.26h8.73v-5.87h-8.73c-1.26,0-1.86-.85-2.06-1.22Z"/><path class="cls-10" d="M1465.31,568.02l-4.22-6.5-4.92,3.2,4.22,6.5c.69,1.06,.3,2.04,.1,2.41-.2,.37-.81,1.23-2.07,1.23h-3.59v-2.92l-10.14,5.85,10.14,5.85v-2.92h3.59c3.02,0,5.79-1.65,7.23-4.3,1.44-2.65,1.31-5.87-.33-8.4Z"/><path class="cls-10" d="M1446.04,550.18l2.58,3.83-2.42,1.63,10.52,5.14-.81-11.68-2.42,1.63-2.58-3.83c-1.53-2.28-4.08-3.63-6.82-3.63-.04,0-.07,0-.11,0-2.78,.04-5.34,1.46-6.83,3.81l-5.93,9.32,4.95,3.15,5.93-9.32c.62-.97,1.57-1.09,1.96-1.09,.38-.04,1.34,.09,1.98,1.04Z"/></g><path class="cls-37" d="M1393.92,491.89h0c0-2.69,2.18-4.87,4.87-4.87h102.56v4.87h-107.48"/></g><g id="monitor2"><g><polygon class="cls-31" points="1443.41 382.06 1445.93 463.5 1494.63 463.5 1497.99 380.38 1443.41 380.38 1443.41 382.06"/><polygon class="cls-27" points="1432.5 382.06 1435.02 463.5 1483.72 463.5 1487.08 380.38 1432.5 380.38 1432.5 382.06"/><line class="cls-49" x1="1491.28" y1="392.13" x2="1506.39" y2="392.13"/><line class="cls-49" x1="1491.28" y1="448.39" x2="1506.39" y2="448.39"/></g><polygon class="cls-6" points="1440.05 387.93 1440.05 407.25 1478.68 407.25 1480.36 387.93 1440.05 387.93"/><polygon class="cls-6" points="1440.05 412.28 1478.68 412.28 1477.84 421.52 1440.05 420.68 1440.05 412.28"/><polygon class="cls-5" points="1443.41 387.93 1443.41 407.25 1440.05 407.25 1440.05 387.93 1441.73 387.93 1443.41 387.93"/><polygon class="cls-5" points="1443.41 412.28 1443.49 420.76 1440.05 420.68 1440.05 412.28 1443.41 412.28"/></g><g id="hoses2"><path class="cls-24" d="M1535.06,452.11l-.1,23.15c-.01,3.25-2.65,5.88-5.9,5.88h0v52.06c0,5.56-.93,11.08-2.76,16.33l-7.92,22.76c-1.83,5.25-2.76,10.77-2.76,16.33h0v5.04h-5.48l2.11-16.88,8.41-28.46v-45.93l-.84-35.52,6.72-12.6,8.52-2.16Z"/><path class="cls-24" d="M1564.45,452.11l-.1,23.15c-.01,3.25-2.65,5.88-5.9,5.88h0v52.06c0,5.56-.93,11.08-2.76,16.33l-7.92,22.76c-1.83,5.25-2.76,10.77-2.76,16.33h0v5.04h-5.48l2.11-16.88,8.41-28.46v-45.93l-.84-35.52,6.72-12.6,8.52-2.16Z"/><path class="cls-24" d="M1593,452.11l-.1,23.15c-.01,3.25-2.65,5.88-5.9,5.88h0v52.06c0,5.56-.93,11.08-2.76,16.33l-7.92,22.76c-1.83,5.25-2.76,10.77-2.76,16.33h0v5.04h-5.48l2.11-16.88,8.41-28.46v-45.93l-.84-35.52,6.72-12.6,8.52-2.16Z"/><g><polygon class="cls-42" points="1517.31 403.05 1517.31 455.95 1534.94 455.95 1536.62 402.21 1517.31 403.05"/><polygon class="cls-40" points="1521.82 402.85 1521.82 455.95 1517.31 455.95 1517.31 403.05 1521.82 402.85"/><path class="cls-41" d="M1509.11,589.92c-3.2,0-5.8,2.96-5.8,6.62v31.29l.56,9.49-1.16-.69c0,.25-.03,.47-.07,.69h13.83v-47.4h-7.36Z"/><path class="cls-22" d="M1518.33,438.31v-6.27c0-5.69,2.12-11.18,5.94-15.4l2.82-3.12c.72-.79,1.74-1.24,2.81-1.24h0c.93,0,1.68,.75,1.68,1.68v1.68c0,.93-.75,1.68-1.68,1.68h0c-4.3,4.3-6.72,10.13-6.72,16.22v4.77h-4.85Z"/><path class="cls-47" d="M1520.24,476.1v52.57c0,12.47-1.77,24.88-5.25,36.85h0c-3.48,11.98-5.25,24.38-5.25,36.85v28.22"/><path class="cls-22" d="M1529.65,463.26l-1.19-1.19,3.11-3.11v-18.4c0-3.56-2.89-6.45-6.45-6.45h-4.47v-1.68h4.47c4.48,0,8.13,3.65,8.13,8.13v19.09l-3.6,3.6Z"/><polyline class="cls-16" points="1515.63 476.1 1515.63 477.78 1524.86 477.78 1524.86 471.06 1515.63 475.26"/><path class="cls-14" d="M1514.79,476.1l-1.46-32.84c-.12-2.7,2.03-4.95,4.73-4.95h5.93c3.68,0,6.62,3.07,6.46,6.75l-.79,17.69c-.33,7.47-6.48,13.35-13.96,13.35h-.91Z"/><polygon class="cls-15" points="1516.47 440.83 1520.66 440.83 1519.82 466.86 1517.31 466.86 1516.47 440.83"/><path class="cls-11" d="M1503.45,630.18h5.88v-33.23c0-3.88,3.15-7.03,7.03-7.03h8.92v50.34h-23.51v-10.08h1.68Z"/></g><g><polygon class="cls-42" points="1546.69 403.05 1546.69 455.95 1564.33 455.95 1566.01 402.21 1546.69 403.05"/><polygon class="cls-40" points="1551.21 402.85 1551.21 455.95 1546.69 455.95 1546.69 403.05 1551.21 402.85"/><path class="cls-41" d="M1538.5,589.92c-3.2,0-5.8,2.96-5.8,6.62v31.29l.56,9.49-1.16-.69c0,.25-.03,.47-.07,.69h13.83v-47.4h-7.36Z"/><path class="cls-22" d="M1547.72,438.31v-6.27c0-5.69,2.12-11.18,5.94-15.4l2.82-3.12c.72-.79,1.74-1.24,2.81-1.24h0c.93,0,1.68,.75,1.68,1.68v1.68c0,.93-.75,1.68-1.68,1.68h0c-4.3,4.3-6.72,10.13-6.72,16.22v4.77h-4.85Z"/><path class="cls-47" d="M1549.63,476.1v52.57c0,12.47-1.77,24.88-5.25,36.85h0c-3.48,11.98-5.25,24.38-5.25,36.85v28.22"/><path class="cls-22" d="M1559.04,463.26l-1.19-1.19,3.11-3.11v-18.4c0-3.56-2.89-6.45-6.45-6.45h-4.47v-1.68h4.47c4.48,0,8.13,3.65,8.13,8.13v19.09l-3.6,3.6Z"/><polyline class="cls-16" points="1545.01 476.1 1545.01 477.78 1554.25 477.78 1554.25 471.06 1545.01 475.26"/><path class="cls-13" d="M1544.18,476.1l-1.46-32.84c-.12-2.7,2.03-4.95,4.73-4.95h5.93c3.68,0,6.62,3.07,6.46,6.75l-.79,17.69c-.33,7.47-6.48,13.35-13.96,13.35h-.91Z"/><polygon class="cls-15" points="1545.85 440.83 1550.05 440.83 1549.21 466.86 1546.69 466.86 1545.85 440.83"/><path class="cls-11" d="M1532.84,630.18h5.88v-33.23c0-3.88,3.15-7.03,7.03-7.03h8.92v50.34h-23.51v-10.08h1.68Z"/></g><g><polygon class="cls-42" points="1575.24 403.05 1575.24 455.95 1592.88 455.95 1594.56 402.21 1575.24 403.05"/><polygon class="cls-40" points="1579.76 402.85 1579.76 455.95 1575.24 455.95 1575.24 403.05 1579.76 402.85"/><path class="cls-41" d="M1567.05,589.92c-3.2,0-5.8,2.96-5.8,6.62v31.29l.56,9.49-1.16-.69c0,.25-.03,.47-.07,.69h13.83v-47.4h-7.36Z"/><path class="cls-22" d="M1576.27,438.31v-6.27c0-5.69,2.12-11.18,5.94-15.4l2.82-3.12c.72-.79,1.74-1.24,2.81-1.24h0c.93,0,1.68,.75,1.68,1.68v1.68c0,.93-.75,1.68-1.68,1.68h0c-4.3,4.3-6.72,10.13-6.72,16.22v4.77h-4.85Z"/><path class="cls-47" d="M1578.18,476.1v52.57c0,12.47-1.77,24.88-5.25,36.85h0c-3.48,11.98-5.25,24.38-5.25,36.85v28.22"/><path class="cls-22" d="M1587.59,463.26l-1.19-1.19,3.11-3.11v-18.4c0-3.56-2.89-6.45-6.45-6.45h-4.47v-1.68h4.47c4.48,0,8.13,3.65,8.13,8.13v19.09l-3.6,3.6Z"/><polyline class="cls-16" points="1573.56 476.1 1573.56 477.78 1582.8 477.78 1582.8 471.06 1573.56 475.26"/><path class="cls-39" d="M1572.72,476.1l-1.46-32.84c-.12-2.7,2.03-4.95,4.73-4.95h5.93c3.68,0,6.62,3.07,6.46,6.75l-.79,17.69c-.33,7.47-6.48,13.35-13.96,13.35h-.91Z"/><polygon class="cls-15" points="1574.4 440.83 1578.6 440.83 1577.76 466.86 1575.24 466.86 1574.4 440.83"/><path class="cls-11" d="M1561.39,630.18h5.88v-33.23c0-3.88,3.15-7.03,7.03-7.03h8.92v50.34h-23.51v-10.08h1.68Z"/></g><rect class="cls-14" x="1519.82" y="390.45" width="10.92" height="7.56"/><rect class="cls-13" x="1550.89" y="390.45" width="10.92" height="7.56"/><rect class="cls-39" x="1577.76" y="390.45" width="10.92" height="7.56"/></g><g id="roof"><polygon class="cls-30" points="462.66 0 481.14 57.94 1091.59 57.94 1105.86 0 462.66 0"/><polygon class="cls-9" points="1105.86 0 1742.34 0 1727.23 57.94 1091.59 57.94 1105.86 0"/></g><g id="flowerpot"><g><g><path class="cls-34" d="M532.74,410.21c1.78-.89,3.17-2.4,4.39-3.98,4.4-5.72,7.07-13.02,6.16-20.18s-5.87-13.95-12.8-15.95c-6.94-2-15.36,1.78-17.55,8.65-2.48-3.47-7.09-4.85-11.35-4.69-4.15,.16-8.61,1.9-10.44,5.62-1.53,3.12-.89,6.83-.09,10.22-6.52-1.14-13.66,.51-18.47,5.05s-6.83,12.1-4.17,18.16c2.66,6.06,10.25,9.72,16.42,7.33,3.33-1.29,5.89-3.99,8.04-6.83,1.49-1.96,2.83-4.03,4.03-6.18,.69-1.24,1.69-2.72,3.1-2.52,.54,.07,1.01,.4,1.46,.71,3.56,2.46,7.3,4.78,11.47,5.98,3.71,1.07,6.83,.68,10.52,0,3.07-.56,6.37,.08,9.3-1.38Z"/><polygon class="cls-18" points="506.62 509.5 513.8 441.76 526.87 411.65 523.22 410.07 509.91 440.74 509.88 441.04 502.66 509.08 506.62 509.5"/><rect class="cls-18" x="501.57" y="422.27" width="2.39" height="27.58" transform="translate(-160.87 386) rotate(-36.62)"/><polygon class="cls-18" points="502.71 435.06 507.52 417.4 511.82 413.35 510.18 411.61 505.4 416.12 500.4 434.44 502.71 435.06"/><rect class="cls-18" x="512.98" y="418.66" width="2.39" height="11.81" transform="translate(-135.15 272.88) rotate(-26.4)"/><rect class="cls-18" x="498.1" y="412.08" width="2.39" height="15.04" transform="translate(-152.89 415.98) rotate(-39.73)"/><path class="cls-38" d="M518.83,414.41c-.74,4.05-5.24,6.74-9.33,6.22-4.09-.52-7.51-3.67-9.23-7.41,.05,1.41-.96,2.68-2.19,3.36s-2.67,.88-4.06,1.07c2.03,3.35,.01,8.18-3.57,9.76s-7.99,.32-10.83-2.39c-2.24-2.14-3.69-5.47-2.59-8.37-3.53-1.39-5.46-5.56-4.96-9.31s3.04-7.01,6.17-9.15c4.67-3.2,10.8-4.17,16.24-2.57,1.41-8.21,8.23-15.21,16.4-16.85,2.69-.54,5.58-.51,8.06,.65s4.46,3.62,4.52,6.36c4.59-4.24,11.12-6.66,17.24-5.36,6.12,1.29,11.4,6.76,11.52,13.01,.08,3.73-1.58,7.33-3.89,10.26-2.34,2.97-5.77,4.98-8.1,7.74,1.63,1.2,3.06,3.17,3.72,5.08,.77,2.22,.41,4.84-1.1,6.64s-4.17,2.6-6.36,1.77c-1.52-.58-2.68-1.82-3.78-3.02-.6,1.24-2.15,1.71-3.53,1.67-2.98-.1-11-5.42-10.32-9.13Z"/><path class="cls-35" d="M546.41,398.5c2.55-.53,4.88,1.61,6.24,3.83,1.38,2.24,2.32,4.98,1.57,7.5-.76,2.59-3.13,4.39-5.54,5.61-3.2,1.6-6.88,2.51-10.37,1.74-3.49-.77-6.68-3.5-7.26-7.03-3.08,.95-6.28-1.64-7.47-4.63-3.16-7.9,2.9-13.69,9.87-15.88,5.86-1.84,14.7,1.26,12.96,8.85Z"/><path class="cls-35" d="M507.19,392.21c.73,1.3,1.01,2.92,.48,4.32s-1.95,2.49-3.44,2.38c.02,1.89-1.9,3.46-3.78,3.33s-3.48-1.72-3.91-3.56,.18-3.82,1.33-5.31c2.4-3.12,6.81-5.65,9.32-1.16Z"/><path class="cls-35" d="M491.54,420.24c1.32-1.38,3.91-.58,4.73,1.14,.81,1.7,.13,3.94-1.44,4.96s-3.84,.77-5.2-.52c-1.05-1-1.54-2.62-1.03-3.98s2.13-2.26,3.51-1.81"/></g><g><path class="cls-38" d="M503.07,492.74c1.24-4.24,2.13-8.59,2.2-13.18-.02,1.02-1.42,2.94-1.86,3.9-.64,1.42-1.26,2.85-1.84,4.29-.66,1.64-1.28,3.31-1.85,4.99h3.35Z"/><path class="cls-38" d="M496.08,519.76c1.24-6.3,3.24-12.53,5.06-18.69,4.05-13.74,7.27-28.07,5.68-42.31-2.2,11.87-8.29,22.71-10.91,34.49-1.93,8.68-1.92,17.61-1.26,26.51h1.43Z"/><path class="cls-38" d="M497.7,492.74c1.73-7.79,2.6-15.77,2.55-23.75-3.56,6.62-7.12,13.34-8.96,20.63-.26,1.03-.48,2.07-.66,3.13h7.07Z"/><path class="cls-38" d="M490.22,492.74c-.09-3.26-.58-6.55-1.87-9.55-1.92-4.48-5.47-8.03-8.93-11.47-.5,6.28-.87,12.57-1.11,18.87-.03,.72-.05,1.43-.07,2.15h11.98Z"/><path class="cls-38" d="M480.78,480.73c.08,2.76,.09,5.52,.13,8.27,.02,1.24,.04,2.49,.07,3.73h3.65c-.15-6.85-1.32-13.68-4.36-19.88,.93,1.9,.45,5.77,.51,7.87Z"/><path class="cls-38" d="M478.21,492.74c-1.01-3.67-2.18-7.28-3.54-10.83-1.89-4.95-4.19-9.87-7.9-13.66,2.36,8.2,4.73,16.39,7.4,24.49h4.04Z"/><path class="cls-38" d="M512.72,492.74c2.66-4.27,4.79-8.86,6.32-13.65,.61-1.9,1.13-3.91,.79-5.87-4.08,6.46-9.72,11.78-14.3,17.89-.4,.53-.78,1.08-1.16,1.63h8.34Z"/><path class="cls-38" d="M485.72,465.49c.11,1.84,.19,3.69,.27,5.53,.16,3.63,.29,7.26,.46,10.89,.17,3.59,.34,7.22,.63,10.83h2.51c.2-2.03,.36-4.06,.37-6.12,.07-8.94-1.49-17.9-4.6-26.29,.53,1.42,.26,3.62,.34,5.15Z"/><path class="cls-38" d="M476.46,492.74h4.37c-.02-.95-.04-1.89-.09-2.83-.39-7.86-2.18-15.64-5.26-22.88-.27,7.08-.55,14.19,.27,21.22,.17,1.5,.41,3,.7,4.49Z"/><path class="cls-38" d="M469.71,492.74h4.26c-2.2-4.83-5.57-9.2-10.17-11.79,1.64,2.7,3.13,5.5,4.44,8.37,.51,1.12,1,2.27,1.47,3.41Z"/><path class="cls-38" d="M517.97,492.74c1.38-2.49,2.54-5.1,3.47-7.79-1.25,.84-2.29,1.97-3.3,3.09-1.4,1.55-2.78,3.11-4.12,4.71h3.95Z"/><path class="cls-38" d="M508.96,492.74c1.32-5.13,1.97-10.36,1.28-15.59-1.45,5.23-3.16,10.41-4.85,15.59h3.56Z"/></g><g><path class="cls-20" d="M441.88,445.57c1.94,.42,3.96,.08,5.92-.25-.26,1.66-.51,3.36-.24,5.02s1.14,3.31,2.63,4.1c1.37,.72,3.03,.62,4.53,.24,4.2-1.05,8.09-4.79,7.7-9.1,.7,1.54,2.51,2.37,4.19,2.26s3.23-1.02,4.46-2.18c1.78-1.68,3.03-4.02,3.06-6.47,.05-4.2-3.54-7.79-7.58-8.91-4.04-1.12-8.38-.25-12.35,1.11-3.03,1.04-6.57,2.77-7.48,6.13,1.79-5.12-4.37-2.92-6.14-1.31-3.36,3.05-4.42,8.12,1.3,9.35Z"/><path class="cls-34" d="M488.71,423.94c3.6-4.79,4.23-11.64,1.56-17.01-2.13-4.28-6.43-7.58-11.2-7.85s-9.7,2.94-10.79,7.59c-3.67-2.93-8.92-3.88-13.28-2.12s-7.55,6.26-7.46,10.96c.08,4.65,3.03,8.69,5.85,12.38-3.36-2-7.16-3.98-11-3.25-3.21,.61-5.94,3.25-6.66,6.44s.62,6.74,3.26,8.67c1.96,1.43,4.41,1.94,6.79,2.42-1.71,.85-1.77,3.6-.3,4.83,4.23,3.56,6.64-3.28,7.74-6.12,.71-1.83,1.29-3.7,1.73-5.59,.26-1.1,.7-2.44,1.84-2.63,.44-.07,.87,.06,1.29,.18,3.53,1.07,7.07,1.67,10.69,2.16s6.94,2.39,10.58,2.66c1.97,.14,3.94-.29,5.81-.93,2.91-1,5.84-2.73,7.01-5.58s-.39-6.85-3.45-7.18Z"/><polygon class="cls-18" points="487.04 463.89 491.16 461.71 490.07 459.65 485.36 462.13 479.07 472.85 476.15 457.01 479.48 431.38 475.62 430.88 473.44 447.69 469.1 443.21 467.42 444.83 473.05 450.65 472.31 456.33 456.12 444.77 454.77 446.67 472.52 459.35 472.6 459.23 482.01 510.15 485.84 509.45 479.69 476.19 479.79 476.25 487.04 463.89"/><path class="cls-38" d="M473.53,435.28c.34,3.22-2.55,6.3-5.83,6.88s-6.65-.96-8.83-3.36c.36,1.04-.14,2.24-.94,3.04s-1.87,1.29-2.91,1.77c2.33,2.03,1.85,6.13-.57,8.17s-6.13,2.14-8.94,.79c-4-1.93-5.27-7.22-3.67-11.15,1.22-3.02,3.77-5.33,6.6-6.95-2.32-5.74-3.02-12.94,1.08-17.58,2.47-2.8,6.48-4.15,10.14-3.4s6.82,3.56,7.99,7.11c-.09-4.12,.86-8.42,3.56-11.53,2.7-3.11,7.4-4.67,11.13-2.91,3.89,1.83,5.63,6.72,4.93,10.96s-3.34,7.91-6.26,11.07c2.58-.02,5.19,1.32,6.46,3.56s1.01,5.32-.79,7.16c-2.7,2.76-12.68,.61-13.12-3.62Z"/><path class="cls-35" d="M487.88,435.37c-1.75-.64-3.69,1.18-3.67,3.04,.02,1.84,1.58,3.52,3.41,3.74s3.71-.98,4.35-2.7c.49-1.33,.23-2.97-.81-3.94-1.04-.97-2.84-1.07-3.86-.08"/></g></g><polygon class="cls-42" points="527.12 627.24 460.83 627.24 449.62 487.27 537.4 487.27 527.12 627.24"/><polyline class="cls-45" points="527.29 487.27 517.24 603.73 505.49 606.25 500.34 487.27 527.29 487.27"/></g><g id="trash_can"><g><path class="cls-8" d="M419.9,625.44l6.1-77.25h-56.53l7.16,81.57h38.6c2.45,0,4.48-1.88,4.68-4.32Z"/><path class="cls-26" d="M369.47,548.19h-15.03l9.51,77.46c.29,2.35,2.29,4.12,4.65,4.12h8.02l-7.16-81.57"/><g><path class="cls-10" d="M386.34,589.85c-.15-.27-.44-.97,.03-1.75l1.89,1.18,.36-8.85-7.96,4.11,1.9,1.18c-1.22,1.93-1.28,4.27-.16,6.27,1.13,2.02,3.2,3.22,5.53,3.22h6.71v-4.44h-6.71c-.97,0-1.43-.64-1.59-.92Z"/><path class="cls-10" d="M414.42,585.6l-3.25-4.92-3.78,2.42,3.25,4.92c.53,.8,.23,1.54,.07,1.82-.15,.28-.62,.93-1.59,.93h-2.76v-2.21l-7.79,4.43,7.79,4.43v-2.21h2.76c2.32,0,4.45-1.25,5.55-3.25,1.11-2.01,1.01-4.44-.26-6.36Z"/><path class="cls-10" d="M399.61,572.11l1.98,2.9-1.86,1.23,8.08,3.89-.62-8.83-1.86,1.23-1.98-2.9c-1.18-1.72-3.13-2.75-5.24-2.75h-.08c-2.14,.03-4.1,1.11-5.25,2.88l-4.56,7.05,3.8,2.38,4.56-7.05c.47-.73,1.21-.82,1.5-.82,.29-.03,1.03,.07,1.52,.79Z"/></g><polygon class="cls-46" points="425.57 553.56 370.32 557.91 359.09 586.07 354.44 548.19 426 548.19 425.57 553.56"/><path class="cls-4" d="M428.86,550.33l3.58-12.88h-65.12l2.15,14.48,57.08-.16c.98,0,1.88-.56,2.32-1.44h0Z"/><path class="cls-8" d="M367.32,537.45l-17.17,1.43,2.44,11c.24,1.1,1.22,1.88,2.35,1.88h14.53l-2.15-14.31Z"/></g></g></g></svg>