<?xml version="1.0" encoding="utf-8"?>
<!-- Generator: Adobe Illustrator 22.1.0, SVG Export Plug-In . SVG Version: 6.00 Build 0)  -->
<svg version="1.1" id="Layer_1" xmlns="http://www.w3.org/2000/svg" xmlns:xlink="http://www.w3.org/1999/xlink" x="0px" y="0px"
	 viewBox="0 0 512 512" style="enable-background:new 0 0 512 512;" xml:space="preserve">
<style type="text/css">
	.st0{fill:#A56021;}
	.st1{fill:#8C4C17;}
	.st2{fill:#FFF4C1;}
	.st3{fill:#FCE575;}
	.st4{fill:#FFC34C;}
	.st5{fill:#FF624B;}
	.st6{fill:#FFD551;}
	.st7{fill:#F9BB32;}
	.st8{fill:#CCC033;}
	.st9{fill:#99AF17;}
	.st10{fill:#FF9079;}
	.st11{fill:#FCF9DE;}
	.st12{fill:#BF6C0D;}
</style>
<g>
	<g>
		<g>
			<circle class="st0" cx="256" cy="256" r="205.49"/>
		</g>
	</g>
	<g>
		<g>
			<path class="st1" d="M120.51,256c0-101.556,73.675-185.893,170.49-202.508c-11.376-1.952-23.067-2.982-35-2.982
				C142.511,50.51,50.51,142.511,50.51,256S142.511,461.49,256,461.49c11.933,0,23.624-1.029,35-2.982
				C194.186,441.893,120.51,357.556,120.51,256z"/>
		</g>
	</g>
	<g>
		<g>
			<circle class="st2" cx="256" cy="256" r="173.363"/>
		</g>
	</g>
	<g>
		<g>
			<path class="st3" d="M120.51,256c0-67.851,32.892-128.009,83.594-165.426C133.785,112.682,82.637,178.479,82.637,256
				c0,77.522,51.148,143.319,121.468,165.426C153.402,384.009,120.51,323.851,120.51,256z"/>
		</g>
	</g>
	<g>
		<g>
			<circle class="st4" cx="256" cy="327.345" r="34.58"/>
		</g>
	</g>
	<g>
		<g>
			<path class="st1" d="M160.881,320.254h-13.496c-1.958,0-3.545-1.587-3.545-3.545v-9.149c0-1.958,1.587-3.545,3.545-3.545h11.208
				c1.958,0,3.545-1.587,3.545-3.545c0-1.958-1.587-3.545-3.545-3.545h-11.208c-1.958,0-3.545-1.587-3.545-3.545v-8.463
				c0-1.958,1.587-3.545,3.545-3.545h13.496c1.958,0,3.545-1.587,3.545-3.545s-1.587-3.545-3.545-3.545h-22.187
				c-1.958,0-3.545,1.587-3.545,3.545v45.976c0,1.958,1.587,3.545,3.545,3.545h22.187c1.958,0,3.545-1.587,3.545-3.545
				C164.426,321.841,162.839,320.254,160.881,320.254z"/>
		</g>
	</g>
	<g>
		<g>
			<path class="st1" d="M377.083,274.428h-24.094c-1.958,0-3.545,1.587-3.545,3.545v45.899c0,1.958,1.587,3.545,3.545,3.545h1.601
				c1.958,0,3.545-1.587,3.545-3.545v-16.088c0-1.958,1.587-3.545,3.545-3.545h10.446c1.958,0,3.545-1.587,3.545-3.545
				s-1.587-3.545-3.545-3.545h-10.446c-1.958,0-3.545-1.587-3.545-3.545v-8.539c0-1.958,1.587-3.545,3.545-3.545h15.402
				c1.958,0,3.545-1.587,3.545-3.545C380.628,276.015,379.041,274.428,377.083,274.428z"/>
		</g>
	</g>
	<g>
		<g>
			<path class="st5" d="M181.842,142.195c-37.134,24.28-61.724,66.222-61.724,113.805c0,0.989,0.017,1.975,0.038,2.959h51.782
				v-0.304c0-26.073,11.766-49.7,30.358-65.391L181.842,142.195z"/>
		</g>
	</g>
	<g>
		<g>
			<path class="st6" d="M256,120.118c-27.343,0-52.819,8.125-74.158,22.077l20.455,51.069c13.86-11.697,31.507-18.99,50.935-19.561
				c0.919-0.027,1.843-0.041,2.769-0.041s1.849,0.014,2.769,0.041c45.489,1.336,81.293,39.444,81.293,84.952v0.304h51.782
				c0.021-0.984,0.038-1.97,0.038-2.959C391.882,181.075,330.926,120.118,256,120.118z"/>
		</g>
	</g>
	<g>
		<g>
			<path class="st3" d="M316.062,164.552L316.062,164.552c-3.082-1.301-6.645-0.007-8.175,2.967L232.91,313.294
				c-0.436,0.735-0.843,1.493-1.184,2.302c-4.074,9.655,0.449,20.784,10.104,24.858c9.654,4.074,20.784-0.449,24.858-10.104
				c0.341-0.809,0.6-1.63,0.823-2.454l52.128-155.417C320.703,169.308,319.144,165.853,316.062,164.552z"/>
		</g>
	</g>
	<g>
		<g>
			<path class="st7" d="M256,292.765c-5.013,0-9.771,1.075-14.071,2.994l-9.019,17.536c-0.436,0.735-0.843,1.493-1.185,2.302
				c-4.074,9.655,0.45,20.784,10.104,24.858c9.655,4.074,20.784-0.449,24.858-10.104c0.341-0.809,0.6-1.63,0.823-2.454l9.417-28.075
				C271.117,295.397,263.867,292.765,256,292.765z"/>
		</g>
	</g>
	<g>
		<g>
			<path class="st4" d="M316.062,164.552L316.062,164.552c-3.082-1.301-6.645-0.007-8.175,2.967l-9.193,17.874
				c4.76,2.851,9.209,6.166,13.3,9.878l7.645-22.793C320.703,169.308,319.144,165.853,316.062,164.552z"/>
		</g>
	</g>
	<g>
		<g>
			<path class="st8" d="M321.246,136.839l-17.704,51.692c22.121,15.419,36.52,41.277,36.52,70.125v0.304h51.782
				c0.021-0.984,0.038-1.97,0.038-2.959C391.882,204.705,363.309,159.962,321.246,136.839z"/>
		</g>
	</g>
	<g>
		<g>
			<path class="st9" d="M316.062,164.552L316.062,164.552c-1.386-0.585-2.867-0.641-4.219-0.26l-8.301,24.239
				c2.963,2.065,5.782,4.323,8.451,6.745l7.646-22.796C320.703,169.308,319.144,165.853,316.062,164.552z"/>
		</g>
	</g>
	<g>
		<g>
			<path class="st10" d="M323.062,167.552L323.062,167.552c-3.082-1.301-6.645-0.007-8.175,2.967L239.91,316.294
				c-0.436,0.735-0.843,1.493-1.184,2.302c-4.074,9.655,0.449,20.784,10.104,24.858c9.654,4.074,20.784-0.449,24.858-10.104
				c0.341-0.809,0.6-1.63,0.823-2.454l52.128-155.417C327.703,172.308,326.144,168.853,323.062,167.552z"/>
		</g>
	</g>
	<g>
		<g>
			<path class="st5" d="M250.726,318.597c0.342-0.809,0.749-1.567,1.185-2.302l74.639-145.118c-0.601-1.581-1.818-2.92-3.487-3.624
				v0c-3.082-1.3-6.645-0.007-8.175,2.967L239.91,316.294c-0.436,0.735-0.843,1.493-1.185,2.302
				c-4.074,9.655,0.45,20.784,10.104,24.858c4.424,1.867,9.152,1.91,13.375,0.5c-0.46-0.154-0.92-0.308-1.375-0.5
				C251.175,339.38,246.651,328.251,250.726,318.597z"/>
		</g>
	</g>
	<g>
		<g>
			<circle class="st3" cx="189.105" cy="369.062" r="15"/>
		</g>
	</g>
	<g>
		<g>
			<path class="st11" d="M383.897,339.921c-2.778-1.805-6.495-1.018-8.301,1.762c-18.992,29.223-45.075,48.266-77.523,56.599
				c-24.288,6.239-43.303,3.824-43.678,3.774c-3.287-0.453-6.307,1.841-6.761,5.122c-0.454,3.282,1.838,6.312,5.121,6.766
				c0.386,0.054,4.747,0.633,11.868,0.633c8.642,0,21.347-0.854,35.921-4.541c24.536-6.207,59.22-21.97,85.115-61.813
				C387.465,345.443,386.676,341.728,383.897,339.921z"/>
		</g>
	</g>
	<g>
		<g>
			<circle class="st3" cx="221.42" cy="104.047" r="15"/>
		</g>
	</g>
	<g>
		<g>
			<path class="st12" d="M430.018,164.821c-22.242-42.278-59.442-75.508-104.517-92.61c-3.144-1.193-6.652,0.475-7.759,3.65
				l-0.003,0.008c-1.071,3.072,0.507,6.424,3.549,7.579c42.308,16.061,77.223,47.255,98.102,86.941c1.507,2.865,5,4.03,7.915,2.623
				C430.357,171.537,431.596,167.821,430.018,164.821z"/>
		</g>
	</g>
</g>
</svg>
