<?xml version="1.0" encoding="utf-8"?>
<!-- Generator: Adobe Illustrator 22.1.0, SVG Export Plug-In . SVG Version: 6.00 Build 0)  -->
<svg version="1.1" id="Layer_1" xmlns="http://www.w3.org/2000/svg" xmlns:xlink="http://www.w3.org/1999/xlink" x="0px" y="0px"
	 viewBox="0 0 512 512" style="enable-background:new 0 0 512 512;" xml:space="preserve">
<style type="text/css">
	.st0{fill:#FFA730;}
	.st1{fill:#E58D23;}
	.st2{fill:#BF6C0D;}
	.st3{fill:#A56021;}
	.st4{fill:#FFD551;}
	.st5{fill:#FFF4C1;}
	.st6{fill:#FFC34C;}
	.st7{fill:#FFEA63;}
	.st8{fill:#FCE575;}
	.st9{fill:#FFB74B;}
	.st10{fill:#8C4C17;}
	.st11{fill:#F9BB32;}
	.st12{fill:#FF4B34;}
	.st13{fill:#FF9079;}
	.st14{fill:#FFDF74;}
	.st15{fill:#FF624B;}
	.st16{fill:#CCC033;}
	.st17{fill:#EACF32;}
	.st18{fill:#FFEACF;}
	.st19{fill:#99AF17;}
	.st20{fill:#FFD59A;}
	.st21{fill:#FCDA4F;}
	.st22{fill:#FCF9DE;}
	.st23{fill:#DB9C2E;}
</style>
<g>
	<g>
		<g>
			<path class="st10" d="M424.489,404.885c-25.357,0-45.986-20.629-45.986-45.986V242.621c0-6.017-4.896-10.912-10.913-10.912H315.4
				c-4.971,0-9-4.029-9-9s4.029-9,9-9h52.19c15.942,0,28.913,12.97,28.913,28.912v116.278c0,15.432,12.554,27.986,27.986,27.986
				s27.986-12.554,27.986-27.986V196.704c0-6.869-2.594-13.406-7.304-18.406l-24.482-25.988c-3.409-3.618-3.239-9.314,0.379-12.722
				c3.618-3.408,9.313-3.239,12.722,0.38l24.482,25.988c7.869,8.353,12.203,19.273,12.203,30.749v162.195
				C470.475,384.256,449.845,404.885,424.489,404.885z"/>
		</g>
	</g>
	<g>
		<g>
			<path class="st10" d="M387.189,112.726c-2.081,0-4.171-0.717-5.871-2.182l-27.445-23.647l-36.521-4.033
				c-4.94-0.546-8.503-4.993-7.958-9.933c0.546-4.941,5-8.502,9.934-7.958l39.294,4.339c1.807,0.199,3.51,0.941,4.887,2.127
				l29.559,25.469c3.765,3.245,4.188,8.927,0.943,12.693C392.231,111.666,389.717,112.726,387.189,112.726z"/>
		</g>
	</g>
	<g>
		<g>
			<path class="st15" d="M337.663,456.618H64.858V52.504c0-13.807,11.193-25,25-25h222.805c13.807,0,25,11.193,25,25V456.618z"/>
		</g>
	</g>
	<g>
		<g>
			<path class="st18" d="M297.792,184.813H104.729c-5.523,0-10-4.477-10-10V68.234c0-5.523,4.477-10,10-10h193.063
				c5.523,0,10,4.477,10,10v106.579C307.792,180.336,303.315,184.813,297.792,184.813z"/>
		</g>
	</g>
	<g>
		<g>
			<path class="st0" d="M247.248,161.926c1.101-4.38,1.596-9.001,1.376-13.772c-1.129-24.547-21.275-44.406-45.836-45.177
				c-26.883-0.845-48.942,20.697-48.942,47.391c0,3.99,0.498,7.863,1.428,11.564c0.442,1.758,2.055,2.969,3.867,2.969h84.237
				C245.192,164.9,246.805,163.686,247.248,161.926z"/>
		</g>
	</g>
	<g>
		<g>
			<path class="st12" d="M201.265,141.427c-2.187,0-4.354-0.952-5.837-2.785c-2.604-3.221-2.104-7.943,1.117-10.548l57.746-46.685
				c3.221-2.604,7.943-2.104,10.548,1.117c2.604,3.221,2.104,7.943-1.117,10.548l-57.746,46.685
				C204.587,140.881,202.92,141.427,201.265,141.427z"/>
		</g>
	</g>
	<g>
		<g>
			<path class="st0" d="M472.827,120.636l-25.76-23.873c-0.647-0.6-1.47-1.012-2.367-1.184l-42.957-8.247
				c-0.581-0.111-1.16-0.108-1.719-0.022l-0.067-0.069l-0.102,0.1c-1.328,0.25-2.51,1.017-3.188,2.17
				c-0.279,0.475-0.443,0.981-0.518,1.494l-25.868,25.572c-2.927,2.893-2.964,7.622-0.083,10.562l44.473,45.379
				c2.881,2.939,7.589,2.977,10.516,0.083l29.407-29.07c0.283-0.168,0.552-0.358,0.794-0.583l17.438-16.16
				C474.661,125.09,474.661,122.336,472.827,120.636z M452.096,133.696l-37.104-34.933l26.428,5.073l21.448,19.876L452.096,133.696z
				"/>
		</g>
	</g>
	<g>
		<g>
			<path class="st12" d="M139.858,27.504h-50c-13.807,0-25,11.193-25,25v404.114h50V52.504
				C114.858,38.697,126.051,27.504,139.858,27.504z"/>
		</g>
	</g>
	<g>
		<g>
			<path class="st20" d="M114.858,58.234h-10.129c-5.523,0-10,4.477-10,10v106.579c0,5.523,4.477,10,10,10h10.129V58.234z"/>
		</g>
	</g>
	<g>
		<g>
			<path class="st13" d="M354.723,484.496H47.798c-5.523,0-10-4.477-10-10v-34.759c0-5.523,4.477-10,10-10h306.925
				c5.523,0,10,4.477,10,10v34.759C364.723,480.018,360.246,484.496,354.723,484.496z"/>
		</g>
	</g>
	<g>
		<g>
			<path class="st15" d="M87.798,474.496v-34.759c0-5.523,4.477-10,10-10h-50c-5.523,0-10,4.477-10,10v34.759
				c0,5.523,4.477,10,10,10h50C92.275,484.496,87.798,480.019,87.798,474.496z"/>
		</g>
	</g>
	<g>
		<g>
			<path class="st4" d="M163.41,301.732c0,0-0.103-37.258,34.74-68.833c1.766-1.6,4.455-1.6,6.221,0
				c34.843,31.575,34.74,68.833,34.74,68.833l-0.113,0.008c0.067,0.919,0.113,1.843,0.113,2.779c0,20.904-16.946,37.85-37.85,37.85
				c-20.904,0-37.85-16.946-37.85-37.85c0-0.936,0.046-1.86,0.112-2.779L163.41,301.732z"/>
		</g>
	</g>
	<g>
		<g>
			<path class="st6" d="M185.41,304.519c0-0.936,0.046-1.86,0.112-2.779l-0.112-0.008c0,0-0.065-31.377,26.85-60.945
				c-2.414-2.651-5.022-5.29-7.89-7.888c-1.766-1.6-4.455-1.6-6.221,0c-34.843,31.575-34.74,68.833-34.74,68.833l0.112,0.008
				c-0.067,0.919-0.112,1.843-0.112,2.779c0,20.904,16.946,37.85,37.85,37.85c3.827,0,7.518-0.573,11-1.629
				C196.722,336.028,185.41,321.597,185.41,304.519z"/>
		</g>
	</g>
	<g>
		<g>
			<path class="st13" d="M314.256,242.602c-3.313,0-6-2.686-6-6v-15.591c0-3.314,2.687-6,6-6s6,2.686,6,6v15.591
				C320.256,239.916,317.569,242.602,314.256,242.602z"/>
		</g>
	</g>
	<g>
		<g>
			<path class="st13" d="M314.256,413.116c-3.313,0-6-2.686-6-6V258c0-3.314,2.687-6,6-6s6,2.686,6,6v149.116
				C320.256,410.43,317.569,413.116,314.256,413.116z"/>
		</g>
	</g>
	<g>
		<g>
			<path class="st9" d="M416.475,160.371c-1.6,0-3.195-0.635-4.376-1.894l-28.036-29.872c-2.268-2.416-2.147-6.213,0.269-8.481
				c2.416-2.267,6.213-2.148,8.481,0.269l28.036,29.872c2.268,2.416,2.147,6.213-0.269,8.481
				C419.422,159.833,417.947,160.371,416.475,160.371z"/>
		</g>
	</g>
	<g>
		<g>
			<path class="st22" d="M289,170.9c-3.313,0-6-2.686-6-6V83.254c0-3.314,2.687-6,6-6s6,2.686,6,6V164.9
				C295,168.214,292.313,170.9,289,170.9z"/>
		</g>
	</g>
	<g>
		<g>
			<circle class="st12" cx="143.333" cy="366.827" r="15"/>
		</g>
	</g>
	<g>
		<g>
			<circle class="st12" cx="178.41" cy="395.885" r="15"/>
		</g>
	</g>
	<g>
		<g>
			<circle class="st20" cx="143.333" cy="83.254" r="15"/>
		</g>
	</g>
</g>
</svg>
