<?xml version="1.0" encoding="utf-8"?>
<!-- Generator: Adobe Illustrator 22.1.0, SVG Export Plug-In . SVG Version: 6.00 Build 0)  -->
<svg version="1.1" id="Layer_1" xmlns="http://www.w3.org/2000/svg" xmlns:xlink="http://www.w3.org/1999/xlink" x="0px" y="0px"
	 viewBox="0 0 512 512" style="enable-background:new 0 0 512 512;" xml:space="preserve">
<style type="text/css">
	.st0{fill:#FFA730;}
	.st1{fill:#E58D23;}
	.st2{fill:#BF6C0D;}
	.st3{fill:#A56021;}
	.st4{fill:#FFD551;}
	.st5{fill:#FFF4C1;}
	.st6{fill:#FFC34C;}
	.st7{fill:#FFEA63;}
	.st8{fill:#FCE575;}
	.st9{fill:#FFB74B;}
	.st10{fill:#8C4C17;}
	.st11{fill:#F9BB32;}
	.st12{fill:#FF4B34;}
	.st13{fill:#FF9079;}
	.st14{fill:#FFDF74;}
	.st15{fill:#FF624B;}
	.st16{fill:#CCC033;}
	.st17{fill:#EACF32;}
	.st18{fill:#FFEACF;}
	.st19{fill:#99AF17;}
	.st20{fill:#FFD59A;}
	.st21{fill:#FCDA4F;}
	.st22{fill:#FCF9DE;}
	.st23{fill:#DB9C2E;}
</style>
<g>
	<g>
		<g>
			<path class="st4" d="M307.719,140.528H204.281V97.147c0-4.418,3.582-8,8-8h87.438c4.418,0,8,3.582,8,8V140.528z"/>
		</g>
	</g>
	<g>
		<g>
			<path class="st6" d="M227.031,125.708c0-5.57,4.074-10.086,9.1-10.086h71.589v-16.39c0-5.57-4.074-10.086-9.1-10.086h-85.238
				c-5.026,0-9.1,4.516-9.1,10.086v41.296h22.75V125.708z"/>
		</g>
	</g>
	<g>
		<g>
			<path class="st11" d="M315.29,105.701H196.71c-3.866,0-7-3.134-7-7V82.64c0-3.866,3.134-7,7-7H315.29c3.866,0,7,3.134,7,7v16.061
				C322.29,102.567,319.156,105.701,315.29,105.701z"/>
		</g>
	</g>
	<g>
		<g>
			<path class="st4" d="M307.719,94.891h-40.723c-3.313,0-6-2.686-6-6s2.687-6,6-6h40.723c3.313,0,6,2.686,6,6
				S311.032,94.891,307.719,94.891z"/>
		</g>
	</g>
	<g>
		<g>
			<path class="st6" d="M426.137,377.385h-87.544c-2.761,0-5-2.239-5-5v-43.217h97.544v43.217
				C431.137,375.147,428.899,377.385,426.137,377.385z"/>
		</g>
	</g>
	<g>
		<g>
			<path class="st6" d="M173.522,377.365H86.514c-2.761,0-5-2.239-5-5v-43.217h97.008v43.217
				C178.522,375.126,176.283,377.365,173.522,377.365z"/>
		</g>
	</g>
	<g>
		<g>
			<path class="st14" d="M415.534,352.235h9.763c39.22,0,71.013-31.794,71.013-71.013v-77.244c0-39.22-31.794-71.013-71.013-71.013
				h-9.763V352.235z"/>
		</g>
	</g>
	<g>
		<g>
			<rect x="95.953" y="132.964" class="st14" width="320.746" height="219.271"/>
		</g>
	</g>
	<g>
		<g>
			<path class="st14" d="M96.466,352.235h-9.763c-39.22,0-71.013-31.794-71.013-71.013v-77.244c0-39.22,31.794-71.013,71.013-71.013
				h9.763V352.235z"/>
		</g>
	</g>
	<g>
		<g>
			<path class="st23" d="M235.209,96.876V84.466c0-4.874,3.565-8.825,7.962-8.825h-45.499c-4.397,0-7.962,3.951-7.962,8.825v12.411
				c0,4.874,3.565,8.825,7.962,8.825h45.499C238.774,105.701,235.209,101.75,235.209,96.876z"/>
		</g>
	</g>
	<g>
		<g>
			<path class="st4" d="M55.69,261.222v-77.245c0-19.644,7.978-37.424,20.869-50.28c-34.412,4.924-60.869,34.507-60.869,70.28
				v77.245c0,39.219,31.794,71.013,71.013,71.013h9.763V325.48C72.371,314.123,55.69,289.625,55.69,261.222z"/>
		</g>
	</g>
	<g>
		<g>
			<rect x="95.953" y="326.235" class="st4" width="320.746" height="26"/>
		</g>
	</g>
	<g>
		<g>
			<path class="st4" d="M425.297,326.235h-9.763v26h9.763c39.219,0,71.013-31.794,71.013-71.013v-26
				C496.31,294.441,464.516,326.235,425.297,326.235z"/>
		</g>
	</g>
	<g>
		<g>
			<g>
				<path class="st3" d="M470.759,404.782H41.241c-6.627,0-12-5.373-12-12v-11.579c0-2.209,1.791-4,4-4h445.518c2.209,0,4,1.791,4,4
					v11.579C482.759,399.409,477.386,404.782,470.759,404.782z"/>
			</g>
		</g>
		<g>
			<g>
				<path class="st10" d="M69.241,380.782v-3.579h-36c-2.209,0-4,1.791-4,4v11.579c0,6.627,5.373,12,12,12h429.518
					c6.627,0,12-5.373,12-12H81.241C74.614,392.782,69.241,387.409,69.241,380.782z"/>
			</g>
		</g>
		<g>
			<g>
				<circle class="st1" cx="83.352" cy="411.709" r="24.65"/>
			</g>
		</g>
		<g>
			<g>
				<circle class="st1" cx="168.164" cy="411.709" r="24.65"/>
			</g>
		</g>
		<g>
			<g>
				<circle class="st1" cx="343.143" cy="411.709" r="24.65"/>
			</g>
		</g>
		<g>
			<g>
				<circle class="st1" cx="427.954" cy="411.709" r="24.65"/>
			</g>
		</g>
		<g>
			<g>
				<path class="st2" d="M75.702,411.709c0-10.627,6.724-19.682,16.15-23.145c-2.65-0.973-5.513-1.505-8.5-1.505
					c-13.614,0-24.65,11.036-24.65,24.65c0,13.614,11.036,24.65,24.65,24.65c2.987,0,5.85-0.532,8.5-1.506
					C82.427,431.391,75.702,422.336,75.702,411.709z"/>
			</g>
		</g>
		<g>
			<g>
				<path class="st2" d="M160.513,411.709c0-10.627,6.724-19.682,16.15-23.145c-2.65-0.973-5.513-1.505-8.5-1.505
					c-13.614,0-24.65,11.036-24.65,24.65c0,13.614,11.036,24.65,24.65,24.65c2.987,0,5.85-0.532,8.5-1.506
					C167.238,431.391,160.513,422.336,160.513,411.709z"/>
			</g>
		</g>
		<g>
			<g>
				<path class="st2" d="M335.493,411.709c0-10.627,6.724-19.682,16.15-23.145c-2.65-0.973-5.513-1.505-8.5-1.505
					c-13.614,0-24.65,11.036-24.65,24.65c0,13.614,11.036,24.65,24.65,24.65c2.987,0,5.85-0.532,8.5-1.506
					C342.217,431.391,335.493,422.336,335.493,411.709z"/>
			</g>
		</g>
		<g>
			<g>
				<path class="st2" d="M420.304,411.709c0-10.627,6.724-19.682,16.15-23.145c-2.65-0.973-5.513-1.505-8.5-1.505
					c-13.614,0-24.65,11.036-24.65,24.65c0,13.614,11.036,24.65,24.65,24.65c2.987,0,5.85-0.532,8.5-1.506
					C427.028,431.391,420.304,422.336,420.304,411.709z"/>
			</g>
		</g>
		<g>
			<g>
				<path class="st6" d="M83.353,426.36c-8.078,0-14.65-6.572-14.65-14.65s6.572-14.65,14.65-14.65s14.65,6.572,14.65,14.65
					S91.431,426.36,83.353,426.36z"/>
			</g>
		</g>
		<g>
			<g>
				<circle class="st6" cx="168.164" cy="411.709" r="14.65"/>
			</g>
		</g>
		<g>
			<g>
				<circle class="st6" cx="343.143" cy="411.709" r="14.65"/>
			</g>
		</g>
		<g>
			<g>
				<circle class="st6" cx="427.954" cy="411.709" r="14.65"/>
			</g>
		</g>
		<g>
			<g>
				<path class="st9" d="M80.292,426.033c-2.888-4.037-4.59-8.98-4.59-14.323s1.702-10.286,4.59-14.323
					c-6.613,1.412-11.59,7.295-11.59,14.323S73.679,424.621,80.292,426.033z"/>
			</g>
		</g>
		<g>
			<g>
				<path class="st9" d="M165.104,426.033c-2.888-4.038-4.59-8.981-4.59-14.324s1.702-10.286,4.59-14.324
					c-6.613,1.412-11.59,7.295-11.59,14.324S158.49,424.621,165.104,426.033z"/>
			</g>
		</g>
		<g>
			<g>
				<path class="st9" d="M340.083,426.033c-2.888-4.038-4.59-8.981-4.59-14.324s1.702-10.286,4.59-14.324
					c-6.613,1.412-11.59,7.295-11.59,14.324S333.469,424.621,340.083,426.033z"/>
			</g>
		</g>
		<g>
			<g>
				<path class="st9" d="M424.894,426.033c-2.888-4.038-4.59-8.981-4.59-14.324s1.702-10.286,4.59-14.324
					c-6.613,1.412-11.59,7.295-11.59,14.324S418.281,424.621,424.894,426.033z"/>
			</g>
		</g>
	</g>
	<g>
		<g>
			<path class="st11" d="M105.26,362.458H87.514c-3.314,0-6-2.686-6-6V128.74c0-3.314,2.686-6,6-6h17.746c3.314,0,6,2.686,6,6
				v227.718C111.26,359.772,108.574,362.458,105.26,362.458z"/>
		</g>
	</g>
	<g>
		<g>
			<path class="st11" d="M425.137,362.458h-17.746c-3.314,0-6-2.686-6-6V128.74c0-3.314,2.686-6,6-6h17.746c3.314,0,6,2.686,6,6
				v227.718C431.137,359.772,428.451,362.458,425.137,362.458z"/>
		</g>
	</g>
	<g>
		<g>
			<path class="st23" d="M97.438,354.894V130.305c0-4.178,3.056-7.564,6.825-7.564H88.339c-3.769,0-6.825,3.386-6.825,7.564v224.589
				c0,4.177,3.056,7.564,6.825,7.564h15.925C100.494,362.458,97.438,359.071,97.438,354.894z"/>
		</g>
	</g>
	<g>
		<g>
			<path class="st23" d="M417.316,354.894V130.305c0-4.178,3.056-7.564,6.825-7.564h-15.925c-3.769,0-6.825,3.386-6.825,7.564
				v224.589c0,4.177,3.056,7.564,6.825,7.564h15.925C420.372,362.458,417.316,359.071,417.316,354.894z"/>
		</g>
	</g>
	<g>
		<g>
			<path class="st4" d="M196.79,133.427h-46.008c-2.257,0-4.086,1.804-4.086,4.029v38.877v3.273v42.15v42.149v42.15v4.278v37.872
				c0,2.225,1.83,4.03,4.086,4.03h46.008c2.257,0,4.086-1.804,4.086-4.03V137.456C200.876,135.231,199.046,133.427,196.79,133.427z
				 M192.703,344.176h-37.836v-33.842v-0.248h37.836V344.176z M192.703,302.026h-37.836v-34.091h37.836V302.026z M192.703,259.876
				h-37.836v-34.09h37.836V259.876z M192.703,217.727h-37.836v-34.091h37.836V217.727z M192.703,175.577h-37.836v-34.091h37.836
				V175.577z"/>
		</g>
	</g>
	<g>
		<g>
			<path class="st5" d="M479.722,233.362c-3.207,0-5.866-2.535-5.991-5.768c-1.675-43.198-27.652-60.661-28.757-61.384
				c-2.766-1.807-3.561-5.517-1.766-8.29s5.479-3.582,8.264-1.799c1.318,0.845,32.321,21.275,34.249,71.007
				c0.129,3.311-2.451,6.1-5.763,6.228C479.879,233.36,479.8,233.362,479.722,233.362z"/>
		</g>
	</g>
	<g>
		<g>
			<g>
				<path class="st2" d="M212.715,381.145c-2.257,0-4.086-1.83-4.086-4.086v-20.935h-37.836v20.935c0,2.257-1.83,4.086-4.086,4.086
					s-4.086-1.83-4.086-4.086v-266.57c0-2.257,1.83-4.086,4.086-4.086s4.086,1.83,4.086,4.086v6.499h37.836v-6.499
					c0-2.257,1.83-4.086,4.086-4.086s4.086,1.83,4.086,4.086v266.57C216.801,379.316,214.971,381.145,212.715,381.145z
					 M170.792,347.952h37.836V317.63h-37.836V347.952z M170.792,309.458h37.836v-30.321h-37.836V309.458z M170.792,270.964h37.836
					v-30.321h-37.836V270.964z M170.792,232.47h37.836v-30.321h-37.836V232.47z M170.792,193.976h37.836v-30.321h-37.836V193.976z
					 M170.792,155.483h37.836v-30.322h-37.836V155.483z"/>
			</g>
		</g>
	</g>
	<g>
		<g>
			<g>
				<path class="st2" d="M212.715,381.145c-2.257,0-4.086-1.83-4.086-4.086v-20.935h-37.836v20.935c0,2.257-1.83,4.086-4.086,4.086
					s-4.086-1.83-4.086-4.086v-266.57c0-2.257,1.83-4.086,4.086-4.086s4.086,1.83,4.086,4.086v6.499h37.836v-6.499
					c0-2.257,1.83-4.086,4.086-4.086s4.086,1.83,4.086,4.086v266.57C216.801,379.316,214.971,381.145,212.715,381.145z
					 M170.792,347.952h37.836V317.63h-37.836V347.952z M170.792,309.458h37.836v-30.321h-37.836V309.458z M170.792,270.964h37.836
					v-30.321h-37.836V270.964z M170.792,232.47h37.836v-30.321h-37.836V232.47z M170.792,193.976h37.836v-30.321h-37.836V193.976z
					 M170.792,155.483h37.836v-30.322h-37.836V155.483z"/>
			</g>
		</g>
	</g>
	<g>
		<g>
			<g>
				<path class="st2" d="M212.715,381.145c-2.257,0-4.086-1.83-4.086-4.086v-20.935h-37.836v20.935c0,2.257-1.83,4.086-4.086,4.086
					s-4.086-1.83-4.086-4.086v-266.57c0-2.257,1.83-4.086,4.086-4.086s4.086,1.83,4.086,4.086v6.499h37.836v-6.499
					c0-2.257,1.83-4.086,4.086-4.086s4.086,1.83,4.086,4.086v266.57C216.801,379.316,214.971,381.145,212.715,381.145z
					 M170.792,347.952h37.836V317.63h-37.836V347.952z M170.792,309.458h37.836v-30.321h-37.836V309.458z M170.792,270.964h37.836
					v-30.321h-37.836V270.964z M170.792,232.47h37.836v-30.321h-37.836V232.47z M170.792,193.976h37.836v-30.321h-37.836V193.976z
					 M170.792,155.483h37.836v-30.322h-37.836V155.483z"/>
			</g>
		</g>
	</g>
	<g>
		<g>
			<g>
				<path class="st10" d="M181.008,347.952h-10.216V317.63h10.216v-8.173h-10.216v-30.321h10.216v-8.173h-10.216v-30.321h10.216
					v-8.173h-10.216v-30.321h10.216v-8.173h-10.216v-30.321h10.216v-8.173h-10.216v-30.322h10.216v-8.173h-10.216v-6.499
					c0-2.257-1.83-4.086-4.086-4.086s-4.086,1.83-4.086,4.086v266.57c0,2.257,1.83,4.086,4.086,4.086s4.086-1.83,4.086-4.086
					v-20.935h10.216V347.952z"/>
			</g>
		</g>
	</g>
	<g>
		<g>
			<circle class="st4" cx="251.914" cy="276.895" r="15.324"/>
		</g>
	</g>
	<g>
		<g>
			<circle class="st4" cx="291.2" cy="302.026" r="15.324"/>
		</g>
	</g>
</g>
</svg>
