<?xml version="1.0" encoding="utf-8"?>
<!-- Generator: Adobe Illustrator 25.1.0, SVG Export Plug-In . SVG Version: 6.00 Build 0)  -->
<svg version="1.1" id="Layer_1" xmlns="http://www.w3.org/2000/svg" xmlns:xlink="http://www.w3.org/1999/xlink" x="0px" y="0px"
	 viewBox="0 0 426.5 343.4" enable-background="new 0 0 426.5 343.4" xml:space="preserve">
<g>
	
		<rect x="204.6" y="87.7" fill="#795548" stroke="#000000" stroke-width="10.4021" stroke-linecap="round" stroke-linejoin="round" stroke-miterlimit="10" width="17.3" height="250.5"/>
	
		<rect x="5.2" y="28.7" fill="#8BC34A" stroke="#000000" stroke-width="10.4021" stroke-linecap="round" stroke-linejoin="round" stroke-miterlimit="10" width="416.1" height="44.8"/>
	
		<polyline opacity="0.3" fill="none" stroke="#FFFFFF" stroke-width="8.3217" stroke-linecap="round" stroke-linejoin="round" stroke-miterlimit="10" points="
		21.8,52.8 21.8,45.4 60.6,45.4 	"/>
	
		<line opacity="0.3" fill="none" stroke="#FFFFFF" stroke-width="8.3217" stroke-linecap="round" stroke-linejoin="round" stroke-miterlimit="10" x1="76.1" y1="45.4" x2="88.7" y2="45.4"/>
	
		<polyline opacity="0.2" fill="none" stroke="#050505" stroke-width="18.7237" stroke-linecap="round" stroke-linejoin="round" stroke-miterlimit="10" points="
		406.7,54.8 406.7,59 353.7,59 	"/>
	
		<line opacity="0.2" fill="none" stroke="#050505" stroke-width="18.7237" stroke-linecap="round" stroke-linejoin="round" stroke-miterlimit="10" x1="320.9" y1="59" x2="312.3" y2="59"/>
	
		<circle fill="#ECEFF1" stroke="#000000" stroke-width="10.4021" stroke-linecap="round" stroke-linejoin="round" stroke-miterlimit="10" cx="213.2" cy="47.3" r="42.1"/>
	
		<path fill="#EBC427" stroke="#050505" stroke-width="8.3217" stroke-linecap="round" stroke-linejoin="round" stroke-miterlimit="10" d="
		M225.3,52.5c0-10.3-12.1-23.7-12.1-23.7s-12.1,13.5-12.1,23.7s5.4,13.4,12.1,13.4S225.3,62.8,225.3,52.5z"/>
	
		<line fill="none" stroke="#050505" stroke-width="10.4021" stroke-linecap="round" stroke-linejoin="round" stroke-miterlimit="10" x1="63.8" y1="338.2" x2="362.7" y2="338.2"/>
	<g>
		<g>
			
				<rect x="115" y="196.1" fill="#CD2728" stroke="#000000" stroke-width="10.4021" stroke-linecap="round" stroke-linejoin="round" stroke-miterlimit="10" width="61.3" height="142.1"/>
			
				<rect x="115" y="196.1" fill="#009588" stroke="#000000" stroke-width="10.4021" stroke-linecap="round" stroke-linejoin="round" stroke-miterlimit="10" width="61.3" height="45.4"/>
			
				<polyline opacity="0.3" fill="none" stroke="#FFFFFF" stroke-width="8.3217" stroke-linecap="round" stroke-linejoin="round" stroke-miterlimit="10" points="
				131.6,218.9 131.6,212.8 148.3,212.8 			"/>
			
				<polyline fill="none" stroke="#050505" stroke-width="10.4021" stroke-linecap="round" stroke-linejoin="round" stroke-miterlimit="10" points="
				115,310.1 96.9,289.8 96.9,214.3 			"/>
		</g>
		<g>
			
				<rect x="250.2" y="196.1" transform="matrix(-1 -4.492596e-11 4.492596e-11 -1 561.7244 534.3458)" fill="#CD2728" stroke="#000000" stroke-width="10.4021" stroke-linecap="round" stroke-linejoin="round" stroke-miterlimit="10" width="61.3" height="142.1"/>
			
				<rect x="250.2" y="196.1" transform="matrix(-1 -4.492596e-11 4.492596e-11 -1 561.7244 437.7097)" fill="#009588" stroke="#000000" stroke-width="10.4021" stroke-linecap="round" stroke-linejoin="round" stroke-miterlimit="10" width="61.3" height="45.4"/>
			
				<polyline fill="none" stroke="#050505" stroke-width="10.4021" stroke-linecap="round" stroke-linejoin="round" stroke-miterlimit="10" points="
				311.5,310.1 329.6,289.8 329.6,214.3 			"/>
		</g>
	</g>
</g>
</svg>
