<?xml version="1.0" encoding="utf-8"?>
<!-- Generator: Adobe Illustrator 25.1.0, SVG Export Plug-In . SVG Version: 6.00 Build 0)  -->
<svg version="1.1" id="Layer_1" xmlns="http://www.w3.org/2000/svg" xmlns:xlink="http://www.w3.org/1999/xlink" x="0px" y="0px"
	 viewBox="0 0 426.5 348.1" enable-background="new 0 0 426.5 348.1" xml:space="preserve">
<g>
	<g>
		
			<path fill="#ECEFF1" stroke="#000000" stroke-width="10.4021" stroke-linecap="round" stroke-linejoin="round" stroke-miterlimit="10" d="
			M384,236.7l-24.7-52.8c-3.9-8.4-12.4-13.7-21.6-13.7H215.3c-9.3,0-17.7,5.4-21.6,13.7L169,236.7h0c-14.4,0-26.2,11.7-26.2,26.2
			v44.4c0,8.1,6.5,14.6,14.6,14.6h238c8.1,0,14.6-6.5,14.6-14.6v-44.4C410.2,248.4,398.4,236.7,384,236.7L384,236.7z"/>
		
			<path fill="#01BCD4" stroke="#000000" stroke-width="10.4021" stroke-linecap="round" stroke-linejoin="round" stroke-miterlimit="10" d="
			M187.7,228.4l17.9-38.3c1.9-4,5.9-6.5,10.3-6.5h121.2c4.4,0,8.4,2.5,10.3,6.5l17.9,38.3H187.7z"/>
		
			<polyline opacity="0.3" fill="none" stroke="#FFFFFF" stroke-width="8.3217" stroke-linecap="round" stroke-linejoin="round" stroke-miterlimit="10" points="
			215.9,207.4 219.3,200.2 244.9,200.2 		"/>
		
			<line opacity="0.3" fill="none" stroke="#FFFFFF" stroke-width="8.3217" stroke-linecap="round" stroke-linejoin="round" stroke-miterlimit="10" x1="259.6" y1="200.2" x2="274.1" y2="200.2"/>
		
			<path fill="#EBC427" stroke="#050505" stroke-width="10.4021" stroke-linecap="round" stroke-linejoin="round" stroke-miterlimit="10" d="
			M371.9,251.1l-13.4,5.8v10.9h38.8v0C397.3,254.7,383.9,245.9,371.9,251.1z"/>
		
			<path fill="#EBC427" stroke="#050505" stroke-width="10.4021" stroke-linecap="round" stroke-linejoin="round" stroke-miterlimit="10" d="
			M181.1,251.1l13.4,5.8v10.9h-38.8v0C155.7,254.7,169.1,245.9,181.1,251.1z"/>
		
			<path fill="#607D8B" stroke="#000000" stroke-width="10.4021" stroke-linecap="round" stroke-linejoin="round" stroke-miterlimit="10" d="
			M309.5,282.7h-65.9c-6,0-11.7,2.8-15.3,7.6l-11,14.5h118.5l-11-14.5C321.1,285.5,315.5,282.7,309.5,282.7z"/>
		<g>
			
				<path fill="#CD2728" stroke="#000000" stroke-width="10.4021" stroke-linecap="round" stroke-linejoin="round" stroke-miterlimit="10" d="
				M393.3,304.8h-28v-16.4h32v12.4C397.3,303,395.5,304.8,393.3,304.8z"/>
			
				<path fill="#CD2728" stroke="#000000" stroke-width="10.4021" stroke-linecap="round" stroke-linejoin="round" stroke-miterlimit="10" d="
				M159.7,304.8h28v-16.4h-32v12.4C155.7,303,157.5,304.8,159.7,304.8z"/>
		</g>
		<g>
			
				<path fill="#374046" stroke="#000000" stroke-width="10.4021" stroke-linecap="round" stroke-linejoin="round" stroke-miterlimit="10" d="
				M208,321.9v11c0,5.6-4.5,10.1-10.1,10.1h-22.3c-5.6,0-10.1-4.5-10.1-10.1v-11H208z"/>
			
				<path fill="#374046" stroke="#000000" stroke-width="10.4021" stroke-linecap="round" stroke-linejoin="round" stroke-miterlimit="10" d="
				M387.4,321.9v11c0,5.6-4.5,10.1-10.1,10.1H355c-5.6,0-10.1-4.5-10.1-10.1v-11H387.4z"/>
		</g>
		<g>
			<g>
				
					<rect x="391.4" y="210.8" fill="#ECEFF1" stroke="#000000" stroke-width="10.4021" stroke-linecap="round" stroke-linejoin="round" stroke-miterlimit="10" width="29.9" height="17.5"/>
				
					<line fill="#ECEFF1" stroke="#000000" stroke-width="10.4021" stroke-linecap="round" stroke-linejoin="round" stroke-miterlimit="10" x1="381.5" y1="228.4" x2="391.4" y2="228.4"/>
			</g>
			<g>
				
					<rect x="131.7" y="210.8" transform="matrix(-1 -4.458979e-11 4.458979e-11 -1 293.3364 439.1837)" fill="#ECEFF1" stroke="#000000" stroke-width="10.4021" stroke-linecap="round" stroke-linejoin="round" stroke-miterlimit="10" width="29.9" height="17.5"/>
				
					<line fill="#ECEFF1" stroke="#000000" stroke-width="10.4021" stroke-linecap="round" stroke-linejoin="round" stroke-miterlimit="10" x1="171.5" y1="228.4" x2="161.6" y2="228.4"/>
			</g>
		</g>
	</g>
	
		<rect x="5.2" y="42.4" fill="#9E9E9E" stroke="#000000" stroke-width="10.4021" stroke-linecap="round" stroke-linejoin="round" stroke-miterlimit="10" width="34.4" height="299.2"/>
	
		<rect x="5.2" y="29.7" fill="#CD2728" stroke="#000000" stroke-width="10.4021" stroke-linecap="round" stroke-linejoin="round" stroke-miterlimit="10" width="416.1" height="41.7"/>
	
		<line opacity="0.2" fill="none" stroke="#050505" stroke-width="18.7237" stroke-linecap="round" stroke-linejoin="round" stroke-miterlimit="10" x1="318.3" y1="56.9" x2="298.7" y2="56.9"/>
	
		<polyline opacity="0.2" fill="none" stroke="#050505" stroke-width="18.7237" stroke-linecap="round" stroke-linejoin="round" stroke-miterlimit="10" points="
		406.7,44.3 406.7,56.9 352.9,56.9 	"/>
	
		<polyline opacity="0.3" fill="none" stroke="#FFFFFF" stroke-width="8.3217" stroke-linecap="round" stroke-linejoin="round" stroke-miterlimit="10" points="
		21.8,54.8 21.8,46.4 54.5,46.4 	"/>
	
		<line opacity="0.3" fill="none" stroke="#FFFFFF" stroke-width="8.3217" stroke-linecap="round" stroke-linejoin="round" stroke-miterlimit="10" x1="72.9" y1="46.4" x2="90.1" y2="46.4"/>
	
		<circle fill="#ECEFF1" stroke="#000000" stroke-width="10.4021" stroke-linecap="round" stroke-linejoin="round" stroke-miterlimit="10" cx="213.2" cy="47.3" r="42.1"/>
	
		<path fill="#EBC427" stroke="#050505" stroke-width="8.3217" stroke-linecap="round" stroke-linejoin="round" stroke-miterlimit="10" d="
		M225.3,52.5c0-10.3-12.1-23.7-12.1-23.7s-12.1,13.5-12.1,23.7s5.4,13.4,12.1,13.4S225.3,62.8,225.3,52.5z"/>
	
		<path fill="#CD2728" stroke="#000000" stroke-width="10.4021" stroke-linecap="round" stroke-linejoin="round" stroke-miterlimit="10" d="
		M75,341.8H39.6V163.7h5.1c16.7,0,30.3,13.6,30.3,30.3V341.8z"/>
	
		<path fill="#CD2728" stroke="#000000" stroke-width="10.4021" stroke-linecap="round" stroke-linejoin="round" stroke-miterlimit="10" d="
		M103.4,244.5h-8.1c-3.3,0-6-2.7-6-6v-21.1c0-3.3,2.7-6,6-6h8.1c3.3,0,6,2.7,6,6v21.1C109.5,241.8,106.8,244.5,103.4,244.5z"/>
	
		<line fill="none" stroke="#000000" stroke-width="10.4021" stroke-linecap="round" stroke-linejoin="round" stroke-miterlimit="10" x1="103.4" y1="211.3" x2="87.9" y2="181.8"/>
	
		<path fill="none" stroke="#000000" stroke-width="10.4021" stroke-linecap="round" stroke-linejoin="round" stroke-miterlimit="10" d="
		M99.4,244.5V298c0,11.3-9.2,20.5-20.5,20.5H75"/>
</g>
</svg>
