<?xml version="1.0" encoding="utf-8"?>
<!-- Generator: Adobe Illustrator 25.1.0, SVG Export Plug-In . SVG Version: 6.00 Build 0)  -->
<svg version="1.1" id="Layer_1" xmlns="http://www.w3.org/2000/svg" xmlns:xlink="http://www.w3.org/1999/xlink" x="0px" y="0px"
	 viewBox="0 0 348.9 425.4" enable-background="new 0 0 348.9 425.4" xml:space="preserve">
<g>
	
		<path fill="#F44336" stroke="#000000" stroke-width="10.4021" stroke-linecap="round" stroke-linejoin="round" stroke-miterlimit="10" d="
		M278.7,382.7H36V42.5C36,21.9,52.7,5.2,73.3,5.2h168.1c20.6,0,37.3,16.7,37.3,37.3V382.7z"/>
	
		<polyline opacity="0.2" fill="none" stroke="#050505" stroke-width="18.7237" stroke-linecap="round" stroke-linejoin="round" stroke-miterlimit="10" points="
		264.1,308.9 264.1,368.1 185.5,368.1 	"/>
	
		<line opacity="0.2" fill="none" stroke="#050505" stroke-width="18.7237" stroke-linecap="round" stroke-linejoin="round" stroke-miterlimit="10" x1="153.1" y1="368.1" x2="138.2" y2="368.1"/>
	
		<path opacity="0.3" fill="none" stroke="#FFFFFF" stroke-width="8.3217" stroke-linecap="round" stroke-linejoin="round" stroke-miterlimit="10" d="
		M52.6,55V42.5c0-11.4,9.3-20.7,20.7-20.7h24.6"/>
	
		<line opacity="0.3" fill="none" stroke="#FFFFFF" stroke-width="8.3217" stroke-linecap="round" stroke-linejoin="round" stroke-miterlimit="10" x1="115.5" y1="21.8" x2="134.1" y2="21.8"/>
	<path fill="#F4F0E9" d="M294,382.9H20.6c-8.5,0-15.4,6.9-15.4,15.4v21.9h304.2v-21.9C309.4,389.8,302.5,382.9,294,382.9z"/>
	
		<path fill="#607D8B" stroke="#000000" stroke-width="10.4021" stroke-linecap="round" stroke-linejoin="round" stroke-miterlimit="10" d="
		M294,382.9H20.6c-8.5,0-15.4,6.9-15.4,15.4v21.9h304.2v-21.9C309.4,389.8,302.5,382.9,294,382.9z"/>
	
		<polyline opacity="0.3" fill="none" stroke="#FFFFFF" stroke-width="8.3217" stroke-linecap="round" stroke-linejoin="round" stroke-miterlimit="10" points="
		21.8,403.6 21.8,399.5 74.4,399.5 	"/>
	
		<line opacity="0.3" fill="none" stroke="#FFFFFF" stroke-width="8.3217" stroke-linecap="round" stroke-linejoin="round" stroke-miterlimit="10" x1="92.5" y1="399.5" x2="110.1" y2="399.5"/>
	
		<path fill="none" stroke="#000000" stroke-width="10.4021" stroke-linecap="round" stroke-linejoin="round" stroke-miterlimit="10" d="
		M337.1,107.2c-2.3-7.6-4.4-15.3-7-22.9c-3.4-10-13.6-15.7-22.5-20.3"/>
	
		<path fill="#01BCD4" stroke="#000000" stroke-width="10.4021" stroke-linecap="round" stroke-linejoin="round" stroke-miterlimit="10" d="
		M239.8,35.9H74.8c-3.4,0-6.2,2.8-6.2,6.2v107.8c0,3.4,2.8,6.2,6.2,6.2h165.1c3.4,0,6.2-2.8,6.2-6.2V42.2
		C246.1,38.7,243.3,35.9,239.8,35.9z"/>
	
		<line opacity="0.2" fill="none" stroke="#050505" stroke-width="18.7237" stroke-linecap="round" stroke-linejoin="round" stroke-miterlimit="10" x1="209" y1="141.6" x2="133.4" y2="141.6"/>
	
		<polyline opacity="0.3" fill="none" stroke="#FFFFFF" stroke-width="8.3217" stroke-linecap="round" stroke-linejoin="round" stroke-miterlimit="10" points="
		85.2,66 85.2,52.6 110.5,52.6 	"/>
	
		<line opacity="0.3" fill="none" stroke="#FFFFFF" stroke-width="8.3217" stroke-linecap="round" stroke-linejoin="round" stroke-miterlimit="10" x1="126.7" y1="52.6" x2="140.1" y2="52.6"/>
	
		<path fill="none" stroke="#000000" stroke-width="10.4021" stroke-linecap="round" stroke-linejoin="round" stroke-miterlimit="10" d="
		M325.6,157.9v146c0,13-10.5,23.5-23.5,23.5c-13,0-23.5-10.5-23.5-23.5v-7"/>
	
		<rect x="160.4" y="102.1" fill="#CDDC39" stroke="#000000" stroke-width="10.4021" stroke-linecap="round" stroke-linejoin="round" stroke-miterlimit="10" width="64.9" height="33.2"/>
	
		<polygon fill="#CD2728" stroke="#000000" stroke-width="10.4021" stroke-linecap="round" stroke-linejoin="round" stroke-miterlimit="10" points="
		343.7,109.2 343.7,157.9 307.6,157.9 307.6,133.3 331.7,109.2 	"/>
	
		<path fill="#FFEB3B" stroke="#000000" stroke-width="10.4021" stroke-linecap="round" stroke-linejoin="round" stroke-miterlimit="10" d="
		M183.6,273.4c0-22.3-26.3-51.7-26.3-51.7S131,251.1,131,273.4c0,22.3,11.8,29.1,26.3,29.1C171.8,302.5,183.6,295.7,183.6,273.4z"/>
</g>
</svg>
