<?xml version="1.0" encoding="utf-8"?>
<!-- Generator: Adobe Illustrator 25.1.0, SVG Export Plug-In . SVG Version: 6.00 Build 0)  -->
<svg version="1.1" id="Layer_1" xmlns="http://www.w3.org/2000/svg" xmlns:xlink="http://www.w3.org/1999/xlink" x="0px" y="0px"
	 viewBox="0 0 426.7 284.2" enable-background="new 0 0 426.7 284.2" xml:space="preserve">
<g>
	
		<rect x="253.1" y="21.5" fill="#F44336" stroke="#000000" stroke-width="10.4021" stroke-linecap="round" stroke-linejoin="round" stroke-miterlimit="10" width="54.6" height="22.2"/>
	
		<path fill="#FF5723" stroke="#000000" stroke-width="10.4021" stroke-linecap="round" stroke-linejoin="round" stroke-miterlimit="10" d="
		M309.5,21.5h-58.2c-4.5,0-8.1-3.6-8.1-8.1v0c0-4.5,3.6-8.1,8.1-8.1h58.2c4.5,0,8.1,3.6,8.1,8.1v0C317.7,17.8,314,21.5,309.5,21.5z"
		/>
	
		<polygon fill="#FFC108" stroke="#000000" stroke-width="10.4021" stroke-linecap="round" stroke-linejoin="round" stroke-miterlimit="10" points="
		121.9,203.7 121.9,26.6 48.9,26.6 5.2,144.6 5.2,240.3 121.9,240.3 421.5,240.3 421.5,203.7 	"/>
	
		<path fill="#FF5723" stroke="#000000" stroke-width="10.4021" stroke-linecap="round" stroke-linejoin="round" stroke-miterlimit="10" d="
		M376.9,203.7h-193c-24.6,0-44.6-20-44.6-44.6v-73c0-24.6,20-44.6,44.6-44.6h193c24.6,0,44.6,20,44.6,44.6v73
		C421.5,183.7,401.6,203.7,376.9,203.7z"/>
	
		<path opacity="0.2" fill="none" stroke="#050505" stroke-width="18.7237" stroke-linecap="round" stroke-linejoin="round" stroke-miterlimit="10" d="
		M407,142.4v16.7c0,16.6-13.5,30-30,30H318"/>
	
		<path opacity="0.3" fill="none" stroke="#FFFFFF" stroke-width="8.3217" stroke-linecap="round" stroke-linejoin="round" stroke-miterlimit="10" d="
		M156,100.8V86.1c0-15.4,12.5-27.9,27.9-27.9h62.1"/>
	
		<line opacity="0.3" fill="none" stroke="#FFFFFF" stroke-width="8.3217" stroke-linecap="round" stroke-linejoin="round" stroke-miterlimit="10" x1="265.6" y1="58.2" x2="286" y2="58.2"/>
	<g>
		
			<circle fill="#374046" stroke="#000000" stroke-width="10.4021" stroke-linecap="round" stroke-linejoin="round" stroke-miterlimit="10" cx="71.3" cy="240.3" r="38.6"/>
		
			<circle fill="#ECEFF1" stroke="#000000" stroke-width="10.4021" stroke-linecap="round" stroke-linejoin="round" stroke-miterlimit="10" cx="71.3" cy="240.3" r="13.8"/>
	</g>
	<g>
		
			<circle fill="#374046" stroke="#000000" stroke-width="10.4021" stroke-linecap="round" stroke-linejoin="round" stroke-miterlimit="10" cx="279.4" cy="240.3" r="38.6"/>
		
			<circle fill="#ECEFF1" stroke="#000000" stroke-width="10.4021" stroke-linecap="round" stroke-linejoin="round" stroke-miterlimit="10" cx="279.4" cy="240.3" r="13.8"/>
	</g>
	<g>
		
			<circle fill="#374046" stroke="#000000" stroke-width="10.4021" stroke-linecap="round" stroke-linejoin="round" stroke-miterlimit="10" cx="370.9" cy="240.3" r="38.6"/>
		
			<circle fill="#ECEFF1" stroke="#000000" stroke-width="10.4021" stroke-linecap="round" stroke-linejoin="round" stroke-miterlimit="10" cx="370.9" cy="240.3" r="13.8"/>
	</g>
	
		<rect x="5.2" y="159.6" fill="#FFEB3B" stroke="#000000" stroke-width="10.4021" stroke-linecap="round" stroke-linejoin="round" stroke-miterlimit="10" width="27.5" height="39.9"/>
	
		<polygon fill="#01BCD4" stroke="#000000" stroke-width="10.4021" stroke-linecap="round" stroke-linejoin="round" stroke-miterlimit="10" points="
		105.3,144.6 105.3,43.3 60.5,43.3 22.9,144.6 	"/>
	
		<polyline opacity="0.2" fill="none" stroke="#050505" stroke-width="18.7237" stroke-linecap="round" stroke-linejoin="round" stroke-miterlimit="10" points="
		90.7,108.4 90.7,130.1 64.7,130.1 	"/>
	
		<polyline opacity="0.3" fill="none" stroke="#FFFFFF" stroke-width="8.3217" stroke-linecap="round" stroke-linejoin="round" stroke-miterlimit="10" points="
		64.7,79.7 72.1,59.9 82.4,59.9 	"/>
	
		<line fill="none" stroke="#000000" stroke-width="10.4021" stroke-linecap="round" stroke-linejoin="round" stroke-miterlimit="10" x1="166.8" y1="26.6" x2="166.8" y2="203.7"/>
	
		<line fill="none" stroke="#000000" stroke-width="10.4021" stroke-linecap="round" stroke-linejoin="round" stroke-miterlimit="10" x1="220.9" y1="26.6" x2="220.9" y2="203.7"/>
	
		<line fill="none" stroke="#000000" stroke-width="10.4021" stroke-linecap="round" stroke-linejoin="round" stroke-miterlimit="10" x1="166.8" y1="184" x2="220.9" y2="184"/>
	
		<line fill="none" stroke="#000000" stroke-width="10.4021" stroke-linecap="round" stroke-linejoin="round" stroke-miterlimit="10" x1="166.8" y1="142.4" x2="220.9" y2="142.4"/>
	
		<line fill="none" stroke="#000000" stroke-width="10.4021" stroke-linecap="round" stroke-linejoin="round" stroke-miterlimit="10" x1="166.8" y1="100.8" x2="220.9" y2="100.8"/>
	
		<line fill="none" stroke="#000000" stroke-width="10.4021" stroke-linecap="round" stroke-linejoin="round" stroke-miterlimit="10" x1="166.8" y1="59.2" x2="220.9" y2="59.2"/>
	
		<path fill="#FFEB3B" stroke="#000000" stroke-width="10.4021" stroke-linecap="round" stroke-linejoin="round" stroke-miterlimit="10" d="
		M301.9,131.9c0-18.2-21.5-42.2-21.5-42.2s-21.5,24-21.5,42.2s9.6,23.8,21.5,23.8C292.3,155.7,301.9,150.1,301.9,131.9z"/>
</g>
</svg>
