<?xml version="1.0" encoding="utf-8"?>
<!-- Generator: Adobe Illustrator 25.1.0, SVG Export Plug-In . SVG Version: 6.00 Build 0)  -->
<svg version="1.1" id="Layer_1" xmlns="http://www.w3.org/2000/svg" xmlns:xlink="http://www.w3.org/1999/xlink" x="0px" y="0px"
	 viewBox="0 0 426.5 426.5" enable-background="new 0 0 426.5 426.5" xml:space="preserve">
<g>
	
		<circle fill="#3F51B5" stroke="#000000" stroke-width="10.4021" stroke-linecap="round" stroke-linejoin="round" stroke-miterlimit="10" cx="213.2" cy="213.2" r="208"/>
	
		<path opacity="0.2" fill="none" stroke="#050505" stroke-width="18.7237" stroke-linecap="round" stroke-linejoin="round" stroke-miterlimit="10" d="
		M388.2,295.9c-23.3,49.1-66.7,86.9-119.4,102.7"/>
	
		<path opacity="0.3" fill="none" stroke="#FFFFFF" stroke-width="8.3217" stroke-linecap="round" stroke-linejoin="round" stroke-miterlimit="10" d="
		M76.2,79.8c8.6-8.8,18-16.8,28.1-23.8"/>
	
		<path opacity="0.3" fill="none" stroke="#FFFFFF" stroke-width="8.3217" stroke-linecap="round" stroke-linejoin="round" stroke-miterlimit="10" d="
		M123.3,44.3c6.2-3.3,12.6-6.3,19.2-8.9"/>
	
		<circle fill="#01BCD4" stroke="#000000" stroke-width="10.4021" stroke-linecap="round" stroke-linejoin="round" stroke-miterlimit="10" cx="213.2" cy="213.2" r="165.7"/>
	
		<path opacity="0.2" fill="none" stroke="#050505" stroke-width="18.7237" stroke-linecap="round" stroke-linejoin="round" stroke-miterlimit="10" d="
		M357.6,258.1c-4.6,14.9-11.5,28.8-20.2,41.3"/>
	
		<path opacity="0.2" fill="none" stroke="#050505" stroke-width="18.7237" stroke-linecap="round" stroke-linejoin="round" stroke-miterlimit="10" d="
		M315.1,324.9c-4.5,4.1-9.2,7.9-14.2,11.5"/>
	
		<path opacity="0.3" fill="none" stroke="#FFFFFF" stroke-width="8.3217" stroke-linecap="round" stroke-linejoin="round" stroke-miterlimit="10" d="
		M73.5,161.2c9.7-25.9,26.3-48.4,47.7-65.2"/>
	
		<path opacity="0.3" fill="none" stroke="#FFFFFF" stroke-width="8.3217" stroke-linecap="round" stroke-linejoin="round" stroke-miterlimit="10" d="
		M139.3,83.8c5.4-3.1,11.1-5.9,17-8.3"/>
	
		<path fill="none" stroke="#050505" stroke-width="10.4021" stroke-linecap="round" stroke-linejoin="round" stroke-miterlimit="10" d="
		M213.2,330.4c64.7,0,117.2-52.5,117.2-117.2S278,96.1,213.2,96.1"/>
	<g>
		
			<path fill="#CD2728" stroke="#000000" stroke-width="10.4021" stroke-linecap="round" stroke-linejoin="round" stroke-miterlimit="10" d="
			M259.4,340c-14.4,5.3-29.9,8.1-46.1,8.1v-35.4c11.9,0,23.4-2.1,34-6L259.4,340z"/>
	</g>
	
		<line fill="none" stroke="#050505" stroke-width="10.4021" stroke-linecap="round" stroke-linejoin="round" stroke-miterlimit="10" x1="213.2" y1="79.8" x2="213.2" y2="111.4"/>
	
		<polygon fill="#E91E63" stroke="#000000" stroke-width="10.4021" stroke-linecap="round" stroke-linejoin="round" stroke-miterlimit="10" points="
		224.2,215.2 212.5,203.5 300.5,118.4 309.3,127.1 	"/>
	
		<line fill="none" stroke="#050505" stroke-width="10.4021" stroke-linecap="round" stroke-linejoin="round" stroke-miterlimit="10" x1="346.7" y1="213.2" x2="315.1" y2="213.2"/>
	
		<circle fill="#9E9E9E" stroke="#000000" stroke-width="10.4021" stroke-linecap="round" stroke-linejoin="round" stroke-miterlimit="10" cx="213.2" cy="213.2" r="12.9"/>
	
		<line fill="none" stroke="#050505" stroke-width="10.4021" stroke-linecap="round" stroke-linejoin="round" stroke-miterlimit="10" x1="213.2" y1="346.7" x2="213.2" y2="315.1"/>
	
		<line fill="none" stroke="#050505" stroke-width="10.4021" stroke-linecap="round" stroke-linejoin="round" stroke-miterlimit="10" x1="213.2" y1="96.1" x2="213.2" y2="111.4"/>
	
		<line fill="none" stroke="#050505" stroke-width="10.4021" stroke-linecap="round" stroke-linejoin="round" stroke-miterlimit="10" x1="271.8" y1="111.8" x2="264.2" y2="125"/>
	
		<line fill="none" stroke="#050505" stroke-width="10.4021" stroke-linecap="round" stroke-linejoin="round" stroke-miterlimit="10" x1="314.7" y1="154.6" x2="301.4" y2="162.3"/>
	
		<line fill="none" stroke="#050505" stroke-width="10.4021" stroke-linecap="round" stroke-linejoin="round" stroke-miterlimit="10" x1="314.7" y1="271.8" x2="301.4" y2="264.2"/>
	
		<line fill="none" stroke="#050505" stroke-width="10.4021" stroke-linecap="round" stroke-linejoin="round" stroke-miterlimit="10" x1="271.8" y1="314.7" x2="264.2" y2="301.4"/>
	
		<polyline fill="none" stroke="#050505" stroke-width="10.4021" stroke-linecap="round" stroke-linejoin="round" stroke-miterlimit="10" points="
		191.1,79.8 172.5,79.8 172.5,111.4 	"/>
	
		<line fill="none" stroke="#050505" stroke-width="10.4021" stroke-linecap="round" stroke-linejoin="round" stroke-miterlimit="10" x1="172.5" y1="95.6" x2="183.3" y2="95.6"/>
	
		<polyline fill="none" stroke="#050505" stroke-width="10.4021" stroke-linecap="round" stroke-linejoin="round" stroke-miterlimit="10" points="
		191.1,314.9 172.5,314.9 172.5,346.5 	"/>
	
		<line fill="none" stroke="#050505" stroke-width="10.4021" stroke-linecap="round" stroke-linejoin="round" stroke-miterlimit="10" x1="172.5" y1="330.7" x2="183.3" y2="330.7"/>
	
		<line fill="none" stroke="#050505" stroke-width="10.4021" stroke-linecap="round" stroke-linejoin="round" stroke-miterlimit="10" x1="172.5" y1="346.5" x2="191.1" y2="346.5"/>
	
		<path fill="#FFEB3B" stroke="#000000" stroke-width="10.4021" stroke-linecap="round" stroke-linejoin="round" stroke-miterlimit="10" d="
		M126.4,220.3c0-15.2-18-35.3-18-35.3s-18,20-18,35.3c0,15.2,8,19.9,18,19.9S126.4,235.5,126.4,220.3z"/>
</g>
</svg>
