<?xml version="1.0" encoding="UTF-8"?><svg xmlns="http://www.w3.org/2000/svg" viewBox="0 0 1920 1080"><defs><style>.cls-1,.cls-2,.cls-3,.cls-4{fill:#f2f0f5;}.cls-5{fill:#f5866d;}.cls-6{fill:#004e48;}.cls-7{fill:#00736a;}.cls-8{fill:#ebecf6;}.cls-9{fill:#ec7262;}.cls-10{fill:#f68633;}.cls-11{fill:#fff;}.cls-12{fill:#f1eafa;}.cls-13{fill:#ecf2f9;}.cls-14{fill:#fccc39;}.cls-15{fill:#e52625;}.cls-16{fill:#e6dbce;}.cls-17{fill:#96bacc;}.cls-18{fill:#848e8d;}.cls-19{fill:#84a8cb;}.cls-20{fill:#b85f6f;}.cls-21{fill:#b4c1d4;}.cls-22{fill:#32654b;}.cls-23{fill:#32644b;}.cls-24{fill:#858f8e;}.cls-25,.cls-26,.cls-27{fill:#a7bbd5;}.cls-28{fill:#d7e2ff;}.cls-29{fill:#d96359;}.cls-30,.cls-31{fill:#bbcbd7;}.cls-32{fill:#aab8cd;}.cls-33{fill:#d1541e;}.cls-34{fill:#c3d4ff;}.cls-35{fill:#dfecf3;}.cls-36{fill:#6dbe45;}.cls-37{fill:#96b3c3;}.cls-38{fill:#53936f;}.cls-39{fill:#87bc88;}.cls-40{fill:#6ec285;}.cls-41{fill:#549736;}.cls-42{fill:#295841;}.cls-43{fill:#2d308e;}.cls-44{fill:#5a3111;}.cls-45{fill:#394955;}.cls-46{fill:#627b88;}.cls-47{fill:#495a68;}.cls-48{fill:#7788a2;}.cls-49{fill:#7a9cbd;}.cls-50{fill:#4e5f6e;}.cls-31{opacity:.21;}.cls-31,.cls-51,.cls-2,.cls-52,.cls-26{mix-blend-mode:multiply;}.cls-51{fill:#f0efe0;}.cls-53{stroke:#34434e;stroke-width:5px;}.cls-53,.cls-54,.cls-55,.cls-56{fill:none;stroke-miterlimit:10;}.cls-52{fill:#b5b7c8;opacity:.4;}.cls-26,.cls-27{opacity:.46;}.cls-3{opacity:.19;}.cls-4{opacity:.34;}.cls-54{stroke:#f2f0f5;stroke-width:10px;}.cls-55{stroke:#bbcbd7;stroke-width:4px;}.cls-56{stroke:#7788a2;}.cls-57{isolation:isolate;}</style></defs><g class="cls-57"><g id="floor"><rect class="cls-16" x="196.58" y="706.43" width="1632.34" height="295.57"/><polygon class="cls-2" points="196.58 833.22 789.39 878.57 1145.42 878.57 1653.43 878.57 1828.92 871.01 1828.92 735.82 1329.31 742.54 1247.02 748.42 196.58 805.51 196.58 833.22"/><polygon class="cls-2" points="196.58 897.04 629.83 1002 196.58 1002 196.58 897.04"/></g><g id="sky"><rect class="cls-34" x="196.58" y="81.71" width="1632.34" height="624.72"/><path class="cls-28" d="M779.17,247.66c18.88,.29,40.88-.91,51.81-16.3,10.77-15.16,4.01-38-10.78-49.27-14.79-11.27-34.91-12.99-53.32-10.34-18.41,2.66-36.03,9.17-54.28,12.79,1.71-9.68-12.52-12.94-22.26-11.66-33.58,4.42-66.81,11.57-99.24,21.35,2.48-6.51-1.65-14.08-7.62-17.65-5.98-3.58-13.26-4.06-20.23-4.06-24.5,0-49,4.82-71.66,14.13,4.49-11.91-9.77-24.01-22.43-22.67-12.66,1.34-22.7,10.85-31.71,19.85-1.69-10.13-15.36-12.21-25.52-10.76-20.83,2.96-41.01,10.38-58.8,21.62,15.9-13.07,15.34-41.25-1.06-53.68s-43.68-5.34-51.96,13.5c5.77-11.2-4.05-25.33-16.15-28.83s-24.98,.34-36.98,4.16c2.32-18.32-14.27-34.86-32.35-38.64-18.07-3.78-36.71,2.03-53.81,9-34,13.88-91.86,50.76-97.04,91.02-9.07,70.49,143.57,47.61,181.5,48.2l344.05,5.31c63.28,.98,126.55,1.95,189.83,2.93Z"/><path class="cls-28" d="M642.95,316.51c1.65-9.22-6.98-17.56-16.08-19.79-9.1-2.23-18.62-.3-27.98,.17-29.26,1.47-57.67-11.53-86.97-11.07-8.73,.14-17.4,1.47-26.03,2.81-18.88,2.92-37.76,5.83-56.64,8.75-18.92-7.54-40.67-7.7-59.7-.43-10.45,3.99-36.71-3.71-49.4-2.28-13.8,1.55-34.12,3.79-43.91,13.92,57.83,9.77,122.76,4.21,181.55,5.38,61.71,1.23,123.43,2.08,185.15,2.55Z"/><path class="cls-28" d="M1413.85,240.71c-63.91,.63-128.24,1.23-191.23-9.61,28.99-38.02,72.88-64.35,120.07-72.03,12-1.95,29.61,2.95,26.87,14.79,13.35-10.28,30.51-15.48,47.32-14.36,7.51,.5,15.54,2.6,20.17,8.52s3.55,16.42-3.49,19.09c11.39-1.35,21.52-8.26,32.88-9.76,11.37-1.5,25.67,6.96,22.84,18.07,18.2-21.04,50.93-27.89,76.03-15.9,10.53-13.94,29.05-21.37,46.29-18.57,23.72-31.36,57.46-55.01,95.03-66.62l-8.32,7.37c19.35-22.1,52.1-25.01,81.44-26.35,13.77-.63,28.24-1.12,40.56,5.06s21.23,21.48,15.51,34.03c14.01-4.05,28.85-8.13,42.96-4.47s26.51,18.17,22.37,32.15c-5.49,18.55-11.41,18.9-7.53,38.4,3.12,15.63,6.35,29.23-5.58,43.26-15.67,18.45-41.45,13.33-63.06,13.03-86.62-1.18-173.47,1.56-260.1,2.41l-151.07,1.49Z"/><path class="cls-28" d="M857.13,132.98c25.95-10.19,53.26-16.94,80.97-20.01,5.99-.66,14.98,3.46,11.45,8.34,13.92-8.79,32.31-10.02,47.28-3.16,33.66-30.91,75.79-52.5,120.53-61.76,11.14-2.31,25.09-2.77,31.31,6.76,6.84,10.48-1.13,24.04-8.84,33.89,9.94-1.86,20.32,7.53,19.46,17.61,12.03-3.24,25.4-1.1,35.81,5.74,21.78-12.32,51.55-8.3,69.28,9.36,8.77-4.54,19.94-2.01,25.69,5.49-22.52,14.1-51.58,8.17-76.44,6.05-39.56-3.38-79.6-3.87-119.28-5.15-39.52-1.27-79.06-2.18-118.6-2.7-20.56-.27-41.12-.45-61.69-.52-15.44-.05-42.79-5.5-56.94,.06Z"/></g><g id="silhuete"><polygon class="cls-52" points="1831.86 686.1 1831.86 412.55 1826.1 424.73 1826.1 414.86 1823.94 398.33 1806.71 398.64 1790.19 398.64 1765.1 421.2 1751.67 420.1 1749.99 485.6 1713.04 485.6 1707.59 357.12 1590.52 357.12 1577.72 494.65 1525.82 494.65 1525.82 547.97 1509.97 547.97 1493.76 531.75 1448.72 531.75 1411.44 569.04 1361.54 569.04 1361.54 516.26 1329.84 516.26 1329.84 482.4 1287.32 482.4 1287.32 694.24 1559.15 694.24 1558.78 698.28 1831.86 686.1"/></g><g id="green"><polygon class="cls-42" points="1830.95 668.94 1791.97 656.89 1717.24 666.13 1700.45 640.94 1663.5 651.01 1636.63 646.81 1579.53 640.94 1538.39 640.94 1498.08 624.14 1466.18 640.1 1443.51 613.23 1430.07 634.22 1411.41 613.23 1411.6 734.98 1830.95 734.98 1830.95 668.94"/><path class="cls-42" d="M1224.63,631.73l31.07,2.59v8.63l8.63-2.59,11.22,10.36,12.08-5.18,10.36,8.63h9.5l25.03-11.22,19.85,2.59,6.91,5.18,8.63,3.45,5.18-8.63,4.32,1.73,4.32-4.32,6.04-8.63,3.45-2.59,2.59-11.22,5.18-6.04,.86-12.08,2.59-2.59,15.54,23.31-6.04,25.9,6.91,2.59,.86,21.58,5.18,3.45s2.59,15.54,2.59,18.13-3.45,11.22-3.45,11.22l-63.01,8.63-71.65-8.63-38.84-5.18-36.25-1.63,10.36-67.43Z"/><g><path class="cls-44" d="M1253.88,562.75s20.69,8.47,28.22,10.35l3.76,8.47v31.04l-3.76,76.19-.94,23.52h14.11s-2.82-79.96-2.82-100.65-2.82-33.86-2.82-33.86c0,0,23.52-2.82,26.34-7.53s13.17-15.99,13.17-15.99l-9.41,1.88-5.64,12.23-3.76-2.82-2.82-11.29-4.7,5.64,4.7,5.64,2.82,4.7-18.81,2.82-4.7-5.64-4.7,2.82-9.41-3.76,5.64-8.47h-9.41l.3,7.31-6.88-2.6h-8.47Z"/><polygon class="cls-39" points="1279.28 561.8 1240.71 570.27 1213.43 554.28 1217.2 531.7 1217.2 515.71 1213.43 502.54 1217.2 461.15 1232.25 423.53 1236.01 395.31 1245.41 384.02 1246.36 368.97 1268.93 337.93 1279.28 326.64 1293.39 321 1302.79 321 1335.72 381.2 1351.71 436.7 1334.78 452.69 1351.71 463.98 1351.71 483.73 1351.71 554.28 1308.44 561.8 1286.8 561.8 1279.28 561.8"/><polygon class="cls-38" points="1348.89 531.7 1351.71 526.03 1356.41 515.71 1362.06 504.42 1356.27 495.43 1358.29 481.85 1351.71 463.98 1337.6 505.37 1325.37 512.89 1314.08 513.83 1292.45 536.41 1286.8 536.41 1272.69 544.87 1257.64 549.58 1227.54 554.28 1227.54 562.55 1227.54 562.55 1240.71 570.27 1279.28 561.8 1286.8 561.8 1308.44 561.8 1351.71 554.28 1341.36 536.41 1346.07 539.23 1348.89 531.7"/><polygon class="cls-38" points="1315.96 479.97 1303.74 499.72 1285.86 501.6 1265.17 505.37 1245.41 492.2 1236.95 482.79 1234.13 463.98 1240.71 463.98 1241.65 457.39 1245.41 463.98 1245.41 448.93 1249.18 463.98 1251.06 458.33 1258.58 460.21 1264.23 460.21 1269.87 453.63 1272.69 443.28 1274.58 470.56 1284.92 463.98 1289.63 467.74 1299.03 463.98 1302.79 463.98 1315.96 467.74 1327.25 461.15 1323.49 474.32 1329.13 474.32 1315.96 479.97"/><polygon class="cls-38" points="1320.67 343.57 1351.71 400.95 1353.59 432.93 1345.12 447.99 1347.95 452.69 1348.89 454.57 1356.41 454.57 1351.71 458.33 1356.41 458.33 1353.59 463.98 1344.18 467.74 1329.13 470.56 1329.13 456.45 1314.08 460.21 1295.27 455.51 1282.1 445.16 1299.97 430.11 1282.1 421.65 1292.45 416 1299.97 406.6 1299.97 402.83 1302.79 396.25 1305.62 388.72 1298.09 375.55 1299.03 364.27 1308.44 357.68 1309.38 343.57 1307.87 330.28 1304.6 324.29 1320.67 343.57"/></g><polygon class="cls-38" points="1225.49 748.26 1216.86 716.32 1216.86 708.55 1216.86 693.88 1222.9 677.48 1224.63 692.15 1230.67 679.21 1233.26 677.48 1236.72 679.21 1241.03 672.3 1247.94 677.48 1253.12 679.21 1261.75 677.48 1286.78 673.16 1310.09 671.44 1310.09 679.21 1335.12 682.66 1347.2 686.97 1370.51 692.15 1373.1 683.52 1387.77 689.56 1392.09 692.15 1407.63 692.15 1411.08 694.74 1416.26 694.74 1424.03 699.92 1428.34 697.33 1430.07 699.92 1430.07 745.67 1225.49 748.26"/><polygon class="cls-39" points="1241.03 680.93 1233.26 683.52 1230.67 690.43 1227.22 697.33 1247.94 692.15 1248.8 688.7 1258.3 692.15 1266.06 692.15 1269.52 695.61 1269.52 688.7 1279.87 697.33 1283.33 696.47 1287.64 696.47 1297.14 699.92 1323.9 706.83 1330.8 707.69 1308.36 695.61 1305.77 691.29 1316.99 696.47 1316.99 692.15 1332.53 692.15 1342.02 692.15 1344.61 690.43 1328.21 683.52 1317.86 680.93 1309.22 684.39 1299.73 680.93 1298.87 677.48 1288.51 675.75 1288.51 674.03 1285.92 672.3 1251.95 678.65 1246.91 675.85 1241.03 680.93"/><path class="cls-38" d="M1830.95,713.6l-12.1-1.29-54.58-15.11h-94.88l-28.55-7.56-48.7,7.56c-8,1.21-16,2.41-24,3.62-5.2,.78-10.43,1.45-15.61,2.36-6.41,1.12-13.19,.1-19.34,2.52-2.78,1.1-5.51,2.74-8.49,2.55-1.59-.1-3.09-.71-4.66-1.01-2.97-.57-6.02,.03-8.98,.62-5.23,1.05-10.47,2.09-15.71,3.14-5.37,1.07-10.88,2.15-16.29,1.31-6.04-.94-12.26-4.22-17.93-1.95-2.74,1.1-4.9,3.38-7.68,4.37-4.46,1.59-9.37-.49-13.36-3.04-3.99-2.55-7.83-5.7-12.5-6.53-2.28-.41-4.61-.22-6.91,.01-5.62,.58-11.2,1.54-16.75,2.78-25.63,5.76-50.4,17.69-74.61,27.03l-82.29,7.56,140.2,5.92,89.03-.04h225.03l73.05,5.04,56.61,8.83v-48.69Z"/><path class="cls-39" d="M1416.26,694.74l25.57,31s-6.72-16.79,0-15.95,27.71,6.72,27.71,6.72h10.92l38.32,.34,40.61,8.89,44.5-13.43,31.07-5.88-8.4-9.24,14.27-7.56-86.88,15.76-36.56-2.32,3.5-9.04-15.25,3.16h-68.85l-20.53-2.45Z"/><path class="cls-39" d="M1657.05,697.2l23.25,17.63,12.6-8.4,37.79,10.08,56.2-8.82,10.74-1.26c-4.62,.38-12.52-4.23-16.89-5.68-9.02-2.98-17.73-6.18-26.73-9.4-1.77-.63-3.68-1.25-5.49-.76-1.12,.3-2.1,1.01-3.18,1.44-5.86,2.37-12.26-3.64-18.46-2.39-2.36,.48-4.41,1.97-6.74,2.56-2.34,.59-5.43-.28-5.87-2.64-1.21,1.72-2.77,3.19-4.54,4.32l-.89-6.38c-9.25,6.32-20.25,9.1-31.31,9.69-3.41,.18-17.58,2.18-20.46,0Z"/><path class="cls-23" d="M1634.95,646.81l-47.02,10.08c-15.95,2.52-59.62,14.27-59.62,14.27l-13.43-12.6h-45.34l-5.88-1.68,64.89-16.79,66.1-5.88,34.43,5.88,5.88,6.72Z"/><path class="cls-42" d="M1732.07,660.8c.07-1.5,.21-3.16,1.31-4.17s3.43-.5,3.38,1c1.13-1.19,2.6-2.07,4.19-2.5,.19,1.11,1.56,1.65,2.66,1.42s2-.98,2.92-1.63c3.81-2.69,8.71-3.81,13.31-3.04,3.42,1.68,6.94,3.15,10.46,4.63l21.94,9.2c2.29,.96,4.85,2.22,5.49,4.62-18.65,2.12-37.52,2.34-56.22,.66-5.54-.5-18.24,.51-21.02-5.45-2.71-5.82,5.18-14.48,8.53-18.18,.36,4.03,3.22,9.74,3.06,13.44Z"/></g><g id="shop_building"><polygon class="cls-32" points="556.73 264.76 556.8 332.77 571.08 332.77 576.11 259.72 556.73 264.76"/><polygon class="cls-8" points="571.08 332.77 608.86 332.77 625.46 264.76 575.77 264.76 571.08 332.77"/><polygon class="cls-32" points="1178.1 264.76 1178.17 332.77 1192.44 332.77 1197.48 259.72 1178.1 264.76"/><polygon class="cls-8" points="1192.44 332.77 1230.23 332.77 1246.83 264.76 1197.13 264.76 1192.44 332.77"/><polygon class="cls-13" points="1259.62 403.31 1247.86 823.15 321.69 823.15 304.08 403.48 1259.62 403.31"/><polygon class="cls-30" points="311.61 351.88 315.28 401.8 32 401.8 32 351.88 311.61 351.88"/><polygon class="cls-1" points="310.77 339.49 1283.97 339.49 1273.05 409.18 315.81 409.18 310.77 339.49"/><polygon class="cls-10" points="1278.93 397.39 1278.93 409.57 312.03 409.57 310.77 397.39 1278.93 397.39"/><polygon class="cls-33" points="310.77 332.77 188.18 332.77 32 332.77 32 357.12 314.13 357.12 310.77 332.77"/><polygon class="cls-33" points="312.45 397.43 314.13 409.18 32 409.18 32 395.75 312.45 397.43"/><polygon class="cls-25" points="341 823.15 52.15 823.15 38.07 409.57 324.45 409.57 341 823.15"/><g><polygon class="cls-19" points="1197.48 823.15 1197.48 457.05 896.03 457.05 902.47 823.15 1197.48 823.15"/><rect class="cls-48" x="1197.48" y="457.05" width="18.47" height="366.1"/><polygon class="cls-3" points="1171.48 457.32 982.48 823.15 1046.76 823.15 1197.48 511.3 1197.48 457.05 1171.48 457.32"/><polygon class="cls-3" points="1137.76 457.05 957.66 823.15 925.84 823.15 1098.94 457.05 1137.76 457.05"/><polygon class="cls-3" points="898.48 595.88 899.15 633.9 986.35 457.05 964.27 457.05 898.48 595.88"/></g><polyline class="cls-54" points="563.1 823.15 556.8 457.05 832.22 457.05 838.97 823.15"/><polygon class="cls-19" points="832.22 457.89 556.8 457.89 563.1 823.15 838.97 823.15 832.22 457.89"/><polygon class="cls-21" points="830.46 452.01 546.4 452.01 553.04 823.15 561.41 823.15 555.45 460.41 687.87 460.41 694.3 823.15 702.69 823.15 696.27 460.41 822.22 460.41 828.89 823.15 837.29 823.15 830.46 452.01"/><polygon class="cls-1" points="836.34 452.01 552.28 452.01 558.92 823.15 567.29 823.15 561.33 460.41 693.75 460.41 700.18 823.15 708.57 823.15 702.14 460.41 828.1 460.41 834.77 823.15 843.17 823.15 836.34 452.01"/><line class="cls-56" x1="705.82" y1="823.15" x2="697.89" y2="452.01"/><path class="cls-4" d="M697.61,673.76l-81.51,149.39h84.13c.41-45.01-2.88-104.37-2.62-149.39Z"/><path class="cls-3" d="M814.58,460.41l-108.6,202.41c.03,.19,.06,.38,.06,.59-.02,44.47,2.53,79.19,1.9,123.65l120.07-238.47v-88.17h-13.43Z"/><polygon class="cls-3" points="564.87 790.96 563.1 823.15 580.95 823.15 696.57 619.12 695.19 541.77 564.87 790.96"/><polygon class="cls-19" points="515.66 823.15 504.74 452.01 355.28 452.01 364.51 823.15 515.66 823.15"/><polygon class="cls-48" points="504.74 452.01 527.41 452.01 534.97 823.15 515.66 823.15 504.74 452.01"/><polygon class="cls-3" points="442 823.15 511.46 679.56 508.1 571.24 378.11 823.15 442 823.15"/><polygon class="cls-3" points="360.46 659.85 362.11 726.11 497.26 452.01 458.96 452.01 360.46 659.85"/><polygon class="cls-27" points="324.62 420.61 1259.62 433.61 1257.1 407.51 324.21 409.18 324.62 420.61"/><g><path class="cls-40" d="M611.09,385.57c0-1.24-.44-2.24-1.32-2.99-.88-.75-2.42-1.46-4.62-2.13-3.84-1.11-6.74-2.42-8.7-3.94-1.96-1.52-2.94-3.6-2.94-6.24s1.13-4.8,3.38-6.48c2.25-1.68,5.13-2.51,8.62-2.51s6.43,.94,8.66,2.82,3.31,4.2,3.23,6.96l-.04,.13h-6.27c0-1.49-.5-2.7-1.49-3.62-1-.92-2.39-1.38-4.2-1.38s-3.06,.38-4.01,1.15-1.42,1.75-1.42,2.94c0,1.09,.51,1.99,1.52,2.69,1.01,.7,2.76,1.44,5.24,2.23,3.56,.99,6.25,2.3,8.08,3.92,1.83,1.62,2.75,3.76,2.75,6.4s-1.09,4.94-3.27,6.53c-2.18,1.59-5.05,2.39-8.62,2.39s-6.58-.9-9.19-2.71c-2.61-1.81-3.88-4.34-3.81-7.61l.04-.13h6.29c0,1.92,.59,3.33,1.76,4.22,1.17,.89,2.81,1.34,4.9,1.34,1.76,0,3.1-.36,4.03-1.08,.93-.72,1.4-1.69,1.4-2.9Z"/><path class="cls-40" d="M677.08,393.99h-6.44v-13.4h-13.15v13.4h-6.47v-32.24h6.47v13.86h13.15v-13.86h6.44v32.24Z"/><path class="cls-40" d="M737.62,380.77c0,3.96-1.25,7.23-3.75,9.81-2.5,2.58-5.75,3.87-9.75,3.87s-7.2-1.29-9.68-3.87c-2.48-2.58-3.72-5.85-3.72-9.81v-5.8c0-3.94,1.24-7.21,3.71-9.8,2.47-2.59,5.69-3.89,9.67-3.89s7.25,1.3,9.76,3.89c2.51,2.59,3.76,5.86,3.76,9.8v5.8Zm-6.47-5.83c0-2.51-.63-4.58-1.88-6.19-1.26-1.61-2.98-2.42-5.18-2.42s-3.9,.8-5.12,2.41-1.82,3.67-1.82,6.2v5.86c0,2.56,.61,4.64,1.84,6.26,1.23,1.61,2.93,2.42,5.12,2.42s3.94-.81,5.18-2.42c1.24-1.61,1.86-3.7,1.86-6.26v-5.86Z"/><path class="cls-40" d="M777.71,382.3v11.69h-6.47v-32.24h12.84c3.7,0,6.62,.95,8.75,2.83,2.13,1.89,3.19,4.38,3.19,7.46s-1.06,5.57-3.19,7.44c-2.13,1.87-5.04,2.81-8.75,2.81h-6.38Zm0-4.98h6.38c1.8,0,3.17-.49,4.1-1.47,.93-.98,1.39-2.23,1.39-3.75s-.46-2.83-1.38-3.84c-.92-1.01-2.29-1.52-4.11-1.52h-6.38v10.58Z"/></g><polygon class="cls-49" points="300.16 823.15 289.78 452.01 82.38 452.01 102.98 823.15 300.16 823.15"/><polygon class="cls-48" points="82.38 452.01 67.27 452.01 82.38 823.15 103.37 823.15 82.38 452.01"/><polygon class="cls-3" points="239.49 452.01 95.71 687.12 99.8 759.33 284.36 452.01 239.49 452.01"/><polygon class="cls-26" points="314.13 357.12 1277.25 383.15 1281.63 354.4 314.13 357.12"/><polygon class="cls-10" points="1290.68 332.77 1290.68 357.12 312.05 357.12 310.77 332.77 1290.68 332.77"/></g><g id="column1"><polygon class="cls-37" points="752.45 277.35 789.39 309.26 1058.09 309.26 1083.03 277.35 752.45 277.35"/><polygon class="cls-8" points="1057.25 309.26 1092.52 309.26 1137.86 277.35 1083.28 277.35 1057.25 309.26"/><polygon class="cls-11" points="1046.34 309.26 1055.57 869.33 1078.24 869.33 1094.38 309.26 1046.34 309.26"/><polygon class="cls-30" points="1044.66 309.26 909.42 309.26 789.15 309.26 798.63 869.33 821.3 869.33 824.66 478.88 1034.58 478.88 1040.46 869.33 1055.57 869.33 1057.25 309.26 1044.66 309.26"/><polygon class="cls-11" points="842.47 478.88 833.06 869.33 821.3 869.33 821.3 478.88 842.47 478.88"/><rect class="cls-30" x="752.45" y="264.76" width="330.83" height="12.6"/><polygon class="cls-11" points="1137.86 277.35 1139.88 264.76 1083.28 264.76 1083.28 277.35 1137.86 277.35"/><polygon class="cls-12" points="1036.35 596.37 938.02 596.37 936.34 869.33 1040.46 869.33 1036.35 596.37"/><polygon class="cls-31" points="789.28 317.22 1057.08 365.57 1092.5 374.49 1094.2 309.26 789.39 309.26 789.28 317.22"/></g><g id="number2"><path class="cls-10" d="M1034.58,478.88v-67.17l-17.08,3.01c-32.39,5.72-57.45,31.6-62.11,64.16h79.19Z"/><path class="cls-11" d="M1014.43,465.98h-20.82v-4l9.87-10.58c1.42-1.63,2.44-3.01,3.04-4.14s.9-2.17,.9-3.13c0-1.28-.35-2.34-1.04-3.15-.69-.82-1.67-1.23-2.94-1.23-1.41,0-2.48,.48-3.22,1.44s-1.1,2.23-1.1,3.82h-5.95l-.04-.13c-.07-2.75,.83-5.08,2.71-6.99,1.88-1.91,4.41-2.86,7.59-2.86s5.61,.82,7.41,2.45c1.79,1.63,2.69,3.81,2.69,6.54,0,1.84-.51,3.54-1.52,5.1-1.01,1.56-2.69,3.6-5.02,6.13l-5.43,5.91,.04,.1h12.82v4.71Z"/></g><g id="trash"><polygon class="cls-36" points="821.3 707.94 937.33 707.94 936.34 869.33 821.3 869.33 821.3 707.94"/><g><path class="cls-11" d="M864.59,789.69c-.2-.36-.57-1.29,.03-2.32l2.46,1.56,.47-11.69-10.36,5.44,2.47,1.56c-1.58,2.56-1.67,5.65-.21,8.29,1.47,2.67,4.16,4.26,7.2,4.26h8.73v-5.87h-8.73c-1.26,0-1.86-.85-2.06-1.22Z"/><path class="cls-11" d="M901.14,784.07l-4.22-6.5-4.92,3.2,4.22,6.5c.69,1.06,.3,2.04,.1,2.41-.2,.37-.81,1.23-2.07,1.23h-3.59v-2.92l-10.14,5.85,10.14,5.85v-2.92h3.59c3.02,0,5.79-1.65,7.23-4.3,1.44-2.65,1.31-5.87-.33-8.4Z"/><path class="cls-11" d="M881.86,766.24l2.58,3.83-2.42,1.63,10.52,5.14-.81-11.68-2.42,1.63-2.58-3.83c-1.53-2.28-4.08-3.63-6.82-3.63-.04,0-.07,0-.11,0-2.78,.04-5.34,1.46-6.83,3.81l-5.93,9.32,4.95,3.15,5.93-9.32c.62-.97,1.57-1.09,1.96-1.09,.38-.04,1.34,.09,1.98,1.04Z"/></g><path class="cls-41" d="M829.74,707.94h0c0-2.69,2.18-4.87,4.87-4.87h102.56v4.87h-107.48"/></g><g id="monitor"><g><polygon class="cls-35" points="879.24 598.11 881.76 679.56 930.46 679.56 933.82 596.43 879.24 596.43 879.24 598.11"/><polygon class="cls-30" points="868.32 598.11 870.84 679.56 919.54 679.56 922.9 596.43 868.32 596.43 868.32 598.11"/><line class="cls-55" x1="927.1" y1="608.19" x2="942.22" y2="608.19"/><line class="cls-55" x1="927.1" y1="664.45" x2="942.22" y2="664.45"/></g><polygon class="cls-7" points="875.88 603.99 875.88 623.3 914.51 623.3 916.19 603.99 875.88 603.99"/><polygon class="cls-7" points="875.88 628.34 914.51 628.34 913.67 637.58 875.88 636.74 875.88 628.34"/><polygon class="cls-6" points="879.24 603.99 879.24 623.3 875.88 623.3 875.88 603.99 877.56 603.99 879.24 603.99"/><polygon class="cls-6" points="879.24 628.34 879.31 636.81 875.88 636.74 875.88 628.34 879.24 628.34"/></g><g id="hoses"><path class="cls-26" d="M970.88,668.16l-.1,23.15c-.01,3.25-2.65,5.88-5.9,5.88h0v52.06c0,5.56-.93,11.08-2.76,16.33l-7.92,22.76c-1.83,5.25-2.76,10.77-2.76,16.33h0v5.04h-5.48l2.11-16.88,8.41-28.46v-45.93l-.84-35.52,6.72-12.6,8.52-2.16Z"/><path class="cls-26" d="M1000.27,668.16l-.1,23.15c-.01,3.25-2.65,5.88-5.9,5.88h0v52.06c0,5.56-.93,11.08-2.76,16.33l-7.92,22.76c-1.83,5.25-2.76,10.77-2.76,16.33h0v5.04h-5.48l2.11-16.88,8.41-28.46v-45.93l-.84-35.52,6.72-12.6,8.52-2.16Z"/><path class="cls-26" d="M1028.82,668.16l-.1,23.15c-.01,3.25-2.65,5.88-5.9,5.88h0v52.06c0,5.56-.93,11.08-2.76,16.33l-7.92,22.76c-1.83,5.25-2.76,10.77-2.76,16.33h0v5.04h-5.48l2.11-16.88,8.41-28.46v-45.93l-.84-35.52,6.72-12.6,8.52-2.16Z"/><g><polygon class="cls-47" points="953.13 619.11 953.13 672 970.76 672 972.44 618.27 953.13 619.11"/><polygon class="cls-45" points="957.65 618.91 957.65 672 953.13 672 953.13 619.11 957.65 618.91"/><path class="cls-46" d="M944.93,805.97c-3.2,0-5.8,2.96-5.8,6.62v31.29l.56,9.49-1.16-.69c0,.25-.03,.47-.07,.69h13.83v-47.4h-7.36Z"/><path class="cls-24" d="M954.16,654.37v-6.27c0-5.69,2.12-11.18,5.94-15.4l2.82-3.12c.72-.79,1.74-1.24,2.81-1.24h0c.93,0,1.68,.75,1.68,1.68v1.68c0,.93-.75,1.68-1.68,1.68h0c-4.3,4.3-6.72,10.13-6.72,16.22v4.77h-4.85Z"/><path class="cls-53" d="M956.07,692.16v52.57c0,12.47-1.77,24.88-5.25,36.85h0c-3.48,11.98-5.25,24.38-5.25,36.85v28.22"/><path class="cls-24" d="M965.48,679.32l-1.19-1.19,3.11-3.11v-18.4c0-3.56-2.89-6.45-6.45-6.45h-4.47v-1.68h4.47c4.48,0,8.13,3.65,8.13,8.13v19.09l-3.6,3.6Z"/><polyline class="cls-18" points="951.45 692.16 951.45 693.84 960.69 693.84 960.69 687.12 951.45 691.32"/><path class="cls-15" d="M950.61,692.16l-1.46-32.84c-.12-2.7,2.03-4.95,4.73-4.95h5.93c3.68,0,6.62,3.07,6.46,6.75l-.79,17.69c-.33,7.47-6.48,13.35-13.96,13.35h-.91Z"/><polygon class="cls-17" points="952.29 656.89 956.49 656.89 955.65 682.92 953.13 682.92 952.29 656.89"/><path class="cls-12" d="M939.28,846.24h5.88v-33.23c0-3.88,3.15-7.03,7.03-7.03h8.92v50.34h-23.51v-10.08h1.68Z"/></g><g><polygon class="cls-47" points="982.52 619.11 982.52 672 1000.15 672 1001.83 618.27 982.52 619.11"/><polygon class="cls-45" points="987.04 618.91 987.04 672 982.52 672 982.52 619.11 987.04 618.91"/><path class="cls-46" d="M974.32,805.97c-3.2,0-5.8,2.96-5.8,6.62v31.29l.56,9.49-1.16-.69c0,.25-.03,.47-.07,.69h13.83v-47.4h-7.36Z"/><path class="cls-24" d="M983.55,654.37v-6.27c0-5.69,2.12-11.18,5.94-15.4l2.82-3.12c.72-.79,1.74-1.24,2.81-1.24h0c.93,0,1.68,.75,1.68,1.68v1.68c0,.93-.75,1.68-1.68,1.68h0c-4.3,4.3-6.72,10.13-6.72,16.22v4.77h-4.85Z"/><path class="cls-53" d="M985.46,692.16v52.57c0,12.47-1.77,24.88-5.25,36.85h0c-3.48,11.98-5.25,24.38-5.25,36.85v28.22"/><path class="cls-24" d="M994.87,679.32l-1.19-1.19,3.11-3.11v-18.4c0-3.56-2.89-6.45-6.45-6.45h-4.47v-1.68h4.47c4.48,0,8.13,3.65,8.13,8.13v19.09l-3.6,3.6Z"/><polyline class="cls-18" points="980.84 692.16 980.84 693.84 990.08 693.84 990.08 687.12 980.84 691.32"/><path class="cls-14" d="M980,692.16l-1.46-32.84c-.12-2.7,2.03-4.95,4.73-4.95h5.93c3.68,0,6.62,3.07,6.46,6.75l-.79,17.69c-.33,7.47-6.48,13.35-13.96,13.35h-.91Z"/><polygon class="cls-17" points="981.68 656.89 985.88 656.89 985.04 682.92 982.52 682.92 981.68 656.89"/><path class="cls-12" d="M968.67,846.24h5.88v-33.23c0-3.88,3.15-7.03,7.03-7.03h8.92v50.34h-23.51v-10.08h1.68Z"/></g><g><polygon class="cls-47" points="1011.07 619.11 1011.07 672 1028.7 672 1030.38 618.27 1011.07 619.11"/><polygon class="cls-45" points="1015.59 618.91 1015.59 672 1011.07 672 1011.07 619.11 1015.59 618.91"/><path class="cls-46" d="M1002.87,805.97c-3.2,0-5.8,2.96-5.8,6.62v31.29l.56,9.49-1.16-.69c0,.25-.03,.47-.07,.69h13.83v-47.4h-7.36Z"/><path class="cls-24" d="M1012.09,654.37v-6.27c0-5.69,2.12-11.18,5.94-15.4l2.82-3.12c.72-.79,1.74-1.24,2.81-1.24h0c.93,0,1.68,.75,1.68,1.68v1.68c0,.93-.75,1.68-1.68,1.68h0c-4.3,4.3-6.72,10.13-6.72,16.22v4.77h-4.85Z"/><path class="cls-53" d="M1014.01,692.16v52.57c0,12.47-1.77,24.88-5.25,36.85h0c-3.48,11.98-5.25,24.38-5.25,36.85v28.22"/><path class="cls-24" d="M1023.42,679.32l-1.19-1.19,3.11-3.11v-18.4c0-3.56-2.89-6.45-6.45-6.45h-4.47v-1.68h4.47c4.48,0,8.13,3.65,8.13,8.13v19.09l-3.6,3.6Z"/><polyline class="cls-18" points="1009.39 692.16 1009.39 693.84 1018.63 693.84 1018.63 687.12 1009.39 691.32"/><path class="cls-43" d="M1008.55,692.16l-1.46-32.84c-.12-2.7,2.03-4.95,4.73-4.95h5.93c3.68,0,6.62,3.07,6.46,6.75l-.79,17.69c-.33,7.47-6.48,13.35-13.96,13.35h-.91Z"/><polygon class="cls-17" points="1010.23 656.89 1014.43 656.89 1013.59 682.92 1011.07 682.92 1010.23 656.89"/><path class="cls-12" d="M997.21,846.24h5.88v-33.23c0-3.88,3.15-7.03,7.03-7.03h8.92v50.34h-23.51v-10.08h1.68Z"/></g><rect class="cls-15" x="955.65" y="606.51" width="10.92" height="7.56"/><rect class="cls-14" x="986.72" y="606.51" width="10.92" height="7.56"/><rect class="cls-43" x="1013.59" y="606.51" width="10.92" height="7.56"/></g><g id="column2"><polygon class="cls-11" points="1642.51 300.03 1651.75 860.09 1674.42 860.09 1690.56 300.03 1642.51 300.03"/><polygon class="cls-30" points="1640.83 300.03 1505.6 300.03 1385.32 300.03 1394.8 860.09 1417.48 860.09 1420.83 469.64 1630.75 469.64 1636.63 860.09 1651.75 860.09 1653.43 300.03 1640.83 300.03"/><polygon class="cls-11" points="1438.64 469.64 1429.23 860.09 1417.48 860.09 1417.48 469.64 1438.64 469.64"/><polygon class="cls-12" points="1632.52 587.13 1534.19 587.13 1532.51 860.09 1636.63 860.09 1632.52 587.13"/><path class="cls-10" d="M1630.75,469.64v-67.17l-17.08,3.01c-32.39,5.72-57.45,31.6-62.11,64.16h79.19Z"/><path class="cls-11" d="M1608,445.31h3.66v5h-3.66v7.02h-6.46v-7.02h-13.19l-.29-3.89,13.41-21.43h6.53v20.32Zm-13.9,0h7.44v-11.66l-.13-.04-.51,.91-6.79,10.79Z"/><polygon class="cls-37" points="1348.62 277.35 1385.57 309.26 1654.27 309.26 1679.2 277.35 1348.62 277.35"/><polygon class="cls-35" points="1653.43 309.26 1688.69 309.26 1734.04 277.35 1679.46 277.35 1653.43 309.26"/><rect class="cls-30" x="1348.62" y="264.76" width="330.83" height="12.6"/><polygon class="cls-11" points="1734.04 277.35 1736.05 264.76 1679.46 264.76 1679.46 277.35 1734.04 277.35"/><polygon class="cls-31" points="1385.45 317.22 1653.26 365.57 1688.68 374.49 1690.37 309.26 1385.57 309.26 1385.45 317.22"/></g><g id="trash2"><polygon class="cls-36" points="1417.48 698.71 1533.5 698.71 1532.51 860.09 1417.48 860.09 1417.48 698.71"/><g><path class="cls-11" d="M1460.76,780.45c-.2-.36-.57-1.29,.03-2.32l2.46,1.56,.47-11.69-10.36,5.44,2.47,1.56c-1.58,2.56-1.67,5.65-.21,8.29,1.47,2.67,4.16,4.26,7.2,4.26h8.73v-5.87h-8.73c-1.26,0-1.86-.85-2.06-1.22Z"/><path class="cls-11" d="M1497.31,774.84l-4.22-6.5-4.92,3.2,4.22,6.5c.69,1.06,.3,2.04,.1,2.41-.2,.37-.81,1.23-2.07,1.23h-3.59v-2.92l-10.14,5.85,10.14,5.85v-2.92h3.59c3.02,0,5.79-1.65,7.23-4.3,1.44-2.65,1.31-5.87-.33-8.4Z"/><path class="cls-11" d="M1478.04,757l2.58,3.83-2.42,1.63,10.52,5.14-.81-11.68-2.42,1.63-2.58-3.83c-1.53-2.28-4.08-3.63-6.82-3.63-.04,0-.07,0-.11,0-2.78,.04-5.34,1.46-6.83,3.81l-5.93,9.32,4.95,3.15,5.93-9.32c.62-.97,1.57-1.09,1.96-1.09,.38-.04,1.34,.09,1.98,1.04Z"/></g><path class="cls-41" d="M1425.92,698.71h0c0-2.69,2.18-4.87,4.87-4.87h102.56v4.87h-107.48"/></g><g id="monitor2"><g><polygon class="cls-35" points="1475.41 588.88 1477.93 670.33 1526.63 670.33 1529.99 587.2 1475.41 587.2 1475.41 588.88"/><polygon class="cls-30" points="1464.5 588.88 1467.02 670.33 1515.72 670.33 1519.08 587.2 1464.5 587.2 1464.5 588.88"/><line class="cls-55" x1="1523.28" y1="598.95" x2="1538.39" y2="598.95"/><line class="cls-55" x1="1523.28" y1="655.21" x2="1538.39" y2="655.21"/></g><polygon class="cls-7" points="1472.05 594.75 1472.05 614.07 1510.68 614.07 1512.36 594.75 1472.05 594.75"/><polygon class="cls-7" points="1472.05 619.11 1510.68 619.11 1509.84 628.34 1472.05 627.5 1472.05 619.11"/><polygon class="cls-6" points="1475.41 594.75 1475.41 614.07 1472.05 614.07 1472.05 594.75 1473.73 594.75 1475.41 594.75"/><polygon class="cls-6" points="1475.41 619.11 1475.49 627.58 1472.05 627.5 1472.05 619.11 1475.41 619.11"/></g><g id="hoses2"><path class="cls-26" d="M1567.06,658.93l-.1,23.15c-.01,3.25-2.65,5.88-5.9,5.88h0v52.06c0,5.56-.93,11.08-2.76,16.33l-7.92,22.76c-1.83,5.25-2.76,10.77-2.76,16.33h0v5.04h-5.48l2.11-16.88,8.41-28.46v-45.93l-.84-35.52,6.72-12.6,8.52-2.16Z"/><path class="cls-26" d="M1596.45,658.93l-.1,23.15c-.01,3.25-2.65,5.88-5.9,5.88h0v52.06c0,5.56-.93,11.08-2.76,16.33l-7.92,22.76c-1.83,5.25-2.76,10.77-2.76,16.33h0v5.04h-5.48l2.11-16.88,8.41-28.46v-45.93l-.84-35.52,6.72-12.6,8.52-2.16Z"/><path class="cls-26" d="M1625,658.93l-.1,23.15c-.01,3.25-2.65,5.88-5.9,5.88h0v52.06c0,5.56-.93,11.08-2.76,16.33l-7.92,22.76c-1.83,5.25-2.76,10.77-2.76,16.33h0v5.04h-5.48l2.11-16.88,8.41-28.46v-45.93l-.84-35.52,6.72-12.6,8.52-2.16Z"/><g><polygon class="cls-47" points="1549.31 609.87 1549.31 662.77 1566.94 662.77 1568.62 609.03 1549.31 609.87"/><polygon class="cls-45" points="1553.82 609.67 1553.82 662.77 1549.31 662.77 1549.31 609.87 1553.82 609.67"/><path class="cls-46" d="M1541.11,796.74c-3.2,0-5.8,2.96-5.8,6.62v31.29l.56,9.49-1.16-.69c0,.25-.03,.47-.07,.69h13.83v-47.4h-7.36Z"/><path class="cls-24" d="M1550.33,645.14v-6.27c0-5.69,2.12-11.18,5.94-15.4l2.82-3.12c.72-.79,1.74-1.24,2.81-1.24h0c.93,0,1.68,.75,1.68,1.68v1.68c0,.93-.75,1.68-1.68,1.68h0c-4.3,4.3-6.72,10.13-6.72,16.22v4.77h-4.85Z"/><path class="cls-53" d="M1552.24,682.92v52.57c0,12.47-1.77,24.88-5.25,36.85h0c-3.48,11.98-5.25,24.38-5.25,36.85v28.22"/><path class="cls-24" d="M1561.65,670.08l-1.19-1.19,3.11-3.11v-18.4c0-3.56-2.89-6.45-6.45-6.45h-4.47v-1.68h4.47c4.48,0,8.13,3.65,8.13,8.13v19.09l-3.6,3.6Z"/><polyline class="cls-18" points="1547.63 682.92 1547.63 684.6 1556.86 684.6 1556.86 677.88 1547.63 682.08"/><path class="cls-15" d="M1546.79,682.92l-1.46-32.84c-.12-2.7,2.03-4.95,4.73-4.95h5.93c3.68,0,6.62,3.07,6.46,6.75l-.79,17.69c-.33,7.47-6.48,13.35-13.96,13.35h-.91Z"/><polygon class="cls-17" points="1548.47 647.65 1552.66 647.65 1551.82 673.68 1549.31 673.68 1548.47 647.65"/><path class="cls-12" d="M1535.45,837h5.88v-33.23c0-3.88,3.15-7.03,7.03-7.03h8.92v50.34h-23.51v-10.08h1.68Z"/></g><g><polygon class="cls-47" points="1578.69 609.87 1578.69 662.77 1596.33 662.77 1598.01 609.03 1578.69 609.87"/><polygon class="cls-45" points="1583.21 609.67 1583.21 662.77 1578.69 662.77 1578.69 609.87 1583.21 609.67"/><path class="cls-46" d="M1570.5,796.74c-3.2,0-5.8,2.96-5.8,6.62v31.29l.56,9.49-1.16-.69c0,.25-.03,.47-.07,.69h13.83v-47.4h-7.36Z"/><path class="cls-24" d="M1579.72,645.14v-6.27c0-5.69,2.12-11.18,5.94-15.4l2.82-3.12c.72-.79,1.74-1.24,2.81-1.24h0c.93,0,1.68,.75,1.68,1.68v1.68c0,.93-.75,1.68-1.68,1.68h0c-4.3,4.3-6.72,10.13-6.72,16.22v4.77h-4.85Z"/><path class="cls-53" d="M1581.63,682.92v52.57c0,12.47-1.77,24.88-5.25,36.85h0c-3.48,11.98-5.25,24.38-5.25,36.85v28.22"/><path class="cls-24" d="M1591.04,670.08l-1.19-1.19,3.11-3.11v-18.4c0-3.56-2.89-6.45-6.45-6.45h-4.47v-1.68h4.47c4.48,0,8.13,3.65,8.13,8.13v19.09l-3.6,3.6Z"/><polyline class="cls-18" points="1577.01 682.92 1577.01 684.6 1586.25 684.6 1586.25 677.88 1577.01 682.08"/><path class="cls-14" d="M1576.18,682.92l-1.46-32.84c-.12-2.7,2.03-4.95,4.73-4.95h5.93c3.68,0,6.62,3.07,6.46,6.75l-.79,17.69c-.33,7.47-6.48,13.35-13.96,13.35h-.91Z"/><polygon class="cls-17" points="1577.85 647.65 1582.05 647.65 1581.21 673.68 1578.69 673.68 1577.85 647.65"/><path class="cls-12" d="M1564.84,837h5.88v-33.23c0-3.88,3.15-7.03,7.03-7.03h8.92v50.34h-23.51v-10.08h1.68Z"/></g><g><polygon class="cls-47" points="1607.24 609.87 1607.24 662.77 1624.88 662.77 1626.56 609.03 1607.24 609.87"/><polygon class="cls-45" points="1611.76 609.67 1611.76 662.77 1607.24 662.77 1607.24 609.87 1611.76 609.67"/><path class="cls-46" d="M1599.05,796.74c-3.2,0-5.8,2.96-5.8,6.62v31.29l.56,9.49-1.16-.69c0,.25-.03,.47-.07,.69h13.83v-47.4h-7.36Z"/><path class="cls-24" d="M1608.27,645.14v-6.27c0-5.69,2.12-11.18,5.94-15.4l2.82-3.12c.72-.79,1.74-1.24,2.81-1.24h0c.93,0,1.68,.75,1.68,1.68v1.68c0,.93-.75,1.68-1.68,1.68h0c-4.3,4.3-6.72,10.13-6.72,16.22v4.77h-4.85Z"/><path class="cls-53" d="M1610.18,682.92v52.57c0,12.47-1.77,24.88-5.25,36.85h0c-3.48,11.98-5.25,24.38-5.25,36.85v28.22"/><path class="cls-24" d="M1619.59,670.08l-1.19-1.19,3.11-3.11v-18.4c0-3.56-2.89-6.45-6.45-6.45h-4.47v-1.68h4.47c4.48,0,8.13,3.65,8.13,8.13v19.09l-3.6,3.6Z"/><polyline class="cls-18" points="1605.56 682.92 1605.56 684.6 1614.8 684.6 1614.8 677.88 1605.56 682.08"/><path class="cls-43" d="M1604.72,682.92l-1.46-32.84c-.12-2.7,2.03-4.95,4.73-4.95h5.93c3.68,0,6.62,3.07,6.46,6.75l-.79,17.69c-.33,7.47-6.48,13.35-13.96,13.35h-.91Z"/><polygon class="cls-17" points="1606.4 647.65 1610.6 647.65 1609.76 673.68 1607.24 673.68 1606.4 647.65"/><path class="cls-12" d="M1593.39,837h5.88v-33.23c0-3.88,3.15-7.03,7.03-7.03h8.92v50.34h-23.51v-10.08h1.68Z"/></g><rect class="cls-15" x="1551.82" y="597.27" width="10.92" height="7.56"/><rect class="cls-14" x="1582.89" y="597.27" width="10.92" height="7.56"/><rect class="cls-43" x="1609.76" y="597.27" width="10.92" height="7.56"/></g><g id="roof"><polygon class="cls-33" points="494.66 206.82 513.14 264.76 1123.59 264.76 1137.86 206.82 494.66 206.82"/><polygon class="cls-10" points="1137.86 206.82 1774.34 206.82 1759.23 264.76 1123.59 264.76 1137.86 206.82"/></g><g id="flowerpot"><g><g><path class="cls-38" d="M564.74,617.04c1.78-.89,3.17-2.4,4.39-3.98,4.4-5.72,7.07-13.02,6.16-20.18s-5.87-13.95-12.8-15.95c-6.94-2-15.36,1.78-17.55,8.65-2.48-3.47-7.09-4.85-11.35-4.69-4.15,.16-8.61,1.9-10.44,5.62-1.53,3.12-.89,6.83-.09,10.22-6.52-1.14-13.66,.51-18.47,5.05s-6.83,12.1-4.17,18.16c2.66,6.06,10.25,9.72,16.42,7.33,3.33-1.29,5.89-3.99,8.04-6.83,1.49-1.96,2.83-4.03,4.03-6.18,.69-1.24,1.69-2.72,3.1-2.52,.54,.07,1.01,.4,1.46,.71,3.56,2.46,7.3,4.78,11.47,5.98,3.71,1.07,6.83,.68,10.52,0,3.07-.56,6.37,.08,9.3-1.38Z"/><polygon class="cls-20" points="538.62 716.32 545.8 648.59 558.87 618.47 555.22 616.89 541.91 647.56 541.88 647.86 534.66 715.9 538.62 716.32"/><rect class="cls-20" x="533.57" y="629.09" width="2.39" height="27.58" transform="translate(-277.93 445.91) rotate(-36.62)"/><polygon class="cls-20" points="534.71 641.89 539.52 624.22 543.82 620.17 542.18 618.43 537.4 622.94 532.4 641.26 534.71 641.89"/><rect class="cls-20" x="544.98" y="625.49" width="2.39" height="11.81" transform="translate(-223.77 308.68) rotate(-26.4)"/><rect class="cls-20" x="530.1" y="618.9" width="2.39" height="15.04" transform="translate(-277.68 484.18) rotate(-39.73)"/><path class="cls-42" d="M550.83,621.23c-.74,4.05-5.24,6.74-9.33,6.22-4.09-.52-7.51-3.67-9.23-7.41,.05,1.41-.96,2.68-2.19,3.36s-2.67,.88-4.06,1.07c2.03,3.35,.01,8.18-3.57,9.76s-7.99,.32-10.83-2.39c-2.24-2.14-3.69-5.47-2.59-8.37-3.53-1.39-5.46-5.56-4.96-9.31s3.04-7.01,6.17-9.15c4.67-3.2,10.8-4.17,16.24-2.57,1.41-8.21,8.23-15.21,16.4-16.85,2.69-.54,5.58-.51,8.06,.65s4.46,3.62,4.52,6.36c4.59-4.24,11.12-6.66,17.24-5.36,6.12,1.29,11.4,6.76,11.52,13.01,.08,3.73-1.58,7.33-3.89,10.26-2.34,2.97-5.77,4.98-8.1,7.74,1.63,1.2,3.06,3.17,3.72,5.08,.77,2.22,.41,4.84-1.1,6.64s-4.17,2.6-6.36,1.77c-1.52-.58-2.68-1.82-3.78-3.02-.6,1.24-2.15,1.71-3.53,1.67-2.98-.1-11-5.42-10.32-9.13Z"/><path class="cls-39" d="M578.41,605.32c2.55-.53,4.88,1.61,6.24,3.83,1.38,2.24,2.32,4.98,1.57,7.5-.76,2.59-3.13,4.39-5.54,5.61-3.2,1.6-6.88,2.51-10.37,1.74-3.49-.77-6.68-3.5-7.26-7.03-3.08,.95-6.28-1.64-7.47-4.63-3.16-7.9,2.9-13.69,9.87-15.88,5.86-1.84,14.7,1.26,12.96,8.85Z"/><path class="cls-39" d="M539.19,599.04c.73,1.3,1.01,2.92,.48,4.32s-1.95,2.49-3.44,2.38c.02,1.89-1.9,3.46-3.78,3.33s-3.48-1.72-3.91-3.56,.18-3.82,1.33-5.31c2.4-3.12,6.81-5.65,9.32-1.16Z"/><path class="cls-39" d="M523.54,627.06c1.32-1.38,3.91-.58,4.73,1.14,.81,1.7,.13,3.94-1.44,4.96s-3.84,.77-5.2-.52c-1.05-1-1.54-2.62-1.03-3.98s2.13-2.26,3.51-1.81"/></g><g><path class="cls-42" d="M535.07,699.56c1.24-4.24,2.13-8.59,2.2-13.18-.02,1.02-1.42,2.94-1.86,3.9-.64,1.42-1.26,2.85-1.84,4.29-.66,1.64-1.28,3.31-1.85,4.99h3.35Z"/><path class="cls-42" d="M528.08,726.58c1.24-6.3,3.24-12.53,5.06-18.69,4.05-13.74,7.27-28.07,5.68-42.31-2.2,11.87-8.29,22.71-10.91,34.49-1.93,8.68-1.92,17.61-1.26,26.51h1.43Z"/><path class="cls-42" d="M529.7,699.56c1.73-7.79,2.6-15.77,2.55-23.75-3.56,6.62-7.12,13.34-8.96,20.63-.26,1.03-.48,2.07-.66,3.13h7.07Z"/><path class="cls-42" d="M522.22,699.56c-.09-3.26-.58-6.55-1.87-9.55-1.92-4.48-5.47-8.03-8.93-11.47-.5,6.28-.87,12.57-1.11,18.87-.03,.72-.05,1.43-.07,2.15h11.98Z"/><path class="cls-42" d="M512.78,687.56c.08,2.76,.09,5.52,.13,8.27,.02,1.24,.04,2.49,.07,3.73h3.65c-.15-6.85-1.32-13.68-4.36-19.88,.93,1.9,.45,5.77,.51,7.87Z"/><path class="cls-42" d="M510.21,699.56c-1.01-3.67-2.18-7.28-3.54-10.83-1.89-4.95-4.19-9.87-7.9-13.66,2.36,8.2,4.73,16.39,7.4,24.49h4.04Z"/><path class="cls-42" d="M544.72,699.56c2.66-4.27,4.79-8.86,6.32-13.65,.61-1.9,1.13-3.91,.79-5.87-4.08,6.46-9.72,11.78-14.3,17.89-.4,.53-.78,1.08-1.16,1.63h8.34Z"/><path class="cls-42" d="M517.72,672.31c.11,1.84,.19,3.69,.27,5.53,.16,3.63,.29,7.26,.46,10.89,.17,3.59,.34,7.22,.63,10.83h2.51c.2-2.03,.36-4.06,.37-6.12,.07-8.94-1.49-17.9-4.6-26.29,.53,1.42,.26,3.62,.34,5.15Z"/><path class="cls-42" d="M508.46,699.56h4.37c-.02-.95-.04-1.89-.09-2.83-.39-7.86-2.18-15.64-5.26-22.88-.27,7.08-.55,14.19,.27,21.22,.17,1.5,.41,3,.7,4.49Z"/><path class="cls-42" d="M501.71,699.56h4.26c-2.2-4.83-5.57-9.2-10.17-11.79,1.64,2.7,3.13,5.5,4.44,8.37,.51,1.12,1,2.27,1.47,3.41Z"/><path class="cls-42" d="M549.97,699.56c1.38-2.49,2.54-5.1,3.47-7.79-1.25,.84-2.29,1.97-3.3,3.09-1.4,1.55-2.78,3.11-4.12,4.71h3.95Z"/><path class="cls-42" d="M540.96,699.56c1.32-5.13,1.97-10.36,1.28-15.59-1.45,5.23-3.16,10.41-4.85,15.59h3.56Z"/></g><g><path class="cls-22" d="M473.88,652.39c1.94,.42,3.96,.08,5.92-.25-.26,1.66-.51,3.36-.24,5.02s1.14,3.31,2.63,4.1c1.37,.72,3.03,.62,4.53,.24,4.2-1.05,8.09-4.79,7.7-9.1,.7,1.54,2.51,2.37,4.19,2.26s3.23-1.02,4.46-2.18c1.78-1.68,3.03-4.02,3.06-6.47,.05-4.2-3.54-7.79-7.58-8.91-4.04-1.12-8.38-.25-12.35,1.11-3.03,1.04-6.57,2.77-7.48,6.13,1.79-5.12-4.37-2.92-6.14-1.31-3.36,3.05-4.42,8.12,1.3,9.35Z"/><path class="cls-38" d="M520.71,630.76c3.6-4.79,4.23-11.64,1.56-17.01-2.13-4.28-6.43-7.58-11.2-7.85s-9.7,2.94-10.79,7.59c-3.67-2.93-8.92-3.88-13.28-2.12s-7.55,6.26-7.46,10.96c.08,4.65,3.03,8.69,5.85,12.38-3.36-2-7.16-3.98-11-3.25-3.21,.61-5.94,3.25-6.66,6.44s.62,6.74,3.26,8.67c1.96,1.43,4.41,1.94,6.79,2.42-1.71,.85-1.77,3.6-.3,4.83,4.23,3.56,6.64-3.28,7.74-6.12,.71-1.83,1.29-3.7,1.73-5.59,.26-1.1,.7-2.44,1.84-2.63,.44-.07,.87,.06,1.29,.18,3.53,1.07,7.07,1.67,10.69,2.16s6.94,2.39,10.58,2.66c1.97,.14,3.94-.29,5.81-.93,2.91-1,5.84-2.73,7.01-5.58s-.39-6.85-3.45-7.18Z"/><polygon class="cls-20" points="519.04 670.71 523.16 668.54 522.07 666.47 517.36 668.95 511.07 679.67 508.15 663.83 511.48 638.2 507.62 637.7 505.44 654.51 501.1 650.03 499.42 651.66 505.05 657.48 504.31 663.15 488.12 651.59 486.77 653.49 504.52 666.17 504.6 666.05 514.01 716.97 517.84 716.27 511.69 683.01 511.79 683.07 519.04 670.71"/><path class="cls-42" d="M505.53,642.1c.34,3.22-2.55,6.3-5.83,6.88s-6.65-.96-8.83-3.36c.36,1.04-.14,2.24-.94,3.04s-1.87,1.29-2.91,1.77c2.33,2.03,1.85,6.13-.57,8.17s-6.13,2.14-8.94,.79c-4-1.93-5.27-7.22-3.67-11.15,1.22-3.02,3.77-5.33,6.6-6.95-2.32-5.74-3.02-12.94,1.08-17.58,2.47-2.8,6.48-4.15,10.14-3.4s6.82,3.56,7.99,7.11c-.09-4.12,.86-8.42,3.56-11.53,2.7-3.11,7.4-4.67,11.13-2.91,3.89,1.83,5.63,6.72,4.93,10.96s-3.34,7.91-6.26,11.07c2.58-.02,5.19,1.32,6.46,3.56s1.01,5.32-.79,7.16c-2.7,2.76-12.68,.61-13.12-3.62Z"/><path class="cls-39" d="M519.88,642.19c-1.75-.64-3.69,1.18-3.67,3.04,.02,1.84,1.58,3.52,3.41,3.74s3.71-.98,4.35-2.7c.49-1.33,.23-2.97-.81-3.94-1.04-.97-2.84-1.07-3.86-.08"/></g></g><polygon class="cls-47" points="559.12 834.06 492.83 834.06 481.62 694.09 569.4 694.09 559.12 834.06"/><polyline class="cls-50" points="559.29 694.09 549.24 810.55 537.49 813.07 532.34 694.09 559.29 694.09"/></g><g id="trash_can"><g><path class="cls-9" d="M451.9,832.26l6.1-77.25h-56.53l7.16,81.57h38.6c2.45,0,4.48-1.88,4.68-4.32Z"/><path class="cls-29" d="M401.47,755.01h-15.03l9.51,77.46c.29,2.35,2.29,4.12,4.65,4.12h8.02l-7.16-81.57"/><g><path class="cls-11" d="M418.34,796.67c-.15-.27-.44-.97,.03-1.75l1.89,1.18,.36-8.85-7.96,4.11,1.9,1.18c-1.22,1.93-1.28,4.27-.16,6.27,1.13,2.02,3.2,3.22,5.53,3.22h6.71v-4.44h-6.71c-.97,0-1.43-.64-1.59-.92Z"/><path class="cls-11" d="M446.42,792.42l-3.25-4.92-3.78,2.42,3.25,4.92c.53,.8,.23,1.54,.07,1.82-.15,.28-.62,.93-1.59,.93h-2.76v-2.21l-7.79,4.43,7.79,4.43v-2.21h2.76c2.32,0,4.45-1.25,5.55-3.25,1.11-2.01,1.01-4.44-.26-6.36Z"/><path class="cls-11" d="M431.61,778.93l1.98,2.9-1.86,1.23,8.08,3.89-.62-8.83-1.86,1.23-1.98-2.9c-1.18-1.72-3.13-2.75-5.24-2.75h-.08c-2.14,.03-4.1,1.11-5.25,2.88l-4.56,7.05,3.8,2.38,4.56-7.05c.47-.73,1.21-.82,1.5-.82,.29-.03,1.03,.07,1.52,.79Z"/></g><polygon class="cls-51" points="457.57 760.38 402.32 764.73 391.09 792.89 386.44 755.01 458 755.01 457.57 760.38"/><path class="cls-5" d="M460.86,757.16l3.58-12.88h-65.12l2.15,14.48,57.08-.16c.98,0,1.88-.56,2.32-1.44h0Z"/><path class="cls-9" d="M399.32,744.28l-17.17,1.43,2.44,11c.24,1.1,1.22,1.88,2.35,1.88h14.53l-2.15-14.31Z"/></g></g></g></svg>