<?xml version="1.0" encoding="UTF-8"?><svg id="Layer_2" xmlns="http://www.w3.org/2000/svg" xmlns:xlink="http://www.w3.org/1999/xlink" viewBox="0 0 249.85 212.66"><defs><style>.cls-1{clip-rule:evenodd;}.cls-1,.cls-2,.cls-3{fill:#30121b;}.cls-4{clip-path:url(#clippath);}.cls-5{fill:url(#linear-gradient);}.cls-5,.cls-6,.cls-7,.cls-8,.cls-9,.cls-10,.cls-11,.cls-12,.cls-13,.cls-3,.cls-14,.cls-15,.cls-16,.cls-17,.cls-18,.cls-19{fill-rule:evenodd;}.cls-20{opacity:.08;}.cls-21,.cls-13{fill:#ff590e;}.cls-22,.cls-12{fill:#dfe3eb;}.cls-23,.cls-7{fill:#2c89ff;}.cls-24{fill:#399eff;}.cls-25,.cls-8{fill:#4a2730;}.cls-6{fill:#f62121;}.cls-9{fill:#43bcff;}.cls-10{fill:#143684;}.cls-11{fill:#2051a4;}.cls-14{fill:#8fd4ff;}.cls-15{fill:url(#linear-gradient-3);}.cls-16{fill:url(#linear-gradient-2);}.cls-17{fill:url(#linear-gradient-4);}.cls-18{fill:url(#linear-gradient-6);}.cls-19{fill:url(#linear-gradient-5);}</style><linearGradient id="linear-gradient" x1="134.84" y1="158.92" x2="183.46" y2="81.33" gradientTransform="matrix(1, 0, 0, 1, 0, 0)" gradientUnits="userSpaceOnUse"><stop offset="0" stop-color="#e95a00"/><stop offset="1" stop-color="#ff8300"/></linearGradient><linearGradient id="linear-gradient-2" x1="62.49" y1="111.84" x2="109.03" y2="37.56" xlink:href="#linear-gradient"/><linearGradient id="linear-gradient-3" x1="53.51" y1="107.96" x2="102.14" y2="30.37" xlink:href="#linear-gradient"/><linearGradient id="linear-gradient-4" x1="30.05" y1="93.26" x2="78.68" y2="15.67" xlink:href="#linear-gradient"/><linearGradient id="linear-gradient-5" x1="76.96" y1="122.66" x2="125.58" y2="45.06" xlink:href="#linear-gradient"/><linearGradient id="linear-gradient-6" x1="100.39" y1="137.34" x2="149.01" y2="59.74" xlink:href="#linear-gradient"/><clipPath id="clippath"><path class="cls-1" d="M229.63,154.11l-25.15,14.52,1.21-9.72c.18-1.47,1.04-2.77,2.33-3.51l17.22-9.94c1.39-.8,3.15,.05,3.38,1.64l1.02,7.02Z"/></clipPath></defs><g id="Illustration"><g><polygon class="cls-20" points="167.35 212.66 0 116.04 82.5 68.08 249.85 164.7 167.35 212.66"/><polygon class="cls-3" points="70.22 122.94 51.39 133.81 51.39 117.38 70.22 106.5 70.22 122.94"/><polygon class="cls-3" points="111.29 146.64 92.46 157.51 92.46 141.08 111.29 130.2 111.29 146.64"/><polygon class="cls-7" points="191.78 119.32 153.64 157.41 13.06 76.3 65.02 46.3 191.78 119.32"/><path class="cls-13" d="M182.19,59.36L91.36,6.94C75.41-2.08,63.91-1.56,53.82,4.24c-10.09,5.8-37.29,21.45-37.29,21.45,0,0,39.67,26.61,46.27,30.42l77.48,82.83s48.16-24.34,48.83-24.77c4-2.55,7.14-9.37,7.14-19.2,0-15.18-7.47-31.81-14.08-35.62Z"/><polygon class="cls-5" points="169.74 125.91 138.86 143.73 139.14 129.39 170.01 111.57 169.74 125.91"/><path class="cls-13" d="M132.18,88.92L23.09,25.75c-6.61-3.81-14.08,4.18-14.08,19.37s4.64,30.36,11.24,34.18l103.89,59.65c6.61,3.81,22.11,.78,22.11-14.41s-7.47-31.81-14.08-35.62Z"/><g><path class="cls-16" d="M146.25,125.25L9.02,45.84c.23,14.99,4.74,29.71,11.24,33.46l102.2,58.88c6.5,3.75,23.56,1.78,23.79-12.94Z"/><g><path class="cls-15" d="M81.22,53.77l45.61-26.31-5.04-2.92-45.79,26.41c-3.16,1.83-5.96,4.22-8.24,7.07l-26.67,33.28,5.06,2.92,26.5-33.08c2.38-2.97,5.29-5.47,8.59-7.37Z"/><path class="cls-17" d="M57.25,39.89L102.84,13.59l-5.04-2.92-45.8,26.42c-3.17,1.83-5.97,4.23-8.25,7.08l-26.65,33.28,5.06,2.92,26.51-33.11c2.38-2.97,5.3-5.48,8.59-7.38Z"/><path class="cls-19" d="M150.8,41.3l-5.04-2.92-50.58,29.17-30.12,37.6,5.06,2.92,26.51-33.1c2.38-2.97,5.29-5.47,8.59-7.37l45.58-26.29Z"/><path class="cls-18" d="M129.22,81.44l45.4-26.14-5.04-2.92-45.6,26.26c-3.17,1.83-5.98,4.23-8.27,7.09l-26.65,33.27,5.06,2.92,26.5-33.1c2.38-2.98,5.31-5.49,8.61-7.39Z"/></g></g><g><path class="cls-6" d="M146.29,125.29L9.06,45.88c.23,14.99,4.74,29.71,11.24,33.46l105.03,60.63c6.5,3.75,20.73,.04,20.96-14.68Z"/><g><path class="cls-6" d="M81.27,53.81l45.61-26.31-5.04-2.92-45.79,26.41c-3.16,1.83-5.96,4.22-8.24,7.07l-26.67,33.28,5.06,2.92,26.5-33.08c2.38-2.97,5.29-5.47,8.59-7.37Z"/><path class="cls-6" d="M57.29,39.94L102.89,13.64l-5.04-2.92-45.8,26.42c-3.17,1.83-5.97,4.23-8.25,7.08l-26.65,33.28,5.06,2.92,26.51-33.11c2.38-2.97,5.3-5.48,8.59-7.38Z"/><path class="cls-6" d="M150.85,41.35l-5.04-2.92-50.58,29.17-30.12,37.6,5.06,2.92,26.51-33.1c2.38-2.97,5.29-5.47,8.59-7.37l45.58-26.29Z"/><path class="cls-6" d="M129.26,81.48l45.4-26.14-5.04-2.92-45.6,26.26c-3.17,1.83-5.98,4.23-8.27,7.09l-26.65,33.27,5.06,2.92,26.5-33.1c2.39-2.98,5.31-5.49,8.61-7.39Z"/></g></g><path class="cls-14" d="M244.08,145.76l-54.18,31.27v-25.27c0-.98-.21-1.95-.62-2.84l-17.89-39.02-32.23-18.39,50.21-28.79c2.07-1.19,4.6-1.21,6.69-.07l27.49,14.53c1.68,.92,3.01,2.37,3.79,4.12l15.95,35.96c.51,1.15,.77,2.4,.77,3.66v24.85Z"/><path class="cls-10" d="M236.89,164.78l-52.17,30.15,4.09-13.6,1-.18,53.08-30.61-3.42,11.02c-.42,1.36-1.34,2.51-2.57,3.22Z"/><polygon class="cls-7" points="242.89 150.54 190.1 181 188.8 181.44 189.91 176.99 244.08 145.73 242.89 150.54"/><polygon class="cls-3" points="176.95 183.96 158.12 194.83 158.12 178.4 176.95 167.53 176.95 183.96"/><path class="cls-9" d="M169.59,107.75l-28.41-16.29c-1.3-.75-2.93,.19-2.93,1.69v74.92c0,.7,.37,1.34,.98,1.69l43.67,25.1c1.12,.65,2.56,.04,2.87-1.22l4.08-16.42c.04-.15,.06-.31,.06-.47v-25.11c0-.91-.19-1.81-.55-2.65l-16.12-37.15c-.75-1.72-2.02-3.15-3.65-4.09Z"/><path class="cls-7" d="M188.6,176.24L15.11,76.28c-1.32-.76-2.98,.19-2.98,1.72v17.19c0,.71,.38,1.5,.99,1.85l169.71,97.78c1.14,.66,2.6,.04,2.92-1.24l3.77-15.15c.21-.86-.17-1.76-.93-2.2Z"/><path class="cls-11" d="M188.88,181.19l-2.55-.78L12.14,80.04v15.2c0,.78,.37,1.49,1.04,1.88l169.73,97.74c1.11,.64,2.53,.04,2.84-1.21l3.13-12.47Z"/><path class="cls-11" d="M167.57,114.8l-6.78-3.8c-.49-.28-1.09,.07-1.09,.63v20.88c0,.26,.14,.5,.36,.63l19.82,11.33c.46,.26,.99-.21,.78-.69l-12.08-27.85c-.21-.47-.56-.87-1-1.13Zm-13.1-7.21l-9.26-5.35c-.49-.28-1.09,.07-1.09,.63v20.88c0,.26,.14,.5,.36,.63l9.26,5.35c.49,.28,1.09-.07,1.09-.63v-20.88c0-.26-.14-.5-.36-.63Z"/><g><path class="cls-3" d="M146.62,152.04c-10.86-6.27-19.75-1.74-20.53,10.06l41.07,23.71c-.78-12.7-9.68-27.5-20.53-33.77Z"/><path class="cls-8" d="M146.62,157.52c-8.74-5.05-15.82-.99-15.82,9.05s7.08,22.28,15.82,27.33c8.74,5.05,15.82,.99,15.82-9.05s-7.08-22.28-15.82-27.33Z"/><path class="cls-12" d="M146.62,186.09c-4.97-2.87-9.03-9.87-9.03-15.59s4.06-8.04,9.03-5.16c4.97,2.87,9.03,9.87,9.03,15.59s-4.06,8.04-9.03,5.17Z"/><path class="cls-3" d="M146.62,179.9c-2.01-1.16-3.65-3.99-3.65-6.3s1.64-3.25,3.65-2.09c2.01,1.16,3.65,3.99,3.65,6.3s-1.64,3.25-3.65,2.09Z"/></g><path class="cls-24" d="M185.59,169.55l-16.6-9.58-.06-.09c-3.39-5.08-6.94-9.39-9.29-12.24-2.29-2.78-2.78-3.42-2.78-3.87v-36.9c0-.29,.15-.55,.4-.7,.25-.15,.55-.15,.81,0l10.78,6.12c.67,.39,1.2,.99,1.51,1.69l14.94,34.44c.19,.44,.29,.9,.29,1.38v19.76Zm-15.96-10.26l15.05,8.69v-18.19c0-.35-.07-.69-.21-1.02l-14.94-34.44c-.23-.53-.63-.98-1.13-1.27l-10.64-6.03v36.73c.09,.27,1.3,1.74,2.58,3.29,2.35,2.85,5.89,7.15,9.29,12.23Z"/><path class="cls-3" d="M81.34,114.52c-10.86-6.27-19.75-1.74-20.53,10.06l41.07,23.71c-.78-12.7-9.68-27.5-20.53-33.77Z"/><path class="cls-3" d="M40.27,90.8c-10.86-6.27-19.75-1.74-20.53,10.06l41.07,23.71c-.78-12.7-9.68-27.5-20.53-33.77Z"/><g><path class="cls-8" d="M40.27,132.66c-8.72-5.03-15.82-17.31-15.82-27.33s7.11-14.08,15.82-9.05c8.72,5.03,15.82,17.31,15.82,27.33s-7.11,14.09-15.82,9.05Z"/><path class="cls-12" d="M40.27,124.85c-4.97-2.87-9.03-9.87-9.03-15.59s4.06-8.04,9.03-5.16c4.97,2.87,9.03,9.87,9.03,15.59s-4.06,8.04-9.03,5.17Z"/><path class="cls-3" d="M40.27,118.67c-2.01-1.16-3.65-3.99-3.65-6.3s1.64-3.25,3.65-2.09c2.01,1.16,3.65,3.99,3.65,6.3s-1.64,3.25-3.65,2.09Z"/></g><path class="cls-11" d="M238.68,117.01l-45.86,26.48c-1.12,.65-2.56,.18-3.08-1l-11.83-26.58c-.42-.94-.06-2.04,.83-2.56l45.86-26.48c1.12-.65,2.56-.18,3.08,1l11.83,26.58c.42,.94,.06,2.04-.83,2.56Z"/><g><path class="cls-8" d="M81.34,156.37c-8.72-5.03-15.82-17.31-15.82-27.33s7.11-14.08,15.82-9.05c8.72,5.03,15.82,17.31,15.82,27.33s-7.11,14.09-15.82,9.05Z"/><path class="cls-12" d="M81.34,148.56c-4.97-2.87-9.03-9.87-9.03-15.59s4.06-8.04,9.03-5.17c4.97,2.87,9.03,9.87,9.03,15.59s-4.06,8.04-9.03,5.17Z"/><path class="cls-3" d="M81.34,142.38c-2.01-1.16-3.65-3.99-3.65-6.3s1.64-3.25,3.65-2.09c2.01,1.16,3.65,3.99,3.65,6.3s-1.64,3.25-3.65,2.09Z"/></g><g><path class="cls-3" d="M229.63,154.11l-25.15,14.52,1.21-9.72c.18-1.47,1.04-2.77,2.33-3.51l17.22-9.94c1.39-.8,3.15,.05,3.38,1.64l1.02,7.02Z"/><g class="cls-4"><g><rect class="cls-25" x="200.81" y="158.52" width="33.03" height=".91" transform="translate(-50.43 130.52) rotate(-30.12)"/><rect class="cls-25" x="199.43" y="156.12" width="33.03" height=".91" transform="translate(-49.41 129.49) rotate(-30.12)"/><rect class="cls-25" x="198.74" y="153.25" width="33.03" height=".91" transform="translate(-48.06 128.77) rotate(-30.12)"/></g></g></g><path class="cls-22" d="M200.35,170.96v-6.83l-9.28,5.36c-.72,.42-1.61,.42-2.33,0l-2.41-1.39v12.31l1.29,.74c.68,.39,1.51,.39,2.19,0l9.35-5.38,1.19-4.81h0Z"/><polygon class="cls-22" points="244.08 145.78 233.63 151.81 233.63 144.98 244.08 138.95 244.08 145.78"/><polygon class="cls-22" points="242.87 150.61 232.44 156.63 233.63 151.81 244.08 145.78 242.87 150.61"/><path class="cls-6" d="M150.92,77.88L38.22,13.22S56.09,2.64,57.5,2.39l112.43,64.51-19.01,10.98Z"/><g><path class="cls-2" d="M53.75,93.77c-.5,0-.91-.41-.91-.91v-25.78c0-14.51,7.82-28,20.42-35.21l5.71-3.27c.44-.25,.99-.1,1.24,.34,.25,.43,.1,.99-.34,1.24l-5.71,3.27c-12.03,6.89-19.51,19.77-19.51,33.64v25.78c0,.5-.41,.91-.91,.91Z"/><path class="cls-2" d="M65.78,100.12c-.5,0-.91-.41-.91-.91v-25.78c0-14.51,7.82-28.01,20.42-35.21l5.34-3.06c.44-.25,.99-.1,1.24,.34,.25,.43,.1,.99-.34,1.24l-5.34,3.06c-12.03,6.88-19.51,19.77-19.51,33.64v25.78c0,.5-.41,.91-.91,.91Z"/><rect class="cls-2" x="58.87" y="81.34" width="1.81" height="13.84" transform="translate(-46.45 97.1) rotate(-60.65)"/><rect class="cls-2" x="58.87" y="69.54" width="1.81" height="13.84" transform="translate(-36.17 91.09) rotate(-60.65)"/><rect class="cls-2" x="59.42" y="57.9" width="1.81" height="13.84" transform="translate(-25.74 85.64) rotate(-60.65)"/><rect class="cls-2" x="62.33" y="46.9" width="1.81" height="13.84" transform="translate(-14.67 82.56) rotate(-60.65)"/><rect class="cls-2" x="67.97" y="38.41" width="1.81" height="13.84" transform="translate(-4.39 83.15) rotate(-60.65)"/><rect class="cls-2" x="74.78" y="31.63" width="1.81" height="13.84" transform="translate(4.99 85.62) rotate(-60.65)"/></g><g><path class="cls-7" d="M97.54,27.19s0,1.6,0,2.87c0,1.27-.84,2.53-2.51,3.5-3.34,1.93-8.77,1.93-12.11,0-1.67-.97-2.51-2.23-2.51-3.5s0-2.87,0-2.87h17.13Z"/><path class="cls-14" d="M95.04,23.7c3.34,1.93,3.34,5.06,0,6.99-3.34,1.93-8.77,1.93-12.11,0-3.34-1.93-3.34-5.06,0-6.99,3.34-1.93,8.77-1.93,12.11,0Z"/></g><g><polygon class="cls-10" points="29.26 91.67 18 98.14 18 96.2 29.26 88.12 29.26 91.67"/><path class="cls-14" d="M35.65,94.66c2.38,1.37,5.36,3.46,7.46,5.6l7.95-4.88c-2.55-2.86-5.39-4.9-8.39-6.63-5.28-3.05-10.09-3.4-13.62-1.52,0,0-.26,.14-.36,.2,0,0-7.35,4.54-7.35,4.54l1.13,1.15c3.42-1.8,8.09-1.41,13.19,1.53Z"/><polygon class="cls-11" points="44 99.47 44 101.12 51.06 97.05 51.06 95.38 44 99.47"/><path class="cls-7" d="M35.77,93.01c-8.63-4.98-15.99-2.77-18.61,4.64l.85,.49c2.83-6.35,9.66-8.06,17.6-3.48,2.38,1.37,6.29,4.32,8.39,6.46v-1.65c-2.51-2.79-5.3-4.76-8.23-6.46Z"/></g><g><polygon class="cls-10" points="70.54 115.48 59.28 121.95 59.28 120.01 70.54 111.93 70.54 115.48"/><path class="cls-14" d="M76.93,118.47c2.38,1.37,5.36,3.46,7.46,5.6l7.95-4.88c-2.55-2.86-5.39-4.9-8.39-6.63-5.28-3.05-10.09-3.4-13.62-1.52,0,0-.26,.14-.36,.2,0,0-7.35,4.54-7.35,4.54l1.13,1.15c3.42-1.8,8.09-1.41,13.19,1.53Z"/><polygon class="cls-11" points="85.29 123.28 85.29 124.93 92.34 120.86 92.34 119.19 85.29 123.28"/><path class="cls-7" d="M77.05,116.82c-8.63-4.98-15.99-2.77-18.61,4.64l.85,.49c2.83-6.35,9.66-8.06,17.6-3.48,2.38,1.37,6.29,4.32,8.39,6.46v-1.65c-2.51-2.79-5.3-4.76-8.23-6.46Z"/></g><g><polygon class="cls-10" points="138.12 150 126.86 156.47 126.86 154.53 138.12 146.45 138.12 150"/><path class="cls-14" d="M144.51,152.99c2.38,1.37,5.36,3.46,7.46,5.6l7.95-4.88c-2.55-2.86-5.39-4.9-8.39-6.63-5.28-3.05-10.09-3.4-13.62-1.52,0,0-.26,.14-.36,.2,0,0-7.35,4.54-7.35,4.54l1.13,1.15c3.42-1.8,8.09-1.41,13.19,1.53Z"/><polygon class="cls-11" points="152.86 157.8 152.86 159.45 159.91 155.38 159.91 153.71 152.86 157.8"/><path class="cls-7" d="M144.63,151.34c-8.63-4.98-15.99-2.77-18.61,4.64l.85,.49c2.83-6.35,9.66-8.06,17.6-3.48,2.38,1.37,6.29,4.32,8.39,6.46v-1.65c-2.51-2.79-5.3-4.76-8.23-6.46Z"/></g><g><rect class="cls-23" x="176.57" y="110.81" width="1.81" height="12.06" transform="translate(-14.63 26.03) rotate(-8.06)"/><path class="cls-7" d="M177.89,110.15c0,.8-.56,1.77-1.26,2.17-.69,.4-1.26,.08-1.26-.72s.56-1.77,1.26-2.17c.69-.4,1.26-.08,1.26,.72Z"/><rect class="cls-21" x="173.59" y="121.42" width="9.47" height="14.34" rx="2.56" ry="2.56" transform="translate(-5.1 7.39) rotate(-2.34)"/></g><g><rect class="cls-23" x="230.01" y="80.62" width="1.81" height="12.55" transform="translate(27.46 226.48) rotate(-55.07)"/><path class="cls-7" d="M224.52,82.24c0,.8,.56,1.77,1.26,2.17,.69,.4,1.26,.08,1.26-.72s-.56-1.77-1.26-2.17c-.69-.4-1.26-.08-1.26,.72Z"/><path class="cls-13" d="M237.14,102.45l-1.44,.9c-.75,.34-1.41-.37-1.23-2.31l.34-9.86c.04-1.23,.62-1.7,1.38-2.16l1.06-.66c.93-.48,1.66,.83,1.62,2.07l-.34,9.86c-.04,1.23-.5,1.64-1.38,2.16Z"/></g></g></g></svg>