<?xml version="1.0" encoding="utf-8"?>
<!-- Generator: Adobe Illustrator 22.1.0, SVG Export Plug-In . SVG Version: 6.00 Build 0)  -->
<svg version="1.1" id="Layer_1" xmlns="http://www.w3.org/2000/svg" xmlns:xlink="http://www.w3.org/1999/xlink" x="0px" y="0px"
	 viewBox="0 0 512 512" style="enable-background:new 0 0 512 512;" xml:space="preserve">
<style type="text/css">
	.st0{fill:#FFA730;}
	.st1{fill:#E58D23;}
	.st2{fill:#BF6C0D;}
	.st3{fill:#A56021;}
	.st4{fill:#FFD551;}
	.st5{fill:#FFF4C1;}
	.st6{fill:#FFC34C;}
	.st7{fill:#FFEA63;}
	.st8{fill:#FCE575;}
	.st9{fill:#FFB74B;}
	.st10{fill:#8C4C17;}
	.st11{fill:#F9BB32;}
	.st12{fill:#FF4B34;}
	.st13{fill:#FF9079;}
	.st14{fill:#FFDF74;}
	.st15{fill:#FF624B;}
	.st16{fill:#CCC033;}
	.st17{fill:#EACF32;}
	.st18{fill:#FFEACF;}
	.st19{fill:#99AF17;}
	.st20{fill:#FFD59A;}
	.st21{fill:#FCDA4F;}
	.st22{fill:#FCF9DE;}
	.st23{fill:#DB9C2E;}
</style>
<g>
	<g>
		<g>
			<path class="st2" d="M122.746,289.2H74.111c-2.761,0-5-2.239-5-5v-9.685h58.636v9.685
				C127.746,286.961,125.508,289.2,122.746,289.2z"/>
		</g>
	</g>
	<g>
		<g>
			<path class="st2" d="M275.438,289.2h-48.959c-2.761,0-5-2.239-5-5v-9.685h58.959v9.685
				C280.438,286.961,278.199,289.2,275.438,289.2z"/>
		</g>
	</g>
	<g>
		<g>
			<path class="st15" d="M273.059,155.188h-1.397h-0.704H78.101h-0.31H76c-25.805,0-46.724,20.919-46.724,46.724v26.131
				c0,25.805,20.919,46.724,46.724,46.724h1.79h0.31h192.858h0.704h1.397c25.805,0,46.724-20.919,46.724-46.724v-26.131
				C319.783,176.108,298.864,155.188,273.059,155.188z"/>
		</g>
	</g>
	<g>
		<g>
			<path class="st9" d="M205.791,155.189h-62.522v-20.021c0-4.418,3.582-8,8-8h46.522c4.418,0,8,3.582,8,8V155.189z"/>
		</g>
	</g>
	<g>
		<g>
			<path class="st6" d="M445.245,311.505H37.241c-4.418,0-8-3.582-8-8v-6.23c0-4.418,3.582-8,8-8h408.004V311.505z"/>
		</g>
	</g>
	<g>
		<g>
			<path class="st0" d="M474.759,340.74H61.688c-4.418,0-8-3.582-8-8V318.95c0-4.418,3.582-8,8-8h413.07c4.418,0,8,3.582,8,8v13.789
				C482.759,337.158,479.177,340.74,474.759,340.74z"/>
		</g>
	</g>
	<g>
		<g>
			<path class="st16" d="M474.36,249.775v-0.14l-24.465-75.308h-18.648h-24.636h-73.908v134.938c0,1.237,1.003,2.24,2.24,2.24l0,0
				l0,0h137.816c5.523,0,10-4.477,10-10v-41.87C482.759,254.658,479.12,250.543,474.36,249.775z"/>
		</g>
	</g>
	<g>
		<g>
			<path class="st4" d="M438.634,194.026c-0.562-1.73-2.174-2.902-3.994-2.902h-11.231h-33.454c-2.319,0-4.199,1.88-4.199,4.199
				v61.03c0,2.319,1.88,4.199,4.199,4.199h33.454h29.955c2.319,0,4.199-1.88,4.199-4.199v-3.394c0-0.441-0.069-0.878-0.205-1.297
				L438.634,194.026z"/>
		</g>
	</g>
	<g>
		<g>
			<path class="st12" d="M301.662,264.767h-0.704H108.101h-0.31H106c-25.805,0-46.724-20.919-46.724-46.724v-26.131
				c0-14.904,6.987-28.169,17.855-36.724H76c-25.805,0-46.724,20.919-46.724,46.724v26.131c0,25.805,20.919,46.724,46.724,46.724
				h1.79h0.31h192.858h0.704h1.397c10.9,0,20.921-3.743,28.869-10H301.662z"/>
		</g>
	</g>
	<g>
		<g>
			<path class="st3" d="M99.111,281.515h28.635v-7H69.111v9.685c0,2.761,2.239,5,5,5h25V281.515z"/>
		</g>
	</g>
	<g>
		<g>
			<path class="st3" d="M251.478,281.515h28.959v-7h-58.959v9.685c0,2.761,2.239,5,5,5h25V281.515z"/>
		</g>
	</g>
	<g>
		<g>
			<path class="st9" d="M81.043,280.117h-5.98c-3.314,0-6-2.686-6-6V151.278c0-3.314,2.686-6,6-6h5.98c3.314,0,6,2.686,6,6v122.839
				C87.043,277.43,84.356,280.117,81.043,280.117z"/>
		</g>
	</g>
	<g>
		<g>
			<path class="st9" d="M274.39,280.117h-5.98c-3.314,0-6-2.686-6-6V151.278c0-3.314,2.686-6,6-6h5.98c3.314,0,6,2.686,6,6v122.839
				C280.39,277.43,277.704,280.117,274.39,280.117z"/>
		</g>
	</g>
	<g>
		<g>
			<path class="st0" d="M79.063,274.117V151.278c0-2.607,1.666-4.82,3.99-5.647c-0.629-0.224-1.304-0.353-2.01-0.353h-5.98
				c-3.314,0-6,2.686-6,6v122.839c0,3.314,2.686,6,6,6h5.98c0.706,0,1.381-0.128,2.01-0.353
				C80.729,278.937,79.063,276.724,79.063,274.117z"/>
		</g>
	</g>
	<g>
		<g>
			<path class="st0" d="M272.41,274.117V151.278c0-2.607,1.666-4.82,3.99-5.647c-0.629-0.224-1.304-0.353-2.01-0.353h-5.98
				c-3.314,0-6,2.686-6,6v122.839c0,3.314,2.686,6,6,6h5.98c0.706,0,1.381-0.128,2.01-0.353
				C274.077,278.937,272.41,276.724,272.41,274.117z"/>
		</g>
	</g>
	<g>
		<g>
			<path class="st0" d="M163.269,153.168c0-4.418,3.582-8,8-8h34.522v-10c0-4.418-3.582-8-8-8h-46.522c-4.418,0-8,3.582-8,8v20.021
				h20V153.168z"/>
		</g>
	</g>
	<g>
		<g>
			<path class="st7" d="M209.598,136.321h-70.136c-2.761,0-5-2.239-5-5v-10.519c0-2.761,2.239-5,5-5h70.136c2.761,0,5,2.239,5,5
				v10.519C214.598,134.083,212.359,136.321,209.598,136.321z"/>
		</g>
	</g>
	<g>
		<g>
			<path class="st4" d="M164.461,131.321v-10.519c0-2.761,2.239-5,5-5h-30c-2.761,0-5,2.239-5,5v10.519c0,2.761,2.239,5,5,5h30
				C166.7,136.321,164.461,134.083,164.461,131.321z"/>
		</g>
	</g>
	<g>
		<g>
			<path class="st12" d="M147.86,292.784c-2.209,0-4-1.791-4-4v-9.935h-18.798v9.935c0,2.209-1.791,4-4,4s-4-1.791-4-4V140.321
				c0-2.209,1.791-4,4-4s4,1.791,4,4v1.896h18.798v-1.896c0-2.209,1.791-4,4-4s4,1.791,4,4v148.462
				C151.86,290.993,150.069,292.784,147.86,292.784z M125.063,270.849h18.798V257.41h-18.798V270.849z M125.063,249.41h18.798
				v-13.438h-18.798V249.41z M125.063,227.971h18.798v-13.438h-18.798V227.971z M125.063,206.533h18.798v-13.439h-18.798V206.533z
				 M125.063,185.094h18.798v-13.438h-18.798V185.094z M125.063,163.655h18.798v-13.438h-18.798V163.655z"/>
		</g>
	</g>
	<g>
		<g>
			<path class="st11" d="M79.241,303.504v-6.23c0-4.418,3.582-8,8-8h-50c-4.418,0-8,3.582-8,8v6.23c0,4.418,3.582,8,8,8h50
				C82.823,311.504,79.241,307.923,79.241,303.504z"/>
		</g>
	</g>
	<g>
		<g>
			<path class="st1" d="M111.688,330.74c-4.418,0-8-3.582-8-8v-11.79h-42c-4.418,0-8,3.582-8,8v13.79c0,4.418,3.582,8,8,8h413.07
				c4.418,0,8-3.582,8-8v-2H111.688z"/>
		</g>
	</g>
	<g>
		<g>
			<circle class="st3" cx="121.062" cy="359.313" r="36.885"/>
		</g>
	</g>
	<g>
		<g>
			<circle class="st3" cx="220.166" cy="359.313" r="36.885"/>
		</g>
	</g>
	<g>
		<g>
			<circle class="st3" cx="404.935" cy="359.313" r="36.885"/>
		</g>
	</g>
	<g>
		<g>
			<path class="st19" d="M367.703,203.327h73.908h17.705l-9.421-29h-18.648h-24.636h-73.908v134.938c0,1.237,1.003,2.24,2.24,2.24
				h32.76V203.327z"/>
		</g>
	</g>
	<g>
		<g>
			<path class="st16" d="M441.611,203.327h0.044l-3.022-9.301c-0.562-1.73-2.175-2.902-3.994-2.902h-11.231h-33.454
				c-2.319,0-4.199,1.88-4.199,4.199v8.004H441.611z"/>
		</g>
	</g>
	<g>
		<g>
			<path class="st16" d="M455.162,179.325H332.704v-10.995c0-4.418,3.582-8,8-8h114.458c4.418,0,8,3.582,8,8v2.995
				C463.162,175.743,459.58,179.325,455.162,179.325z"/>
		</g>
	</g>
	<g>
		<g>
			<path class="st19" d="M390.703,160.33h-50c-4.418,0-8,3.582-8,8v10.995h50V168.33C382.703,163.911,386.285,160.33,390.703,160.33
				z"/>
		</g>
	</g>
	<g>
		<g>
			<path class="st10" d="M108.178,359.313c0-16.168,10.407-29.896,24.885-34.877c-3.763-1.295-7.797-2.007-12-2.007
				c-20.371,0-36.885,16.514-36.885,36.884c0,20.371,16.514,36.885,36.885,36.885c4.203,0,8.237-0.712,12-2.007
				C118.585,389.21,108.178,375.481,108.178,359.313z"/>
		</g>
	</g>
	<g>
		<g>
			<path class="st10" d="M207.281,359.313c0-16.168,10.407-29.896,24.885-34.877c-3.763-1.295-7.797-2.007-12-2.007
				c-20.371,0-36.885,16.514-36.885,36.884c0,20.371,16.514,36.885,36.885,36.885c4.203,0,8.237-0.712,12-2.007
				C217.689,389.21,207.281,375.481,207.281,359.313z"/>
		</g>
	</g>
	<g>
		<g>
			<path class="st10" d="M392.051,359.313c0-16.168,10.407-29.896,24.885-34.877c-3.763-1.295-7.797-2.007-12-2.007
				c-20.371,0-36.885,16.514-36.885,36.884c0,20.371,16.514,36.885,36.885,36.885c4.203,0,8.237-0.712,12-2.007
				C402.458,389.21,392.051,375.481,392.051,359.313z"/>
		</g>
	</g>
	<g>
		<g>
			<path class="st6" d="M220.166,383.6c-13.392,0-24.287-10.894-24.287-24.286c0-13.392,10.895-24.287,24.287-24.287
				c13.392,0,24.287,10.895,24.287,24.287C244.453,372.705,233.558,383.6,220.166,383.6z"/>
		</g>
	</g>
	<g>
		<g>
			<path class="st9" d="M216.118,383.256c-5.509-6.441-8.837-14.801-8.837-23.943c0-9.141,3.329-17.501,8.837-23.943
				c-11.471,1.933-20.239,11.931-20.239,23.943C195.879,371.326,204.647,381.323,216.118,383.256z"/>
		</g>
	</g>
	<g>
		<g>
			<path class="st6" d="M121.062,383.6c-13.392,0-24.287-10.894-24.287-24.286c0-13.392,10.895-24.287,24.287-24.287
				s24.287,10.895,24.287,24.287C145.349,372.705,134.454,383.6,121.062,383.6z"/>
		</g>
	</g>
	<g>
		<g>
			<path class="st6" d="M404.935,383.6c-13.392,0-24.287-10.894-24.287-24.286c0-13.392,10.895-24.287,24.287-24.287
				s24.287,10.895,24.287,24.287C429.223,372.705,418.327,383.6,404.935,383.6z"/>
		</g>
	</g>
	<g>
		<g>
			<path class="st9" d="M117.015,383.256c-5.508-6.441-8.837-14.801-8.837-23.943c0-9.141,3.329-17.501,8.837-23.943
				c-11.471,1.933-20.239,11.931-20.239,23.943C96.776,371.326,105.544,381.323,117.015,383.256z"/>
		</g>
	</g>
	<g>
		<g>
			<path class="st9" d="M400.888,383.256c-5.509-6.441-8.837-14.801-8.837-23.943c0-9.141,3.329-17.501,8.837-23.943
				c-11.471,1.933-20.24,11.931-20.24,23.943C380.648,371.326,389.417,381.323,400.888,383.256z"/>
		</g>
	</g>
	<g>
		<g>
			<circle class="st19" cx="388.36" cy="283.487" r="15"/>
		</g>
	</g>
	<g>
		<g>
			<path class="st13" d="M308.992,205.5c-3.017,0-5.615-2.27-5.956-5.338c-2.133-19.218-15.528-24.485-16.098-24.7
				c-3.122-1.108-4.729-4.529-3.62-7.651c1.109-3.124,4.573-4.746,7.688-3.638c0.854,0.303,20.968,7.739,23.957,34.665
				c0.365,3.293-2.009,6.26-5.302,6.625C309.438,205.488,309.214,205.5,308.992,205.5z"/>
		</g>
	</g>
	<g>
		<g>
			<path class="st5" d="M205.791,130.449H178c-3.313,0-6-2.687-6-6s2.687-6,6-6h27.791c3.313,0,6,2.687,6,6
				S209.104,130.449,205.791,130.449z"/>
		</g>
	</g>
	<g>
		<g>
			<path class="st17" d="M453,175.827h-39.295c-3.313,0-6-2.687-6-6s2.687-6,6-6H453c3.313,0,6,2.687,6,6
				S456.313,175.827,453,175.827z"/>
		</g>
	</g>
	<g>
		<g>
			<path class="st4" d="M319.783,306.389H240.5c-3.313,0-6-2.687-6-6s2.687-6,6-6h79.283c3.313,0,6,2.687,6,6
				S323.097,306.389,319.783,306.389z"/>
		</g>
	</g>
	<g>
		<g>
			<circle class="st12" cx="178" cy="240.839" r="15"/>
		</g>
	</g>
</g>
</svg>
