<?xml version="1.0" encoding="UTF-8"?><svg id="Layer_1" xmlns="http://www.w3.org/2000/svg" viewBox="0 0 1024 1024.01"><defs><style>.cls-1{fill:#d16b45;}.cls-2{fill:#5dbc38;}</style></defs><path class="cls-1" d="M712.34,813.96c-.39,4.97,.51,9.97-.67,14.97-.55,2.33-1.56,4.11-3.18,5.72-18.36,18.22-38.84,33.55-61.61,45.93-21.72,11.81-44.54,20.58-68.57,26.24-11.08,2.61-22.32,4.26-33.66,5.45-11.77,1.25-23.58,2.19-35.36,2.02-37.36-.52-73.48-7.49-108.01-22.22-24.53-10.46-46.89-24.36-67.35-41.32-26.13-21.65-48.04-47.06-65.08-76.42-15.56-26.82-26.44-55.54-32.96-85.92-3.41-15.93-5.34-31.96-6.47-48.21-.87-12.44-.59-24.82,.41-37.09,1.72-21.21,5.51-42.13,11.62-62.61,4.61-15.44,10.49-30.35,17.59-44.76,8.63-17.54,19.44-33.75,31.15-49.38,13.74-18.33,27.42-36.71,41.16-55.04,6.83-9.11,13.71-18.19,20.59-27.27,.32-.42,.71-.78,1.1-1.14,2.15-2.09,3.53-1.86,4.26,1.25,2.11,9.02,4.18,18.06,6.5,27.03,3.49,13.53,8.38,26.57,14.01,39.36,10.33,23.48,23.8,45.08,39.47,65.27,14,18.04,29.97,34.28,46.86,49.66,25.09,22.84,52.88,42.03,80.74,61.2,20.94,14.41,41.25,29.7,60.84,45.93,19,15.75,37.13,32.43,54.04,50.35,16.88,17.89,31.7,37.33,41.82,59.99,7.24,16.22,11.63,33.05,10.75,50.99h0Z"/><path class="cls-2" d="M794.81,629.53c.75,10.6-.11,22.3-1.61,33.88-3.14,24.35-8.96,48.08-18.17,70.89-2.32,5.75-4.37,11.62-7.66,16.95-.75,1.23-1.3,2.97-2.9,2.74-1.45-.21-2.14-1.91-2.62-3.23-3.3-9.19-7.62-17.9-12.15-26.52-7.94-15.13-17.72-28.99-28.23-42.42-13.86-17.7-29.85-33.36-46-48.84-10.85-10.4-22.42-20.06-34.03-29.66-19.38-16.02-39.51-31.04-60.06-45.46-18.38-12.91-36.97-25.53-54.8-39.18-16.31-12.48-31.51-26.27-45.39-41.41-19.98-21.79-36.85-45.79-48.91-72.88-6.75-15.17-11.81-30.91-14.57-47.38-1.64-9.81-2.7-19.59-3.26-29.53-.95-17.1,.92-33.84,5.12-50.28,2.2-8.61,8.04-15.65,12.91-22.97,12.78-19.24,26.11-38.14,37.36-58.34,7.76-13.93,14.69-28.29,21.14-42.88,4.52-10.19,9.46-20.21,14.21-30.3,1.49-3.17,2.96-6.35,4.53-9.48,.71-1.41,.8-3.81,3-3.53,1.84,.25,2.02,2.47,2.61,3.94,3.78,9.5,7.76,18.9,11.87,28.27,5.9,13.43,12.38,26.56,19.33,39.45,8.31,15.42,17.32,30.44,26.74,45.21,16.13,25.3,33.88,49.47,51.54,73.69,12.33,16.91,24.94,33.63,37.58,50.31,10.61,14.01,21.29,27.96,32.23,41.72,11.03,13.86,22.09,27.68,32.49,42.03,10.36,14.29,20.06,28.99,28.88,44.28,11.71,20.29,20.83,41.68,27.71,64.03,3.81,12.39,6.58,25.03,8.11,37.98,1.87,15.9,3.52,31.78,2.99,48.95v-.02Z"/></svg>