<?xml version="1.0" encoding="utf-8"?>
<!-- Generator: Adobe Illustrator 21.0.0, SVG Export Plug-In . SVG Version: 6.00 Build 0)  -->
<svg version="1.1" id="Layer_1" xmlns="http://www.w3.org/2000/svg" xmlns:xlink="http://www.w3.org/1999/xlink" x="0px" y="0px"
	 viewBox="0 0 256 256" style="enable-background:new 0 0 256 256;" xml:space="preserve">
<style type="text/css">
	.st0{fill:#F5C84C;}
	.st1{fill:#EF4460;}
	.st2{fill:#EDF4FC;}
	.st3{fill:#87D147;}
	.st4{fill:#FC657E;}
	.st5{fill:#70D6F9;}
</style>
<g id="Layer_68">
	<g>
		<path class="st0" d="M239.4,99.2l-12.3-10.5c-2.7-2.3-3.9-5.8-3.3-9.2l2.8-16.6c0.9-5.4-2.7-10.5-8.1-11.5
			c-0.3-0.1-0.6-0.1-0.9-0.1l-16.3-1.2c-3.8-0.3-7.1-2.7-8.5-6.3l-6.2-15.9c-2-5.1-7.7-7.7-12.9-5.7c-0.1,0-0.1,0.1-0.2,0.1
			l-15.5,6.4c-3.7,1.5-8,0.7-10.8-2.1L135,14.5c-3.9-3.9-10.2-3.9-14,0l-12.1,12.1c-2.8,2.8-7.1,3.7-10.8,2.1l-15.5-6.4
			c-5.1-2.1-10.9,0.3-13,5.4c0,0.1-0.1,0.1-0.1,0.2l-6.2,15.9c-1.4,3.6-4.7,6-8.5,6.3l-16.3,1.2c-5.5,0.4-9.6,5.2-9.2,10.6
			c0,0.3,0.1,0.6,0.1,0.9l2.8,16.6c0.6,3.4-0.7,7-3.3,9.2L16.6,99.2c-4.2,3.6-4.7,9.8-1.1,14c0.3,0.4,0.7,0.8,1.1,1.1l12.3,10.5
			c2.7,2.3,3.9,5.8,3.3,9.2l-2.8,16.6c-0.9,5.4,2.7,10.5,8.1,11.5c0.3,0.1,0.6,0.1,0.9,0.1l16.3,1.2c3.8,0.3,7.1,2.7,8.5,6.3
			l6.2,15.9c2,5.1,7.7,7.7,12.9,5.7c0.1,0,0.1-0.1,0.2-0.1l15.5-6.4c3.1-1.3,6.7-0.9,9.5,1.1v-20.7c0-1.2,1-2.1,2.1-2.1h36.5
			c1.2,0,2.1,1,2.1,2.1v20.7c2.8-2,6.4-2.4,9.5-1.1l15.5,6.4c5.1,2.1,10.9-0.3,13-5.4c0-0.1,0.1-0.1,0.1-0.2l6.2-15.9
			c1.4-3.6,4.7-6,8.5-6.3l16.3-1.2c5.5-0.4,9.6-5.2,9.2-10.6c0-0.3-0.1-0.6-0.1-0.9l-2.8-16.6c-0.6-3.4,0.7-7,3.3-9.2l12.3-10.5
			c4.2-3.6,4.7-9.8,1.1-14C240.2,99.9,239.8,99.6,239.4,99.2z"/>
		<path class="st1" d="M163.6,213.6h-13.1c-1.2,0-2.1-1-2.1-2.1c0,0,0,0,0,0v-46.2c0-1.2-1-2.1-2.1-2.1c0,0,0,0,0,0h-36.5
			c-1.2,0-2.1,1-2.1,2.1c0,0,0,0,0,0v46.2c0,1.2-1,2.1-2.1,2.1c0,0,0,0,0,0H92.4c-1.2,0-2.1,1-2.1,2.1c0,0.6,0.2,1.1,0.6,1.5
			l35.6,35.6c0.8,0.8,2.2,0.8,3,0c0,0,0,0,0,0l35.6-35.6c0.8-0.8,0.8-2.2,0-3C164.7,213.8,164.2,213.6,163.6,213.6z"/>
		<path class="st2" d="M70.7,97.8L70.7,97.8l18.7,0c1,0,1.8-0.8,1.8-1.8c0,0,0,0,0,0l0-3.9c0-1-0.8-1.8-1.8-1.8h0l-11.9,0l-0.1-33
			c0-1-0.8-1.8-1.8-1.8h0l-5,0c-1,0-1.8,0.8-1.8,1.8c0,0,0,0,0,0L69,96C69,97,69.8,97.8,70.7,97.8z"/>
		<path class="st2" d="M130.2,65.5c-1.7-3.2-4.3-5.9-7.4-7.7h0c-6.6-3.7-14.6-3.6-21.2,0c-3.2,1.8-5.7,4.5-7.5,7.7
			c-3.6,7-3.5,15.2,0.1,22.1c1.7,3.2,4.3,5.9,7.5,7.7c3.2,1.8,6.9,2.8,10.6,2.7h0.1c3.7,0,7.4-0.9,10.6-2.8c3.1-1.8,5.7-4.5,7.4-7.7
			C133.8,80.7,133.8,72.4,130.2,65.5L130.2,65.5z M106,88.4c-1.8-1.1-3.3-2.7-4.3-4.6c-2.1-4.6-2.1-9.8,0-14.4
			c0.9-1.9,2.4-3.5,4.2-4.6c1.9-1.1,4.1-1.6,6.3-1.6h0c2.2,0,4.3,0.5,6.2,1.6c1.8,1.1,3.3,2.6,4.3,4.5c2.1,4.6,2.1,9.8,0,14.4
			c-0.9,1.9-2.4,3.5-4.3,4.6c-1.9,1.1-4,1.7-6.2,1.6C110,90,107.9,89.5,106,88.4z"/>
		<path class="st2" d="M143.9,96.3c0.2,0.8,0.9,1.3,1.7,1.3h0l6.1,0c0.8,0,1.5-0.5,1.7-1.3l7.2-25.6l7.3,25.6
			c0.2,0.8,0.9,1.3,1.7,1.3h0l6.1,0c0.8,0,1.5-0.6,1.7-1.3l9.7-38.7c0.2-0.9-0.3-1.9-1.3-2.1c-0.1,0-0.3-0.1-0.4-0.1h0l-5.5,0
			c-0.8,0-1.5,0.6-1.7,1.4l-5.9,26l-7.4-26c-0.2-0.8-0.9-1.3-1.7-1.3h0l-5.5,0c-0.8,0-1.5,0.5-1.7,1.3l-7.2,26.1l-5.9-26
			c-0.2-0.8-0.9-1.4-1.7-1.4h0l-5.5,0c-1,0-1.8,0.8-1.8,1.8c0,0.1,0,0.3,0.1,0.4L143.9,96.3z"/>
		<path class="st2" d="M70.6,107.6L70.6,107.6l-12.4,0c-1,0-1.8,0.8-1.8,1.8c0,0,0,0,0,0l0.1,38.7c0,1,0.8,1.8,1.8,1.8h0l5,0
			c1,0,1.8-0.8,1.8-1.8c0,0,0,0,0,0l0-13.8l5.5,0c4.7,0,8.4-1.2,11-3.5c2.6-2.4,4-5.7,4-9.8c0.2-3.7-1.2-7.2-3.9-9.7
			C79.1,108.8,75.4,107.6,70.6,107.6z M65,126.5l0-11.2l5.1,0h0c2.5,0,4.3,0.5,5.3,1.4c1.1,1.1,1.6,2.7,1.5,4.2
			c0.1,1.5-0.4,3-1.5,4.2c-1,0.9-2.8,1.4-5.3,1.4L65,126.5z"/>
		<path class="st2" d="M108.1,133.2c2.3-0.6,4.4-1.9,6-3.6c2.1-2.4,3.2-5.6,3.1-8.8c0.1-3.6-1.3-7.1-3.9-9.6
			c-2.5-2.4-6.2-3.6-11-3.6h-0.1l-12.7,0c-1,0-1.8,0.8-1.8,1.8c0,0,0,0,0,0l0.1,38.6c0,1,0.8,1.8,1.8,1.8h0l5,0c1,0,1.8-0.8,1.8-1.8
			c0,0,0,0,0,0l0-14l2.7,0l9.6,15c0.3,0.5,0.9,0.8,1.5,0.8h0l5.6,0c1,0,1.8-0.8,1.8-1.8c0-0.3-0.1-0.7-0.3-1L108.1,133.2z
			 M108.6,121.1c0,2.8-0.8,5.7-6.7,5.7l-5.5,0l0-11.4l5.5,0h0c2.4,0,4.1,0.5,5.2,1.4C108.2,117.9,108.7,119.5,108.6,121.1
			L108.6,121.1z"/>
		<path class="st2" d="M127.7,108c-0.3-0.3-0.8-0.5-1.2-0.5h0l-5,0c-1,0-1.8,0.8-1.8,1.8c0,0,0,0,0,0l0.1,38.6c0,1,0.8,1.8,1.8,1.8
			h0l5,0c1,0,1.8-0.8,1.8-1.8c0,0,0,0,0,0l-0.1-38.7C128.3,108.8,128.1,108.3,127.7,108z"/>
		<path class="st2" d="M169.7,133.4L169.7,133.4l-5.3,0c-0.7,0-1.4,0.5-1.6,1.1c-0.8,2.2-2.2,4-4.1,5.3c-2.1,1.4-4.6,2.1-7.1,2
			c-2.1,0.1-4.1-0.5-5.9-1.6c-1.8-1.1-3.2-2.7-4.1-4.5c-1.1-2.2-1.6-4.7-1.6-7.1c-0.1-2.5,0.5-5,1.5-7.2c1.8-3.8,5.7-6.2,9.9-6.2h0
			c2.5-0.1,4.9,0.6,7,1.9c1.9,1.3,3.3,3.1,4.1,5.3c0.3,0.7,0.9,1.1,1.6,1.1h0l5.3,0c1,0,1.8-0.8,1.8-1.8c0-0.2,0-0.3-0.1-0.5
			c-1.1-4.1-3.6-7.8-7-10.4l0,0c-3.7-2.6-8.2-4-12.7-3.8c-3.7-0.1-7.3,0.9-10.5,2.8c-3.1,1.8-5.5,4.5-7.1,7.7
			c-1.7,3.4-2.6,7.2-2.5,11.1c-0.1,3.8,0.8,7.6,2.6,11c1.6,3.2,4.1,5.8,7.2,7.6c3.2,1.8,6.8,2.8,10.4,2.7h0.1
			c4.6,0.2,9-1.2,12.7-3.9c3.4-2.6,5.9-6.3,7-10.4c0.3-0.9-0.3-1.9-1.2-2.2C170,133.4,169.9,133.4,169.7,133.4L169.7,133.4z"/>
		<path class="st2" d="M199.5,143.7c0-1-0.8-1.8-1.8-1.8h0l-14.6,0l0-10l12.9,0c1,0,1.8-0.8,1.8-1.8l0-3.8c0-1-0.8-1.8-1.8-1.8h0
			l-12.9,0l0-9.7l14.6,0c1,0,1.8-0.8,1.8-1.8l0-4.1c0-1-0.8-1.8-1.8-1.8h0l-21.3,0.1c-1,0-1.8,0.8-1.8,1.8c0,0,0,0,0,0l0.1,38.7
			c0,1,0.8,1.8,1.8,1.8h0l21.3-0.1c1,0,1.8-0.8,1.8-1.8L199.5,143.7z"/>
		<circle class="st0" cx="176.3" cy="3.1" r="3.1"/>
		<circle class="st3" cx="53.3" cy="192.4" r="3.1"/>
		<circle class="st4" cx="211.3" cy="184.4" r="3.1"/>
		<path class="st0" d="M77.4,216.9c-4.3,0.8-7.8,4.1-8.6,8.5c0,0.1-0.1,0.2-0.2,0.2c-0.1,0-0.1-0.1-0.2-0.2
			c-0.9-4.3-4.3-7.7-8.6-8.5c-0.1,0-0.2-0.1-0.2-0.2c0-0.1,0.1-0.1,0.2-0.2c4.3-0.8,7.8-4.1,8.6-8.5c0-0.1,0.1-0.2,0.2-0.2
			c0.1,0,0.1,0.1,0.2,0.2c0.9,4.3,4.3,7.7,8.6,8.5c0.1,0,0.2,0.1,0.2,0.2C77.5,216.8,77.5,216.9,77.4,216.9z"/>
		<path class="st5" d="M208.3,17h-2.1v-2.1c0-1.6-1.3-2.9-2.9-2.9c-1.6,0-2.9,1.3-2.9,2.9V17h-2.1c-1.6,0-2.9,1.3-2.9,2.9
			c0,1.6,1.3,2.9,2.9,2.9h2.1V25c0,1.6,1.3,2.9,2.9,2.9c1.6,0,2.9-1.3,2.9-2.9v-2.1h2.1c1.6,0,2.9-1.3,2.9-2.9
			C211.2,18.3,209.9,17,208.3,17z"/>
		<path d="M241,97.3l-12.3-10.5c-2-1.7-2.9-4.3-2.5-6.9l2.8-16.6c1.2-6.8-3.4-13.2-10.2-14.4c-0.4-0.1-0.8-0.1-1.2-0.1l-16.3-1.2
			c-2.9-0.2-5.3-2.1-6.4-4.7l-6.2-15.9c-2.5-6.4-9.7-9.6-16.1-7.1c-0.1,0-0.2,0.1-0.3,0.1L157,26.4c-2.8,1.2-6,0.5-8.1-1.6
			l-12.1-12.1c-4.9-4.8-12.7-4.8-17.6,0l-12.1,12.1c-2.1,2.1-5.3,2.8-8.1,1.6l-15.5-6.4c-6.3-2.6-13.6,0.4-16.3,6.7
			c0,0.1-0.1,0.2-0.1,0.3L61,42.9c-1,2.7-3.5,4.5-6.4,4.7l-16.3,1.2c-6.8,0.5-12,6.5-11.5,13.3c0,0.4,0.1,0.8,0.1,1.2l2.8,16.6
			c0.4,2.6-0.5,5.2-2.5,6.9L15,97.3c-5.2,4.5-5.8,12.3-1.4,17.5c0.4,0.5,0.9,0.9,1.4,1.4l12.3,10.5c2,1.7,2.9,4.3,2.5,6.9l-2.8,16.6
			c-1.2,6.8,3.4,13.2,10.2,14.4c0.4,0.1,0.8,0.1,1.2,0.1l16.3,1.2c2.9,0.2,5.3,2.1,6.4,4.7l6.2,15.9c2.5,6.4,9.7,9.6,16.1,7.1
			c0.1,0,0.2-0.1,0.3-0.1l15.5-6.4c2-0.8,4.2-0.7,6.1,0.2v23.8H92.4c-2.6,0-4.6,2.1-4.6,4.6c0,1.2,0.5,2.4,1.4,3.3l35.6,35.6
			c1.8,1.8,4.7,1.8,6.6,0l35.6-35.6c1.8-1.8,1.8-4.8,0-6.6c-0.9-0.9-2-1.4-3.3-1.4h-12.7v-23.8c1.9-0.9,4.1-1,6.1-0.2l15.5,6.4
			c6.3,2.6,13.6-0.4,16.3-6.7c0-0.1,0.1-0.2,0.1-0.3l6.2-15.9c1-2.7,3.5-4.5,6.4-4.7l16.3-1.2c6.8-0.5,12-6.5,11.5-13.3
			c0-0.4-0.1-0.8-0.1-1.2l-2.8-16.6c-0.4-2.6,0.5-5.2,2.5-6.9l12.3-10.5c5.2-4.5,5.8-12.3,1.4-17.5C242,98.2,241.5,97.7,241,97.3
			L241,97.3z M162.7,216.1L128,250.9l-34.7-34.7h12.2c2.6,0,4.6-2.1,4.6-4.6v-45.8h35.8v45.8c0,2.6,2.1,4.6,4.6,4.6L162.7,216.1z
			 M237.8,112.4l-12.3,10.5c-3.3,2.9-4.9,7.2-4.2,11.5l2.8,16.6c0.7,4-2,7.9-6.1,8.6c-0.2,0-0.5,0.1-0.7,0.1l-16.3,1.2
			c-4.8,0.4-8.9,3.4-10.7,7.9l-6.2,15.9c-1.5,3.8-5.8,5.7-9.6,4.3c-0.1,0-0.1,0-0.2-0.1l-15.5-6.4c-2.5-1.1-5.3-1.2-8-0.5v-16.8
			c0-2.6-2.1-4.6-4.6-4.6h-36.5c-2.6,0-4.6,2.1-4.6,4.6V182c-2.6-0.7-5.4-0.5-8,0.5L81.6,189c-3.8,1.6-8.1-0.2-9.7-4
			c0-0.1,0-0.1-0.1-0.2l-6.2-15.9c-1.7-4.5-5.9-7.5-10.7-7.9l-16.3-1.2c-4.1-0.3-7.2-3.9-6.9-8c0-0.2,0-0.5,0.1-0.7l2.8-16.6
			c0.7-4.3-0.9-8.7-4.2-11.5l-12.3-10.5c-3.1-2.7-3.5-7.4-0.8-10.5c0.3-0.3,0.5-0.6,0.8-0.8l12.3-10.5c3.3-2.9,4.9-7.2,4.2-11.5
			l-2.8-16.6c-0.7-4,2-7.9,6.1-8.6c0.2,0,0.5-0.1,0.7-0.1L55,52.6c4.8-0.4,8.9-3.4,10.7-7.9l6.2-15.9c1.5-3.8,5.8-5.7,9.6-4.3
			c0.1,0,0.1,0,0.2,0.1L97.1,31c4.6,1.9,10,0.9,13.5-2.7l12.1-12.1c2.9-2.9,7.6-2.9,10.5,0l12.1,12.1c3.6,3.6,8.9,4.6,13.5,2.7
			l15.5-6.4c3.8-1.6,8.1,0.2,9.7,4c0,0.1,0,0.1,0.1,0.2l6.2,15.9c1.7,4.5,5.9,7.5,10.7,7.9l16.3,1.2c4.1,0.3,7.2,3.9,6.9,8
			c0,0.2,0,0.5-0.1,0.7l-2.8,16.6c-0.7,4.3,0.9,8.7,4.2,11.5l12.3,10.5c3.1,2.7,3.5,7.4,0.8,10.5
			C238.4,111.9,238.1,112.2,237.8,112.4L237.8,112.4z"/>
		<path d="M70.7,100.3L70.7,100.3l18.7,0c2.4,0,4.3-1.9,4.2-4.3l0-3.9c0-0.2,0-0.4-0.1-0.5c4.4,5.8,11.3,9.2,18.6,9.1
			c13.3,0,23.2-10.3,23.1-24.1c0-1.6-0.1-3.2-0.4-4.8l6.5,25.2c0.5,1.9,2.2,3.2,4.1,3.2l6.1,0c1.9,0,3.6-1.3,4.1-3.1l4.8-17.1
			l4.9,17.1c0.5,1.8,2.2,3.1,4.1,3.1l6.1,0c1.9,0,3.6-1.3,4.1-3.2l9.7-38.7c0.6-2.3-0.8-4.6-3.1-5.2c-0.3-0.1-0.7-0.1-1-0.1l-5.5,0
			c-2,0-3.7,1.4-4.1,3.3L172,72.6L167.3,56c-0.5-1.8-2.2-3.1-4.1-3.1l-5.5,0c-1.9,0-3.6,1.3-4.1,3.1L149,72.6l-3.7-16.3
			c-0.4-1.9-2.2-3.3-4.2-3.3l-5.5,0c-2.4,0-4.3,1.9-4.2,4.3c0,0.4,0,0.7,0.1,1.1l2.5,9.8c-0.4-1.3-1-2.6-1.7-3.8l0,0
			c-4-7.4-11.8-11.9-20.2-11.7c-13.1,0-23.3,10-23.2,24.1c0,4.1,0.9,8.2,2.8,11.9c-0.7-0.5-1.5-0.7-2.3-0.7l-9.4,0l-0.1-30.5
			c0-2.3-1.9-4.2-4.3-4.2l-5,0c-2.4,0-4.3,1.9-4.3,4.3c0,0,0,0,0,0l0.1,38.7C66.5,98.4,68.4,100.3,70.7,100.3z M140.6,58l5.8,25.4
			c0.3,1.3,1.6,2.2,3,1.9c0.9-0.2,1.6-0.9,1.9-1.8l7.1-25.6l4.4,0l7.2,25.5c0.4,1.3,1.8,2.1,3.1,1.7c0.9-0.2,1.6-1,1.8-1.9l5.7-25.4
			l3.9,0L175,95l-4.9,0l-7.1-25c-0.3-1.1-1.3-1.8-2.4-1.8h0c-1.1,0-2.1,0.7-2.4,1.8l-7,25.1l-4.9,0L136.6,58L140.6,58z M112.1,57.5
			c10.8,0,18.2,8.1,18.2,19c0,10.8-7.3,19.1-18.2,19.1c-10.4,0-18.2-7.7-18.3-19C93.9,65.4,101.7,57.6,112.1,57.5L112.1,57.5z
			 M74.9,58.1L75,90.4c0,1.4,1.1,2.5,2.5,2.5h0l11.2,0l0,2.4l-17.2,0l-0.1-37.2L74.9,58.1z"/>
		<path d="M111.9,92.5c0.1,0,0.2,0,0.4,0c8.2,0,14.5-6.1,14.5-15.9c0-9.8-6.2-15.8-14.6-15.8c-8.4,0-14.6,6.1-14.6,15.9
			C97.6,86.5,104,92.5,111.9,92.5z M112.2,65.7c6.1,0,9.5,4.5,9.6,10.8c0,7-4,10.9-9.6,10.9c-5.3,0.1-9.6-3.7-9.6-10.8
			C102.6,70.2,106,65.7,112.2,65.7z"/>
		<path d="M70.1,112.8l-5.1,0c-1.4,0-2.5,1.1-2.5,2.5v0l0,11.2c0,1.4,1.1,2.5,2.5,2.5h0l5.1,0c5.7,0,9.3-2.4,9.3-8.1
			C79.4,115.2,76,112.8,70.1,112.8z M73.7,123.3c-0.1,0.1-0.9,0.7-3.6,0.7l-2.6,0l0-6.2l2.6,0c3.6,0,4.3,0.7,4.3,3.1
			C74.4,122.6,73.9,123.1,73.7,123.3z"/>
		<path d="M111.1,121.1L111.1,121.1c0-5.7-3.5-8.2-9.3-8.2l-5.5,0c-1.4,0-2.5,1.1-2.5,2.5c0,0,0,0,0,0l0,11.4c0,1.4,1.1,2.5,2.5,2.5
			h0l5.5,0C108,129.3,111.1,126.5,111.1,121.1z M101.9,124.3l-3,0l0-6.4l3.1,0c2.4,0,3.3,0.6,3.5,0.8c0.5,0.7,0.8,1.5,0.7,2.4
			C106.1,122.9,106.1,124.3,101.9,124.3L101.9,124.3z"/>
		<path d="M200.7,140.6c-0.8-0.8-1.9-1.2-3-1.2l-12.1,0l0-5l10.4,0c2.4,0,4.3-1.9,4.2-4.3c0,0,0,0,0,0l0-3.8c0-2.3-1.9-4.2-4.3-4.2
			l-10.4,0l0-4.7l12.1,0c2.4,0,4.3-1.9,4.2-4.3c0,0,0,0,0,0l0-4.1c0-2.3-1.9-4.2-4.3-4.2l-21.3,0.1c-2.4,0-4.3,1.9-4.2,4.3
			c0,0,0,0,0,0l0,7.2c-3.6-7.2-10.5-11.8-20.4-11.8h-0.1c-9.8,0-17.4,5.4-20.8,14l0-9.3c0-1.1-0.4-2.2-1.2-3l0,0
			c-0.8-0.8-1.9-1.2-3-1.2l-5,0c-2.4,0-4.3,1.9-4.2,4.3c0,0,0,0,0,0l0,2.7c-0.6-1-1.4-1.8-2.2-2.6c-3-2.9-7.3-4.3-12.8-4.3l-12.7,0
			c-2.4,0-4.2,1.9-4.2,4.3l0,2.2c-0.6-0.8-1.2-1.6-1.9-2.2c-3-2.8-7.3-4.2-12.8-4.2h-0.1l-12.3,0c-2.4,0-4.3,1.9-4.2,4.3l0.1,38.7
			c0,2.3,1.9,4.2,4.3,4.2l5,0c2.4,0,4.3-1.9,4.3-4.3c0,0,0,0,0,0l0-11.3l3,0c7.4,0,12.1-2.7,14.8-6.5l0,17.8c0,2.4,1.9,4.3,4.3,4.2
			l5,0c2.4,0,4.3-1.9,4.2-4.3l0-9.7l7.7,12c0.8,1.2,2.1,2,3.6,2l5.6,0c1.1,0,2.1-0.4,2.9-1.2c0.8,0.7,1.8,1.2,2.9,1.2l5,0
			c2.4,0,4.3-1.9,4.2-4.3c0,0,0,0,0,0l0-9.3c3.3,8.3,10.8,13.9,20.9,13.9c10,0,16.9-4.7,20.4-11.9l0,7.3c0,2.4,1.9,4.3,4.3,4.2
			l21.3-0.1c2.3,0,4.2-1.9,4.2-4.3l0-4.1C202,142.5,201.6,141.4,200.7,140.6z M70.6,131.7l-5.5,0c-1.4,0-2.5,1.1-2.5,2.5v0l0,13.1
			l-3.5,0L59,110.1l11.6,0c7.5,0,12.4,3.3,12.4,10.8C83,128.4,78,131.7,70.6,131.7z M110.6,147.2l-9.4-14.6
			c-0.5-0.7-1.3-1.1-2.1-1.1h0l-2.7,0c-1.4,0-2.5,1.1-2.5,2.5l0,13.3l-3.5,0l-0.1-37.2l12,0c8.4,0,12.4,4.3,12.4,10.7
			c0,5.2-2.6,8.6-7.3,10c-1.3,0.4-2.1,1.8-1.7,3.1c0.1,0.2,0.2,0.5,0.3,0.7l8.4,12.6L110.6,147.2z M111.9,134.4
			c2.2-1.1,4.1-2.8,5.4-4.8l0,13L111.9,134.4z M122.3,147.2l-0.1-37.2l3.5,0l0.1,37.2L122.3,147.2z M151.6,147.4
			c-10.8,0-17.6-8-17.7-18.8c0-10.8,6.7-19,17.6-19h0.1c8.8,0,14.5,4.5,16.9,11.5l-3.8,0c-2.1-5-6.7-8.4-13.4-8.4
			c-7.9,0-13.9,6-13.9,15.9c0,10.2,6.6,15.8,14,15.7c6.7,0,11.2-3.5,13.3-8.4l3.8,0C166.3,142.9,160.6,147.4,151.6,147.4
			L151.6,147.4z M169.7,130.9L169.7,130.9l-5.3,0c-1.8,0-3.3,1.1-4,2.7c-1.4,3.5-4.3,5.7-8.9,5.7c-4.8,0-8.9-3.6-8.9-10.7
			c0-6,3-10.9,9-10.9c4.5,0,7.5,2.1,8.8,5.6c0.6,1.6,2.2,2.7,4,2.7l5.3,0c0.9,0,1.7-0.3,2.4-0.8l0,6.4
			C171.4,131.1,170.6,130.9,169.7,130.9L169.7,130.9z M177.2,147l-0.1-37.2l19.8,0l0,2.6l-13.8,0c-1.4,0-2.5,1.1-2.5,2.5v0l0,9.7
			c0,1.4,1.1,2.5,2.5,2.5h0l12.2,0l0,2.4l-12.2,0c-1.4,0-2.5,1.1-2.5,2.5v0l0,10c0,1.4,1.1,2.5,2.5,2.5h0l13.8,0l0,2.6L177.2,147z"
			/>
		<path d="M53.4,20.6c1.3-0.4,2.1-1.8,1.7-3.1L50.8,2.3c-0.4-1.3-1.8-2.1-3.1-1.7S45.6,2.4,46,3.7l4.3,15.2
			C50.6,20.2,52,21,53.4,20.6C53.4,20.6,53.4,20.6,53.4,20.6z"/>
		<path d="M41.8,27.8c1-1,0.9-2.6,0-3.5l-11.3-11c-1-1-2.6-0.9-3.5,0.1c-1,1-0.9,2.6,0,3.5l11.3,11C39.3,28.8,40.9,28.8,41.8,27.8z"
			/>
		<path d="M15.3,34.6c-0.3,1.3,0.5,2.7,1.8,3c0,0,0,0,0,0l15.3,3.9c1.3,0.4,2.7-0.4,3.1-1.7c0.4-1.3-0.4-2.7-1.7-3.1
			c0,0-0.1,0-0.1,0l-15.3-3.9C17,32.5,15.7,33.3,15.3,34.6C15.3,34.6,15.3,34.6,15.3,34.6z"/>
	</g>
</g>
</svg>
