<svg xmlns="http://www.w3.org/2000/svg" width="128" height="128" viewBox="0 0 128 128">
  <title>MONEY</title>
  <g>
    <rect x="6.307" y="29.75" width="115.386" height="68.5" fill="#93ddb7"/>
    <path d="M104.521,89.078H23.479a8,8,0,0,0-8-8V46.922a8,8,0,0,0,8-8h81.042a8,8,0,0,0,8,8V81.078A8,8,0,0,0,104.521,89.078Z" fill="#5ed297"/>
    <ellipse cx="64" cy="64" rx="23.011" ry="17.231" fill="#93ddb7"/>
    <path d="M65.4,74.273v1.866H62.747V74.186a11.944,11.944,0,0,1-6.791-3.119l2.1-2.593a9.968,9.968,0,0,0,4.692,2.506V65.3c-3.585-.933-6-2.215-6-5.654,0-3.147,2.419-5.567,6-6V51.861H65.4v1.807a10.839,10.839,0,0,1,6.12,2.711L69.538,59.06A9.543,9.543,0,0,0,65.4,56.874v5.48c3.993.9,6.645,2.273,6.645,5.828C72.044,71.534,69.625,73.982,65.4,74.273ZM62.747,61.654V56.816a2.752,2.752,0,0,0-2.332,2.506C60.415,60.488,61.173,61.1,62.747,61.654ZM68.4,68.532c0-1.341-.933-1.953-3-2.565v5.188C67.381,70.922,68.4,69.815,68.4,68.532Z" fill="#50758d"/>
  </g>
</svg>
