<svg xmlns="http://www.w3.org/2000/svg" width="128" height="128" viewBox="0 0 128 128">
  <title>MONEY BAG</title>
  <g>
    <path d="M74.846,35.329S103.7,53.913,103.7,82a39.7,39.7,0,0,1-79.4,0c0-28.082,28.851-46.666,28.851-46.666Z" fill="#ffc682"/>
    <path d="M74.846,27.594,83.17,9.641s-5.7,2.047-9.585,1.024C69.186,9.508,68.737,6.307,64,6.307s-5.186,3.2-9.585,4.358c-3.886,1.023-9.586-1.024-9.586-1.024l8.324,17.953Z" fill="#ffc682"/>
    <circle cx="64" cy="81.995" r="25.907" fill="#dff6fd"/>
    <path d="M65.715,95.894v2.523H62.4v-2.6A15.372,15.372,0,0,1,53.492,91.6L55.9,88.639A12.932,12.932,0,0,0,62.4,92.188V83.4c-4.77-1.262-7.885-3.036-7.885-7.531,0-4.1,3.233-7.294,7.885-7.885V65.573h3.312v2.445A14.382,14.382,0,0,1,73.8,71.724l-2.286,3a12.694,12.694,0,0,0-5.8-3.115v8.438c5.2,1.261,8.793,3.114,8.793,7.846C74.508,92.188,71.433,95.539,65.715,95.894ZM62.4,79.176V71.527c-2.287.473-3.824,2.168-3.824,3.982C58.579,77.4,59.88,78.348,62.4,79.176Zm8.083,9.108c0-2.169-1.577-3.193-4.771-4.061v8.162C68.869,92.109,70.486,90.255,70.486,88.284Z" fill="#50758d"/>
    <path d="M69.382,27.594l1.22-8.6a1.749,1.749,0,0,0-3.464-.492l-1.29,9.1Z" fill="#ffac5c"/>
    <path d="M58.617,27.594l-1.22-8.6a1.75,1.75,0,0,1,3.465-.492l1.29,9.1Z" fill="#ffac5c"/>
    <path d="M74.846,35.329H53.153a3.867,3.867,0,0,1-3.867-3.868h0a3.867,3.867,0,0,1,3.867-3.867H74.846a3.867,3.867,0,0,1,3.868,3.867h0A3.868,3.868,0,0,1,74.846,35.329Z" fill="#50758d"/>
  </g>
</svg>
