<?xml version="1.0" encoding="utf-8"?>
<!-- Generator: Adobe Illustrator 22.1.0, SVG Export Plug-In . SVG Version: 6.00 Build 0)  -->
<svg version="1.1" id="Layer_1" xmlns="http://www.w3.org/2000/svg" xmlns:xlink="http://www.w3.org/1999/xlink" x="0px" y="0px"
	 viewBox="0 0 512 512" style="enable-background:new 0 0 512 512;" xml:space="preserve">
<style type="text/css">
	.st0{fill:#FFA730;}
	.st1{fill:#E58D23;}
	.st2{fill:#BF6C0D;}
	.st3{fill:#A56021;}
	.st4{fill:#FFD551;}
	.st5{fill:#FFF4C1;}
	.st6{fill:#FFC34C;}
	.st7{fill:#FFEA63;}
	.st8{fill:#FCE575;}
	.st9{fill:#FFB74B;}
	.st10{fill:#8C4C17;}
	.st11{fill:#F9BB32;}
	.st12{fill:#FF4B34;}
	.st13{fill:#FF9079;}
	.st14{fill:#FFDF74;}
	.st15{fill:#FF624B;}
	.st16{fill:#CCC033;}
	.st17{fill:#EACF32;}
	.st18{fill:#FFEACF;}
	.st19{fill:#99AF17;}
	.st20{fill:#FFD59A;}
	.st21{fill:#FCDA4F;}
	.st22{fill:#FCF9DE;}
	.st23{fill:#DB9C2E;}
</style>
<g>
	<g>
		<g>
			<path class="st12" d="M380.073,251.941c-0.191,0-0.384-0.006-0.576-0.018c-3.679-0.235-6.843-2.689-7.984-6.195l-23.794-73.051
				l-30.588,40.427c-1.72,2.272-4.455,3.58-7.264,3.569c-2.85-0.027-5.518-1.403-7.193-3.708L225.91,107.341L59.092,224.569
				c-4.067,2.858-9.681,1.878-12.539-2.189c-2.858-4.067-1.878-9.681,2.189-12.539L222.808,87.521
				c4.021-2.825,9.566-1.903,12.455,2.073L310.1,192.565l33.663-44.491c2.021-2.673,5.365-4.002,8.668-3.445
				c3.305,0.555,6.028,2.901,7.066,6.088l22.125,67.928l71.749-151.443c2.13-4.492,7.494-6.407,11.987-4.28
				c4.492,2.128,6.408,7.495,4.28,11.987l-81.435,171.885C386.708,249.951,383.531,251.941,380.073,251.941z"/>
		</g>
	</g>
	<g>
		<g>
			<circle class="st12" cx="461.505" cy="71.056" r="23.749"/>
		</g>
	</g>
	<g>
		<g>
			<path class="st5" d="M461.505,84.805c-7.582,0-13.75-6.168-13.75-13.749c0-7.582,6.168-13.75,13.75-13.75
				c7.581,0,13.749,6.168,13.749,13.75C475.254,78.637,469.086,84.805,461.505,84.805z"/>
		</g>
	</g>
	<g>
		<g>
			<path class="st2" d="M126.241,185.309h-62.39v-22.276c0-6.627,5.373-12,12-12h38.39c6.627,0,12,5.373,12,12V185.309z"/>
		</g>
	</g>
	<g>
		<g>
			<path class="st3" d="M93.418,151.033H72.298c-4.666,0-8.448,3.782-8.448,8.448v25.828H84.97v-25.828
				C84.97,154.815,88.752,151.033,93.418,151.033z"/>
		</g>
	</g>
	<g>
		<g>
			<rect x="42.866" y="185.309" class="st1" width="187.869" height="262.046"/>
		</g>
	</g>
	<g>
		<g>
			<rect x="42.866" y="185.309" class="st2" width="35.199" height="262.046"/>
		</g>
	</g>
	<g>
		<g>
			<path class="st3" d="M230.405,464.694H43.196c-9.085,0-16.45-7.365-16.45-16.45v-0.668c0-4.543,3.683-8.225,8.225-8.225h203.66
				c4.543,0,8.225,3.683,8.225,8.225v0.668C246.855,457.329,239.49,464.694,230.405,464.694z"/>
		</g>
	</g>
	<g>
		<g>
			<path class="st4" d="M110.155,333.018c0,0-0.073-26.229,24.456-48.457c1.243-1.126,3.136-1.126,4.379,0
				c24.529,22.228,24.456,48.457,24.456,48.457l-0.079,0.006c0.047,0.647,0.079,1.298,0.079,1.957
				c0,14.716-11.93,26.646-26.646,26.646c-14.716,0-26.646-11.93-26.646-26.646c0-0.659,0.032-1.31,0.079-1.957L110.155,333.018z"/>
		</g>
	</g>
	<g>
		<g>
			<path class="st10" d="M54.904,447.798L54.904,447.798c0-4.666,3.782-8.448,8.448-8.448H35.193c-4.666,0-8.448,3.782-8.448,8.448
				v0c0,9.331,7.564,16.895,16.895,16.895H71.8C62.469,464.694,54.904,457.13,54.904,447.798z"/>
		</g>
	</g>
	<g>
		<g>
			<rect x="42.866" y="255.15" class="st2" width="187.869" height="22.407"/>
		</g>
	</g>
	<g>
		<g>
			<rect x="42.866" y="185.309" class="st2" width="187.869" height="20.442"/>
		</g>
	</g>
	<g>
		<g>
			<path class="st3" d="M235.947,197.303H37.654c-6.025,0-10.908-4.884-10.908-10.908v-0.59c0-6.025,4.884-10.908,10.908-10.908
				h198.293c6.025,0,10.908,4.884,10.908,10.908v0.59C246.855,192.419,241.971,197.303,235.947,197.303z"/>
		</g>
	</g>
	<g>
		<g>
			<path class="st3" d="M235.947,269.109H37.654c-6.025,0-10.908-4.884-10.908-10.908v-0.59c0-6.025,4.884-10.908,10.908-10.908
				h198.293c6.025,0,10.908,4.884,10.908,10.908v0.59C246.855,264.225,241.971,269.109,235.947,269.109z"/>
		</g>
	</g>
	<g>
		<g>
			<path class="st10" d="M54.904,188.855v-5.511c0-4.666,3.782-8.448,8.448-8.448H35.193c-4.666,0-8.448,3.782-8.448,8.448v5.511
				c0,4.666,3.782,8.448,8.448,8.448h28.159C58.687,197.303,54.904,193.521,54.904,188.855z"/>
		</g>
	</g>
	<g>
		<g>
			<path class="st10" d="M54.904,260.661v-5.511c0-4.666,3.782-8.448,8.448-8.448H35.193c-4.666,0-8.448,3.782-8.448,8.448v5.511
				c0,4.666,3.782,8.448,8.448,8.448h28.159C58.687,269.109,54.904,265.327,54.904,260.661z"/>
		</g>
	</g>
	<g>
		<g>
			<rect x="42.866" y="376.234" class="st2" width="187.869" height="22.407"/>
		</g>
	</g>
	<g>
		<g>
			<path class="st3" d="M235.947,390.193H37.654c-6.025,0-10.908-4.884-10.908-10.908v-0.59c0-6.025,4.884-10.908,10.908-10.908
				h198.293c6.025,0,10.908,4.884,10.908,10.908v0.59C246.855,385.309,241.971,390.193,235.947,390.193z"/>
		</g>
	</g>
	<g>
		<g>
			<path class="st10" d="M54.904,381.745v-5.511c0-4.666,3.782-8.448,8.448-8.448H35.193c-4.666,0-8.448,3.782-8.448,8.448v5.511
				c0,4.666,3.782,8.448,8.448,8.448h28.159C58.687,390.193,54.904,386.411,54.904,381.745z"/>
		</g>
	</g>
	<g>
		<g>
			<path class="st6" d="M125.642,334.98c0-0.659,0.032-1.31,0.079-1.957l-0.079-0.006c0,0-0.046-22.089,18.902-42.904
				c-1.699-1.867-3.536-3.724-5.554-5.553c-1.243-1.127-3.136-1.127-4.379,0c-24.529,22.228-24.456,48.457-24.456,48.457
				l0.079,0.006c-0.047,0.647-0.079,1.298-0.079,1.957c0,14.716,11.93,26.646,26.646,26.646c2.694,0,5.293-0.403,7.744-1.147
				C133.606,357.161,125.642,347.003,125.642,334.98z"/>
		</g>
	</g>
	<g>
		<g>
			<path class="st0" d="M209.635,351.734c-3.313,0-6-2.687-6-6v-49.748c0-3.313,2.687-6,6-6s6,2.687,6,6v49.748
				C215.635,349.047,212.948,351.734,209.635,351.734z"/>
		</g>
	</g>
	<g>
		<g>
			<path class="st2" d="M235.122,384.73h-43.177c-3.313,0-6-2.687-6-6s2.687-6,6-6h43.177c3.313,0,6,2.687,6,6
				S238.436,384.73,235.122,384.73z"/>
		</g>
	</g>
	<g>
		<g>
			<path class="st2" d="M235.122,262.239h-43.177c-3.313,0-6-2.687-6-6s2.687-6,6-6h43.177c3.313,0,6,2.687,6,6
				S238.436,262.239,235.122,262.239z"/>
		</g>
	</g>
	<g>
		<g>
			<path class="st2" d="M235.122,191.137h-43.177c-3.313,0-6-2.687-6-6s2.687-6,6-6h43.177c3.313,0,6,2.687,6,6
				S238.436,191.137,235.122,191.137z"/>
		</g>
	</g>
	<g>
		<g>
			<path class="st2" d="M235.122,455.128h-43.177c-3.313,0-6-2.687-6-6s2.687-6,6-6h43.177c3.313,0,6,2.687,6,6
				S238.436,455.128,235.122,455.128z"/>
		</g>
	</g>
	<g>
		<g>
			<path class="st0" d="M209.635,243.466c-3.313,0-6-2.687-6-6v-24.404c0-3.313,2.687-6,6-6s6,2.687,6,6v24.404
				C215.635,240.779,212.948,243.466,209.635,243.466z"/>
		</g>
	</g>
	<g>
		<g>
			<circle class="st11" cx="272.145" cy="370.606" r="93.05"/>
		</g>
	</g>
	<g>
		<g>
			<path class="st23" d="M219.095,370.606c0-44.523,31.273-81.736,73.05-90.888c-6.443-1.411-13.133-2.162-20-2.162
				c-51.39,0-93.05,41.66-93.05,93.049c0,51.39,41.66,93.05,93.05,93.05c6.867,0,13.557-0.75,20-2.162
				C250.368,452.342,219.095,415.129,219.095,370.606z"/>
		</g>
	</g>
	<g>
		<g>
			<circle class="st2" cx="99.816" cy="224.901" r="15"/>
		</g>
	</g>
	<g>
		<g>
			
				<ellipse transform="matrix(0.1602 -0.9871 0.9871 0.1602 -137.2682 579.8723)" class="st14" cx="272.145" cy="370.606" rx="83.05" ry="83.049"/>
		</g>
	</g>
	<g>
		<g>
			<g>
				<path class="st23" d="M266.094,412.609c-11.784-1.95-20.468-8.403-22.503-18.702c-0.492-2.49,1.472-4.798,4.011-4.798h7.289
					c1.854,0,3.55,1.196,4.03,2.988c0.676,2.526,1.965,4.672,3.912,6.281c2.626,2.171,6.609,0.218,6.609-3.19v-18.32
					c0-1.855-1.255-3.472-3.051-3.938c-11.611-3.017-23.254-7.292-23.254-23.527c0-13.012,9.267-22.253,23.005-24.623
					c1.923-0.332,3.301-2.045,3.301-3.996v-2.633c0-2.248,1.823-4.071,4.071-4.071h0c2.248,0,4.071,1.823,4.071,4.071v2.499
					c0,1.97,1.411,3.673,3.354,4.002c10.856,1.837,18.574,7.861,21.134,17.88c0.649,2.539-1.345,4.993-3.966,4.993h-7.25
					c-1.734,0-3.289-1.095-3.84-2.739c-0.504-1.504-1.298-2.92-2.364-4.161c-2.417-2.814-7.068-0.955-7.068,2.755v16.857
					c0,1.869,1.273,3.493,3.086,3.947c11.581,2.903,23.093,7.08,23.093,23.297c0,11.336-8.067,22.344-22.88,24.99
					c-1.919,0.343-3.298,2.043-3.298,3.993v2.646c0,2.248-1.823,4.071-4.071,4.071h0c-2.248,0-4.071-1.823-4.071-4.071v-2.496
					C269.441,414.645,268.036,412.931,266.094,412.609z M269.441,355.126V341.5c0-3.126-3.399-5.119-6.097-3.54
					c-3.5,2.049-5.678,5.588-5.678,10.69c0,4.728,2.122,7.758,5.469,9.885C265.866,360.272,269.441,358.362,269.441,355.126z
					 M277.582,381.968v13.452c0,3.26,3.663,5.226,6.352,3.381c3.515-2.411,5.422-6.209,5.422-10.569
					c0-4.663-2.137-7.616-5.504-9.697C281.116,376.844,277.582,378.751,277.582,381.968z"/>
			</g>
		</g>
	</g>
	<g>
		<g>
			<path class="st4" d="M270.055,287.609c-44.829,1.116-80.959,37.903-80.959,82.997c0,45.093,36.13,81.88,80.959,82.997
				c-30.238-15.363-50.959-46.756-50.959-82.997S239.817,302.972,270.055,287.609z"/>
		</g>
	</g>
	<g>
		<g>
			<path class="st5" d="M312.615,425.182c-2.477,0-4.794-1.544-5.661-4.013c-1.098-3.126,0.546-6.551,3.673-7.649
				c26.805-9.417,23.65-47.953,23.615-48.341c-0.298-3.296,2.131-6.216,5.427-6.519c3.282-0.303,6.214,2.115,6.521,5.411
				c0.184,1.964,4.086,48.237-31.587,60.77C313.946,425.072,313.274,425.182,312.615,425.182z"/>
		</g>
	</g>
</g>
</svg>
