<?xml version="1.0" encoding="utf-8"?>
<!-- Generator: Adobe Illustrator 22.1.0, SVG Export Plug-In . SVG Version: 6.00 Build 0)  -->
<svg version="1.1" id="Layer_1" xmlns="http://www.w3.org/2000/svg" xmlns:xlink="http://www.w3.org/1999/xlink" x="0px" y="0px"
	 viewBox="0 0 512 512" style="enable-background:new 0 0 512 512;" xml:space="preserve">
<style type="text/css">
	.st0{fill:#FFA730;}
	.st1{fill:#E58D23;}
	.st2{fill:#BF6C0D;}
	.st3{fill:#A56021;}
	.st4{fill:#FFD551;}
	.st5{fill:#FFF4C1;}
	.st6{fill:#FFC34C;}
	.st7{fill:#FFEA63;}
	.st8{fill:#FCE575;}
	.st9{fill:#FFB74B;}
	.st10{fill:#8C4C17;}
	.st11{fill:#F9BB32;}
	.st12{fill:#FF4B34;}
	.st13{fill:#FF9079;}
	.st14{fill:#FFDF74;}
	.st15{fill:#FF624B;}
	.st16{fill:#CCC033;}
	.st17{fill:#EACF32;}
	.st18{fill:#FFEACF;}
	.st19{fill:#99AF17;}
	.st20{fill:#FFD59A;}
	.st21{fill:#FCDA4F;}
	.st22{fill:#FCF9DE;}
	.st23{fill:#DB9C2E;}
</style>
<g>
	<g>
		<g>
			<path class="st8" d="M317.622,121.056c0,0-0.123-36.007,41.295-66.522c2.099-1.546,5.295-1.546,7.394,0
				c41.417,30.515,41.295,66.522,41.295,66.522l-0.134,0.008c0.079,0.888,0.134,1.782,0.134,2.686
				c0,20.202-20.144,36.579-44.992,36.579c-24.848,0-44.992-16.377-44.992-36.579c0-0.904,0.054-1.798,0.134-2.686L317.622,121.056z
				"/>
		</g>
	</g>
	<g>
		<g>
			<path class="st17" d="M362.614,161.082c-16.508,0-29.938-10.744-29.938-23.95c0-0.429,0.026-0.955,0.081-1.607l0.581-6.932
				c1.7-9.589,7.751-29.575,29.275-48.743c21.531,19.173,27.579,39.165,29.277,48.751l0.581,6.924
				c0.054,0.646,0.08,1.171,0.08,1.607C392.551,150.339,379.121,161.082,362.614,161.082z"/>
		</g>
	</g>
	<g>
		<g>
			<path class="st16" d="M362.614,159.577c-8.35,0-14.833-4.745-14.883-8.848c0.005-0.117,0.016-0.249,0.029-0.401l0.519-6.19
				c1.234-6.449,4.69-17.295,14.335-29.101c9.647,11.807,13.103,22.658,14.337,29.108l0.519,6.188
				c0.012,0.153,0.024,0.296,0.028,0.42C377.497,154.795,370.995,159.577,362.614,159.577z"/>
		</g>
	</g>
	<g>
		<g>
			<path class="st4" d="M343.619,123.75c0-0.904,0.055-1.798,0.134-2.686l-0.134-0.008c0,0-0.077-30.372,31.994-58.967
				c-2.848-2.539-5.923-5.066-9.301-7.555c-2.099-1.546-5.296-1.546-7.394,0c-41.418,30.515-41.295,66.522-41.295,66.522
				l0.134,0.008c-0.079,0.888-0.134,1.782-0.134,2.686c0,20.202,20.144,36.579,44.992,36.579c4.521,0,8.882-0.548,12.998-1.557
				C357.103,154.238,343.619,140.277,343.619,123.75z"/>
		</g>
	</g>
	<g>
		<g>
			<path class="st16" d="M375.505,158.745c-18.453-4.563-31.886-18.5-31.886-34.994c0-0.904,0.055-1.798,0.134-2.686l-0.134-0.008
				c0,0-0.035-14.339,10.345-32.588c-14.58,16.296-19.18,31.971-20.625,40.125l-0.581,6.932c-0.055,0.651-0.081,1.177-0.081,1.606
				c0,9.641,7.163,17.965,17.451,21.759c3.966,0.93,8.152,1.438,12.486,1.438c4.357,0,8.561-0.52,12.546-1.46
				C375.274,158.827,375.391,158.788,375.505,158.745z"/>
		</g>
	</g>
	<g>
		<g>
			<path class="st19" d="M371.542,157.589c-9.669-3.227-17.65-9.106-22.568-16.529c-0.284,1.108-0.516,2.144-0.695,3.078
				l-0.519,6.19c-0.012,0.152-0.023,0.285-0.029,0.401c0.05,4.103,6.534,8.848,14.883,8.848
				C366.003,159.577,369.073,158.788,371.542,157.589z"/>
		</g>
	</g>
	<g>
		<g>
			
				<rect x="119.583" y="231.832" transform="matrix(0.7071 0.7071 -0.7071 0.7071 232.6154 -29.0051)" class="st18" width="63.475" height="68.915"/>
		</g>
	</g>
	<g>
		<g>
			<path class="st18" d="M237.61,441.475l-95.453-95.453c-7.029-7.029-7.029-18.426,0-25.456l69.661-69.661l108.181,108.181
				L237.61,441.475z"/>
		</g>
	</g>
	<g>
		<g>
			<path class="st18" d="M255.238,376.948l38.95,38.95c3.007,3.007,3.007,7.883,0,10.89l-9.441,9.441
				c-3.007,3.007-7.883,3.007-10.89,0l-38.95-38.95c-5.614-5.614-5.614-14.717,0-20.332l0,0
				C240.521,371.333,249.624,371.333,255.238,376.948z"/>
		</g>
	</g>
	<g>
		<g>
			<path class="st18" d="M275.954,356.232l38.95,38.95c3.007,3.007,3.007,7.883,0,10.89l-9.441,9.441
				c-3.007,3.007-7.883,3.007-10.89,0l-38.95-38.95c-5.614-5.615-5.614-14.717,0-20.332h0
				C261.236,350.618,270.339,350.618,275.954,356.232z"/>
		</g>
	</g>
	<g>
		<g>
			
				<rect x="111.684" y="236.697" transform="matrix(0.7071 -0.7071 0.7071 0.7071 -141.8291 179.8148)" class="st20" width="68.915" height="48.827"/>
		</g>
	</g>
	<g>
		<g>
			<path class="st11" d="M104.533,296.106l-84.88-84.88c-4.686-4.686-4.686-12.284,0-16.971l61.031-61.031
				c4.686-4.686,12.284-4.686,16.971,0l84.88,84.88c4.686,4.686,4.686,12.284,0,16.971l-61.031,61.031
				C116.817,300.792,109.219,300.792,104.533,296.106z"/>
		</g>
	</g>
	<g>
		<g>
			<path class="st23" d="M58.352,226.908c-3.814-3.814-3.814-9.997,0-13.81l59.588-59.588l-21.866-21.866
				c-3.814-3.814-9.997-3.814-13.81,0l-64.191,64.191c-3.814,3.814-3.814,9.997,0,13.81l88.041,88.041
				c3.814,3.814,9.997,3.814,13.81,0l4.603-4.603L58.352,226.908z"/>
		</g>
	</g>
	<g>
		<g>
			<g>
				<path class="st20" d="M197.247,342.644l-12.696-12.696c-11.716-11.716-11.716-30.711,0-42.426l23.052-23.052l33.909,33.909
					c11.716,11.716,11.716,30.711,0,42.426l-1.838,1.838C227.958,354.36,208.963,354.36,197.247,342.644z"/>
			</g>
		</g>
	</g>
	<g>
		<g>
			<path class="st18" d="M195.619,334.922l-12.696-12.696c-11.716-11.716-11.716-30.711,0-42.426l23.052-23.052l33.909,33.909
				c11.716,11.716,11.716,30.711,0,42.426l-1.838,1.838C226.33,346.638,207.335,346.638,195.619,334.922z"/>
		</g>
	</g>
	<g>
		<g>
			<path class="st18" d="M233.595,443.171l65.696-65.696l-19.231-19.231l-65.696,65.696c-5.311,5.311-5.311,13.921,0,19.231l0,0
				C219.674,448.482,228.284,448.482,233.595,443.171z"/>
		</g>
	</g>
	<g>
		<g>
			<path class="st18" d="M180.422,418.753l80.073-80.073l19.231,19.231l-80.073,80.073c-5.311,5.311-13.921,5.311-19.231,0l0,0
				C175.112,432.673,175.112,424.063,180.422,418.753z"/>
		</g>
	</g>
	<g>
		<g>
			<path class="st18" d="M255.815,456.757l95.453-95.453c7.029-7.029,7.029-18.426,0-25.456l-63.663-63.663L179.425,380.367
				L255.815,456.757z"/>
		</g>
	</g>
	<g>
		<g>
			
				<rect x="318.009" y="254.986" transform="matrix(-0.7071 0.7071 -0.7071 -0.7071 801.7228 246.8028)" class="st18" width="63.475" height="68.915"/>
		</g>
	</g>
	<g>
		<g>
			
				<rect x="338.149" y="234.846" transform="matrix(-0.7071 0.7071 -0.7071 -0.7071 821.8629 198.1805)" class="st20" width="63.475" height="68.915"/>
		</g>
	</g>
	<g>
		<g>
			<path class="st16" d="M407.467,308.327l84.88-84.88c4.686-4.686,4.686-12.284,0-16.971l-61.031-61.031
				c-4.686-4.686-12.284-4.686-16.971,0l-84.88,84.88c-4.686,4.686-4.686,12.284,0,16.971l61.031,61.031
				C395.183,313.013,402.781,313.013,407.467,308.327z"/>
		</g>
	</g>
	<g>
		<g>
			<path class="st19" d="M411.641,269.627c-3.814,3.814-9.997,3.814-13.81,0l-53.833-53.833l-16.112,16.112
				c-3.814,3.814-3.814,9.997,0,13.81l64.191,64.191c3.814,3.814,9.997,3.814,13.81,0l88.041-88.041
				c3.814-3.814,3.814-9.997,0-13.81l-10.358-10.358L411.641,269.627z"/>
		</g>
	</g>
	<g>
		<g>
			<path class="st20" d="M243.953,420.154c-5.311,5.311-13.921,5.31-19.231,0c-1.156-1.156-2.045-2.474-2.698-3.874l-7.66,7.66
				c-5.311,5.311-5.311,13.921,0,19.231c5.311,5.311,13.921,5.311,19.231,0l65.696-65.697l-6.33-6.33L243.953,420.154z"/>
		</g>
	</g>
	<g>
		<g>
			<path class="st20" d="M201.885,409.949c-4.997,4.997-4.742,13.352,0.568,18.663c1.156,1.156,2.461,2.057,3.839,2.732
				l-7.208,7.208c-4.997,4.997-13.352,4.742-18.663-0.568c-5.311-5.311-5.565-13.666-0.568-18.663l80.642-80.642l6.33,6.33
				L201.885,409.949z"/>
		</g>
	</g>
	<g>
		<g>
			<path class="st18" d="M168.068,392.791l72.863-72.863l19.231,19.231l-72.863,72.863c-5.311,5.311-13.921,5.311-19.231,0h0
				C162.758,406.712,162.758,398.101,168.068,392.791z"/>
		</g>
	</g>
	<g>
		<g>
			<path class="st20" d="M192.236,382.433c-5.311,5.311-5.311,13.921,0,19.231c0.942,0.942,1.992,1.708,3.105,2.316l-8.041,8.041
				c-5.311,5.311-13.921,5.311-19.231,0c-5.311-5.311-5.311-13.921,0-19.231l72.863-72.863l6.905,6.905L192.236,382.433z"/>
		</g>
	</g>
	<g>
		<g>
			<path class="st18" d="M248.1,328.068l42.635-41.817c3.144-3.084,3.144-8.083,0-11.167l-9.871-9.681
				c-3.144-3.084-8.242-3.084-11.386,0l-42.635,41.817c-5.87,5.757-5.87,15.091,0,20.848h0
				C232.714,333.825,242.231,333.825,248.1,328.068z"/>
		</g>
	</g>
	<g>
		<g>
			<path class="st20" d="M243.12,328.068L243.12,328.068c-5.87-5.757-5.87-15.091,0-20.848l40.19-39.419l-2.445-2.398
				c-3.144-3.084-8.242-3.084-11.386,0l-42.635,41.817c-5.87,5.757-5.87,15.091,0,20.848l0,0c5.098,5,12.945,5.651,18.766,1.966
				C244.729,329.476,243.891,328.825,243.12,328.068z"/>
		</g>
	</g>
	<g>
		<g>
			<path class="st18" d="M296.094,336.092l38.95,38.95c3.007,3.007,3.007,7.883,0,10.89l-9.441,9.441
				c-3.007,3.007-7.883,3.007-10.89,0l-38.95-38.95c-5.614-5.614-5.614-14.717,0-20.332l0,0
				C281.376,330.478,290.479,330.478,296.094,336.092z"/>
		</g>
	</g>
	<g>
		<g>
			<path class="st18" d="M235.098,397.088l38.95,38.95c3.007,3.007,3.007,7.883,0,10.89l-9.441,9.441
				c-3.007,3.007-7.883,3.007-10.89,0l-38.95-38.95c-5.614-5.614-5.614-14.717,0-20.332l0,0
				C220.381,391.473,229.484,391.473,235.098,397.088z"/>
		</g>
	</g>
	<g>
		<g>
			<path class="st18" d="M255.238,376.948l38.95,38.95c3.007,3.007,3.007,7.883,0,10.89l-9.441,9.441
				c-3.007,3.007-7.883,3.007-10.89,0l-38.95-38.95c-5.614-5.614-5.614-14.717,0-20.332l0,0
				C240.521,371.333,249.624,371.333,255.238,376.948z"/>
		</g>
	</g>
	<g>
		<g>
			<path class="st18" d="M275.954,356.232l38.95,38.95c3.007,3.007,3.007,7.883,0,10.89l-9.441,9.441
				c-3.007,3.007-7.883,3.007-10.89,0l-38.95-38.95c-5.614-5.615-5.614-14.717,0-20.332h0
				C261.236,350.618,270.339,350.618,275.954,356.232z"/>
		</g>
	</g>
	<g>
		<g>
			<path class="st20" d="M293.025,362.179c-5.615-5.615-5.615-14.717,0-20.332c1.583-1.583,3.448-2.703,5.43-3.394l-2.361-2.361
				c-5.615-5.615-14.717-5.615-20.332,0c-5.614,5.614-5.614,14.717,0,20.332l38.95,38.95c3.007,3.007,7.883,3.007,10.89,0
				l0.309-0.309L293.025,362.179z"/>
		</g>
	</g>
	<g>
		<g>
			<path class="st20" d="M232.605,422.599c-5.615-5.615-5.615-14.717,0-20.332c1.358-1.358,2.923-2.38,4.591-3.082l-2.097-2.097
				c-5.615-5.615-14.717-5.615-20.332,0c-5.614,5.614-5.614,14.717,0,20.332l38.95,38.95c3.007,3.007,7.883,3.007,10.89,0
				l0.884-0.885L232.605,422.599z"/>
		</g>
	</g>
	<g>
		<g>
			<path class="st20" d="M252.745,402.459c-5.615-5.615-5.615-14.717,0-20.332c1.358-1.358,2.923-2.38,4.591-3.082l-2.097-2.097
				c-5.615-5.615-14.717-5.615-20.332,0c-5.614,5.614-5.614,14.717,0,20.332l38.95,38.95c3.007,3.007,7.883,3.007,10.89,0
				l0.885-0.884L252.745,402.459z"/>
		</g>
	</g>
	<g>
		<g>
			<path class="st20" d="M273.46,381.743c-5.615-5.615-5.615-14.717,0-20.332c1.358-1.358,2.923-2.38,4.591-3.082l-2.097-2.097
				c-5.615-5.615-14.717-5.615-20.332,0c-5.614,5.615-5.614,14.717,0,20.332l38.95,38.95c3.007,3.007,7.883,3.007,10.89,0
				l0.884-0.884L273.46,381.743z"/>
		</g>
	</g>
	<g>
		<g>
			<path class="st18" d="M240.831,308.775l-35.211-35.211c-4.545-4.545-4.545-11.915,0-16.46l9.441-9.441
				c4.545-4.545,11.915-4.545,16.46,0l35.211,35.211c7.152,7.152,7.152,18.749,0,25.901l0,0
				C259.58,315.927,247.984,315.927,240.831,308.775z"/>
		</g>
	</g>
	<g>
		<g>
			<path class="st20" d="M249.783,299.823l-35.212-35.211c-4.545-4.545-4.545-11.915,0-16.46l-8.952,8.952
				c-4.545,4.545-4.545,11.915,0,16.46l35.212,35.211c7.152,7.152,18.749,7.152,25.901,0c1.576-1.576,2.783-3.375,3.665-5.287
				C263.63,306.608,255.36,305.4,249.783,299.823z"/>
		</g>
	</g>
	<g>
		<g>
			<g>
				<path class="st4" d="M135.146,123.962c0,0-0.09-32.504,30.307-60.05c1.541-1.396,3.886-1.396,5.427,0
					c30.397,27.546,30.307,60.05,30.307,60.05l-0.098,0.007c0.058,0.802,0.098,1.608,0.098,2.425
					c0,18.237-14.784,33.021-33.02,33.021c-18.237,0-33.021-14.784-33.021-33.021c0-0.816,0.04-1.623,0.098-2.425L135.146,123.962z"
					/>
			</g>
		</g>
	</g>
	<g>
		<g>
			<path class="st6" d="M156.403,126.393c0-0.816,0.04-1.623,0.098-2.425l-0.098-0.007c0,0-0.069-26.578,22.392-52.034
				c-2.378-2.695-5.004-5.378-7.915-8.016c-1.54-1.396-3.886-1.396-5.427,0c-30.397,27.546-30.307,60.05-30.307,60.05l0.098,0.007
				c-0.058,0.802-0.098,1.608-0.098,2.425c0,18.237,14.784,33.021,33.02,33.021c3.72,0,7.292-0.624,10.628-1.758
				C165.775,153.23,156.403,140.91,156.403,126.393z"/>
		</g>
	</g>
	<g>
		<g>
			<circle class="st23" cx="87.529" cy="221.921" r="15"/>
		</g>
	</g>
	<g>
		<g>
			<circle class="st19" cx="403.197" cy="237.019" r="15"/>
		</g>
	</g>
	<g>
		<g>
			<path class="st6" d="M160.708,228.408c-1.536,0-3.071-0.586-4.243-1.758l-40.182-40.182c-2.343-2.343-2.343-6.142,0-8.484
				c2.343-2.344,6.143-2.344,8.485,0l40.182,40.182c2.343,2.343,2.343,6.142,0,8.484
				C163.78,227.822,162.244,228.408,160.708,228.408z"/>
		</g>
	</g>
	<g>
		<g>
			<path class="st14" d="M177.292,143.474c-1.313,0-2.483-0.263-3.388-0.65c-3.046-1.305-4.458-4.832-3.153-7.878
				c1.061-2.474,3.587-3.875,6.131-3.607c0.89-0.963,3.431-4.705,4.931-17.025c0.4-3.29,3.383-5.639,6.681-5.231
				c3.289,0.4,5.631,3.392,5.231,6.681c-1.747,14.353-5.4,22.944-11.169,26.267C180.734,143.077,178.905,143.474,177.292,143.474z
				 M178.622,131.789c0.002,0.001,0.005,0.002,0.007,0.003C178.626,131.791,178.624,131.79,178.622,131.789z"/>
		</g>
	</g>
</g>
</svg>
