<svg xmlns="http://www.w3.org/2000/svg" width="128" height="128" viewBox="0 0 128 128">
  <title>ONLINE PAYMENT</title>
  <g>
    <rect x="10.068" y="6.307" width="71.909" height="115.386" rx="5.003" fill="#50758d"/>
    <path d="M73.646,14.638H56.954l-.675,2.77a3,3,0,0,1-2.915,2.29H38.681a3,3,0,0,1-2.915-2.29l-.674-2.77H18.4v98.724H73.646Z" fill="#dff6fd"/>
    <rect x="46.023" y="42.655" width="71.909" height="42.69" fill="#93ddb7"/>
    <path d="M107.124,79.037H56.83a4.5,4.5,0,0,0-4.5-4.5V53.463a4.5,4.5,0,0,0,4.5-4.5h50.294a4.5,4.5,0,0,0,4.5,4.5V74.537A4.5,4.5,0,0,0,107.124,79.037Z" fill="#5ed297"/>
    <ellipse cx="81.977" cy="64" rx="12.174" ry="9.116" fill="#93ddb7"/>
    <path d="M48.241,13a2.219,2.219,0,1,1-2.218-2.218A2.219,2.219,0,0,1,48.241,13Z" fill="#2b597f"/>
    <path d="M37.977,65.75H26.445a1.75,1.75,0,1,1,0-3.5H37.977a1.75,1.75,0,1,1,0,3.5Z" fill="#fad207"/>
    <path d="M37.977,76.488H32.211a1.75,1.75,0,0,1,0-3.5h5.766a1.75,1.75,0,1,1,0,3.5Z" fill="#fad207"/>
    <path d="M37.977,55.012H32.211a1.75,1.75,0,0,1,0-3.5h5.766a1.75,1.75,0,1,1,0,3.5Z" fill="#fad207"/>
  </g>
</svg>
