<svg xmlns="http://www.w3.org/2000/svg" width="128" height="128" viewBox="0 0 128 128">
  <title>PERCENT</title>
  <g>
    <path d="M116.591,73.1l2.276-2.277a9.645,9.645,0,0,0,0-13.642L116.591,54.9a9.647,9.647,0,0,1-2.5-9.318l.833-3.11a9.647,9.647,0,0,0-6.821-11.815L105,29.825A9.644,9.644,0,0,1,98.175,23l-.834-3.11a9.647,9.647,0,0,0-11.815-6.821l-3.11.833a9.647,9.647,0,0,1-9.318-2.5L70.821,9.132a9.647,9.647,0,0,0-13.642,0L54.9,11.409a9.647,9.647,0,0,1-9.318,2.5l-3.11-.833a9.647,9.647,0,0,0-11.815,6.821L29.825,23A9.644,9.644,0,0,1,23,29.825l-3.11.834a9.647,9.647,0,0,0-6.821,11.815l.833,3.11a9.647,9.647,0,0,1-2.5,9.318L9.132,57.179a9.647,9.647,0,0,0,0,13.642L11.409,73.1a9.647,9.647,0,0,1,2.5,9.318l-.833,3.11a9.647,9.647,0,0,0,6.821,11.815l3.11.834A9.644,9.644,0,0,1,29.825,105l.834,3.11a9.647,9.647,0,0,0,11.815,6.821l3.11-.833a9.647,9.647,0,0,1,9.318,2.5l2.277,2.277a9.647,9.647,0,0,0,13.642,0l2.277-2.277a9.647,9.647,0,0,1,9.318-2.5l3.11.833a9.647,9.647,0,0,0,11.815-6.821l.834-3.11A9.644,9.644,0,0,1,105,98.175l3.11-.834a9.647,9.647,0,0,0,6.821-11.815l-.833-3.11A9.647,9.647,0,0,1,116.591,73.1Z" fill="#2edffc"/>
    <circle cx="64" cy="64" r="37.11" fill="#dff6fd"/>
    <path d="M42.057,53.257c0-6.026,4.079-10.652,9.982-10.652,5.966,0,9.922,4.687,9.922,10.53,0,5.966-4.139,10.53-9.982,10.53C46.014,63.665,42.057,58.978,42.057,53.257ZM57.4,53.2c0-3.835-2.313-6.635-5.417-6.635-3.165,0-5.357,2.74-5.357,6.635,0,3.774,2.313,6.574,5.417,6.574S57.4,57.03,57.4,53.2ZM76.021,42.971h4.87L52.1,84.786H47.292ZM66.039,74.865c0-5.783,4.078-10.53,9.982-10.53,5.965,0,9.922,4.747,9.922,10.469,0,6.026-4.14,10.591-9.983,10.591C70.178,85.4,66.039,80.83,66.039,74.865Zm15.339,0c0-3.835-2.313-6.635-5.418-6.635C72.8,68.23,70.6,71.091,70.6,74.8c0,3.835,2.252,6.635,5.417,6.635S81.378,78.7,81.378,74.865Z" fill="#50758d"/>
  </g>
</svg>
