<?xml version="1.0" encoding="utf-8"?>
<!-- Generator: Adobe Illustrator 22.1.0, SVG Export Plug-In . SVG Version: 6.00 Build 0)  -->
<svg version="1.1" id="Layer_1" xmlns="http://www.w3.org/2000/svg" xmlns:xlink="http://www.w3.org/1999/xlink" x="0px" y="0px"
	 viewBox="0 0 512 512" style="enable-background:new 0 0 512 512;" xml:space="preserve">
<style type="text/css">
	.st0{fill:#FFA730;}
	.st1{fill:#E58D23;}
	.st2{fill:#BF6C0D;}
	.st3{fill:#A56021;}
	.st4{fill:#FFD551;}
	.st5{fill:#FFF4C1;}
	.st6{fill:#FFC34C;}
	.st7{fill:#FFEA63;}
	.st8{fill:#FCE575;}
	.st9{fill:#FFB74B;}
	.st10{fill:#8C4C17;}
	.st11{fill:#F9BB32;}
	.st12{fill:#FF4B34;}
	.st13{fill:#FF9079;}
	.st14{fill:#FFDF74;}
	.st15{fill:#FF624B;}
	.st16{fill:#CCC033;}
	.st17{fill:#EACF32;}
	.st18{fill:#FFEACF;}
	.st19{fill:#99AF17;}
	.st20{fill:#FFD59A;}
	.st21{fill:#FCDA4F;}
	.st22{fill:#FCF9DE;}
	.st23{fill:#DB9C2E;}
</style>
<g>
	<g>
		<g>
			<path class="st2" d="M241,81.911h-88.625V45.222c0-6.627,5.373-12,12-12H229c6.627,0,12,5.373,12,12V81.911z"/>
		</g>
	</g>
	<g>
		<g>
			<path class="st3" d="M194.375,33.222h-30c-6.627,0-12,5.373-12,12v36.689h30V45.222
				C182.375,38.595,187.748,33.222,194.375,33.222z"/>
		</g>
	</g>
	<g>
		<g>
			<rect x="122.566" y="81.911" class="st1" width="266.868" height="372.236"/>
		</g>
	</g>
	<g>
		<g>
			<rect x="122.566" y="81.911" class="st2" width="50" height="372.236"/>
		</g>
	</g>
	<g>
		<g>
			<path class="st3" d="M388.333,478.778H123.667c-13.255,0-24-10.745-24-24v0c0-6.627,5.373-12,12-12h288.667
				c6.627,0,12,5.373,12,12v0C412.333,468.033,401.588,478.778,388.333,478.778z"/>
		</g>
	</g>
	<g>
		<g>
			<path class="st10" d="M139.667,454.778L139.667,454.778c0-6.628,5.373-12,12-12h-40c-6.627,0-12,5.373-12,12v0
				c0,13.255,10.745,24,24,24h40C150.412,478.778,139.667,468.033,139.667,454.778z"/>
		</g>
	</g>
	<g>
		<g>
			<rect x="122.566" y="181.12" class="st2" width="266.868" height="31.829"/>
		</g>
	</g>
	<g>
		<g>
			<rect x="122.566" y="81.911" class="st2" width="266.868" height="29.038"/>
		</g>
	</g>
	<g>
		<g>
			<path class="st3" d="M400.333,98.949H111.667c-6.627,0-12-5.373-12-12V79.12c0-6.627,5.373-12,12-12h288.667
				c6.627,0,12,5.373,12,12v7.829C412.333,93.576,406.961,98.949,400.333,98.949z"/>
		</g>
	</g>
	<g>
		<g>
			<path class="st3" d="M400.333,200.949H111.667c-6.627,0-12-5.373-12-12v-7.829c0-6.627,5.373-12,12-12h288.667
				c6.627,0,12,5.373,12,12v7.829C412.333,195.576,406.961,200.949,400.333,200.949z"/>
		</g>
	</g>
	<g>
		<g>
			<path class="st10" d="M139.667,86.949V79.12c0-6.627,5.373-12,12-12h-40c-6.627,0-12,5.373-12,12v7.829c0,6.627,5.373,12,12,12
				h40C145.039,98.949,139.667,93.576,139.667,86.949z"/>
		</g>
	</g>
	<g>
		<g>
			<path class="st10" d="M139.667,188.949v-7.829c0-6.627,5.373-12,12-12h-40c-6.627,0-12,5.373-12,12v7.829c0,6.627,5.373,12,12,12
				h40C145.039,200.949,139.667,195.576,139.667,188.949z"/>
		</g>
	</g>
	<g>
		<g>
			<rect x="122.566" y="353.12" class="st2" width="266.868" height="31.829"/>
		</g>
	</g>
	<g>
		<g>
			<path class="st3" d="M400.333,372.949H111.667c-6.627,0-12-5.373-12-12v-7.829c0-6.627,5.373-12,12-12h288.667
				c6.627,0,12,5.373,12,12v7.829C412.333,367.576,406.961,372.949,400.333,372.949z"/>
		</g>
	</g>
	<g>
		<g>
			<path class="st10" d="M139.667,360.949v-7.829c0-6.627,5.373-12,12-12h-40c-6.627,0-12,5.373-12,12v7.829c0,6.627,5.373,12,12,12
				h40C145.039,372.949,139.667,367.576,139.667,360.949z"/>
		</g>
	</g>
	<g>
		<g>
			<path class="st0" d="M373.667,239.094c-3.313,0-6-2.687-6-6v-11.396c0-3.313,2.687-6,6-6s6,2.687,6,6v11.396
				C379.667,236.408,376.98,239.094,373.667,239.094z"/>
		</g>
	</g>
	<g>
		<g>
			<path class="st0" d="M373.667,330c-3.313,0-6-2.687-6-6v-70.667c0-3.313,2.687-6,6-6s6,2.687,6,6V324
				C379.667,327.313,376.98,330,373.667,330z"/>
		</g>
	</g>
	<g>
		<g>
			<path class="st2" d="M395.667,362.667h-61.334c-3.313,0-6-2.687-6-6s2.687-6,6-6h61.334c3.313,0,6,2.687,6,6
				S398.98,362.667,395.667,362.667z"/>
		</g>
	</g>
	<g>
		<g>
			<path class="st2" d="M395.667,188.667h-61.334c-3.313,0-6-2.687-6-6s2.687-6,6-6h61.334c3.313,0,6,2.687,6,6
				S398.98,188.667,395.667,188.667z"/>
		</g>
	</g>
	<g>
		<g>
			<path class="st2" d="M395.667,87.667h-61.334c-3.313,0-6-2.687-6-6s2.687-6,6-6h61.334c3.313,0,6,2.687,6,6
				S398.98,87.667,395.667,87.667z"/>
		</g>
	</g>
	<g>
		<g>
			<path class="st2" d="M395.667,462.667h-61.334c-3.313,0-6-2.687-6-6s2.687-6,6-6h61.334c3.313,0,6,2.687,6,6
				S398.98,462.667,395.667,462.667z"/>
		</g>
	</g>
	<g>
		<g>
			<path class="st0" d="M373.667,436c-3.313,0-6-2.687-6-6v-34.667c0-3.313,2.687-6,6-6s6,2.687,6,6V430
				C379.667,433.313,376.98,436,373.667,436z"/>
		</g>
	</g>
	<g>
		<g>
			<path class="st0" d="M373.667,162c-3.313,0-6-2.687-6-6v-34.667c0-3.313,2.687-6,6-6s6,2.687,6,6V156
				C379.667,159.313,376.98,162,373.667,162z"/>
		</g>
	</g>
	<g>
		<g>
			<circle class="st2" cx="194.375" cy="141.037" r="15"/>
		</g>
	</g>
	<g>
		<g>
			<circle class="st2" cx="247.241" cy="415.348" r="15"/>
		</g>
	</g>
	<g>
		<g>
			<path class="st8" d="M209.391,292.075c0,0,0.171-44.696,43.34-82.302c2.188-1.906,5.5-1.885,7.662,0.048
				c42.665,38.149,42.24,82.843,42.24,82.843l-0.139,0.009c0.075,1.103,0.124,2.212,0.116,3.335
				c-0.167,25.077-21.175,45.274-46.923,45.111c-25.748-0.163-46.486-20.623-46.319-45.7c0.007-1.123,0.071-2.232,0.161-3.333
				L209.391,292.075z"/>
		</g>
	</g>
	<g>
		<g>
			<path class="st6" d="M236.466,295.59c0.007-1.123,0.071-2.231,0.161-3.333l-0.138-0.011c0,0,0.171-37.641,33.559-72.901
				c-2.952-3.199-6.144-6.385-9.655-9.524c-2.162-1.933-5.474-1.954-7.662-0.048c-43.169,37.606-43.34,82.302-43.34,82.302
				l0.138,0.011c-0.089,1.102-0.153,2.211-0.161,3.333c-0.167,25.077,20.571,45.537,46.319,45.7
				c4.713,0.03,9.265-0.629,13.562-1.869C250.148,333.475,236.33,316.076,236.466,295.59z"/>
		</g>
	</g>
	<g>
		<g>
			<g>
				<path class="st23" d="M249.514,318.067c-10.546-1.7-18.317-7.324-20.138-16.3c-0.44-2.17,1.318-4.182,3.589-4.182h6.523
					c1.66,0,3.177,1.043,3.606,2.604c0.605,2.202,1.759,4.072,3.501,5.475c2.35,1.892,5.914,0.19,5.914-2.78v-15.968
					c0-1.617-1.123-3.026-2.73-3.433c-10.391-2.629-20.811-6.355-20.811-20.506c0-11.341,8.293-19.396,20.587-21.461
					c1.721-0.289,2.954-1.783,2.954-3.483v-2.295c0-1.96,1.631-3.548,3.643-3.548l0,0c2.012,0,3.643,1.589,3.643,3.548v2.178
					c0,1.717,1.263,3.202,3.001,3.488c9.715,1.601,16.622,6.851,18.913,15.584c0.581,2.213-1.204,4.351-3.549,4.351h-6.488
					c-1.552,0-2.943-0.954-3.436-2.387c-0.451-1.311-1.161-2.545-2.116-3.627c-2.163-2.453-6.326-0.832-6.326,2.401v14.692
					c0,1.629,1.139,3.044,2.762,3.44c10.364,2.53,20.666,6.171,20.666,20.306c0,9.88-7.219,19.475-20.476,21.781
					c-1.717,0.299-2.952,1.781-2.952,3.48v2.306c0,1.96-1.631,3.548-3.643,3.548l0,0c-2.012,0-3.643-1.589-3.643-3.548v-2.176
					C252.509,319.84,251.252,318.347,249.514,318.067z M252.509,267.965v-11.876c0-2.725-3.042-4.462-5.456-3.085
					c-3.132,1.786-5.082,4.87-5.082,9.317c0,4.121,1.899,6.762,4.894,8.616C249.31,272.45,252.509,270.786,252.509,267.965z
					 M259.795,291.36v11.725c0,2.842,3.278,4.555,5.684,2.947c3.145-2.102,4.853-5.412,4.853-9.211c0-4.064-1.913-6.638-4.926-8.452
					C262.958,286.894,259.795,288.556,259.795,291.36z"/>
			</g>
		</g>
	</g>
	<g>
		<g>
			<g>
				<path class="st2" d="M238.139,279.297c0.845-4.17,2.129-9.162,4.069-14.717c-0.142-0.704-0.236-1.445-0.236-2.258
					c0-4.369,1.889-7.416,4.925-9.215c2.978-6.349,6.806-13.095,11.736-19.955c-0.651-0.593-1.519-0.962-2.48-0.962
					c-2.012,0-3.643,1.588-3.643,3.548v2.295c0,1.701-1.233,3.194-2.954,3.483c-12.294,2.066-20.587,10.12-20.587,21.462
					C228.968,271.559,232.804,276.303,238.139,279.297z"/>
			</g>
		</g>
		<g>
			<g>
				<path class="st2" d="M229.376,301.767c1.29,6.355,5.571,11.02,11.699,13.812c-2.714-5.479-4.334-11.566-4.576-17.994h-3.534
					C230.693,297.585,228.935,299.596,229.376,301.767z"/>
			</g>
		</g>
	</g>
</g>
</svg>
