<svg xmlns="http://www.w3.org/2000/svg" width="128" height="128" viewBox="0 0 128 128">
  <title>PREMIUM QUALITY</title>
  <g>
    <path d="M79.639,85.221l-2.259-.605a7.008,7.008,0,0,0-6.77,1.814l-1.654,1.654a7.009,7.009,0,0,1-9.912,0L57.39,86.43a7.008,7.008,0,0,0-6.77-1.814l-2.259.605a6.97,6.97,0,0,1-3.512.029v36.443L64,102.542l19.151,19.151V85.25A6.97,6.97,0,0,1,79.639,85.221Z" fill="#fd646f"/>
    <path d="M102.208,54.832l1.654-1.654a7.009,7.009,0,0,0,0-9.912l-1.654-1.654a7.008,7.008,0,0,1-1.814-6.77l.6-2.259A7.008,7.008,0,0,0,96.044,24l-2.26-.605a7.013,7.013,0,0,1-4.956-4.956l-.605-2.26a7.01,7.01,0,0,0-8.584-4.956l-2.259.606a7.01,7.01,0,0,1-6.77-1.814L68.956,8.36a7.009,7.009,0,0,0-9.912,0L57.39,10.014a7.01,7.01,0,0,1-6.77,1.814l-2.259-.606a7.01,7.01,0,0,0-8.584,4.956l-.605,2.26a7.013,7.013,0,0,1-4.956,4.956L31.956,24A7.01,7.01,0,0,0,27,32.583l.606,2.259a7.01,7.01,0,0,1-1.814,6.77l-1.654,1.654a7.009,7.009,0,0,0,0,9.912l1.654,1.654a7.01,7.01,0,0,1,1.814,6.77L27,63.861a7.01,7.01,0,0,0,4.956,8.584l2.26.605a7.009,7.009,0,0,1,4.956,4.956l.605,2.26a7.009,7.009,0,0,0,8.584,4.955l2.259-.605a7.008,7.008,0,0,1,6.77,1.814l1.654,1.654a7.009,7.009,0,0,0,9.912,0L70.61,86.43a7.008,7.008,0,0,1,6.77-1.814l2.259.605a7.009,7.009,0,0,0,8.584-4.955l.605-2.26a7.009,7.009,0,0,1,4.956-4.956l2.26-.605A7.008,7.008,0,0,0,101,63.861l-.6-2.259A7.008,7.008,0,0,1,102.208,54.832Z" fill="#fad207"/>
    <circle cx="64" cy="48.222" r="28.296" fill="#f9ae16"/>
    <circle cx="64" cy="48.222" r="20.32" fill="#dff6fd"/>
    <path d="M84.32,48.22A20.337,20.337,0,0,1,83,55.44H45a20.378,20.378,0,0,1,0-14.43H83A20.282,20.282,0,0,1,84.32,48.22Z" fill="#bee8f4"/>
  </g>
</svg>
