<?xml version="1.0" encoding="utf-8"?>
<!-- Generator: Adobe Illustrator 22.1.0, SVG Export Plug-In . SVG Version: 6.00 Build 0)  -->
<svg version="1.1" id="Layer_1" xmlns="http://www.w3.org/2000/svg" xmlns:xlink="http://www.w3.org/1999/xlink" x="0px" y="0px"
	 viewBox="0 0 512 512" style="enable-background:new 0 0 512 512;" xml:space="preserve">
<style type="text/css">
	.st0{fill:#FFA730;}
	.st1{fill:#E58D23;}
	.st2{fill:#BF6C0D;}
	.st3{fill:#A56021;}
	.st4{fill:#FFD551;}
	.st5{fill:#FFF4C1;}
	.st6{fill:#FFC34C;}
	.st7{fill:#FFEA63;}
	.st8{fill:#FCE575;}
	.st9{fill:#FFB74B;}
	.st10{fill:#8C4C17;}
	.st11{fill:#F9BB32;}
	.st12{fill:#FF4B34;}
	.st13{fill:#FF9079;}
	.st14{fill:#FFDF74;}
	.st15{fill:#FF624B;}
	.st16{fill:#CCC033;}
	.st17{fill:#EACF32;}
	.st18{fill:#FFEACF;}
	.st19{fill:#99AF17;}
	.st20{fill:#FFD59A;}
	.st21{fill:#FCDA4F;}
	.st22{fill:#FCF9DE;}
	.st23{fill:#DB9C2E;}
</style>
<g>
	<g>
		<g>
			<path class="st1" d="M205.787,77.391l-90.793-0.589l0.246-37.88c0.043-6.627,5.45-11.965,12.078-11.922l66.793,0.433
				c6.627,0.043,11.965,5.45,11.922,12.078L205.787,77.391z"/>
		</g>
	</g>
	<g>
		<g>
			<path class="st2" d="M158.345,27.202l-30.456-0.198c-6.943-0.045-12.608,5.547-12.653,12.49l-0.242,37.308l30.734,0.199
				l0.244-37.586C146.016,32.626,151.555,27.158,158.345,27.202z"/>
		</g>
	</g>
	<g>
		<g>
			
				<rect x="83.216" y="77.487" transform="matrix(1 0.0065 -0.0065 1 1.744 -1.4208)" class="st0" width="273.401" height="381.349"/>
		</g>
	</g>
	<g>
		<g>
			
				<rect x="-81.844" y="241.828" transform="matrix(0.0065 -1 1 0.0065 -159.3103 374.5338)" class="st1" width="381.349" height="51.224"/>
		</g>
	</g>
	<g>
		<g>
			<path class="st2" d="M362.674,484.999l-288.315-1.87c-8.836-0.057-15.953-7.267-15.896-16.103l0.084-12.881
				c0.029-4.418,3.634-7.977,8.052-7.948l304.089,1.972c4.543,0.029,8.201,3.736,8.172,8.278l-0.082,12.656
				C378.72,477.94,371.51,485.057,362.674,484.999z"/>
		</g>
	</g>
	<g>
		<g>
			<path class="st8" d="M180.983,292.192c0,0,0.142-38.17,36.047-70.286c1.82-1.628,4.574-1.61,6.373,0.041
				c35.485,32.579,35.132,70.748,35.132,70.748l-0.115,0.008c0.062,0.942,0.103,1.889,0.097,2.848
				c-0.139,21.415-17.612,38.663-39.027,38.524c-21.415-0.139-38.663-17.612-38.525-39.027c0.006-0.959,0.059-1.906,0.134-2.846
				L180.983,292.192z"/>
		</g>
	</g>
	<g>
		<g>
			<path class="st3" d="M99.497,458.704L99.497,458.704c0.044-6.79,5.584-12.258,12.373-12.214l-44.891-0.291
				c-4.629-0.03-8.405,3.698-8.435,8.327l-0.076,11.738c-0.06,9.257,7.396,16.811,16.653,16.871l48.803,0.317
				C110.346,483.363,99.409,472.283,99.497,458.704z"/>
		</g>
	</g>
	<g>
		<g>
			
				<rect x="204.086" y="58.479" transform="matrix(0.0065 -1 1 0.0065 23.7851 414.2989)" class="st1" width="32.608" height="273.401"/>
		</g>
	</g>
	<g>
		<g>
			
				<rect x="206.184" y="-44.586" transform="matrix(0.0065 -1 1 0.0065 127.5122 312.5709)" class="st1" width="29.749" height="273.401"/>
		</g>
	</g>
	<g>
		<g>
			<path class="st2" d="M373.197,95.932L68.883,93.958c-4.418-0.029-7.977-3.634-7.948-8.052l0.108-16.608
				c0.029-4.418,3.634-7.977,8.052-7.948l304.314,1.974c4.418,0.029,7.977,3.634,7.948,8.052l-0.108,16.608
				C381.22,92.402,377.616,95.961,373.197,95.932z"/>
		</g>
	</g>
	<g>
		<g>
			<path class="st3" d="M101.941,81.879l0.052-8.021c0.044-6.79,5.584-12.258,12.373-12.214l-41.63-0.27
				c-6.43-0.042-11.676,5.137-11.717,11.566l-0.06,9.324c-0.042,6.43,5.137,11.676,11.566,11.717l41.63,0.27
				C107.366,94.208,101.897,88.668,101.941,81.879z"/>
		</g>
	</g>
	<g>
		<g>
			
				<rect x="202.943" y="234.686" transform="matrix(0.0065 -1 1 0.0065 -153.5536 588.2199)" class="st1" width="32.608" height="273.401"/>
		</g>
	</g>
	<g>
		<g>
			<path class="st21" d="M203.503,295.194c0.006-0.959,0.059-1.906,0.134-2.846l-0.115-0.009c0,0,0.142-32.145,27.912-62.257
				c-2.455-2.732-5.11-5.453-8.03-8.134c-1.798-1.651-4.553-1.669-6.373-0.041c-35.905,32.116-36.047,70.286-36.047,70.286
				l0.115,0.009c-0.074,0.941-0.127,1.888-0.134,2.846c-0.139,21.415,17.109,38.889,38.524,39.027
				c3.92,0.025,7.706-0.537,11.28-1.596C214.882,327.548,203.389,312.689,203.503,295.194z"/>
		</g>
	</g>
	<g>
		<g>
			<path class="st6" d="M325.632,317.636c-0.014,0-0.026,0-0.04,0c-3.313-0.021-5.982-2.725-5.961-6.039l0.47-72.395
				c0.021-3.3,2.704-5.961,5.999-5.961c0.014,0,0.026,0,0.04,0c3.313,0.021,5.982,2.725,5.961,6.039l-0.47,72.395
				C331.609,314.976,328.927,317.636,325.632,317.636z"/>
		</g>
	</g>
	<g>
		<g>
			<path class="st1" d="M364.238,84.168c-0.014,0-0.026,0-0.04,0l-62.833-0.408c-3.313-0.021-5.982-2.725-5.961-6.039
				s2.73-5.998,6.039-5.961l62.833,0.408c3.313,0.021,5.982,2.725,5.961,6.039C370.216,81.508,367.533,84.168,364.238,84.168z"/>
		</g>
	</g>
	<g>
		<g>
			<path class="st1" d="M361.747,468.34c-0.014,0-0.026,0-0.04,0l-62.834-0.408c-3.313-0.021-5.982-2.725-5.961-6.039
				c0.021-3.3,2.704-5.961,5.999-5.961c0.014,0,0.026,0,0.04,0l62.834,0.408c3.313,0.021,5.982,2.725,5.961,6.039
				C367.725,465.68,365.042,468.34,361.747,468.34z"/>
		</g>
	</g>
	<g>
		<g>
			<path class="st6" d="M326.654,160.08c-0.014,0-0.026,0-0.04,0c-3.313-0.021-5.982-2.725-5.961-6.039l0.23-35.515
				c0.021-3.3,2.704-5.961,5.999-5.961c0.014,0,0.026,0,0.04,0c3.313,0.021,5.982,2.725,5.961,6.039l-0.23,35.515
				C332.632,157.419,329.949,160.08,326.654,160.08z"/>
		</g>
	</g>
	<g>
		<g>
			<path class="st2" d="M372.537,197.799l-304.314-1.974c-4.418-0.029-7.977-3.634-7.948-8.052l0.108-16.608
				c0.029-4.418,3.634-7.977,8.052-7.948l304.314,1.974c4.418,0.029,7.977,3.634,7.948,8.052l-0.108,16.608
				C380.56,194.27,376.955,197.828,372.537,197.799z"/>
		</g>
	</g>
	<g>
		<g>
			<path class="st3" d="M101.281,183.746l0.052-8.021c0.044-6.79,5.584-12.258,12.373-12.214l-41.63-0.27
				c-6.43-0.042-11.676,5.137-11.717,11.566l-0.06,9.324c-0.042,6.43,5.137,11.676,11.566,11.717l41.63,0.27
				C106.705,196.075,101.237,190.535,101.281,183.746z"/>
		</g>
	</g>
	<g>
		<g>
			<path class="st2" d="M371.385,375.339l-304.314-1.974c-4.418-0.029-7.977-3.634-7.948-8.052l0.108-16.608
				c0.029-4.418,3.634-7.977,8.052-7.948l304.314,1.974c4.418,0.029,7.977,3.634,7.948,8.052l-0.108,16.608
				C379.408,371.81,375.803,375.368,371.385,375.339z"/>
		</g>
	</g>
	<g>
		<g>
			<path class="st3" d="M100.129,361.286l0.052-8.021c0.044-6.79,5.584-12.258,12.373-12.214l-41.63-0.27
				c-6.43-0.042-11.676,5.137-11.717,11.566l-0.06,9.324c-0.042,6.43,5.137,11.676,11.566,11.717l41.63,0.27
				C105.553,373.615,100.085,368.075,100.129,361.286z"/>
		</g>
	</g>
	<g>
		<g>
			<path class="st1" d="M363.567,187.639c-0.014,0-0.026,0-0.04,0l-62.833-0.407c-3.313-0.021-5.982-2.725-5.961-6.039
				s2.692-5.957,6.039-5.961l62.833,0.407c3.313,0.021,5.982,2.725,5.961,6.039C369.545,184.978,366.862,187.639,363.567,187.639z"
				/>
		</g>
	</g>
	<g>
		<g>
			<path class="st6" d="M324.823,442.397c-0.014,0-0.026,0-0.04,0c-3.313-0.021-5.982-2.725-5.961-6.039l0.23-35.515
				c0.021-3.314,2.715-5.94,6.039-5.961c3.313,0.021,5.982,2.725,5.961,6.039l-0.23,35.515
				C330.801,439.736,328.118,442.397,324.823,442.397z"/>
		</g>
	</g>
	<g>
		<g>
			<path class="st15" d="M404.848,308.696l-57.801-19.316c-4.601-1.538-9.608-1.32-14.059,0.612l-130.055,56.445
				c-4.98,2.161-7.265,7.951-5.104,12.931l34.438,79.348c2.161,4.98,7.951,7.265,12.931,5.104l130.055-56.445
				c4.45-1.931,8.029-5.44,10.049-9.851l25.368-55.412C413.103,316.798,410.39,310.549,404.848,308.696z"/>
		</g>
	</g>
	<g>
		<g>
			<path class="st12" d="M265.329,424.367l-34.438-79.348c-2.161-4.98,0.124-10.77,5.104-12.931l-33.061,14.349
				c-4.98,2.161-7.265,7.951-5.104,12.931l34.438,79.348c2.161,4.98,7.951,7.265,12.931,5.104l33.061-14.349
				C273.28,431.632,267.49,429.347,265.329,424.367z"/>
		</g>
	</g>
	<g>
		<g>
			<path class="st10" d="M414.383,250.448h-57.648l-0.109,16.762h57.757c12.348,0,22.392,10.045,22.392,22.392
				s-10.045,22.392-22.392,22.392h-26.485c-4.628,0-8.381,3.753-8.381,8.381c0,4.628,3.753,8.381,8.381,8.381h26.485
				c21.59,0,39.155-17.564,39.155-39.155S435.973,250.448,414.383,250.448z"/>
		</g>
	</g>
	<g>
		<g>
			<circle class="st1" cx="156.656" cy="134.321" r="15"/>
		</g>
	</g>
	<g>
		<g>
			<path class="st5" d="M227.616,325.93c-2.319,0-4.528-1.353-5.509-3.618c-1.316-3.041,0.081-6.573,3.122-7.89
				c18.193-7.877,15.895-16.058,15.787-16.402c0.042,0.134,0.076,0.203,0.076,0.203l11.135-4.473
				c0.309,0.767,7.209,18.938-22.23,31.684C229.221,325.771,228.412,325.93,227.616,325.93z"/>
		</g>
	</g>
	<g>
		<g>
			<g>
				<path class="st18" d="M258.624,408.119c-6.878,2.985-13.795,2.29-17.787-2.204c-1.336-1.505-0.751-3.893,1.095-4.694
					l2.026-0.879c1.139-0.494,2.426-0.149,3.271,0.76c1.977,2.124,5.064,2.943,8.902,1.277c4.785-2.077,6.36-5.816,4.828-9.345
					c-4.361-10.047-23.599,6.049-30.244-9.261c-3.167-7.297,0.662-14.359,9.154-18.045c6.422-2.787,12.509-2.185,16.556,1.76
					c1.519,1.481,1.024,4.043-0.922,4.887l-1.984,0.861c-1.076,0.467-2.352,0.292-3.196-0.523c-1.797-1.736-4.791-2.435-8.296-1.029
					c-3.999,1.594-6.218,4.831-4.48,8.838c4.075,9.39,23.54-6.023,30.133,9.168C270.382,395.909,267.894,404.096,258.624,408.119z"
					/>
			</g>
		</g>
		<g>
			<g>
				<path class="st18" d="M300.29,379.446l-13.507,5.862c-1.167,0.507-1.888,1.694-1.798,2.964l0.394,5.554
					c0.09,1.269-0.63,2.457-1.798,2.964l-1.262,0.548c-1.903,0.826-4.05-0.484-4.187-2.554l-2.754-41.731
					c-0.083-1.264,0.636-2.444,1.799-2.949l4.019-1.744c1.162-0.504,2.516-0.224,3.382,0.7l28.6,30.513
					c1.419,1.514,0.909,3.976-0.994,4.802l-1.322,0.574c-1.167,0.507-2.527,0.222-3.392-0.711l-3.787-4.081
					C302.817,379.225,301.458,378.94,300.29,379.446z M283.368,365.999l0.67,9.533c0.145,2.064,2.288,3.365,4.186,2.541l5.81-2.522
					c1.895-0.822,2.411-3.27,1.009-4.787l-6.48-7.012C286.639,361.673,283.169,363.173,283.368,365.999z"/>
			</g>
		</g>
		<g>
			<g>
				<path class="st18" d="M312.519,338.106l13.263,30.56c0.659,1.519,2.426,2.217,3.945,1.557l8.552-3.712
					c1.519-0.659,3.286,0.038,3.945,1.557l0,0c0.659,1.519-0.038,3.286-1.557,3.945l-15.37,6.671
					c-1.519,0.659-3.286-0.038-3.945-1.557l-15.651-36.062c-0.659-1.519,0.038-3.286,1.557-3.945l1.316-0.571
					C310.094,335.89,311.86,336.587,312.519,338.106z"/>
			</g>
		</g>
		<g>
			<g>
				<path class="st18" d="M353.66,323.519l-10.645,4.62c-1.519,0.659-2.217,2.426-1.557,3.945l2.907,6.699
					c0.659,1.519,2.426,2.217,3.945,1.557l8.85-3.841c1.519-0.659,3.286,0.038,3.945,1.557l0.026,0.059
					c0.659,1.519-0.038,3.286-1.557,3.945l-8.85,3.841c-1.519,0.659-2.217,2.426-1.557,3.945l3.141,7.236
					c0.659,1.519,2.426,2.217,3.945,1.557l10.645-4.62c1.519-0.659,3.286,0.038,3.945,1.557l0.026,0.06
					c0.659,1.519-0.038,3.286-1.557,3.945l-17.463,7.579c-1.519,0.659-3.286-0.038-3.945-1.557l-15.677-36.122
					c-0.659-1.519,0.038-3.286,1.557-3.945l17.463-7.579c1.519-0.659,3.286,0.038,3.945,1.557l0.026,0.059
					C355.876,321.094,355.179,322.86,353.66,323.519z"/>
			</g>
		</g>
	</g>
	<g>
		<g>
			<g>
				<path class="st20" d="M247.23,401.101c-0.846-0.909-2.133-1.254-3.271-0.76l-2.026,0.879c-1.846,0.801-2.432,3.19-1.095,4.694
					c3.935,4.43,10.712,5.161,17.492,2.323l-2.496-5.751C252.136,403.98,249.154,403.169,247.23,401.101z"/>
			</g>
		</g>
		<g>
			<g>
				<path class="st20" d="M237.55,380.522c-1.739-4.007,0.481-7.244,4.48-8.838c0.129-0.052,0.252-0.081,0.38-0.127l-2.532-5.833
					c-0.002,0.001-0.004,0.002-0.007,0.003c-8.492,3.686-12.321,10.748-9.154,18.045c3.987,9.187,12.507,7.067,19.628,6.071
					l-2.759-6.358C243.026,384.073,239.13,384.162,237.55,380.522z"/>
			</g>
		</g>
	</g>
</g>
</svg>
