<?xml version="1.0" encoding="utf-8"?>
<!-- Generator: Adobe Illustrator 22.1.0, SVG Export Plug-In . SVG Version: 6.00 Build 0)  -->
<svg version="1.1" id="Layer_1" xmlns="http://www.w3.org/2000/svg" xmlns:xlink="http://www.w3.org/1999/xlink" x="0px" y="0px"
	 viewBox="0 0 512 512" style="enable-background:new 0 0 512 512;" xml:space="preserve">
<style type="text/css">
	.st0{fill:#FFA730;}
	.st1{fill:#E58D23;}
	.st2{fill:#BF6C0D;}
	.st3{fill:#A56021;}
	.st4{fill:#FFD551;}
	.st5{fill:#FFF4C1;}
	.st6{fill:#FFC34C;}
	.st7{fill:#FFEA63;}
	.st8{fill:#FCE575;}
	.st9{fill:#FFB74B;}
	.st10{fill:#8C4C17;}
	.st11{fill:#F9BB32;}
	.st12{fill:#FF4B34;}
	.st13{fill:#FF9079;}
	.st14{fill:#FFDF74;}
	.st15{fill:#FF624B;}
	.st16{fill:#CCC033;}
	.st17{fill:#EACF32;}
	.st18{fill:#FFEACF;}
	.st19{fill:#99AF17;}
	.st20{fill:#FFD59A;}
	.st21{fill:#FCDA4F;}
	.st22{fill:#FCF9DE;}
	.st23{fill:#DB9C2E;}
</style>
<g>
	<g>
		<g>
			<path class="st4" d="M118.979,246.8c0,0-0.305-110.24,102.789-203.663c5.225-4.735,13.181-4.735,18.405,0
				C343.267,136.56,342.961,246.8,342.961,246.8l-0.333,0.025c0.198,2.719,0.333,5.454,0.333,8.223
				c0,61.851-50.14,111.991-111.991,111.991c-61.851,0-111.991-50.14-111.991-111.991c0-2.769,0.135-5.505,0.333-8.223
				L118.979,246.8z"/>
		</g>
	</g>
	<g>
		<g>
			<path class="st6" d="M184.073,255.048c0-2.769,0.135-5.505,0.333-8.223l-0.333-0.025c0,0-0.192-92.838,79.444-180.324
				c-7.141-7.845-14.86-15.652-23.344-23.34c-5.225-4.735-13.181-4.735-18.405,0C118.674,136.56,118.979,246.8,118.979,246.8
				l0.333,0.025c-0.197,2.718-0.333,5.454-0.333,8.223c0,61.851,50.14,111.991,111.991,111.991c11.322,0,22.245-1.696,32.547-4.82
				C217.543,348.274,184.073,305.577,184.073,255.048z"/>
		</g>
	</g>
	<g>
		<g>
			<path class="st10" d="M294.085,270.958c-9.422,0-17.087-7.665-17.087-17.087v-36.426c0-0.406-0.331-0.737-0.737-0.737h-16.35
				c-3.037,0-5.5-2.463-5.5-5.5s2.463-5.5,5.5-5.5h16.35c6.472,0,11.737,5.266,11.737,11.737v36.426c0,3.356,2.73,6.087,6.087,6.087
				c3.355,0,6.086-2.73,6.086-6.087v-50.81c0-1.466-0.554-2.86-1.559-3.928l-7.67-8.142c-2.082-2.212-1.979-5.692,0.232-7.775
				c2.212-2.082,5.69-1.978,7.775,0.232l7.669,8.142c2.935,3.115,4.552,7.189,4.552,11.471v50.81
				C311.171,263.293,303.506,270.958,294.085,270.958z"/>
		</g>
	</g>
	<g>
		<g>
			<path class="st10" d="M282.398,179.435c-1.271,0-2.549-0.438-3.587-1.333l-7.969-6.866l-10.614-1.172
				c-3.02-0.333-5.196-3.052-4.863-6.07c0.333-3.021,3.062-5.188,6.07-4.863l12.31,1.359c1.104,0.122,2.146,0.575,2.986,1.3
				l9.26,7.979c2.302,1.983,2.56,5.456,0.577,7.757C285.48,178.787,283.944,179.435,282.398,179.435z"/>
		</g>
	</g>
	<g>
		<g>
			<path class="st15" d="M266.885,284.483h-85.46V162.057c0-6.627,5.373-12,12-12h61.46c6.627,0,12,5.373,12,12V284.483z"/>
		</g>
	</g>
	<g>
		<g>
			<path class="st0" d="M309.227,179.232l-8.07-7.478c-0.203-0.188-0.46-0.317-0.741-0.371l-13.457-2.583
				c-0.182-0.035-0.363-0.034-0.538-0.007l-0.021-0.022l-0.032,0.031c-0.416,0.078-0.786,0.319-0.999,0.68
				c-0.087,0.149-0.139,0.307-0.162,0.468l-8.104,8.011c-0.917,0.906-0.929,2.388-0.026,3.309l13.932,14.216
				c0.902,0.921,2.377,0.933,3.294,0.026l9.212-9.107c0.089-0.053,0.173-0.112,0.249-0.182l5.463-5.062
				C309.802,180.627,309.802,179.764,309.227,179.232z M302.733,183.323L291.11,172.38l8.279,1.589l6.719,6.227L302.733,183.323z"/>
		</g>
	</g>
	<g>
		<g>
			<path class="st12" d="M204.92,150.057h-15.938c-4.173,0-7.556,3.383-7.556,7.556v126.869h15.663V157.889
				C197.089,153.564,200.595,150.057,204.92,150.057z"/>
		</g>
	</g>
	<g>
		<g>
			<path class="st13" d="M266.785,293.216h-85.26c-4.737,0-8.577-3.84-8.577-8.577v0c0-4.737,3.84-8.577,8.577-8.577h85.26
				c4.737,0,8.577,3.84,8.577,8.577v0C275.362,289.376,271.522,293.216,266.785,293.216z"/>
		</g>
	</g>
	<g>
		<g>
			<path class="st15" d="M188.612,290.083v-10.889c0-1.73,1.403-3.133,3.133-3.133h-15.663c-1.73,0-3.133,1.402-3.133,3.133v10.889
				c0,1.73,1.403,3.133,3.133,3.133h15.663C190.014,293.216,188.612,291.814,188.612,290.083z"/>
		</g>
	</g>
	<g>
		<g>
			<path class="st18" d="M254.528,199.336h-60.745c-1.657,0-3-1.343-3-3v-33.652c0-1.657,1.343-3,3-3h60.745c1.657,0,3,1.343,3,3
				v33.652C257.528,197.993,256.185,199.336,254.528,199.336z"/>
		</g>
	</g>
	<g>
		<g>
			<path class="st0" d="M238.561,192.167c0.345-1.372,0.5-2.82,0.431-4.314c-0.354-7.69-6.665-13.911-14.359-14.152
				c-8.422-0.265-15.332,6.484-15.332,14.846c0,1.25,0.156,2.463,0.447,3.623c0.138,0.551,0.644,0.93,1.211,0.93h26.388
				C237.918,193.099,238.423,192.718,238.561,192.167z"/>
		</g>
	</g>
	<g>
		<g>
			<path class="st12" d="M224.157,185.896c-0.729,0-1.452-0.317-1.946-0.929c-0.868-1.073-0.701-2.647,0.373-3.516l18.09-14.625
				c1.072-0.869,2.647-0.701,3.516,0.373c0.868,1.073,0.701,2.647-0.373,3.516l-18.09,14.625
				C225.265,185.714,224.709,185.896,224.157,185.896z"/>
		</g>
	</g>
	<g>
		<g>
			<path class="st20" d="M197.089,159.684h-3.306c-1.657,0-3,1.343-3,3v33.653c0,1.657,1.343,3,3,3h3.306V159.684z"/>
		</g>
	</g>
	<g>
		<g>
			<path class="st18" d="M220.819,347.89v-0.478c0-5.325,4.317-9.642,9.642-9.642h125.73c14.911,0,26.998,12.088,26.998,26.998
				v18.398H256.095C236.612,383.166,220.819,367.373,220.819,347.89z"/>
		</g>
	</g>
	<g>
		<g>
			<g>
				<rect x="383.189" y="383.167" class="st18" width="41.151" height="65.53"/>
			</g>
		</g>
		<g>
			<g>
				<path class="st18" d="M125.94,383.776l-59.466-59.466c-12.992-12.992-34.057-12.992-47.05,0c-4.736,4.736-4.736,12.415,0,17.151
					l106.035,106.035l54.708,22.973c4.21,1.7,8.713,2.297,13.162,1.746l189.86-23.52h0v-12.802v-52.728H125.94V383.776z"/>
			</g>
		</g>
	</g>
	<g>
		<g>
			<path class="st20" d="M401.381,431.515L401.381,431.515l-189.86,23.52c-4.449,0.551-8.952-0.046-13.162-1.746l-54.708-22.973
				L37.616,324.281c-2.35-2.35-3.531-5.424-3.549-8.504c-5.362,1.48-10.428,4.319-14.643,8.533c-4.736,4.736-4.736,12.415,0,17.151
				l106.035,106.035l54.708,22.973c4.21,1.7,8.713,2.297,13.162,1.746l189.86-23.52h0h41.151v-17.181H401.381z"/>
		</g>
	</g>
	<g>
		<g>
			<path class="st20" d="M241.031,347.514L241.031,347.514c0-5.382,4.363-9.745,9.745-9.745h-20.213
				c-5.382,0-9.745,4.363-9.745,9.745l0,0c0,19.69,15.962,35.652,35.652,35.652h20.213
				C256.993,383.167,241.031,367.205,241.031,347.514z"/>
		</g>
	</g>
	<g>
		<g>
			<path class="st16" d="M496.128,460.123h-91.022c-5.523,0-10-4.477-10-10v-88.597c0-5.523,4.477-10,10-10h91.022V460.123z"/>
		</g>
	</g>
	<g>
		<g>
			<path class="st19" d="M445.638,439.911c-5.582,0-10.106-4.525-10.106-10.106v-78.278h-30.319
				c-5.582,0-10.106,4.525-10.106,10.106v88.384c0,5.581,4.525,10.106,10.106,10.106h90.915v-20.213H445.638z"/>
		</g>
	</g>
	<g>
		<g>
			<circle class="st20" cx="368.03" cy="409.256" r="15.16"/>
		</g>
	</g>
	<g>
		<g>
			<circle class="st6" cx="257.528" cy="109.878" r="15"/>
		</g>
	</g>
	<g>
		<g>
			<path class="st8" d="M278.677,327.899c-2.836,0-5.357-2.019-5.893-4.908c-0.602-3.246,1.532-6.365,4.771-6.985
				c1.73-0.35,40.136-8.917,40.178-76.584c0.002-3.313,2.688-5.996,6-5.996c0.001,0,0.002,0,0.004,0
				c3.313,0.002,5.998,2.69,5.996,6.004c-0.025,40.335-13.218,62.101-24.281,73.258c-12.436,12.54-25.14,15.012-25.675,15.11
				C279.407,327.866,279.039,327.899,278.677,327.899z"/>
		</g>
	</g>
</g>
</svg>
