<?xml version="1.0" encoding="utf-8"?>
<!-- Generator: Adobe Illustrator 22.1.0, SVG Export Plug-In . SVG Version: 6.00 Build 0)  -->
<svg version="1.1" id="Layer_1" xmlns="http://www.w3.org/2000/svg" xmlns:xlink="http://www.w3.org/1999/xlink" x="0px" y="0px"
	 viewBox="0 0 512 512" style="enable-background:new 0 0 512 512;" xml:space="preserve">
<style type="text/css">
	.st0{fill:#FFA730;}
	.st1{fill:#E58D23;}
	.st2{fill:#BF6C0D;}
	.st3{fill:#A56021;}
	.st4{fill:#FFD551;}
	.st5{fill:#FFF4C1;}
	.st6{fill:#FFC34C;}
	.st7{fill:#FFEA63;}
	.st8{fill:#FCE575;}
	.st9{fill:#FFB74B;}
	.st10{fill:#8C4C17;}
	.st11{fill:#F9BB32;}
	.st12{fill:#FF4B34;}
	.st13{fill:#FF9079;}
	.st14{fill:#FFDF74;}
	.st15{fill:#FF624B;}
	.st16{fill:#CCC033;}
	.st17{fill:#EACF32;}
	.st18{fill:#FFEACF;}
	.st19{fill:#99AF17;}
	.st20{fill:#FFD59A;}
	.st21{fill:#FCDA4F;}
	.st22{fill:#FCF9DE;}
	.st23{fill:#DB9C2E;}
</style>
<g>
	<g>
		<g>
			<path class="st10" d="M188.073,198.08c-3.313,0-6-2.687-6-6v-33.394c0-7.947,6.465-14.413,14.413-14.413h164.189
				c3.313,0,6,2.687,6,6s-2.687,6-6,6H196.486c-1.33,0-2.413,1.083-2.413,2.413v33.394
				C194.073,195.394,191.387,198.08,188.073,198.08z"/>
		</g>
	</g>
	<g>
		<g>
			<path class="st21" d="M437.929,107.173h-54.984V74.819c0-4.418,3.582-8,8-8h38.984c4.418,0,8,3.582,8,8V107.173z"/>
		</g>
	</g>
	<g>
		<g>
			<path class="st6" d="M419.751,66.819h-28.393c-4.646,0-8.413,3.766-8.413,8.413v31.941h28.393V75.232
				C411.338,70.585,415.105,66.819,419.751,66.819z"/>
		</g>
	</g>
	<g>
		<g>
			<path class="st0" d="M470.716,191.868H350.159v-90.136c0-6.075,4.925-11,11-11h98.556c6.075,0,11,4.925,11,11V191.868z"/>
		</g>
	</g>
	<g>
		<g>
			<path class="st1" d="M403.79,90.732h-42.063c-6.388,0-11.567,5.179-11.567,11.567v89.569h42.063v-89.569
				C392.222,95.911,397.401,90.732,403.79,90.732z"/>
		</g>
	</g>
	<g>
		<g>
			<path class="st6" d="M267.57,149.584c-1.804-15.453-14.933-27.447-30.869-27.447h-1.115c-15.937,0-29.065,11.994-30.87,27.447
				h-0.219v3.642v19.811v20.918h63.293v-20.918v-19.811v-3.642H267.57z"/>
		</g>
	</g>
	<g>
		<g>
			<path class="st6" d="M338.992,149.584c-1.804-15.453-14.933-27.447-30.869-27.447h-1.115c-15.937,0-29.065,11.994-30.87,27.447
				h-0.219v3.642v19.811v20.918h63.293v-20.918v-19.811v-3.642H338.992z"/>
		</g>
	</g>
	<g>
		<g>
			<path class="st11" d="M231.838,153.226v-3.642h0.219c1.274-10.908,8.193-20.085,17.757-24.544
				c-3.985-1.858-8.426-2.903-13.113-2.903h-1.115c-15.937,0-29.065,11.994-30.87,27.447h-0.219v3.642v19.811v20.918h27.341v-20.918
				V153.226z"/>
		</g>
	</g>
	<g>
		<g>
			<path class="st11" d="M303.259,153.226v-3.642h0.219c1.274-10.908,8.193-20.085,17.757-24.544
				c-3.985-1.858-8.426-2.903-13.113-2.903h-1.115c-15.937,0-29.065,11.994-30.87,27.447h-0.219v3.642v19.811v20.918h27.341v-20.918
				V153.226z"/>
		</g>
	</g>
	<g>
		<g>
			<path class="st2" d="M411.315,151.162l-6.147,18.678c-1.641,4.987-6.298,8.357-11.549,8.357H270.65l122.821,0H188.812
				c-4.939,0-9.387-2.988-11.255-7.56l-20.189-49.414c-1.245-3.048-4.211-5.04-7.503-5.04H20.098c-5.863,0-9.786,6.032-7.409,11.392
				l49.963,112.635h291.004h117.27l4.545-14.35l24.065-67.349c1.886-5.279-2.027-10.833-7.633-10.833h-75.778
				C413.939,147.68,411.998,149.084,411.315,151.162z"/>
		</g>
	</g>
	<g>
		<g>
			<path class="st3" d="M62.463,240.211l13.082,29.493c3.249,7.325,10.51,12.047,18.523,12.047h245.405h32.421h70.012
				c8.834,0,16.65-5.723,19.317-14.145l0.065-0.205l9.715-27.19H62.463z"/>
		</g>
	</g>
	<g>
		<g>
			<g>
				<path class="st3" d="M72.677,116.184H20.098c-5.863,0-9.786,6.033-7.409,11.392l49.963,112.635h52.579L65.268,127.575
					C62.891,122.216,66.814,116.184,72.677,116.184z"/>
			</g>
		</g>
	</g>
	<g>
		<g>
			<path class="st10" d="M128.124,269.703l-13.082-29.492H62.463l13.082,29.492c3.249,7.325,10.51,12.047,18.523,12.047h52.579
				C138.633,281.75,131.373,277.028,128.124,269.703z"/>
		</g>
	</g>
	<g>
		<g>
			<path class="st6" d="M168.694,225.921h-23.901c-2.209,0-4-1.791-4-4v-15.769c0-2.209,1.791-4,4-4h23.901c2.209,0,4,1.791,4,4
				v15.769C172.694,224.13,170.903,225.921,168.694,225.921z"/>
		</g>
	</g>
	<g>
		<g>
			<path class="st6" d="M217.101,225.921H193.2c-2.209,0-4-1.791-4-4v-15.769c0-2.209,1.791-4,4-4h23.901c2.209,0,4,1.791,4,4
				v15.769C221.101,224.13,219.31,225.921,217.101,225.921z"/>
		</g>
	</g>
	<g>
		<g>
			<path class="st6" d="M266.025,225.921h-23.901c-2.209,0-4-1.791-4-4v-15.769c0-2.209,1.791-4,4-4h23.901c2.209,0,4,1.791,4,4
				v15.769C270.025,224.13,268.234,225.921,266.025,225.921z"/>
		</g>
	</g>
	<g>
		<g>
			<path class="st6" d="M316.535,225.921h-23.901c-2.209,0-4-1.791-4-4v-15.769c0-2.209,1.791-4,4-4h23.901c2.209,0,4,1.791,4,4
				v15.769C320.535,224.13,318.744,225.921,316.535,225.921z"/>
		</g>
	</g>
	<g>
		<g>
			<path class="st6" d="M367.385,225.921h-23.901c-2.209,0-4-1.791-4-4v-15.769c0-2.209,1.791-4,4-4h23.901c2.209,0,4,1.791,4,4
				v15.769C371.385,224.13,369.594,225.921,367.385,225.921z"/>
		</g>
	</g>
	<g>
		<g>
			<path class="st6" d="M415.792,225.921h-23.901c-2.209,0-4-1.791-4-4v-15.769c0-2.209,1.791-4,4-4h23.901c2.209,0,4,1.791,4,4
				v15.769C419.792,224.13,418.001,225.921,415.792,225.921z"/>
		</g>
	</g>
	<g>
		<g>
			<circle class="st3" cx="99.457" cy="141.3" r="15.774"/>
		</g>
	</g>
	<g>
		<g>
			<circle class="st3" cx="137.382" cy="164.294" r="15.774"/>
		</g>
	</g>
	<g>
		<g>
			<path class="st4" d="M257.583,167.28c-0.124,0-0.247-0.003-0.372-0.011c-3.308-0.202-5.825-3.047-5.623-6.354
				c0.727-11.898-6.14-14.851-6.926-15.148l0.112,0.039l3.77-11.393c0.667,0.221,16.34,5.659,15.022,27.234
				C263.372,164.829,260.729,167.28,257.583,167.28z"/>
		</g>
	</g>
	<g>
		<g>
			<path class="st4" d="M329.091,167.28c-0.124,0-0.247-0.003-0.372-0.011c-3.308-0.202-5.825-3.047-5.623-6.354
				c0.727-11.898-6.141-14.851-6.926-15.148l0.112,0.039l3.77-11.393c0.667,0.221,16.34,5.659,15.022,27.233
				C334.879,164.829,332.237,167.28,329.091,167.28z"/>
		</g>
	</g>
	<g>
		<g>
			<path class="st1" d="M475.243,188.357c-0.67,0-1.352-0.113-2.019-0.352c-3.12-1.115-4.746-4.548-3.631-7.669l3.249-9.093
				c1.115-3.121,4.549-4.748,7.669-3.631c3.12,1.115,4.746,4.548,3.631,7.669l-3.249,9.093
				C480.017,186.828,477.707,188.357,475.243,188.357z"/>
		</g>
	</g>
	<g>
		<g>
			<path class="st1" d="M450.931,258.242c-0.648,0-1.306-0.105-1.953-0.328c-3.133-1.078-4.799-4.493-3.721-7.626l17.239-50.089
				c1.079-3.133,4.491-4.799,7.626-3.721c3.133,1.078,4.799,4.493,3.721,7.626l-17.239,50.089
				C455.748,256.679,453.421,258.242,450.931,258.242z"/>
		</g>
	</g>
	<g>
		<g>
			<path class="st6" d="M456.852,143.479c-3.313,0-6-2.687-6-6v-30.307c0-3.313,2.687-6,6-6s6,2.687,6,6v30.307
				C462.852,140.792,460.165,143.479,456.852,143.479z"/>
		</g>
	</g>
	<g>
		<g>
			<g>
				<path class="st17" d="M489.819,246.576c-0.549,0-1.026,0.368-1.178,0.896c-4.898,16.957-16.739,28.92-30.577,28.92
					c-9.771,0-18.546-5.965-24.586-15.439c-1.983-3.11-6.587-3.11-8.569,0c-6.039,9.474-14.815,15.439-24.585,15.439
					c-10.006,0-18.966-6.256-25.013-16.13c-1.97-3.217-6.706-3.217-8.676,0c-6.048,9.874-15.008,16.13-25.013,16.13
					c-9.77,0-18.546-5.965-24.586-15.439c-1.983-3.11-6.587-3.11-8.569,0c-6.039,9.474-14.815,15.439-24.585,15.439
					c-9.771,0-18.546-5.965-24.586-15.439c-1.983-3.11-6.587-3.11-8.569,0c-6.039,9.474-14.815,15.439-24.585,15.439
					c-9.771,0-18.546-5.965-24.586-15.439c-1.983-3.11-6.587-3.11-8.569,0c-6.039,9.474-14.815,15.439-24.586,15.439
					c-9.77,0-18.546-5.965-24.586-15.439c-1.982-3.11-6.587-3.11-8.569,0c-6.039,9.474-14.815,15.439-24.585,15.439
					c-9.771,0-18.546-5.965-24.586-15.439c-1.982-3.11-6.587-3.11-8.569,0c-6.039,9.474-14.815,15.439-24.586,15.439
					c-14.08,0-26.094-12.387-30.828-29.816h-1.145v49.413v15.051v32.03h470.105v-32.03V295.99v-48.179
					C491.053,247.129,490.5,246.576,489.819,246.576z"/>
			</g>
		</g>
		<g>
			<g>
				<path class="st16" d="M489.819,289.943c-0.549,0-1.026,0.434-1.178,1.057c-4.898,20.011-16.739,34.13-30.577,34.13
					c-9.771,0-18.546-7.039-24.586-18.22c-1.983-3.671-6.587-3.671-8.569,0c-6.039,11.181-14.815,18.22-24.585,18.22
					c-10.006,0-18.966-7.382-25.013-19.035c-1.97-3.797-6.706-3.797-8.676,0c-6.048,11.653-15.008,19.035-25.013,19.035
					c-9.77,0-18.546-7.039-24.586-18.22c-1.983-3.671-6.587-3.671-8.569,0c-6.039,11.181-14.815,18.22-24.585,18.22
					c-9.771,0-18.546-7.039-24.586-18.22c-1.983-3.671-6.587-3.671-8.569,0c-6.039,11.181-14.815,18.22-24.585,18.22
					c-9.771,0-18.546-7.039-24.586-18.22c-1.983-3.671-6.587-3.671-8.569,0c-6.039,11.181-14.815,18.22-24.586,18.22
					c-9.77,0-18.546-7.039-24.586-18.22c-1.982-3.671-6.587-3.671-8.569,0c-6.039,11.181-14.815,18.22-24.585,18.22
					c-9.771,0-18.546-7.039-24.586-18.22c-1.982-3.671-6.587-3.671-8.569,0c-6.039,11.181-14.815,18.22-24.586,18.22
					c-14.08,0-26.094-14.617-30.828-35.186h-1.145v58.447v17.629v31.419h470.105v-31.419v-17.629v-56.991
					C491.053,290.595,490.5,289.943,489.819,289.943z"/>
			</g>
		</g>
		<g>
			<g>
				<path class="st19" d="M489.819,339.728c-0.549,0-1.026,0.426-1.178,1.037c-4.898,19.631-16.739,33.481-30.577,33.481
					c-9.771,0-18.546-6.905-24.585-17.874c-1.857-3.373-6.712-3.373-8.569,0c-6.039,10.968-14.815,17.874-24.585,17.874
					c-10.005,0-18.965-7.242-25.013-18.673c-1.811-3.424-6.866-3.424-8.677,0c-6.048,11.431-15.008,18.673-25.013,18.673
					c-9.77,0-18.546-6.905-24.585-17.874c-1.857-3.373-6.712-3.373-8.569,0c-6.039,10.968-14.815,17.874-24.585,17.874
					c-9.771,0-18.546-6.905-24.586-17.874c-1.857-3.373-6.712-3.373-8.569,0c-6.039,10.968-14.815,17.874-24.585,17.874
					c-9.771,0-18.546-6.905-24.586-17.874c-1.857-3.373-6.712-3.373-8.569,0c-6.039,10.968-14.815,17.874-24.585,17.874
					c-9.77,0-18.546-6.905-24.585-17.874c-1.857-3.373-6.712-3.373-8.569,0c-6.039,10.968-14.815,17.874-24.585,17.874
					c-9.771,0-18.546-6.905-24.585-17.874c-1.857-3.373-6.712-3.373-8.569,0c-6.039,10.968-14.815,17.874-24.585,17.874
					c-14.08,0-26.094-14.34-30.828-34.518h-1.145v57.337v17.295v21.246c0,5.289,4.371,9.576,9.762,9.576h450.582
					c5.391,0,9.762-4.288,9.762-9.576v-21.246v-17.295v-55.908C491.053,340.367,490.5,339.728,489.819,339.728z"/>
			</g>
		</g>
	</g>
</g>
</svg>
