<svg xmlns="http://www.w3.org/2000/svg" width="128" height="128" viewBox="0 0 128 128">
  <title>SOCIAL MARKETING</title>
  <g>
    <polygon points="95.984 33.74 104.416 34.799 104.416 48.441 95.984 49.5 95.984 33.74" fill="#50758d"/>
    <rect x="40.359" y="61.314" width="11.99" height="16.441" fill="#50758d"/>
    <path d="M6.307,83.248H20.2L24.93,80.1a14,14,0,0,1,7.757-2.346H68.105A5.492,5.492,0,0,1,73.6,83.248h0a5.492,5.492,0,0,1-5.492,5.492h-1A5.492,5.492,0,0,1,72.6,94.232h0a5.492,5.492,0,0,1-5.492,5.492h-1a5.492,5.492,0,0,1,5.492,5.492h0a5.492,5.492,0,0,1-5.492,5.493h-1A5.492,5.492,0,0,1,70.6,116.2h0a5.492,5.492,0,0,1-5.492,5.492H32.687a13.992,13.992,0,0,1-7.757-2.346L20.2,116.2H6.307Z" fill="#ffc682"/>
    <path d="M63.875,61.314H39.9A19.694,19.694,0,0,1,20.2,41.62h0A19.7,19.7,0,0,1,39.9,21.926H63.875Z" fill="#fd646f"/>
    <polygon points="95.984 76.934 63.875 61.314 63.875 21.926 95.984 6.307 95.984 76.934" fill="#93ddb7"/>
    <path d="M121.693,43.37h-8.924a1.75,1.75,0,0,1,0-3.5h8.924a1.75,1.75,0,0,1,0,3.5Z" fill="#50758d"/>
    <path d="M119.143,56.292a1.756,1.756,0,0,1-.665-.132l-7.782-3.2a1.75,1.75,0,0,1,1.33-3.237l7.783,3.2a1.75,1.75,0,0,1-.666,3.369Z" fill="#50758d"/>
    <path d="M113.793,67.671a1.745,1.745,0,0,1-1.092-.382l-6.162-4.926a1.75,1.75,0,1,1,2.186-2.734l6.162,4.925a1.75,1.75,0,0,1-1.094,3.117Z" fill="#50758d"/>
    <path d="M111.362,33.648a1.75,1.75,0,0,1-.666-3.369l7.782-3.2a1.75,1.75,0,0,1,1.331,3.237l-7.783,3.2A1.746,1.746,0,0,1,111.362,33.648Z" fill="#50758d"/>
    <path d="M107.633,24a1.75,1.75,0,0,1-1.094-3.117l6.162-4.926a1.75,1.75,0,1,1,2.186,2.733l-6.162,4.926A1.739,1.739,0,0,1,107.633,24Z" fill="#50758d"/>
  </g>
</svg>
