<?xml version="1.0" encoding="utf-8"?>
<!-- Generator: Adobe Illustrator 22.1.0, SVG Export Plug-In . SVG Version: 6.00 Build 0)  -->
<svg version="1.1" id="Layer_1" xmlns="http://www.w3.org/2000/svg" xmlns:xlink="http://www.w3.org/1999/xlink" x="0px" y="0px"
	 viewBox="0 0 512 512" style="enable-background:new 0 0 512 512;" xml:space="preserve">
<style type="text/css">
	.st0{fill:#FFA730;}
	.st1{fill:#E58D23;}
	.st2{fill:#BF6C0D;}
	.st3{fill:#A56021;}
	.st4{fill:#FFD551;}
	.st5{fill:#FFF4C1;}
	.st6{fill:#FFC34C;}
	.st7{fill:#FFEA63;}
	.st8{fill:#FCE575;}
	.st9{fill:#FFB74B;}
	.st10{fill:#8C4C17;}
	.st11{fill:#F9BB32;}
	.st12{fill:#FF4B34;}
	.st13{fill:#FF9079;}
	.st14{fill:#FFDF74;}
	.st15{fill:#FF624B;}
	.st16{fill:#CCC033;}
	.st17{fill:#EACF32;}
	.st18{fill:#FFEACF;}
	.st19{fill:#99AF17;}
	.st20{fill:#FFD59A;}
	.st21{fill:#FCDA4F;}
	.st22{fill:#FCF9DE;}
	.st23{fill:#DB9C2E;}
</style>
<g>
	<g>
		<g>
			<rect x="222.981" y="311.368" class="st2" width="66.037" height="138.327"/>
		</g>
	</g>
	<g>
		<g>
			<rect x="222.981" y="311.369" class="st3" width="30" height="138.327"/>
		</g>
	</g>
	<g>
		<g>
			<path class="st9" d="M306.4,478.959H205.6c-5.523,0-10-4.477-10-10v-21.228c0-5.523,4.477-10,10-10h100.8c5.523,0,10,4.477,10,10
				v21.228C316.4,474.482,311.923,478.959,306.4,478.959z"/>
		</g>
	</g>
	<g>
		<g>
			<g>
				<circle class="st8" cx="255.984" cy="149.573" r="67.541"/>
			</g>
		</g>
		<g>
			<g>
				<path class="st21" d="M188.152,210.323l-14.478,14.478c-2.022,2.022-2.129,5.444-0.011,7.364
					c0.942,0.854,2.133,1.281,3.324,1.281c1.268,0,2.535-0.484,3.503-1.451l14.666-14.666c1.899-1.899,1.852-4.957-0.047-6.856
					c-0.032-0.032-0.064-0.064-0.096-0.096C193.116,208.472,190.053,208.422,188.152,210.323z"/>
			</g>
		</g>
		<g>
			<g>
				<path class="st21" d="M216.62,231.71l-7.806,18.854c-1.022,2.469-0.071,5.43,2.34,6.584c0.696,0.333,1.426,0.489,2.143,0.489
					c1.944,0,3.789-1.152,4.579-3.06l7.898-19.079c1.03-2.487-0.193-5.3-2.683-6.322c-0.041-0.017-0.083-0.034-0.124-0.051
					C220.486,228.103,217.647,229.23,216.62,231.71z"/>
			</g>
		</g>
		<g>
			<g>
				<path class="st21" d="M255.983,235.688c-0.019,0-0.038,0-0.057,0c-2.691-0.002-4.896,2.124-4.896,4.815l0,20.452
					c0,2.587,1.891,4.897,4.466,5.143c2.954,0.282,5.44-2.034,5.44-4.93v-20.665c0-2.691-2.204-4.817-4.896-4.815
					C256.022,235.688,256.003,235.688,255.983,235.688z"/>
			</g>
		</g>
		<g>
			<g>
				<path class="st21" d="M289.011,229.113c-0.041,0.017-0.083,0.034-0.124,0.051c-2.489,1.022-3.711,3.835-2.681,6.321
					l7.904,19.092c0.79,1.908,2.634,3.06,4.578,3.06c0.721,0,1.455-0.158,2.155-0.495c2.403-1.156,3.348-4.112,2.328-6.576
					l-7.812-18.869C294.333,229.217,291.492,228.09,289.011,229.113z"/>
			</g>
		</g>
		<g>
			<g>
				<path class="st21" d="M316.91,210.41c-0.032,0.032-0.064,0.064-0.096,0.096c-1.902,1.898-1.95,4.959-0.05,6.859l14.622,14.622
					c0.967,0.967,2.235,1.451,3.503,1.451c1.191,0,2.382-0.427,3.324-1.281c2.119-1.92,2.011-5.342-0.011-7.364l-14.433-14.433
					C321.869,208.461,318.808,208.509,316.91,210.41z"/>
			</g>
		</g>
		<g>
			<g>
				<path class="st21" d="M360.771,187.648l-18.88-7.824c-2.486-1.03-5.3,0.19-6.323,2.679c-0.017,0.041-0.034,0.083-0.051,0.124
					c-1.024,2.481,0.102,5.321,2.581,6.349l19.085,7.91c0.62,0.257,1.262,0.379,1.894,0.379c2.076,0,4.038-1.313,4.724-3.457
					C364.599,191.318,363.184,188.648,360.771,187.648z"/>
			</g>
		</g>
		<g>
			<g>
				<path class="st21" d="M367.362,144.632h-20.445c-2.691,0-4.817,2.204-4.815,4.896c0,0.017,0,0.033,0,0.05
					c0,0.022,0,0.044,0,0.065c-0.002,2.691,2.124,4.896,4.815,4.896h20.658c2.896,0,5.212-2.485,4.93-5.44
					C372.26,146.524,369.95,144.632,367.362,144.632z"/>
			</g>
		</g>
		<g>
			<g>
				<path class="st21" d="M363.83,105.464c-0.87-2.837-3.959-4.247-6.636-3.14l-19.075,7.897c-2.479,1.026-3.606,3.866-2.584,6.346
					c0.017,0.041,0.034,0.083,0.051,0.124c1.021,2.49,3.835,3.713,6.322,2.683l18.879-7.816
					C363.177,110.569,364.588,107.938,363.83,105.464z"/>
			</g>
		</g>
		<g>
			<g>
				<path class="st21" d="M323.779,88.795l14.418-14.418c1.896-1.896,2.175-5.016,0.38-7.009c-1.915-2.125-5.191-2.19-7.189-0.193
					L316.774,81.79c-1.9,1.9-1.852,4.961,0.049,6.859c0.032,0.032,0.064,0.064,0.096,0.096
					C318.818,90.647,321.879,90.696,323.779,88.795z"/>
			</g>
		</g>
		<g>
			<g>
				<path class="st21" d="M295.381,67.461l7.851-18.945c0.905-2.183,0.249-4.779-1.709-6.101c-2.695-1.819-6.213-0.658-7.392,2.184
					l-7.903,19.069c-1.03,2.486,0.19,5.3,2.679,6.323c0.041,0.017,0.083,0.034,0.124,0.051
					C291.513,71.066,294.353,69.94,295.381,67.461z"/>
			</g>
		</g>
		<g>
			<g>
				<path class="st21" d="M255.983,63.459c0.019,0,0.039,0,0.058,0c2.691,0.002,4.896-2.124,4.896-4.815V38.207
					c0-2.587-1.891-4.897-4.466-5.143c-2.954-0.282-5.44,2.034-5.44,4.93v20.65c0,2.691,2.205,4.817,4.896,4.815
					C255.945,63.459,255.964,63.459,255.983,63.459z"/>
			</g>
		</g>
		<g>
			<g>
				<path class="st21" d="M169.865,149.577c0-0.017,0-0.033,0-0.05c0.002-2.691-2.124-4.896-4.815-4.896h-20.533
					c-2.587,0-4.898,1.892-5.143,4.467c-0.282,2.954,2.034,5.44,4.93,5.44h20.746c2.691,0,4.817-2.205,4.815-4.896
					C169.865,149.621,169.865,149.599,169.865,149.577z"/>
			</g>
		</g>
		<g>
			<g>
				<path class="st21" d="M170.076,179.823l-18.861,7.816c-2.414,1-3.828,3.671-3.031,6.16c0.687,2.144,2.649,3.456,4.724,3.456
					c0.632,0,1.275-0.122,1.894-0.379l19.066-7.902c2.479-1.027,3.605-3.868,2.581-6.349c-0.017-0.041-0.034-0.083-0.051-0.124
					C175.375,180.013,172.562,178.793,170.076,179.823z"/>
			</g>
		</g>
		<g>
			<g>
				<path class="st21" d="M222.953,70.035c0.041-0.017,0.083-0.034,0.124-0.051c2.49-1.022,3.712-3.837,2.681-6.323l-7.822-18.873
					c-0.99-2.39-3.623-3.8-6.096-3.04c-2.837,0.871-4.246,3.962-3.138,6.637l7.902,19.068
					C217.633,69.932,220.473,71.058,222.953,70.035z"/>
			</g>
		</g>
		<g>
			<g>
				<path class="st21" d="M195.007,88.786c0.032-0.032,0.064-0.064,0.096-0.096c1.898-1.899,1.945-4.957,0.046-6.856l-14.567-14.567
					c-1.672-1.672-4.323-2.056-6.293-0.748c-2.709,1.799-2.977,5.489-0.804,7.662l14.659,14.659
					C190.046,90.741,193.109,90.691,195.007,88.786z"/>
			</g>
		</g>
		<g>
			<g>
				<path class="st21" d="M176.438,116.555c1.023-2.481-0.104-5.321-2.584-6.347l-19.062-7.891
					c-2.675-1.109-5.768,0.303-6.636,3.141c-0.757,2.474,0.656,5.105,3.047,6.095l18.862,7.808c2.487,1.029,5.3-0.192,6.322-2.682
					C176.404,116.637,176.421,116.596,176.438,116.555z"/>
			</g>
		</g>
		<g>
			<g>
				<path class="st21" d="M228.443,149.573c0-30.282,20.032-55.972,47.541-64.517c-6.323-1.964-13.04-3.024-20-3.024
					c-37.242,0-67.541,30.299-67.541,67.541s30.299,67.541,67.541,67.541c6.96,0,13.677-1.06,20-3.024
					C248.475,205.545,228.443,179.855,228.443,149.573z"/>
			</g>
		</g>
	</g>
	<g>
		<g>
			<path class="st3" d="M445.925,364.36H66.075c-12.925,0-22.209-12.441-18.529-24.832L95.66,177.515
				c2.436-8.202,9.973-13.826,18.529-13.826h283.622c8.556,0,16.093,5.625,18.529,13.826l48.114,162.013
				C468.134,351.918,458.851,364.36,445.925,364.36z"/>
		</g>
	</g>
	<g>
		<g>
			<path class="st10" d="M106.075,344.36c-12.925,0-22.209-12.441-18.529-24.832l46.281-155.839h-19.637
				c-8.556,0-16.093,5.625-18.529,13.826L47.546,339.528c-3.68,12.39,5.604,24.832,18.529,24.832h379.851
				c11.236,0,19.715-9.403,19.323-20H106.075z"/>
		</g>
	</g>
	<g>
		<g>
			<path class="st1" d="M73.05,329.088l40.46-136.241c1.353-4.556,5.541-7.681,10.294-7.681h264.392
				c4.753,0,8.941,3.125,10.294,7.681l40.459,136.241c2.044,6.884-3.113,13.795-10.294,13.795H83.344
				C76.163,342.883,71.006,335.971,73.05,329.088z"/>
		</g>
	</g>
	<g>
		<g>
			<path class="st2" d="M83.344,342.883h15.304c-8.765-3.645-14.026-13.512-11.103-23.355l39.902-134.362h-3.644
				c-4.753,0-8.941,3.125-10.294,7.681L73.05,329.088C71.006,335.971,76.163,342.883,83.344,342.883z"/>
		</g>
	</g>
	<g>
		<g>
			<path class="st0" d="M365.443,332.541l-10.073-53.682c-0.248-1.322,0.766-2.544,2.111-2.544h55.233
				c0.951,0,1.788,0.625,2.059,1.536l15.942,53.681c0.254,0.854-0.043,1.502-0.337,1.896c-0.295,0.394-0.832,0.863-1.722,0.863
				h-61.102C366.521,334.292,365.634,333.556,365.443,332.541z"/>
		</g>
	</g>
	<g>
		<g>
			<path class="st0" d="M111.046,230.846l10.699-36.026c0.271-0.911,1.108-1.536,2.059-1.536h53.494
				c1.345,0,2.359,1.222,2.111,2.544l-6.759,36.026c-0.191,1.016-1.077,1.752-2.111,1.752h-57.434
				C111.669,233.605,110.637,232.222,111.046,230.846z"/>
		</g>
	</g>
	<g>
		<g>
			<path class="st0" d="M346.64,232.327l-6.76-36.026c-0.248-1.322,0.766-2.544,2.111-2.544h46.206c0.951,0,1.788,0.625,2.059,1.536
				l10.699,36.026c0.409,1.377-0.623,2.759-2.059,2.759H348.75C347.717,234.078,346.83,233.342,346.64,232.327z"/>
		</g>
	</g>
	<g>
		<g>
			<path class="st0" d="M215.772,231.534l6.76-36.026c0.191-1.016,1.077-1.752,2.111-1.752h70.002c1.033,0,1.92,0.736,2.111,1.752
				l6.759,36.026c0.248,1.322-0.766,2.544-2.111,2.544h-83.522C216.538,234.078,215.524,232.856,215.772,231.534z"/>
		</g>
	</g>
	<g>
		<g>
			<path class="st0" d="M83.344,333.819c-0.89,0-1.428-0.47-1.722-0.863c-0.294-0.394-0.591-1.043-0.338-1.896l15.943-53.681
				c0.271-0.911,1.108-1.536,2.059-1.536h62.521c1.345,0,2.359,1.222,2.111,2.544l-10.072,53.682
				c-0.191,1.016-1.077,1.752-2.111,1.752H83.344z"/>
		</g>
	</g>
	<g>
		<g>
			<path class="st0" d="M196.969,331.749l10.073-53.682c0.191-1.016,1.077-1.752,2.111-1.752h100.984
				c1.033,0,1.92,0.736,2.111,1.752l10.073,53.682c0.248,1.322-0.766,2.544-2.111,2.544H199.08
				C197.735,334.292,196.721,333.07,196.969,331.749z"/>
		</g>
	</g>
	<g>
		<g>
			<polygon class="st2" points="160.646,342.883 186.14,342.883 215.732,185.166 190.239,185.166 			"/>
		</g>
	</g>
	<g>
		<g>
			<polygon class="st2" points="333.149,342.883 358.643,342.883 329.05,185.166 303.557,185.166 			"/>
		</g>
	</g>
	<g>
		<g>
			<polygon class="st2" points="91.213,265.552 420.666,265.552 413.225,240.496 98.654,240.496 			"/>
		</g>
	</g>
	<g>
		<g>
			<polygon class="st10" points="98.654,240.496 91.213,265.552 101.213,265.552 108.654,240.496 			"/>
		</g>
	</g>
	<g>
		<g>
			<path class="st0" d="M235.6,461.731c0-5.523,4.477-10,10-10h70.8v-4c0-5.523-4.477-10-10-10H205.6c-5.523,0-10,4.477-10,10
				v21.228c0,5.523,4.477,10,10,10h30V461.731z"/>
		</g>
	</g>
	<g>
		<g>
			<circle class="st2" cx="109.718" cy="312.682" r="15"/>
		</g>
	</g>
	<g>
		<g>
			<path class="st2" d="M419.663,234.751c-2.637,0-5.054-1.751-5.784-4.418l-10.727-39.205c-0.875-3.196,1.007-6.496,4.204-7.371
				c3.196-0.873,6.497,1.008,7.371,4.204l10.727,39.205c0.875,3.196-1.007,6.496-4.204,7.371
				C420.72,234.682,420.187,234.751,419.663,234.751z"/>
		</g>
	</g>
	<g>
		<g>
			<path class="st1" d="M275.983,422.613c-3.313,0-6-2.687-6-6v-30.617c0-3.313,2.687-6,6-6s6,2.687,6,6v30.617
				C281.983,419.926,279.297,422.613,275.983,422.613z"/>
		</g>
	</g>
	<g>
		<g>
			<path class="st5" d="M308.576,157.318c-0.214,0-0.43-0.011-0.648-0.035c-3.295-0.354-5.679-3.312-5.325-6.606
				c1.356-12.629-2.575-23.107-11.686-31.145c-6.877-6.068-14.281-8.493-14.354-8.516c-3.163-0.989-4.925-4.355-3.936-7.517
				c0.99-3.163,4.358-4.924,7.518-3.935c13.391,4.188,37.811,20.529,34.389,52.395C314.204,155.036,311.602,157.318,308.576,157.318
				z"/>
		</g>
	</g>
</g>
</svg>
