<?xml version="1.0" encoding="utf-8"?>
<!-- Generator: Adobe Illustrator 22.1.0, SVG Export Plug-In . SVG Version: 6.00 Build 0)  -->
<svg version="1.1" id="Layer_1" xmlns="http://www.w3.org/2000/svg" xmlns:xlink="http://www.w3.org/1999/xlink" x="0px" y="0px"
	 viewBox="0 0 512 512" style="enable-background:new 0 0 512 512;" xml:space="preserve">
<style type="text/css">
	.st0{fill:#FFA730;}
	.st1{fill:#E58D23;}
	.st2{fill:#BF6C0D;}
	.st3{fill:#A56021;}
	.st4{fill:#FFD551;}
	.st5{fill:#FFF4C1;}
	.st6{fill:#FFC34C;}
	.st7{fill:#FFEA63;}
	.st8{fill:#FCE575;}
	.st9{fill:#FFB74B;}
	.st10{fill:#8C4C17;}
	.st11{fill:#F9BB32;}
	.st12{fill:#FF4B34;}
	.st13{fill:#FF9079;}
	.st14{fill:#FFDF74;}
	.st15{fill:#FF624B;}
	.st16{fill:#CCC033;}
	.st17{fill:#EACF32;}
	.st18{fill:#FFEACF;}
	.st19{fill:#99AF17;}
	.st20{fill:#FFD59A;}
	.st21{fill:#FCDA4F;}
	.st22{fill:#FCF9DE;}
	.st23{fill:#DB9C2E;}
</style>
<g>
	<g>
		<g>
			<path class="st6" d="M405.992,428.223H177.519c-5.523,0-10-4.477-10-10v-12.72h248.473v12.72
				C415.992,423.746,411.515,428.223,405.992,428.223z"/>
		</g>
	</g>
	<g>
		<g>
			<path class="st11" d="M340.56,418.224v-12.721H167.519v12.721c0,5.522,4.477,10,10,10H330.56
				C336.083,428.224,340.56,423.746,340.56,418.224z"/>
		</g>
	</g>
	<g>
		<g>
			<path class="st9" d="M373.849,194.96v-61.341c0-4.418-3.582-8-8-8H217.662c-4.418,0-8,3.582-8,8v61.341l-42.143,210.542h248.473
				L373.849,194.96z"/>
		</g>
	</g>
	<g>
		<g>
			<path class="st0" d="M292.59,125.619h-74.929c-4.418,0-8,3.582-8,8v61.341l-42.143,210.542H340.56l-47.97-242.797V125.619z"/>
		</g>
	</g>
	<g>
		<g>
			<path class="st1" d="M266.59,162.706V91.777c0-4.418-3.582-8-8-8H87.7c-4.418,0-8,3.582-8,8v70.929L31.73,405.503H314.56
				L266.59,162.706z"/>
		</g>
	</g>
	<g>
		<g>
			<path class="st0" d="M304.56,428.223H41.73c-5.523,0-10-4.477-10-10v-12.72H314.56v12.72
				C314.56,423.746,310.083,428.223,304.56,428.223z"/>
		</g>
	</g>
	<g>
		<g>
			<path class="st2" d="M129.7,91.777c0-4.418,3.582-8,8-8h-50c-4.418,0-8,3.582-8,8v70.929L31.73,405.503h50l47.97-242.797V91.777z
				"/>
		</g>
	</g>
	<g>
		<g>
			<path class="st1" d="M81.73,418.224v-12.721h-50v12.721c0,5.522,4.477,10,10,10h50C86.207,428.224,81.73,423.746,81.73,418.224z"
				/>
		</g>
	</g>
	<g>
		<g>
			<path class="st0" d="M255.993,237.001c-2.874,0-5.413-2.071-5.909-5l-9.667-57.127c-0.056-0.331-0.084-0.666-0.084-1.001V128.21
				c0-3.314,2.687-6,6-6s6,2.686,6,6v45.159l9.583,56.631c0.553,3.267-1.648,6.364-4.915,6.917
				C256.663,236.973,256.325,237.001,255.993,237.001z"/>
		</g>
	</g>
	<g>
		<g>
			<path class="st6" d="M366.994,246.876c-2.794,0-5.296-1.963-5.874-4.807l-9.667-47.61c-0.08-0.393-0.12-0.793-0.12-1.194V155.21
				c0-3.314,2.687-6,6-6s6,2.686,6,6v37.452l9.546,47.019c0.66,3.248-1.438,6.415-4.686,7.074
				C367.791,246.837,367.389,246.876,366.994,246.876z"/>
		</g>
	</g>
	<g>
		<g>
			<circle class="st2" cx="122.7" cy="349.292" r="15"/>
		</g>
	</g>
	<g>
		<g>
			<circle class="st2" cx="160.938" cy="380.532" r="15"/>
		</g>
	</g>
	<g>
		<g>
			<circle class="st0" cx="362.167" cy="373.027" r="15"/>
		</g>
	</g>
</g>
</svg>
